<svg width="138" height="87" viewBox="0 0 138 87" fill="none" xmlns="http://www.w3.org/2000/svg">
<rect x="1" y="1" width="136" height="85" fill="white" stroke="black" stroke-width="2"/>
<path d="M65.3812 56.2953C65.8132 56.2593 66.1372 56.0793 66.1372 55.7553C66.1372 55.3233 64.8412 53.9553 64.0132 53.9553C63.9412 53.9553 63.8692 53.9553 63.7972 53.9913C62.8612 54.2793 62.5372 54.3153 61.8532 54.3513L54.4372 54.5673L54.4732 51.1113L62.3212 50.7873C62.7172 50.7513 63.0772 50.6073 63.0772 50.2833C63.0772 49.6353 61.5652 48.5913 60.9892 48.5913C60.8812 48.5913 60.7732 48.5913 60.7012 48.6273C60.0172 48.8793 59.4772 48.9153 58.7932 48.9513L54.4732 49.1313V43.3713L57.6052 43.2273C57.3172 44.5593 56.9932 45.9273 56.6332 47.2233C56.5612 47.4033 56.5612 47.5833 56.5612 47.6913C56.5612 48.0153 56.6692 48.1593 56.8492 48.1593C57.7492 48.1593 58.8292 45.1353 59.4412 43.1193L64.8772 42.8313H64.9852C65.3452 42.7953 65.5972 42.6153 65.5972 42.3633C65.5972 41.8233 64.4452 40.7073 63.5812 40.7073C63.4732 40.7073 63.3652 40.7073 63.2572 40.7433C62.5732 41.0313 62.0332 41.0673 61.3492 41.1033L59.9812 41.1753C60.1972 40.2393 60.4492 39.2673 60.6292 38.3673C60.6292 38.2953 60.6652 38.2593 60.6652 38.2233C60.6652 37.9353 60.4492 37.6833 59.6212 37.2513C59.0092 36.9633 58.5772 36.8193 58.3252 36.8193C58.1092 36.8193 58.0012 36.9273 58.0012 37.1073C58.0012 37.1793 58.0372 37.2873 58.0732 37.4313C58.2532 37.8273 58.2892 38.1873 58.2892 38.4753V38.7273C58.2172 39.5193 58.1092 40.3833 57.9652 41.2833L54.5092 41.4633V36.2073L63.6172 35.6313C64.0132 35.5953 64.3012 35.4873 64.3012 35.1993C64.3012 34.7313 63.1492 33.4353 62.3212 33.4353C62.1772 33.4353 62.0692 33.4713 61.9612 33.5073C61.2412 33.7593 60.7012 33.8673 60.0172 33.9033L54.5092 34.2633L54.5452 30.5553C56.8132 29.9793 58.9372 29.3313 60.6652 28.6833C60.8092 28.6473 60.9172 28.5033 60.9172 28.2873C60.9172 27.6393 59.8012 25.9473 59.2612 25.9473C59.1172 25.9473 59.0092 26.0553 58.9012 26.2353C58.6852 26.6673 58.2892 26.9553 58.0012 27.0993C54.4732 28.6833 50.0092 30.3393 44.9692 31.3833C44.4652 31.4913 44.2132 31.7073 44.2132 31.9233C44.2132 32.1033 44.4652 32.2473 44.8972 32.2473H45.1132C47.5252 32.0313 50.0452 31.5993 52.4212 31.0593L52.3852 34.3713L45.8692 34.8033C45.6532 34.8033 45.4732 34.8393 45.2572 34.8393C44.8252 34.8393 44.3932 34.7673 43.8532 34.6593C43.7452 34.6233 43.6372 34.6233 43.5652 34.6233C43.4212 34.6233 43.3492 34.6593 43.3492 34.8033C43.3492 34.9473 43.7092 36.7833 45.5092 36.7833C45.9052 36.7833 46.3732 36.7473 46.8772 36.7113L52.3852 36.3513L52.3492 41.5713L49.2172 41.7153L48.9292 38.4033C48.9292 38.1873 48.7852 37.9353 47.8132 37.7553C47.4172 37.6833 47.0932 37.6473 46.8412 37.6473C46.5532 37.6473 46.3732 37.7193 46.3732 37.8633C46.3732 37.9713 46.4452 38.1153 46.5892 38.2953C46.8052 38.5833 46.9852 39.1233 47.0212 39.5553L47.2012 41.8233L45.4732 41.9313H45.1132C44.6452 41.9313 44.0332 41.8953 43.4572 41.7513C43.3852 41.7153 43.3132 41.7153 43.2412 41.7153C43.0612 41.7153 42.9892 41.7873 42.9892 41.9673C42.9892 42.1833 43.3852 43.8753 45.2212 43.8753C45.6172 43.8753 46.0492 43.8393 46.5172 43.8033L47.3452 43.7313L47.4172 44.7033C47.4532 45.0633 47.4892 45.3873 47.4892 45.6753C47.4892 45.9633 47.4532 46.2513 47.4172 46.6473V46.8633C47.4172 47.6913 48.6412 48.1593 49.0732 48.1593C49.5052 48.1593 49.6492 47.8353 49.6492 47.3313V47.1513L49.3612 43.6233L52.3492 43.4793L52.3132 49.2033L46.9492 49.4193C46.8052 49.4553 46.6612 49.4553 46.5172 49.4553C46.0492 49.4553 45.5092 49.3833 44.9332 49.2393C44.8252 49.2033 44.7532 49.2033 44.6812 49.2033C44.5372 49.2033 44.4652 49.2753 44.4652 49.4193C44.4652 50.0673 45.2212 50.9313 45.4012 51.0753C45.7612 51.3273 46.2652 51.3993 46.9492 51.3993C47.2372 51.3993 47.5612 51.3633 47.9212 51.3633L52.3132 51.1833L52.2772 54.6033L43.3852 54.8553C43.2772 54.8553 43.1332 54.8913 43.0252 54.8913C42.5212 54.8913 41.9452 54.7833 41.3692 54.6033C41.2972 54.5673 41.2252 54.5673 41.1532 54.5673C40.9372 54.5673 40.8292 54.6753 40.8292 54.8913C40.8292 54.9633 40.8652 55.0353 40.8652 55.1073C41.5132 56.5113 41.6932 56.8713 43.6732 56.8713H44.3212L65.3812 56.2953ZM42.0892 52.6233C42.5932 52.5873 43.0252 52.5873 43.0252 52.2273C43.0252 51.9393 42.7732 51.5073 42.1252 50.7153L42.6292 33.2913C42.6292 33.0393 42.8452 32.7873 42.8452 32.4633C42.8452 31.5993 41.7292 31.3113 41.2972 31.3113H40.9732L36.1132 31.6353C34.9252 31.2033 34.2412 31.0233 33.8452 31.0233C33.5572 31.0233 33.4492 31.1313 33.4492 31.2753C33.4492 31.4553 33.5212 31.6353 33.6652 31.8513C33.8812 32.2473 33.9892 32.8593 33.9892 33.5433L34.3132 51.0033C34.3132 51.6873 34.2772 52.2993 34.1692 52.9833C34.1332 53.1273 34.1332 53.2713 34.1332 53.3793C34.1332 54.2433 35.1412 54.6393 35.7172 54.6393C36.0772 54.6393 36.4012 54.4233 36.4012 53.8473V52.8033L42.0892 52.6233ZM40.0732 50.7873L36.3652 50.8953L36.2572 45.6753L40.1812 45.5313L40.0732 50.7873ZM40.3612 37.4673L36.1492 37.7193L36.0772 33.4713L40.4332 33.1833L40.3612 37.4673ZM40.2172 43.6593L36.2572 43.8393L36.1852 39.5553L40.3252 39.3033L40.2172 43.6593Z" fill="black"/>
<path d="M91.1572 53.9193C91.1572 54.6393 91.1212 55.6833 90.9052 56.6913C90.8692 56.8353 90.8692 56.9433 90.8692 57.0513C90.8692 57.9153 92.1292 58.4193 92.6692 58.4193C93.1372 58.4193 93.3172 58.0953 93.3172 57.5553V49.5993C94.2532 51.4353 96.7012 53.4513 97.5292 53.4513C98.8252 53.4513 99.9772 51.5073 100.877 45.2433C100.913 45.0273 101.201 44.6673 101.201 44.3073C101.201 43.4433 99.8332 43.1553 99.5452 43.1553H99.2572L93.3172 43.4433L93.3532 39.6633L98.6092 39.3753C99.1132 39.3393 99.5092 39.3033 99.5092 39.0153C99.5092 38.7633 99.2212 38.3673 98.5012 37.6833L99.2572 34.0473C99.3292 33.7593 99.5092 33.5073 99.5092 33.2193C99.5092 32.4993 98.5012 32.0313 97.9252 32.0313H97.6732L93.3532 32.2833V27.0633C93.3532 26.3793 91.6612 26.0553 91.1572 26.0553C90.8332 26.0553 90.6532 26.1273 90.6532 26.3073C90.6532 26.4513 90.7612 26.5953 90.9052 26.8113C91.1572 27.3153 91.2292 27.7113 91.2292 28.1793V32.3913L87.4492 32.6433V28.0353C87.4492 27.1713 85.4332 26.9553 85.1452 26.9553C84.8572 26.9553 84.6772 27.0273 84.6772 27.2073C84.6772 27.3513 84.7492 27.4953 84.8932 27.7113C85.1092 28.0353 85.2532 28.6113 85.2532 29.0793C85.2532 30.0873 85.2532 31.3833 85.2892 32.7873L81.2932 33.0033H81.0052C80.6092 33.0033 80.2132 32.9673 79.6732 32.8233C79.5652 32.7873 79.4572 32.7873 79.3852 32.7873C79.2412 32.7873 79.1692 32.8233 79.1692 32.9673C79.1692 33.1473 79.5652 34.9113 81.1852 34.9113C81.5092 34.9113 81.8692 34.8753 82.2652 34.8753L85.2892 34.6953C85.2892 35.9193 85.2532 37.1433 85.2532 38.2953L82.3372 38.4393C81.1492 37.8633 80.5012 37.6113 80.2132 37.6113C80.0332 37.6113 79.9612 37.7193 79.9612 37.8633C79.9612 38.0073 79.9972 38.1873 80.0692 38.4033C80.1412 38.6913 80.2132 38.9433 80.2132 39.1953C80.2132 39.4113 80.1772 39.5913 80.1052 39.8433L78.8812 44.6673C78.8092 44.8833 78.7732 45.0633 78.7732 45.2073C78.7732 45.5313 79.3492 46.2513 80.0692 46.2513C80.3572 46.2513 80.6812 46.1793 81.2572 46.1433L84.8212 45.8913C84.0652 50.3553 82.3012 53.6313 79.3132 56.8353C78.8452 57.3393 78.6292 57.6993 78.6292 57.9153C78.6292 58.0593 78.7012 58.1313 78.8452 58.1313C79.0972 58.1313 79.4932 57.9513 80.1052 57.5193C83.9212 54.7113 86.0812 51.1833 86.9452 45.7833L91.1932 45.5673L91.1572 53.9193ZM74.2372 53.9913C74.2372 54.7113 74.1652 55.3593 74.0212 56.0793C73.9852 56.2233 73.9852 56.3313 73.9852 56.4393C73.9852 57.6273 75.6772 57.9873 75.8212 57.9873C76.2532 57.9873 76.5412 57.7353 76.5412 57.2313V35.6313C78.7012 32.1753 80.3212 28.4673 80.3212 28.1073C80.3212 27.4593 78.7012 26.5593 77.9452 26.5593C77.6572 26.5593 77.5132 26.6673 77.5132 26.9193V27.0633C77.5492 27.2793 77.5852 27.4953 77.5852 27.7113C77.5852 29.0793 74.4892 35.7393 68.6932 43.4793C68.3692 43.9113 68.2252 44.2353 68.2252 44.4513C68.2252 44.5953 68.2972 44.6673 68.4412 44.6673C69.0172 44.6673 71.4652 42.5793 74.3812 38.6553L74.2372 53.9913ZM98.7892 45.1713C98.7532 45.4953 97.8172 50.8233 97.0972 50.8233C97.0612 50.8233 97.0252 50.7873 96.9892 50.7873C96.0892 50.4273 95.1532 49.9953 94.2172 49.4193C93.9652 49.2393 93.7132 49.1673 93.5692 49.1673C93.4612 49.1673 93.3532 49.2033 93.3172 49.2753V45.4593L98.7892 45.1713ZM91.1932 43.5513L87.1972 43.7673L87.3772 39.9873L91.1932 39.7713V43.5513ZM91.1932 37.9353L87.4132 38.1873C87.4132 37.0353 87.4492 35.8113 87.4492 34.5873L91.2292 34.2993L91.1932 37.9353ZM85.2532 40.1313C85.0732 43.7673 85.0732 43.8753 85.0732 43.8753L81.1132 44.1273L82.0852 40.2753L85.2532 40.1313ZM96.4852 37.6473L93.3532 37.7913V34.1913L97.0252 33.9753L96.4852 37.6473Z" fill="black"/>
</svg>
