<svg width="121" height="87" viewBox="0 0 121 87" fill="none" xmlns="http://www.w3.org/2000/svg">
<rect x="1" y="1" width="119" height="85" fill="white" stroke="black" stroke-width="2"/>
<path d="M41.5896 42.5152C41.3736 45.7552 41.0136 48.9232 40.5456 51.6592C40.5096 51.8392 40.4376 51.9472 40.2936 51.9472C40.2576 51.9472 40.2216 51.9112 40.1856 51.9112C38.7816 51.2992 37.2336 50.4352 36.1896 49.7512C35.6856 49.4272 35.3256 49.2832 35.1096 49.2832C34.9656 49.2832 34.8936 49.3552 34.8936 49.4992C34.8936 49.7152 35.1096 50.1112 35.5416 50.6872C36.4056 51.7672 39.2496 54.6832 40.6896 54.6832C41.2656 54.6832 41.8056 54.4312 42.2376 53.9632C42.8856 53.2432 42.9216 51.8752 43.1736 50.0032C43.8216 44.8192 44.2536 35.2432 44.2896 29.0872C44.2896 28.8712 44.4696 28.5832 44.4696 28.2592C44.4696 27.5392 43.5696 27.2872 43.1376 27.2872H42.8856L32.6256 27.9712H32.1936C31.7256 27.9712 31.2216 27.9352 30.7896 27.8632H30.6456C30.5016 27.8632 30.4296 27.9352 30.4296 28.0432C30.4296 28.0792 30.7176 29.0152 31.2936 29.5912C31.5096 29.8072 31.7976 29.8792 32.2296 29.8792C32.4096 29.8792 32.6616 29.8792 32.9496 29.8432L35.7936 29.6272C35.7936 31.1392 35.7216 32.7592 35.5776 34.3792L32.9496 34.4872H32.5176C32.0496 34.4872 31.5456 34.4512 31.1136 34.3792H30.9696C30.8256 34.3792 30.7536 34.4512 30.7536 34.5952C30.7536 34.5952 31.1856 36.3592 32.4816 36.3592C32.6976 36.3592 32.9496 36.3232 33.2736 36.3232L35.3976 36.2152C35.2176 37.9792 34.9656 39.6352 34.6416 41.0392L31.9056 41.1472H31.4736C31.0056 41.1472 30.5016 41.1112 30.0696 41.0392C29.9976 41.0392 29.9616 41.0032 29.9256 41.0032C29.7816 41.0032 29.7096 41.0752 29.7096 41.1832C29.7096 41.3632 30.1056 42.2632 30.5736 42.7312C30.7896 42.9472 31.0416 43.0192 31.4736 43.0192C31.6896 43.0192 31.9416 42.9832 32.2296 42.9832L34.1376 42.8752C32.8776 47.0512 30.6816 50.4712 28.3776 53.0272C27.9816 53.4952 27.7656 53.8552 27.7656 54.0712C27.7656 54.2152 27.8736 54.2872 28.0176 54.2872C28.9176 54.2872 33.8856 50.6152 36.2616 42.8032L41.5896 42.5152ZM47.2056 52.7752C47.2056 54.1072 47.0976 55.1512 46.9536 56.1592C46.9176 56.2672 46.9176 56.3752 46.9176 56.4832C46.9176 57.5272 48.8616 58.0312 48.9336 58.0312C49.3296 58.0312 49.4736 57.7072 49.4736 57.2752L49.3296 29.5912L55.8456 29.1232C54.8376 31.2832 53.5776 33.4432 52.1376 35.4592C51.8496 35.8912 51.7056 36.2512 51.7056 36.5752C51.7056 36.9712 51.8856 37.2952 52.2096 37.5832C53.9016 39.0952 56.9256 41.7952 56.9256 45.0352C56.9256 45.5032 56.8536 45.9712 56.7096 46.5112C56.7096 46.5472 56.6736 46.5472 56.6736 46.5832C56.6016 46.6552 56.5296 46.7272 56.3856 46.7272C56.3136 46.7272 56.2776 46.6912 56.2056 46.6912C54.5496 46.2952 52.8936 45.7912 51.3456 45.1072C50.9136 44.8912 50.5536 44.8192 50.3376 44.8192C50.1216 44.8192 50.0136 44.8912 50.0136 45.0352C50.0136 46.1152 55.7376 49.4272 57.2136 49.4272C58.9416 49.4272 59.1936 46.2952 59.1936 45.3232C59.1936 41.3992 56.7816 39.1312 54.3336 36.8632C54.0816 36.6472 53.9736 36.4672 53.9736 36.3232C53.9736 36.2152 54.0456 36.1072 54.1176 35.9992C55.5576 33.9112 56.9616 31.8232 58.2216 29.1592C58.3296 28.9432 58.6896 28.6192 58.6896 28.2592C58.6896 27.6472 57.5376 27.2152 57.0696 27.2152C56.9616 27.2152 56.8176 27.2512 56.6376 27.2512L49.6176 27.8272C48.1056 27.2152 47.2776 26.9272 46.8456 26.9272C46.6296 26.9272 46.5216 27.0352 46.5216 27.2152C46.5216 27.3952 46.6296 27.6472 46.7736 28.0072C47.1696 28.9792 47.1696 29.9152 47.1696 31.6792L47.2056 52.7752ZM41.9136 35.8552C41.9136 38.2312 41.6976 40.5712 41.6976 40.7152L36.7656 40.9312C37.0896 39.5272 37.3416 37.8712 37.5576 36.1072L41.9136 35.8552ZM37.7376 34.2712C37.8456 32.6512 37.9536 30.9952 37.9896 29.4832L42.0576 29.1952C42.0576 30.6712 42.0216 32.3272 41.9856 34.0552L37.7376 34.2712Z" fill="black"/>
<path d="M82.9176 51.8752C82.9176 56.0872 86.3376 56.0872 89.6496 56.0872C96.0936 56.0872 96.8856 55.2592 96.8856 48.2392C96.8856 46.4032 96.6696 45.1072 96.3096 45.1072C96.0576 45.1072 95.7696 45.7192 95.5896 46.9072C94.8336 52.8112 93.9336 53.2792 92.7096 53.4592C91.8096 53.6032 90.6936 53.6752 89.5416 53.6752C88.6776 53.6752 87.8136 53.6392 86.9856 53.5312C86.5536 53.5312 85.2216 53.1712 85.2216 51.2632L85.3656 26.9992C85.3656 25.9192 83.2056 25.6672 82.7736 25.6672C82.5216 25.6672 82.4496 25.7392 82.4496 25.8472C82.4496 25.9192 82.5216 26.0272 82.5936 26.1712C82.9896 26.7472 83.0616 27.3592 83.0616 27.8272L82.9176 51.8752ZM71.9016 53.8912C70.3176 53.3872 68.9136 52.8112 67.4016 51.9472C66.9336 51.6952 66.6096 51.5872 66.4296 51.5872C66.2856 51.5872 66.2136 51.6592 66.2136 51.7672C66.2136 52.7752 71.2176 56.7352 72.5136 56.7352C73.3416 56.7352 74.3136 55.7632 74.3136 54.7192C74.3136 54.2872 74.2056 53.7832 74.2056 53.2072L74.2776 43.1992C80.0736 40.4272 80.3616 39.7792 80.3616 39.5632C80.3616 39.4192 80.2176 39.3112 79.9656 39.3112C79.7856 39.3112 79.6056 39.3472 79.3896 39.4192C77.8416 40.0312 76.1136 40.6792 74.2776 41.3272L74.3136 35.3152L79.7496 34.9192C80.2536 34.8832 80.6856 34.7392 80.6856 34.4152C80.6856 34.0192 79.5336 32.6872 78.6336 32.6872C78.4896 32.6872 78.3816 32.7232 78.3096 32.7592C77.8416 32.9752 77.4096 33.1192 76.9056 33.1552L74.3496 33.3352L74.3856 26.7472C74.3856 26.2072 74.1336 25.8832 73.1256 25.5232C72.4776 25.3072 72.0096 25.1992 71.7216 25.1992C71.4336 25.1992 71.2536 25.3072 71.2536 25.4512C71.2536 25.5232 71.3256 25.6312 71.3976 25.7752C71.8656 26.4592 72.0456 26.8912 72.0456 27.6832L72.0096 33.4792L67.2216 33.8032C66.7896 33.8392 66.4656 33.8392 66.1416 33.8392C65.7456 33.8392 65.3856 33.8392 64.9896 33.7672H64.8816C64.7376 33.7672 64.6656 33.8032 64.6656 33.9472C64.6656 33.9832 64.6656 34.0552 64.7016 34.1272C64.8816 34.7032 65.2056 35.1712 65.7096 35.6752C65.8536 35.8192 66.1776 35.8912 66.6096 35.8912C66.9336 35.8912 67.3656 35.8552 67.8696 35.8192L72.0096 35.4952L71.9736 42.1552C69.7416 42.9112 65.3136 44.3512 64.0896 44.3512H63.9456C63.6576 44.3512 63.5136 44.4592 63.5136 44.6032C63.5136 44.9992 64.7016 46.7632 65.5296 46.7632C66.1056 46.7632 69.3096 45.5032 71.9376 44.2792L71.9016 53.8912Z" fill="black"/>
</svg>
