<svg width="35" height="35" viewBox="0 0 35 35" fill="none" xmlns="http://www.w3.org/2000/svg">
<rect x="0.5" y="0.5" width="34" height="34" fill="white" stroke="black"/>
<path d="M10.7713 22.7438L10.7967 22.7183C11.5349 22.0819 12.1968 21.471 12.5786 21.0891L15.9388 17.729L12.8077 14.5979C12.2223 14.0124 11.3568 13.1978 10.8986 12.8414L10.8476 12.7905C10.5167 12.4596 10.7967 11.6705 11.2295 11.2377C11.5859 10.8813 12.0186 10.7541 12.375 11.1104C12.8332 11.6196 13.5205 12.3578 14.3096 13.1469L17.4152 16.2525L20.3936 13.2742C21.1827 12.485 21.87 11.7468 22.3282 11.2377C22.6846 10.8813 23.1174 11.0086 23.4737 11.365C23.9065 11.7977 24.1865 12.5869 23.8556 12.9178L23.8047 12.9687C23.3465 13.3251 22.481 14.1397 21.8955 14.7252L18.8917 17.729L22.0991 20.9364C22.4555 21.2928 23.1428 21.9292 23.881 22.5656L23.9065 22.591C24.3138 22.9983 24.0592 23.7111 23.6265 24.1438C23.2955 24.4748 22.8119 24.6529 22.4555 24.2966C21.7173 23.5583 20.9791 22.7692 20.5972 22.3874L17.4152 19.2054L14.0805 22.5401C13.6223 22.9983 12.9605 23.7111 12.2223 24.4493C11.8659 24.8057 11.3822 24.6275 11.0258 24.2711C10.5931 23.8384 10.364 23.151 10.7713 22.7438Z" fill="black"/>
</svg>
