<svg width="319" height="83" viewBox="0 0 319 83" fill="none" xmlns="http://www.w3.org/2000/svg">
<rect x="1" y="1" width="317" height="81" fill="white" stroke="black" stroke-width="2"/>
<path d="M60.1204 44.7551C60.5884 44.7191 60.8764 44.6111 60.8764 44.3591C60.8764 43.8551 59.8324 42.9911 59.3644 42.9911C59.2564 42.9911 59.1484 43.0271 59.0404 43.0631C58.6084 43.2071 58.1764 43.2431 57.7084 43.2791L53.8564 43.4591L53.9644 41.5511L57.7804 41.3711C58.2124 41.3351 58.5004 41.2271 58.5004 40.9751C58.5004 40.4711 57.7084 39.7511 57.1324 39.7511C57.0244 39.7511 56.8804 39.7871 56.7004 39.8231C56.2324 39.9671 55.9084 40.0031 55.4044 40.0391L54.0004 40.1111L54.1084 38.3471L58.8964 38.0951C59.3644 38.0591 59.6884 37.9511 59.6884 37.6631C59.6884 37.1951 58.7524 36.4031 58.2484 36.4031C58.1044 36.4031 57.9604 36.4391 57.7804 36.4751C57.3484 36.6191 57.0244 36.6911 56.4844 36.7271L54.1804 36.8351L54.2164 36.0431V35.9711C54.2164 35.5391 53.8204 35.3591 53.2804 35.1431L53.1364 35.1071C53.1724 35.0351 53.1724 34.9631 53.1724 34.8911C53.1724 34.8191 53.1724 34.7471 53.1364 34.6751L57.9604 34.4591C58.4284 34.4231 58.7524 34.3871 58.7524 34.1351C58.7524 33.9191 58.5364 33.5951 58.0684 33.0191L58.5004 31.2551C58.5724 30.9671 58.7884 30.8231 58.7884 30.6431C58.7884 30.2111 57.8524 29.6711 57.5644 29.6711C57.4564 29.6711 57.3484 29.6711 57.2044 29.7071L52.8124 30.0311C51.8044 29.7071 51.1924 29.5631 50.8324 29.5631C50.5444 29.5631 50.4364 29.6351 50.4364 29.7791C50.4364 29.9231 50.5084 30.0671 50.6164 30.2471C50.9044 30.6791 51.0124 31.1111 51.0484 31.5071L51.2644 33.3791C51.3004 33.5231 51.3004 33.6671 51.3004 33.8111C51.3004 33.9551 51.3004 34.1351 51.2644 34.3151V34.3871C51.2644 34.7471 51.4804 34.8911 51.9484 35.1071C51.9484 35.1791 51.9844 35.2871 52.0564 35.3951C52.2004 35.6471 52.3084 36.0791 52.3084 36.6911V36.9431L48.2764 37.1231V36.2951C48.2764 36.0071 48.2404 35.3951 46.3324 35.3951C46.0084 35.3951 45.9004 35.4671 45.9004 35.6111C45.9004 35.6831 45.9364 35.7911 46.0084 35.9351C46.2604 36.2951 46.3684 36.7271 46.3684 37.2311L43.4884 37.3751C43.2724 37.3751 43.0564 37.4111 42.8404 37.4111C42.4444 37.4111 42.0844 37.3751 41.6884 37.3031C41.6164 37.3031 41.5444 37.2671 41.4724 37.2671C41.3644 37.2671 41.2924 37.3031 41.2924 37.4471C41.2924 37.6991 41.5804 38.9231 42.8764 38.9231C43.1284 38.9231 43.4524 38.8871 43.8484 38.8871L46.4044 38.7431L46.4764 40.4711L44.5684 40.5791H44.0644C43.5964 40.5791 43.2364 40.5431 42.8404 40.4711C42.6964 40.4351 42.5884 40.4351 42.4804 40.4351C42.3724 40.4351 42.3004 40.4711 42.3004 40.5431C42.3004 40.9751 42.7324 42.0551 43.9564 42.0551C44.2084 42.0551 44.5324 42.0191 44.9644 42.0191L46.5124 41.9471L46.5484 43.8191L42.3724 44.0351H41.9404C41.5084 44.0351 41.0404 43.9991 40.6444 43.9271C40.5724 43.9271 40.5364 43.8911 40.4644 43.8911C40.3204 43.8911 40.2124 43.9631 40.2124 44.1071C40.2124 44.1431 40.2484 44.2151 40.2844 44.3231C40.7884 45.4751 41.0044 45.5831 42.0484 45.5831H42.7684L47.5924 45.3671C45.5044 47.4551 43.2004 49.2551 41.0404 50.5511C40.3924 50.9471 40.0684 51.3071 40.0684 51.5231C40.0684 51.6671 40.2124 51.7391 40.4284 51.7391C41.7244 51.7391 45.0724 49.5071 45.3244 49.3631L45.2884 53.3231C44.7844 53.4671 43.2724 53.8271 42.3724 53.8271H41.9044C41.6164 53.8271 41.5444 53.8991 41.5444 54.0431C41.5444 54.2591 42.1924 55.8791 43.3444 55.8791C44.2084 55.8791 48.0964 54.2591 51.7684 52.3871C52.3444 52.0991 52.5604 51.8111 52.5604 51.6311C52.5604 51.4871 52.3804 51.3791 52.0924 51.3791C51.8764 51.3791 51.6244 51.4151 51.3364 51.5231C49.8964 52.0631 48.7084 52.4231 47.3044 52.8191L47.3764 47.8871C47.8804 47.5271 48.4204 47.0591 48.9604 46.5191C51.9844 50.5151 55.7644 53.4311 60.4084 55.4831C60.5164 55.5191 60.6244 55.5551 60.6964 55.5551C61.2724 55.5551 62.3524 54.2231 62.3524 54.0071C62.3524 53.8271 62.1724 53.6471 61.7404 53.5031C58.8604 52.5311 56.7004 51.3431 54.6124 49.7231C55.1164 49.4351 58.5004 47.5631 58.5004 46.8791C58.5004 46.3751 57.6004 45.1871 57.2404 45.1871C57.0964 45.1871 56.9884 45.2951 56.8804 45.5111C56.5564 46.2671 55.7284 47.0951 53.2444 48.5711C52.2364 47.6351 51.2284 46.5551 50.2204 45.3311L50.3284 45.2231L60.1204 44.7551ZM38.8804 53.2871C39.3844 53.2511 39.8164 53.2511 39.8164 52.9271C39.8164 52.6391 39.5644 52.2071 38.9884 51.4151L39.6004 46.7351C39.6364 46.5191 39.8164 46.3391 39.8164 46.0871C39.8164 45.5471 38.9164 44.7191 38.2684 44.7191C38.1604 44.7191 38.0524 44.7551 37.9084 44.7551L33.0484 45.0791C31.5724 44.5391 30.7804 44.3231 30.3844 44.3231C30.1684 44.3231 30.0604 44.3951 30.0604 44.5391C30.0604 44.6831 30.2044 44.9351 30.3844 45.2591C30.6724 45.7271 30.8524 46.4471 30.9244 47.2391L31.2844 51.7751V52.2431C31.2844 52.6751 31.2484 53.1431 31.2124 53.6111V53.8271C31.2124 54.9071 32.5084 55.1591 32.9044 55.1591C33.3364 55.1591 33.5884 54.9071 33.5884 54.3671V54.2591L33.5164 53.5031L38.8804 53.2871ZM59.4724 28.0871C60.0124 28.0511 60.4084 27.9071 60.4084 27.6191C60.4084 27.1511 59.3284 26.1431 58.7164 26.1431C58.5724 26.1431 58.4284 26.1791 58.2484 26.2511C57.9244 26.3951 57.6364 26.4671 57.1324 26.5031L51.0124 26.8631L51.0484 24.5591C50.9764 23.5871 48.9604 23.4431 48.6364 23.4431C48.3844 23.4431 48.2764 23.5151 48.2764 23.6231C48.2764 23.7311 48.3484 23.8391 48.4564 24.0191C48.7444 24.4151 48.8524 24.8111 48.8524 25.2071L48.8884 26.9711L42.1924 27.3671H41.7964C41.3644 27.3671 40.9684 27.3311 40.5364 27.2231C40.4284 27.1871 40.3564 27.1871 40.2844 27.1871C40.1044 27.1871 40.0324 27.2591 40.0324 27.4031C40.0324 27.8711 40.7164 29.1311 41.8324 29.1311C42.0484 29.1311 42.3364 29.0951 42.6964 29.0951L59.4724 28.0871ZM49.2124 34.9271C49.7164 34.8911 50.0404 34.8551 50.0404 34.6031C50.0404 34.3871 49.8244 34.0631 49.3564 33.4871L49.6444 31.8311C49.6804 31.5791 49.8244 31.3631 49.8244 31.1471C49.8244 30.7871 49.2124 30.2111 48.6004 30.2111C48.4924 30.2111 48.3844 30.2111 48.2404 30.2471L44.1364 30.5711C43.1284 30.2831 42.5164 30.1751 42.1564 30.1751C41.8684 30.1751 41.7604 30.2471 41.7604 30.3911C41.7604 30.4991 41.7964 30.6431 41.9044 30.8231C42.1924 31.2911 42.3004 31.6511 42.3724 32.1551L42.6244 33.8111C42.6604 34.1351 42.6604 34.4951 42.6604 34.7831C42.6604 35.3231 42.6604 35.4671 43.4164 35.7551C43.7044 35.8631 43.9204 35.9351 44.0644 35.9351C44.3884 35.9351 44.4964 35.7191 44.4964 35.3231V35.1791L49.2124 34.9271ZM40.7524 33.0551C41.2204 33.0191 41.5804 32.8391 41.5804 32.5511C41.5804 32.0831 40.2124 30.8951 39.5644 30.8951C39.4204 30.8951 39.3484 30.9311 39.2404 30.9671C38.7004 31.1831 38.1244 31.2551 37.6924 31.3271L30.1684 31.8311C29.9884 31.8311 29.7724 31.8671 29.5924 31.8671C29.1964 31.8671 28.7644 31.8311 28.3684 31.7231C28.2604 31.6871 28.1884 31.6871 28.1164 31.6871C27.9724 31.6871 27.9004 31.7591 27.9004 31.9031C27.9004 32.3351 28.6564 33.8111 29.7724 33.8111C30.0604 33.8111 30.4204 33.7751 30.8884 33.7391L40.7524 33.0551ZM36.9004 51.4511L33.3724 51.5591L33.0484 47.0591L37.3324 46.7711L36.9004 51.4511ZM39.2764 41.9831C39.6724 41.9471 39.9964 41.7671 39.9964 41.4431C39.9964 40.7591 38.7364 39.8951 38.3404 39.8951C38.2684 39.8951 38.1604 39.8951 38.0884 39.9311C37.6924 40.0751 37.2244 40.1831 36.7924 40.2191L32.4364 40.4711H32.0404C31.5724 40.4711 31.1404 40.4351 30.6724 40.3271C30.6004 40.3271 30.5644 40.2911 30.5284 40.2911C30.4204 40.2911 30.3484 40.3631 30.3484 40.4711C30.3484 40.5431 30.3484 40.6151 30.3844 40.6871C30.5284 41.1911 30.8164 41.7311 31.3564 42.1991C31.5364 42.3071 31.7524 42.3791 32.0764 42.4151H32.4364C32.6524 42.4151 32.9044 42.4151 33.1564 42.3791L39.2764 41.9831ZM39.3844 37.6631C39.7804 37.6271 40.0684 37.4471 40.0684 37.1231C40.0684 36.5831 38.9884 35.5751 38.3764 35.5751C38.3044 35.5751 38.1964 35.5751 38.1244 35.6111C37.6564 35.7911 37.2604 35.8631 36.8284 35.8991L32.4724 36.2231H32.1124C31.6804 36.2231 31.2124 36.1871 30.7084 36.0791C30.6364 36.0791 30.6004 36.0431 30.5644 36.0431C30.4564 36.0431 30.3844 36.1151 30.3844 36.2231C30.3844 36.2951 30.3844 36.3671 30.4204 36.4391C30.7444 37.5911 31.4284 38.1311 32.3644 38.1311C32.6164 38.1311 32.8684 38.1311 33.1924 38.0951L39.3124 37.6631H39.3844ZM37.3324 30.3191C37.8724 30.3191 38.4484 29.3111 38.4484 28.8071C38.4484 28.4111 38.1964 28.1951 37.6924 27.9431C34.4524 26.2151 32.5084 25.5671 32.2204 25.5671C31.4284 25.5671 31.2844 26.7191 31.2844 26.7911C31.2844 27.1151 31.5004 27.3671 31.9684 27.5471C33.4084 28.1591 35.1364 29.0951 36.5404 29.9951C36.8284 30.1751 37.1164 30.3191 37.3324 30.3191ZM52.0564 43.5671L48.3844 43.7471L48.3484 41.8391L52.1284 41.6591L52.0564 43.5671ZM52.1644 40.1831L48.3484 40.3991L48.3124 38.6351L52.2364 38.4551L52.1644 40.1831ZM56.2684 33.1271L53.0284 33.2711L52.8484 31.4711L56.5564 31.2551L56.2684 33.1271ZM47.5204 33.5951L44.3524 33.7751L44.1724 32.0111L47.6644 31.7591L47.5204 33.5951Z" fill="black"/>
<path d="M84.7084 53.3591C83.1964 52.8191 81.7564 52.1351 80.4964 51.3431C80.0644 51.0911 79.7404 50.9471 79.5244 50.9471C79.3444 50.9471 79.2364 51.0191 79.2364 51.1991C79.2364 52.1351 83.8804 56.2391 85.1044 56.2391C85.5724 56.2391 87.0484 55.5191 87.0484 54.2951C87.0484 53.8991 86.9764 53.5031 86.9764 53.0351L86.8324 33.0551L93.3844 32.6951C92.8444 34.1711 92.2324 35.5751 91.5124 36.9791C91.3324 37.3391 91.2604 37.6271 91.2604 37.8431C91.2604 38.0591 91.3324 38.1671 91.5124 38.1671C92.3764 38.1671 94.8604 34.4231 95.9044 32.8751C96.0484 32.6951 96.4084 32.3711 96.4084 31.9391C96.4084 31.2191 95.4004 30.6791 94.8244 30.6791H94.5004L81.6484 31.3991C82.6924 29.4191 84.0604 26.4311 84.0604 25.9991C84.0604 25.8191 83.9524 25.5311 83.5924 25.2071C82.5124 24.3791 81.8644 24.1631 81.5764 24.1631C81.3604 24.1631 81.2884 24.3071 81.2884 24.5231V24.6671C81.3244 24.8831 81.3244 25.1351 81.3244 25.3151C81.3244 27.0431 78.9124 33.1991 74.7364 39.2111C74.4844 39.5711 74.3764 39.8591 74.3764 40.0751C74.3764 40.2191 74.4484 40.3271 74.5924 40.3271C75.2764 40.3271 78.5164 36.6911 80.4964 33.4151L84.5644 33.1991L84.7084 53.3591ZM70.3084 51.7391C70.3084 52.4231 70.2724 53.1071 70.0924 53.8991C70.0564 54.0431 70.0564 54.1871 70.0564 54.2951C70.0564 55.2671 71.4244 55.8071 71.9644 55.8071C72.3244 55.8071 72.5764 55.5911 72.5764 55.0871L72.6124 33.9551C75.0964 30.2471 76.8244 26.5751 76.8244 26.3231C76.8244 25.3871 74.7724 24.6671 74.5924 24.6671C74.3764 24.6671 74.2684 24.7751 74.2684 24.9911V25.0631C74.2684 25.1711 74.3044 25.2791 74.3044 25.3871C74.3044 27.1151 69.3004 36.4751 64.7284 41.8391C64.4044 42.2351 64.2604 42.5231 64.2604 42.7391C64.2604 42.8831 64.3324 42.9551 64.4764 42.9551C64.6924 42.9551 64.9804 42.8111 65.3404 42.5231C67.2844 41.0111 68.8684 39.2111 70.4884 37.0871L70.3084 51.7391ZM97.3444 48.5351C97.3444 48.1391 95.9404 45.4391 91.6564 39.7151C91.4404 39.3911 91.2604 39.2471 91.0084 39.2471C90.5764 39.2471 89.4964 39.9311 89.4964 40.4351C89.4964 40.6151 89.5684 40.7591 89.6764 40.9031C91.6204 43.6031 93.4924 46.2311 94.9684 49.4351C95.1124 49.7951 95.2924 50.0111 95.5804 50.0111C96.1204 50.0111 97.3444 49.0751 97.3444 48.5351ZM78.7684 39.6071C78.8044 39.8231 78.8044 40.0031 78.8044 40.2191C78.8044 42.2711 75.9244 47.4911 74.3764 49.7591C74.0524 50.2271 73.9084 50.5871 73.9084 50.8031C73.9084 50.9471 73.9804 51.0191 74.1244 51.0191C74.9524 51.0191 78.6964 47.3471 81.3244 41.4791C81.3964 41.2991 81.4324 41.1551 81.4324 41.0111C81.4324 40.1831 79.4884 39.0671 79.0564 39.0671C78.8404 39.0671 78.7684 39.2111 78.7684 39.4631V39.6071Z" fill="black"/>
<path d="M146.218 37.0511C146.794 37.0151 147.154 36.8711 147.154 36.6191C147.154 36.2951 145.858 34.8911 145.174 34.8911C145.066 34.8911 144.994 34.9271 144.886 34.9631C144.454 35.1431 143.878 35.2511 143.194 35.2871L136.39 35.6831V31.3991L142.798 30.9671C143.302 30.9311 143.698 30.8231 143.698 30.5351C143.698 30.1391 142.366 28.8791 141.79 28.8791C141.682 28.8791 141.61 28.9151 141.502 28.9511C141.034 29.1311 140.53 29.2391 139.81 29.2751L136.426 29.4911V24.6671C136.426 24.1631 136.246 24.0191 135.238 23.6951C134.698 23.5151 134.266 23.4071 134.014 23.4071C133.762 23.4071 133.654 23.4791 133.654 23.6591C133.654 23.7671 133.726 23.9471 133.87 24.1991C134.122 24.6311 134.23 25.0991 134.23 25.7471V29.6351L130.018 29.9231H129.73C129.118 29.9231 128.434 29.8151 128.002 29.6711C127.93 29.6351 127.858 29.6351 127.822 29.6351C127.714 29.6351 127.678 29.7071 127.678 29.8151C127.678 30.1751 128.074 31.0031 128.578 31.5071C128.794 31.7231 129.19 31.7951 129.694 31.7951C129.982 31.7951 130.27 31.7951 130.63 31.7591L134.194 31.5431V35.7911L126.67 36.2231H126.346C125.662 36.2231 125.122 36.1151 124.654 35.9711C124.582 35.9351 124.51 35.9351 124.474 35.9351C124.366 35.9351 124.294 36.0071 124.294 36.1151C124.294 36.1511 124.294 36.2231 124.33 36.2951C124.906 38.1311 126.058 38.2031 126.67 38.2031C126.886 38.2031 127.102 38.1671 127.354 38.1671L146.218 37.0511ZM119.686 52.9991C118.498 52.5311 116.878 51.7391 115.942 51.1991C115.474 50.9111 115.15 50.8031 114.934 50.8031C114.826 50.8031 114.754 50.8751 114.754 50.9471C114.754 51.4871 118.498 55.8071 120.01 55.8071C120.586 55.8071 121.918 55.1231 121.918 53.5391C121.918 53.1431 121.882 52.7471 121.882 52.2791L121.954 42.7751C123.322 41.9471 124.33 41.1191 125.518 40.2911C125.986 39.9671 126.202 39.6791 126.202 39.4631C126.202 39.3191 126.094 39.2111 125.842 39.2111C125.554 39.2111 125.518 39.2111 121.954 41.0111L121.99 34.5671L126.022 34.2071C126.49 34.1711 126.922 34.0271 126.922 33.7031C126.922 33.0911 125.518 32.0111 124.942 32.0111C124.834 32.0111 124.726 32.0471 124.654 32.0831C124.15 32.2991 123.79 32.4431 123.286 32.4791L122.026 32.6231L122.062 25.9991C122.062 24.8831 120.01 24.4871 119.47 24.4871C119.218 24.4871 119.11 24.5591 119.11 24.7031C119.11 24.7751 119.146 24.8831 119.218 25.0271C119.686 25.7111 119.83 26.1791 119.83 26.9711L119.794 32.7671L115.978 33.0191C115.582 33.0551 115.258 33.0551 114.97 33.0551C114.574 33.0551 114.25 33.0191 113.89 32.9471H113.782C113.638 32.9471 113.53 32.9831 113.53 33.1271C113.53 33.1631 113.53 33.2351 113.566 33.3071C113.746 33.8471 114.034 34.3511 114.574 34.8911C114.718 35.0351 114.934 35.0711 115.258 35.0711C115.618 35.0711 116.122 34.9991 116.698 34.9631L119.794 34.7471L119.758 41.9471C114.718 43.9991 114.466 44.0711 113.134 44.2151C112.846 44.2151 112.738 44.3231 112.738 44.4671C112.738 44.8271 113.386 45.6191 114.358 46.2311C114.502 46.3031 114.646 46.3391 114.79 46.3391C115.438 46.3391 119.578 44.1431 119.722 44.0711L119.686 52.9991ZM137.83 53.8991C136.498 53.6471 134.914 53.1791 133.654 52.7471C133.222 52.6031 132.862 52.5311 132.646 52.5311C132.394 52.5311 132.286 52.6031 132.286 52.7471C132.286 53.7191 137.542 56.7071 138.442 56.7071C139.162 56.7071 140.062 56.0231 140.062 54.8351C140.062 54.5111 140.026 54.1151 140.026 53.7191L139.954 43.3511L145.39 43.0991C145.894 43.0631 146.254 42.9191 146.254 42.5951C146.254 42.1631 144.85 40.9391 144.13 40.9391C144.022 40.9391 143.95 40.9391 143.878 40.9751C143.41 41.1911 143.05 41.2991 142.582 41.3351L139.918 41.4791V39.4631C139.918 38.6711 138.154 37.9511 137.326 37.9511C137.11 37.9511 137.002 38.0231 137.002 38.1671C137.002 38.2751 137.074 38.4551 137.218 38.6711C137.578 39.2111 137.758 39.8231 137.758 40.6151V41.5871L127.858 42.0551H127.498C126.922 42.0551 126.382 41.9831 125.95 41.8751C125.842 41.8391 125.77 41.8391 125.698 41.8391C125.59 41.8391 125.554 41.8751 125.554 41.9831C125.554 42.0191 125.554 42.0911 125.59 42.1631C126.13 43.9631 126.922 43.9631 127.642 43.9631C127.93 43.9631 128.218 43.9271 128.578 43.9271L137.758 43.4591L137.83 53.8991ZM133.294 50.2271C133.834 50.2271 134.626 49.3271 134.626 48.8591C134.626 48.6791 134.518 48.4631 134.302 48.2111C133.726 47.4911 131.278 44.7191 130.522 44.7191C129.946 44.7191 129.442 45.4751 129.442 45.7631C129.442 45.9431 129.55 46.0871 129.73 46.2671C130.738 47.2391 131.926 48.6431 132.682 49.7951C132.862 50.0831 133.078 50.2271 133.294 50.2271Z" fill="black"/>
<path d="M178.33 50.2631C178.726 50.2271 179.05 50.1911 179.05 49.9031C179.05 49.6511 178.87 49.2551 178.366 48.6071L178.834 41.1911C178.87 41.0111 178.978 40.8311 178.978 40.6151C178.978 40.5431 178.906 39.4991 177.106 39.4991L166.306 40.0391C165.19 39.7511 164.542 39.6071 164.182 39.6071C163.894 39.6071 163.786 39.6791 163.786 39.8591C163.786 40.0031 163.894 40.1831 164.002 40.4351C164.218 40.8671 164.326 41.4431 164.362 42.0551L164.65 48.6431V49.0391C164.65 49.4351 164.614 49.8311 164.578 50.1551C164.578 50.2991 164.542 50.4071 164.542 50.5151C164.542 51.0551 165.73 51.5591 166.198 51.5591C166.522 51.5591 166.666 51.3791 166.666 51.1271V50.6591L178.33 50.2631ZM155.218 52.6751C155.218 53.3231 155.182 54.0071 155.038 54.6551C155.002 54.7631 155.002 54.9071 155.002 55.0151C155.002 56.1671 156.694 56.4191 156.766 56.4191C157.162 56.4191 157.414 56.2031 157.414 55.6631L157.342 42.7031C158.098 42.5951 158.854 42.4151 159.646 42.2711C159.79 42.5951 159.898 42.9551 160.006 43.3151C160.15 43.7831 160.294 43.9991 160.69 43.9991C161.05 43.9991 162.166 43.7831 162.166 43.1711C162.166 42.7751 161.194 40.3631 159.97 38.2391C159.754 37.8791 159.574 37.6991 159.286 37.6991C159.106 37.6991 158.926 37.7711 158.674 37.8791C158.242 38.0591 158.026 38.2751 158.026 38.5271C158.026 38.6351 158.026 38.7071 158.998 40.6151C157.234 40.9031 155.614 41.1191 154.066 41.2631C158.278 36.3671 161.158 31.7591 161.158 31.2911C161.158 30.6431 159.574 29.7431 158.998 29.7431C158.746 29.7431 158.602 29.8871 158.602 30.2111V30.3191C158.602 30.4271 158.638 30.5711 158.638 30.6791C158.638 31.3991 158.35 32.1911 156.334 35.1431C155.578 34.5311 154.858 33.9551 154.138 33.4511C156.37 30.3551 158.134 26.9711 158.134 26.2511C158.134 25.5671 156.514 24.7751 155.902 24.7751C155.65 24.7751 155.542 24.8831 155.542 25.1351V25.2431C155.578 25.4231 155.578 25.6031 155.578 25.7831C155.578 26.1431 155.542 26.4671 155.434 26.7551C154.93 28.3751 153.994 30.3191 152.734 32.4071L152.266 32.0831C152.014 31.9031 151.798 31.7951 151.582 31.7951C151.33 31.7951 150.61 32.4791 150.61 33.0551C150.61 33.3431 150.754 33.5231 151.078 33.7391C152.194 34.4591 153.562 35.5031 155.182 36.8351C154.174 38.3111 153.022 39.8591 151.762 41.4431C151.51 41.4431 151.294 41.4791 151.078 41.4791C150.718 41.4791 150.358 41.4431 149.998 41.3711H149.854C149.638 41.3711 149.53 41.4791 149.53 41.6591C149.53 41.7311 149.53 41.8031 149.566 41.8751C149.962 42.9551 150.646 43.6391 151.402 43.6391C152.014 43.6391 153.742 43.3871 155.218 43.0991V52.6751ZM180.202 37.9151C180.742 37.8791 181.174 37.8071 181.174 37.5191C181.174 37.3031 180.958 36.9431 180.49 36.4391L181.03 34.2071C181.102 33.9911 181.282 33.7751 181.282 33.5231C181.282 33.0191 180.418 32.4791 179.914 32.4791H179.698L163.786 33.3431C162.562 32.9831 161.878 32.8031 161.554 32.8031C161.338 32.8031 161.23 32.8751 161.23 33.0191C161.23 33.1631 161.338 33.3791 161.446 33.6311C161.626 33.9911 161.734 34.4591 161.806 34.9991L162.058 36.7271C162.094 36.8711 162.094 37.0151 162.094 37.1591C162.094 37.4111 162.058 37.6631 162.022 38.0231V38.2031C162.022 38.6351 162.274 38.8871 162.994 39.1031C163.246 39.1751 163.462 39.2111 163.642 39.2111C164.002 39.2111 164.182 39.0311 164.182 38.7071V38.6351L180.202 37.9151ZM177.646 31.2191C178.006 31.1831 178.222 31.0031 178.222 30.7511C178.222 30.5711 178.078 30.3191 177.79 30.0671C177.214 29.5631 176.818 29.4551 176.494 29.4551C176.386 29.4551 176.278 29.4551 176.17 29.4911C175.594 29.6351 175.09 29.7071 174.55 29.7431L172.102 29.9231V28.2671L180.346 27.7631C180.67 27.7271 180.886 27.5831 180.886 27.2951C180.886 26.7551 179.734 25.9271 179.05 25.9271C178.942 25.9271 178.834 25.9271 178.762 25.9631C178.258 26.1071 177.682 26.2151 177.106 26.2511L172.138 26.5751V24.4871C172.138 23.9111 170.41 23.5871 169.942 23.5871C169.69 23.5871 169.546 23.6591 169.546 23.8391C169.546 23.9471 169.582 24.0551 169.69 24.2351C169.978 24.7031 170.05 25.2791 170.05 25.7111V26.6831L163.606 27.0791H163.21C162.742 27.0791 162.274 27.0431 161.842 26.9351C161.734 26.8991 161.662 26.8991 161.626 26.8991C161.518 26.8991 161.446 26.9711 161.446 27.0431C161.446 27.1871 161.698 28.7711 163.354 28.7711C163.714 28.7711 164.11 28.7351 164.578 28.6991L170.05 28.3751L170.086 30.0311L166.27 30.2111H165.91C165.478 30.2111 164.938 30.1751 164.542 30.0671C164.434 30.0311 164.362 30.0311 164.29 30.0311C164.11 30.0311 164.038 30.1031 164.038 30.2111C164.038 30.2831 164.038 30.3911 164.11 30.4991C164.326 30.9311 164.614 31.2911 164.974 31.5791C165.226 31.7951 165.658 31.8671 166.162 31.8671C166.522 31.8671 166.99 31.8311 167.458 31.7951L177.646 31.2191ZM180.994 56.0591C181.642 56.0591 182.002 54.7631 182.002 54.5471C182.002 54.2231 181.822 53.9351 181.282 53.6831C180.382 53.2151 175.162 50.7311 174.514 50.7311C174.226 50.7311 174.01 50.8751 173.722 51.3431C173.578 51.5951 173.506 51.8111 173.506 51.9911C173.506 52.3511 173.794 52.5311 174.226 52.7111C176.386 53.5751 178.69 54.6911 180.166 55.6991C180.526 55.9511 180.778 56.0591 180.994 56.0591ZM149.062 54.5111C150.358 54.5111 154.174 47.1671 154.174 46.2311C154.174 45.6191 152.626 44.8271 151.942 44.8271C151.726 44.8271 151.582 44.9351 151.582 45.1511C151.582 45.2231 151.582 45.3311 151.618 45.4031C151.654 45.5831 151.69 45.7631 151.69 45.9431C151.69 46.9511 150.718 50.1191 149.17 53.3951C148.99 53.7911 148.882 54.0791 148.882 54.2591C148.882 54.4391 148.954 54.5111 149.062 54.5111ZM176.386 48.7871L166.594 49.1111L166.522 47.4551L176.494 47.0591L176.386 48.7871ZM169.762 53.2871C169.906 53.2151 170.014 53.0711 170.014 52.8551C170.014 52.5311 169.15 50.7671 168.646 50.7671C168.43 50.7671 168.322 50.9831 168.214 51.1991C167.674 52.1711 163.822 54.2591 160.906 55.4111C160.438 55.5911 160.222 55.8431 160.222 56.0231C160.222 56.2031 160.366 56.3111 160.69 56.3111C161.338 56.3111 166.162 54.9791 169.762 53.2871ZM176.746 42.6671L166.378 43.1351L166.306 41.5871L176.818 41.1191L176.746 42.6671ZM176.566 45.6191L166.486 46.0511L166.414 44.5751L176.638 44.1071L176.566 45.6191ZM160.33 45.4391C160.186 45.0791 159.97 44.9351 159.682 44.9351C159.538 44.9351 159.322 44.9711 159.106 45.0791C158.638 45.2591 158.458 45.4391 158.458 45.6911C158.458 45.8351 158.494 45.9791 158.566 46.1591C159.178 47.6351 159.754 49.5431 160.186 51.3071C160.294 51.7751 160.474 52.0631 160.906 52.0631C161.446 52.0631 162.382 51.7031 162.382 51.1631C162.382 50.6231 161.23 47.2751 160.33 45.4391ZM178.546 36.4031L174.73 36.5831L174.946 34.3511L178.906 34.1351L178.546 36.4031ZM167.854 36.8711L164.038 37.0511L163.822 34.8911L167.674 34.7111L167.854 36.8711ZM172.75 36.6551L169.798 36.7991L169.618 34.6031L172.93 34.4231L172.75 36.6551Z" fill="black"/>
<path d="M212.098 54.6911C212.566 54.6551 212.998 54.6551 212.998 54.2591C212.998 53.9711 212.746 53.5031 212.098 52.6751L212.854 45.0791C212.89 44.8631 213.106 44.6111 213.106 44.2511C213.106 43.5311 212.026 42.9191 211.45 42.9191H211.126L192.802 43.7831C191.506 43.3871 190.75 43.2071 190.354 43.2071C190.102 43.2071 189.994 43.2791 189.994 43.4231C189.994 43.5671 190.102 43.7831 190.21 44.0351C190.462 44.5751 190.642 45.4391 190.714 46.2671L191.29 53.3591C191.29 53.5751 191.326 53.8271 191.326 54.1151C191.326 54.4751 191.29 54.8351 191.254 55.1591C191.254 55.2671 191.218 55.3751 191.218 55.4831C191.218 55.9871 191.434 56.3111 192.19 56.5991C192.55 56.7431 192.838 56.8151 193.054 56.8151C193.486 56.8151 193.63 56.5631 193.63 56.2031V56.0951L193.558 55.3391L212.098 54.6911ZM214.222 31.8671C213.574 33.1991 212.818 34.3871 211.702 35.8991C211.45 36.2231 211.342 36.4751 211.342 36.6551C211.342 36.7991 211.414 36.8711 211.558 36.8711C212.458 36.8711 215.518 33.9191 216.85 32.0111C217.03 31.7591 217.462 31.5071 217.462 31.1471C217.462 30.6791 216.67 29.8871 215.446 29.8871H215.194L206.446 30.3911C208.534 29.0951 211.234 26.6831 211.234 26.1431C211.234 25.4951 209.866 23.9831 209.254 23.9831C209.074 23.9831 208.93 24.1631 208.894 24.4511C208.75 25.3511 208.462 26.4671 205.654 29.8151C205.438 30.0671 205.294 30.3191 205.222 30.4631L202.234 30.6431L202.45 24.5231C202.45 23.6591 200.974 23.2271 200.038 23.2271C199.714 23.2271 199.498 23.2991 199.498 23.4791C199.498 23.5871 199.57 23.7311 199.714 23.8751C200.074 24.2711 200.182 24.7751 200.182 25.3151L200.11 30.7511L190.282 31.3271C190.534 29.8151 190.534 29.8151 190.534 29.7071C190.534 28.8791 189.346 28.8791 189.238 28.8791C188.77 28.8791 188.626 29.1311 188.554 29.7071C188.23 32.0111 187.366 34.8911 186.394 36.7991C186.286 36.9791 186.25 37.1591 186.25 37.3031C186.25 38.0231 187.726 38.4191 187.87 38.4191C188.194 38.4191 188.374 38.1671 188.518 37.8071C189.094 36.3311 189.562 34.7471 189.922 33.1631L214.222 31.8671ZM208.354 40.7591C208.786 40.7231 209.074 40.6871 209.074 40.4711C209.074 40.2551 208.822 39.8591 208.21 39.1391L208.714 36.1511C208.75 35.8991 208.966 35.7551 208.966 35.5031C208.966 34.9991 208.174 34.4231 207.598 34.4231H207.382L195.826 35.1071C194.638 34.7471 193.99 34.6031 193.63 34.6031C193.378 34.6031 193.306 34.6751 193.306 34.7831C193.306 34.9271 193.414 35.1431 193.558 35.3951C193.774 35.7911 193.99 36.2591 194.062 36.7991L194.494 39.7151C194.53 39.8951 194.53 40.0751 194.53 40.2911C194.53 40.5071 194.53 40.7231 194.494 40.9391V41.0831C194.494 41.9111 195.934 42.2711 196.222 42.2711C196.582 42.2711 196.726 42.0911 196.726 41.7311C196.726 41.6231 196.69 41.5511 196.69 41.4431V41.2991L208.354 40.7591ZM206.158 39.1031L196.474 39.5711L196.15 36.7991L206.518 36.2231L206.158 39.1031ZM209.938 52.8551L202.522 53.1431L202.558 49.8671L210.19 49.5071L209.938 52.8551ZM200.398 53.2151L193.45 53.4671L193.198 50.2271L200.434 49.9391L200.398 53.2151ZM210.298 47.7071L202.558 48.0671L202.594 45.1511L210.514 44.7551L210.298 47.7071ZM200.434 48.1391L193.09 48.4271L192.874 45.5831L200.47 45.2591L200.434 48.1391ZM196.042 30.7871C196.474 30.7871 197.302 30.0311 197.302 29.4551C197.302 28.8431 193.162 25.0271 192.406 25.0271C192.082 25.0271 191.398 25.6751 191.398 26.1071C191.398 26.3591 191.578 26.5031 191.794 26.6831C192.946 27.7271 194.134 28.9151 195.358 30.3551C195.574 30.6071 195.79 30.7871 196.042 30.7871Z" fill="black"/>
<path d="M239.35 50.7311C239.35 54.4751 241.294 54.7631 246.01 54.7631C253.534 54.7631 253.534 53.7551 253.534 48.3191C253.534 45.0791 253.354 44.3951 253.03 44.3951C252.814 44.3951 252.526 44.9711 252.346 46.0871C251.482 51.4871 251.05 52.0271 249.826 52.2071C248.746 52.3871 247.306 52.4951 245.902 52.4951C241.942 52.4951 241.69 52.0631 241.69 50.5511L241.762 41.0471C245.11 39.2831 247.774 37.5551 250.51 35.3951C250.618 35.3231 250.654 35.1791 250.654 34.9991C250.654 34.3511 249.358 32.4791 248.746 32.4791C248.566 32.4791 248.422 32.6231 248.314 32.8751C248.17 33.6311 247.774 34.2431 247.414 34.6031C246.01 35.9711 244.21 37.4111 241.762 38.8871L241.834 26.5391C241.834 25.3511 239.242 25.1711 239.206 25.1711C238.882 25.1711 238.702 25.2791 238.702 25.4591C238.702 25.5671 238.738 25.6751 238.81 25.7831C239.17 26.3591 239.458 27.0791 239.458 27.6551L239.35 50.7311ZM232.222 50.1911C230.71 50.6951 224.59 52.7111 222.394 52.7831C222.214 52.7831 222.034 52.8551 222.034 53.0351C222.034 53.4671 223.186 55.2311 224.23 55.2311C224.986 55.2311 230.962 53.0711 237.802 49.4351C238.414 49.1111 238.702 48.7511 238.702 48.4991C238.702 48.2831 238.522 48.1391 238.198 48.1391C238.018 48.1391 237.73 48.2111 237.406 48.3191C236.434 48.6791 235.498 49.0391 234.526 49.3631L234.598 27.4751C234.598 26.5751 232.474 26.1071 231.898 26.1071C231.646 26.1071 231.502 26.2151 231.502 26.3591C231.502 26.4671 231.538 26.5751 231.646 26.7191C232.006 27.2951 232.258 27.9431 232.258 28.5551V37.3031L226.282 37.6991C225.958 37.6991 225.634 37.7351 225.346 37.7351C224.95 37.7351 224.554 37.6991 224.158 37.6631C224.086 37.6631 224.014 37.6271 223.978 37.6271C223.834 37.6271 223.762 37.6991 223.762 37.8071C223.762 37.8791 223.762 37.9151 223.798 37.9871C223.906 38.4191 224.302 39.8231 225.85 39.8231C226.102 39.8231 226.462 39.7871 226.858 39.7511L232.258 39.3191L232.222 50.1911Z" fill="black"/>
<path d="M281.362 36.0071C281.794 35.9711 282.154 35.9351 282.154 35.6471C282.154 35.3951 281.938 35.0351 281.398 34.4231L282.154 27.6551C282.19 27.4751 282.37 27.3311 282.37 27.1151C282.37 26.9351 281.758 25.9631 280.714 25.9631H280.426L271.678 26.5031C272.254 25.9991 272.83 25.4591 273.334 24.8831C273.478 24.7031 273.55 24.5591 273.55 24.4511C273.55 23.9831 272.182 23.1191 271.642 23.1191C271.462 23.1191 271.318 23.2271 271.318 23.4791C271.282 23.8031 271.21 24.6671 269.446 26.6471L266.818 26.8271C265.558 26.3591 264.802 26.1791 264.442 26.1791C264.19 26.1791 264.082 26.2511 264.082 26.4311C264.082 26.5751 264.19 26.7551 264.334 27.0071C264.622 27.4391 264.838 28.0511 264.874 28.5551L265.306 34.4231C265.306 34.7111 265.342 34.9631 265.342 35.2151C265.342 35.5751 265.306 35.8991 265.27 36.1511C265.27 36.2591 265.234 36.3311 265.234 36.4391C265.234 37.1951 266.314 37.7711 266.782 37.7711C267.178 37.7711 267.466 37.4831 267.466 37.1231V37.0511L267.43 36.6191L281.362 36.0071ZM283.378 45.3671C283.918 45.3311 284.314 45.3671 284.314 45.0431C284.314 44.8631 284.098 44.4671 283.558 43.8191L284.422 39.1031C284.458 38.9231 284.674 38.8511 284.674 38.6351C284.674 38.3831 283.918 37.4111 283.198 37.4111C283.054 37.4111 282.91 37.4471 282.766 37.4471L264.73 38.3471C263.47 37.9151 262.786 37.7351 262.39 37.7351C262.138 37.7351 262.066 37.8071 262.066 37.9511C262.066 38.0591 262.138 38.2031 262.246 38.3831C262.498 38.7791 262.75 39.3551 262.822 40.0031L263.254 44.1071C263.29 44.5391 263.326 44.8271 263.326 45.1151C263.326 45.2951 263.29 45.5111 263.29 45.7271V45.9431C263.29 46.7351 264.442 47.2031 264.91 47.2031C265.27 47.2031 265.486 46.9511 265.486 46.5551V46.4471L265.45 45.9431L283.378 45.3671ZM289.174 49.7231C289.678 49.6871 290.074 49.5791 290.074 49.2551C290.074 48.7511 289.138 47.7071 288.526 47.7071C288.382 47.7071 288.238 47.7431 288.058 47.8151C287.626 47.9591 287.23 47.9951 286.69 48.0311L279.67 48.2831V47.1671C279.67 46.1231 277.69 45.9791 277.366 45.9791C277.15 45.9791 277.042 46.0511 277.042 46.1591C277.042 46.2311 277.078 46.3391 277.15 46.4831C277.33 46.8071 277.51 47.3471 277.51 47.6711V48.3551L269.698 48.6071L269.806 47.5991V47.4911C269.806 46.4471 267.61 46.2671 267.502 46.2671C267.286 46.2671 267.178 46.3391 267.178 46.4831C267.178 46.5551 267.178 46.6271 267.25 46.7351C267.43 47.0951 267.538 47.4911 267.538 47.8151V47.9591L267.43 48.6791L259.114 48.9671C258.61 48.9671 258.07 48.9311 257.566 48.8231C257.458 48.7871 257.386 48.7871 257.314 48.7871C257.206 48.7871 257.134 48.8591 257.134 49.0031C257.134 49.0751 257.134 49.1471 257.17 49.2191C257.242 49.5431 257.602 50.8031 258.754 50.8031C258.934 50.8031 259.186 50.7671 259.438 50.7671L266.854 50.5151C266.278 51.8471 264.874 53.8631 261.13 55.1951C260.41 55.4831 260.014 55.7711 260.014 55.9511C260.014 56.0951 260.194 56.2031 260.59 56.2031C262.03 56.2031 267.538 55.1591 269.194 50.4071L277.546 50.1191V52.8191C277.546 53.6111 277.438 54.2231 277.294 54.8711C277.258 54.9791 277.258 55.0871 277.258 55.1951C277.258 56.0231 278.842 56.5991 279.13 56.5991C279.562 56.5991 279.778 56.2751 279.778 55.6991L279.706 50.0471L289.174 49.7231ZM279.85 28.9511L266.962 29.6711L266.854 28.3031L279.958 27.5471L279.85 28.9511ZM279.49 34.5671L267.322 35.1431L267.25 33.7391L279.598 33.0551L279.49 34.5671ZM279.67 31.6871L267.142 32.3711L267.034 31.0391L279.778 30.3551L279.67 31.6871ZM281.578 43.8551L274.27 44.1431V42.4871L281.794 42.2351L281.578 43.8551ZM282.01 40.7231L274.27 41.0111V39.4991L282.226 39.1391L282.01 40.7231ZM272.254 44.2151L265.306 44.4671L265.162 42.8111L272.29 42.5591L272.254 44.2151ZM272.29 41.0831L265.054 41.3711L264.91 39.8951L272.326 39.5711L272.29 41.0831Z" fill="black"/>
</svg>
