<svg width="293" height="83" viewBox="0 0 293 83" fill="none" xmlns="http://www.w3.org/2000/svg">
<rect x="1" y="1" width="291" height="81" fill="white" stroke="black" stroke-width="2"/>
<path d="M55.48 32.8473C55.876 32.8113 56.2 32.6673 56.2 32.3793C56.2 31.9473 55.048 30.7233 54.22 30.7233C54.112 30.7233 53.968 30.7593 53.86 30.7953C53.284 31.0113 52.78 31.1193 52.204 31.1553L45.364 31.5873C46.084 29.6433 47.38 25.8273 47.38 25.1433C47.38 24.5673 46.048 23.4153 45.112 23.4153C44.86 23.4153 44.752 23.5233 44.752 23.7753V24.2793C44.752 26.5113 42.376 35.0073 39.568 40.4073C39.316 40.9113 39.208 41.3073 39.208 41.5593C39.208 41.7393 39.244 41.8473 39.388 41.8473C40 41.8473 41.692 39.6873 43.24 36.5193C44.104 39.1113 45.22 41.8473 46.552 44.1873C44.212 48.2553 40.972 51.4953 38.272 53.9433C37.84 54.3393 37.624 54.6633 37.624 54.8793C37.624 55.0233 37.732 55.0953 37.948 55.0953C39.028 55.0953 44.968 50.5953 47.776 46.1673C50.476 50.3073 54.94 54.8793 55.66 54.8793C56.308 54.8793 57.604 53.9073 57.604 53.5833C57.604 53.4393 57.46 53.2593 57.208 53.0433C53.86 50.3073 51.052 47.5353 48.928 44.2233C50.872 40.6233 52.06 37.0953 52.888 32.9913L55.48 32.8473ZM33.232 46.7433C34.312 48.3273 35.356 49.9473 36.22 51.4593C36.436 51.8553 36.724 52.1073 37.048 52.1073C37.552 52.1073 38.452 51.4953 38.452 50.8833C38.452 50.5953 38.38 50.0913 34.492 44.9073C35.5 43.2873 36.544 41.3433 37.408 39.3993C37.444 39.2913 37.48 39.1833 37.48 39.0753C37.48 38.2473 35.896 37.0953 35.32 37.0953C35.104 37.0953 34.996 37.2753 34.996 37.6713V38.1033C34.996 38.5713 34.924 39.8313 33.124 43.1433C30.172 39.3273 29.524 38.5713 29.02 38.5713C28.732 38.5713 27.904 39.0033 27.904 39.5073C27.904 39.7233 28.048 39.9033 28.264 40.1913C29.488 41.6313 30.748 43.2873 32.008 44.9793C29.452 49.0473 25.06 52.6473 24.124 53.4033C23.764 53.7273 23.584 54.0153 23.584 54.2313C23.584 54.3753 23.692 54.4833 23.908 54.4833C24.772 54.4833 29.56 51.3873 32.908 47.1753L33.232 46.7433ZM40.576 30.5073C40.936 30.4713 41.188 30.2553 41.188 29.9673C41.188 29.4633 40.216 28.4193 39.352 28.4193C39.244 28.4193 39.136 28.4193 39.028 28.4553C38.452 28.6353 37.84 28.7073 37.336 28.7433L33.772 28.9593L33.808 25.2873C33.808 24.6753 33.628 24.2433 32.692 24.0273C32.188 23.9193 31.792 23.8473 31.54 23.8473C31.252 23.8473 31.108 23.9193 31.108 24.0993C31.108 24.1713 31.144 24.3153 31.252 24.4953C31.504 24.9273 31.72 25.6473 31.72 26.1153L31.684 29.0673L27.04 29.3193C26.896 29.3193 26.716 29.3553 26.536 29.3553C26.104 29.3553 25.636 29.2833 25.204 29.1753C25.132 29.1393 25.06 29.1393 25.024 29.1393C24.844 29.1393 24.772 29.2113 24.772 29.3913C24.772 29.4633 24.808 29.5353 24.808 29.6073C24.844 29.7873 25.312 31.2633 26.68 31.2633C27.04 31.2633 27.436 31.2273 27.904 31.1913L40.576 30.5073ZM50.404 33.1353C49.756 36.2673 48.892 39.3633 47.632 42.0633C46.372 39.7233 45.292 36.8793 44.428 33.9633L44.644 33.4953L50.404 33.1353ZM24.664 40.7673C26.104 40.7673 31.504 34.5033 31.504 33.4953C31.504 32.7393 29.776 31.6953 29.452 31.6953C29.164 31.6953 29.056 31.9113 29.056 32.3433C29.056 34.2873 25.492 38.8953 24.844 39.6873C24.52 40.0473 24.412 40.3353 24.412 40.5153C24.412 40.6593 24.484 40.7673 24.664 40.7673ZM40 37.4553C40 37.0953 35.932 31.7673 35.176 31.7673C34.672 31.7673 33.988 32.6313 33.988 32.8833C33.988 33.0633 34.096 33.2073 34.276 33.3873C35.356 34.5033 36.796 36.6273 37.804 38.1393C38.092 38.5713 38.344 38.7873 38.668 38.7873C39.244 38.7873 40 37.7793 40 37.4553Z" fill="black"/>
<path d="M72.868 52.8273C71.428 52.4673 70.312 52.0713 69.16 51.5673C68.8 51.4233 68.548 51.3513 68.368 51.3513C68.152 51.3513 68.08 51.4233 68.08 51.5673C68.08 52.4673 72.292 55.4193 73.3 55.4193C73.84 55.4193 75.1 54.7713 75.1 53.3673C75.1 53.0433 75.064 52.6113 75.064 52.0713L74.812 38.1033C74.812 37.8513 74.992 37.6353 74.992 37.3473C74.992 37.0953 74.848 36.7713 74.308 36.3753C73.948 36.0513 73.768 35.9793 73.516 35.9793C73.372 35.9793 73.228 36.0153 73.048 36.0153L65.308 36.6273C63.976 36.0873 63.292 35.8353 62.932 35.8353C62.752 35.8353 62.68 35.9073 62.68 36.0513C62.68 36.1953 62.752 36.4113 62.824 36.6633C63.076 37.2753 63.148 37.7793 63.148 38.5353V39.0033L62.86 51.3873C62.86 52.1073 62.788 52.6473 62.68 53.1873C62.644 53.3313 62.644 53.4393 62.644 53.5833C62.644 54.5913 64.336 55.1673 64.444 55.1673C64.876 55.1673 65.092 54.6993 65.092 53.9433L65.164 47.7153L72.832 47.2833L72.868 52.8273ZM78.268 50.6673C78.268 53.7273 79.744 54.1593 84.46 54.1593C86.26 54.1593 88.096 54.0153 89.788 53.6913C92.092 53.2953 92.092 51.9273 92.092 48.0393C92.092 46.7793 92.02 44.8353 91.48 44.8353C91.228 44.8353 90.976 45.2313 90.904 46.0233C90.436 50.9913 90.112 51.1353 88.996 51.4953C87.736 51.7833 86.116 51.8913 84.568 51.8913C80.464 51.8913 80.464 51.5313 80.464 50.5233L80.5 47.0313C83.38 46.1673 85.972 45.2313 89.104 43.7913C89.392 43.6473 89.644 43.5033 89.644 43.1073C89.644 42.6753 88.852 40.7313 88.348 40.7313C88.204 40.7313 88.06 40.9113 87.952 41.1633C87.592 41.7753 87.268 42.0993 86.692 42.4233C85.108 43.3593 82.912 44.3313 80.536 45.1233L80.608 39.4353C80.608 38.6073 78.916 38.1753 78.268 38.1753C77.908 38.1753 77.728 38.2833 77.728 38.4633C77.728 38.4993 77.764 38.5713 77.8 38.6433C78.196 39.1833 78.34 39.7233 78.34 40.2993L78.268 50.6673ZM78.448 34.9713C78.448 36.7713 79.456 37.9233 80.968 38.0673C82.012 38.1753 83.092 38.2113 84.172 38.2113C90.22 38.2113 90.616 37.4193 90.616 34.6833C90.616 31.6953 90.4 30.5073 89.968 30.5073C89.752 30.5073 89.464 30.9393 89.356 31.8033C88.888 35.4753 88.78 35.7273 87.52 35.9073C86.548 36.0513 85.324 36.1593 84.172 36.1593C81.04 36.1593 80.644 35.8353 80.644 34.8633L80.68 32.6313C83.308 31.6953 85.792 30.7593 88.528 29.2833C88.708 29.1753 88.96 29.0673 88.96 28.6713C88.96 28.3113 88.384 26.4393 87.772 26.4393C87.628 26.4393 87.52 26.5473 87.376 26.7993C86.656 28.1313 82.912 29.9313 80.716 30.7953L80.788 24.2433C80.788 23.3793 78.952 22.9473 78.304 22.9473C78.052 22.9473 77.944 23.0193 77.944 23.1273C77.944 23.1993 77.98 23.2713 78.052 23.3793C78.448 23.9193 78.52 24.6393 78.52 24.9633L78.448 34.9713ZM62.392 32.4873C62.212 32.5233 62.032 32.5233 61.852 32.5233C61.42 32.5233 61.024 32.4513 60.592 32.4153H60.376C60.088 32.4153 59.98 32.4873 59.98 32.6673C59.98 32.7393 60.016 32.8113 60.052 32.9193C60.7 34.0713 61.06 34.6473 61.816 34.6473C62.32 34.6473 69.448 33.4953 73.768 32.5953C74.2 33.2073 74.596 33.8553 74.884 34.3953C75.208 35.0073 75.46 35.2593 75.748 35.2593C75.82 35.2593 77.152 34.7193 77.152 33.9633C77.152 33.1353 73.192 28.5633 72.508 27.8793C72.148 27.4833 71.896 27.2673 71.608 27.2673C71.104 27.2673 70.456 27.9873 70.456 28.3473C70.456 28.5633 70.636 28.7793 70.924 29.0673C71.428 29.6073 72.004 30.2913 72.58 31.0113C70.168 31.5513 67.9 31.8753 65.596 32.1273C68.08 28.6353 69.628 25.4673 69.628 25.0353C69.628 24.0993 67.792 23.1273 67.432 23.1273C67.216 23.1273 67.108 23.2713 67.108 23.5233V23.9913C67.108 25.6473 65.092 29.2473 62.932 32.4153L62.392 32.4873ZM72.796 45.4833L65.164 45.9153L65.2 43.0353L72.76 42.5313L72.796 45.4833ZM72.76 40.8393L65.2 41.2713L65.236 38.4633L72.724 37.9593L72.76 40.8393Z" fill="black"/>
<path d="M135.674 45.0153C135.422 47.8593 135.026 50.7033 134.126 52.5753C134.09 52.6833 134.018 52.7553 133.946 52.7553C133.91 52.7553 133.874 52.7193 133.838 52.7193C132.506 52.3233 130.814 51.8193 129.518 51.3153C129.122 51.1713 128.798 51.0993 128.618 51.0993C128.402 51.0993 128.294 51.1713 128.294 51.3153C128.294 52.0353 133.334 55.4553 134.378 55.4553C135.638 55.4553 135.998 54.2673 136.61 52.3233C137.078 50.8473 137.582 47.8593 137.798 45.0513C137.834 44.7993 138.014 44.5833 138.014 44.2953C138.014 43.7913 137.402 43.2513 136.574 43.2513H136.394L125.666 43.6833L125.702 41.5233L133.046 41.1633C133.406 41.1273 133.622 41.0193 133.622 40.7673C133.622 40.3353 132.794 39.4713 132.002 39.4713C131.894 39.4713 131.786 39.4713 131.678 39.5073C131.318 39.6153 130.742 39.6873 130.274 39.7233L125.738 39.9393L125.774 37.9233L132.938 37.4913C133.298 37.4553 133.586 37.3833 133.586 37.1313C133.586 36.8793 132.722 35.7273 131.894 35.7273C131.786 35.7273 131.678 35.7633 131.57 35.7993C131.21 35.9433 130.67 36.0153 130.238 36.0513L125.81 36.3393V34.6113L134.774 34.0713C135.134 34.0353 135.422 33.9633 135.422 33.6753C135.422 33.3513 134.558 32.2353 133.73 32.2353C133.586 32.2353 133.478 32.2713 133.37 32.3073C132.974 32.4513 132.47 32.4873 132.002 32.5233L116.99 33.4593C115.874 33.0273 115.19 32.8473 114.83 32.8473C114.578 32.8473 114.47 32.9553 114.47 33.0993C114.47 33.2433 114.506 33.4233 114.614 33.6393C114.83 34.1073 114.902 34.6473 114.902 35.2593V43.3233C114.902 43.8633 114.83 44.5473 114.686 45.4473V45.6273C114.686 46.4553 115.946 46.7793 116.306 46.7793C116.702 46.7793 116.918 46.5273 116.918 45.9513V45.6993L135.674 45.0153ZM135.854 30.5433C136.394 30.5073 136.826 30.4713 136.826 30.1473C136.826 29.9313 136.61 29.5353 136.142 28.9233L137.006 25.8993C137.042 25.7193 137.294 25.5393 137.294 25.2513C137.294 24.7113 136.394 24.1353 135.782 24.1353H135.494L114.11 25.2153C112.886 24.8553 112.166 24.7113 111.734 24.7113C111.41 24.7113 111.266 24.8193 111.266 24.9633C111.266 25.1073 111.41 25.3233 111.554 25.5393C111.878 25.9713 112.058 26.5473 112.166 27.1233L112.67 29.5713C112.742 29.9313 112.778 30.3273 112.778 30.7233V31.2993C112.778 31.7313 113.21 32.5593 114.362 32.5593C114.758 32.5593 115.082 32.3793 115.082 31.9473C115.082 31.8753 115.046 31.8033 115.046 31.7313L115.01 31.4073L135.854 30.5433ZM134.09 28.9953L128.654 29.2473L128.906 26.2233L134.774 25.8993L134.09 28.9953ZM111.05 54.6273C112.022 54.6273 114.578 49.2273 114.974 48.3633C115.082 48.1833 115.118 48.0033 115.118 47.8233C115.118 47.2113 114.11 46.8153 113.894 46.8153C113.642 46.8153 113.462 47.0313 113.246 47.4633C112.598 48.9033 110.942 51.5313 110.078 52.5393C109.862 52.8273 109.718 53.0433 109.718 53.2953C109.718 53.9073 110.582 54.6273 111.05 54.6273ZM119.942 29.6073L114.722 29.8233L114.254 26.9793L119.582 26.6913L119.942 29.6073ZM126.638 29.3193L121.922 29.5353L121.562 26.5833L126.89 26.3313L126.638 29.3193ZM123.722 43.7553L116.918 44.0073V41.9553L123.758 41.6313L123.722 43.7553ZM123.794 40.0473L116.882 40.4073V38.4273L123.794 38.0313V40.0473ZM121.166 52.1793C121.166 52.0713 121.13 51.9273 121.094 51.7473C120.77 50.6673 119.51 46.6713 118.862 46.6713C118.61 46.6713 117.602 46.9233 117.602 47.4633C117.602 47.5713 117.638 47.7153 117.71 47.8953C118.214 49.0833 118.826 51.1353 119.15 52.4313C119.258 52.8633 119.366 53.1153 119.726 53.1153C120.23 53.1153 121.166 52.7193 121.166 52.1793ZM123.83 36.4473L116.882 36.8793V35.1153L123.866 34.7193L123.83 36.4473ZM126.998 50.6313C126.998 49.9473 124.19 46.2393 123.65 46.2393C123.362 46.2393 122.498 46.7073 122.498 47.2113C122.498 47.3913 122.57 47.5713 122.75 47.7513C123.542 48.6873 124.442 50.1633 125.09 51.3153C125.306 51.6753 125.45 51.8553 125.666 51.8553C126.134 51.8553 126.998 51.1713 126.998 50.6313ZM127.97 47.1753C128.762 47.9673 130.022 49.3353 130.634 50.2353C130.814 50.4873 130.958 50.6313 131.174 50.6313C131.534 50.6313 132.398 49.8393 132.398 49.3353C132.398 48.6153 129.59 46.2033 129.158 45.8433C128.906 45.6993 128.762 45.5913 128.582 45.5913C128.402 45.5913 128.222 45.7353 127.97 46.0233C127.754 46.2753 127.646 46.4913 127.646 46.6713C127.646 46.8873 127.754 47.0313 127.97 47.1753Z" fill="black"/>
<path d="M174.662 43.3593C175.202 43.3233 175.634 43.1793 175.634 42.8193C175.634 42.2793 174.302 41.1273 173.654 41.1273C173.546 41.1273 173.438 41.1273 173.366 41.1633C172.862 41.3433 172.358 41.4513 171.89 41.4873L161.558 41.9553V39.2913C161.558 38.5713 160.046 38.1753 159.218 38.1753C158.966 38.1753 158.858 38.2473 158.858 38.3553C158.858 38.4273 158.894 38.5353 158.966 38.6433C159.29 39.1833 159.362 39.6153 159.362 40.2633V42.0633L147.878 42.6033H147.41C146.942 42.6033 146.546 42.5673 146.042 42.4233C145.97 42.3873 145.934 42.3873 145.898 42.3873C145.79 42.3873 145.718 42.4593 145.718 42.5673C145.718 42.6033 145.718 42.6753 145.754 42.7113C146.294 44.5833 147.338 44.5833 147.914 44.5833C148.13 44.5833 148.418 44.5473 148.706 44.5473L157.742 44.1513C153.53 47.6433 149.606 50.1273 145.25 51.9273C144.638 52.1793 144.35 52.4673 144.35 52.7193C144.35 52.8993 144.566 53.0073 144.89 53.0073C144.926 53.0073 151.586 51.9993 159.362 45.4113V51.8913C159.362 52.8273 159.29 53.4393 159.182 54.1593C159.146 54.2673 159.146 54.4113 159.146 54.4833C159.146 55.3473 160.55 55.9233 161.018 55.9233C161.342 55.9233 161.558 55.6713 161.558 55.1313V45.2673C169.442 51.0993 175.31 52.6473 175.634 52.6473C176.354 52.6473 177.542 51.3873 177.542 51.0633C177.542 50.8833 177.326 50.7393 176.966 50.6313C171.35 48.9753 166.886 46.7793 162.71 43.8993L174.662 43.3593ZM172.61 36.0153C173.186 35.9793 173.582 35.9073 173.582 35.5473C173.582 35.2593 173.366 34.8273 172.79 34.1793L173.546 28.7073C173.582 28.5273 173.798 28.3113 173.798 28.0233C173.798 27.6633 173.366 26.7633 171.998 26.7633H171.674L164.798 27.2313C163.538 26.9073 162.782 26.7633 162.35 26.7633C161.99 26.7633 161.882 26.8713 161.882 27.0513C161.882 27.1953 161.954 27.4113 162.098 27.6633C162.422 28.2753 162.53 28.8513 162.566 29.3913L163.034 34.4313C163.07 34.7193 163.07 35.1153 163.07 35.5473V36.2313C163.07 37.5993 164.762 37.7073 164.906 37.7073C165.374 37.7073 165.482 37.4193 165.482 37.0233V36.8433L165.446 36.3753L172.61 36.0153ZM158.03 29.2833C157.562 33.2433 156.734 36.8433 156.302 36.8433C156.194 36.8433 156.05 36.7713 152.99 35.3313C152.738 35.2233 152.522 35.1513 152.378 35.1513C152.162 35.1513 152.054 35.2593 152.054 35.4033C152.054 35.8353 155.33 39.1473 156.842 39.1473C158.318 39.1473 158.678 37.7433 159.074 36.2673C159.434 34.8993 159.974 32.2353 160.298 29.2473C160.334 29.0313 160.514 28.7793 160.514 28.4913C160.514 28.2393 160.37 27.9513 159.902 27.5913C159.542 27.3753 159.182 27.3033 158.822 27.3033H158.57L154.826 27.5553C155.078 26.6193 155.294 25.6473 155.474 24.6033C155.474 24.5313 155.51 24.4593 155.51 24.3873C155.51 23.5593 153.71 22.9833 153.134 22.9833C152.918 22.9833 152.81 23.0913 152.81 23.3073C152.81 23.3793 152.846 23.5233 152.882 23.6673C152.954 23.9193 152.99 24.2073 152.99 24.4233C152.99 24.9273 152.702 26.4033 152.378 27.7353L148.742 27.9873C148.562 27.9873 148.382 28.0233 148.202 28.0233C147.842 28.0233 147.446 27.9873 147.086 27.8793C146.978 27.8433 146.906 27.8433 146.834 27.8433C146.69 27.8433 146.582 27.9153 146.582 28.0593C146.582 28.0953 146.582 28.1673 146.618 28.2393C147.23 29.8593 147.986 29.9673 148.526 29.9673C148.85 29.9673 149.21 29.9313 149.642 29.8953L151.802 29.7513C150.614 33.0993 148.706 36.0153 145.574 38.6433C145.178 38.9673 144.998 39.2553 144.998 39.4713C144.998 39.6153 145.106 39.7233 145.322 39.7233C145.934 39.7233 151.658 36.8433 154.214 29.5713L158.03 29.2833ZM170.594 34.2513L165.266 34.5393L164.762 29.1033L171.098 28.7073L170.594 34.2513Z" fill="black"/>
<path d="M179.99 49.4793C179.774 50.0913 179.378 50.9553 178.982 51.6753C178.91 51.8193 178.874 51.9993 178.874 52.1433C178.874 52.8633 179.666 53.5113 180.278 53.5113C180.53 53.5113 180.782 53.3673 180.89 53.0433C181.178 52.1073 181.502 51.2433 181.826 50.3073L189.602 28.9593C189.926 28.0953 190.286 27.3393 190.61 26.6193C190.646 26.5833 190.646 26.5113 190.646 26.4753C190.646 25.9353 189.638 24.9633 189.026 24.9633C188.81 24.9633 188.63 25.1073 188.558 25.4313C188.306 26.4033 187.946 27.5553 187.694 28.2393L179.99 49.4793Z" fill="black"/>
<path d="M224.364 43.9713C224.724 43.9353 225.012 43.7913 225.012 43.5033C225.012 43.0713 223.932 41.8473 223.212 41.8473C223.104 41.8473 222.996 41.8833 222.888 41.9193C222.168 42.1353 221.664 42.2433 221.052 42.2793L220.188 42.3513V38.7513L225.588 38.4633C225.984 38.4273 226.236 38.2833 226.236 38.0313C226.236 37.5993 225.084 36.3393 224.292 36.3393C224.184 36.3393 224.112 36.3753 224.004 36.4113C223.392 36.6633 222.816 36.7713 222.204 36.8073L220.512 36.9153C221.232 35.7993 222.06 34.2153 222.852 32.4513C222.888 32.3433 222.924 32.1993 222.924 32.0913C222.924 31.0473 221.016 30.4713 220.944 30.4713C220.728 30.4713 220.62 30.6153 220.62 30.8673C220.62 30.9393 220.656 31.0113 220.656 31.0833C220.692 31.1913 220.692 31.2633 220.692 31.4073C220.692 32.5953 219.684 35.2953 218.928 36.9873L215.292 37.2033H214.968C214.464 37.2033 213.888 37.1313 213.384 37.0233C213.276 36.9873 213.204 36.9873 213.168 36.9873C213.06 36.9873 212.988 37.0233 212.988 37.1673C212.988 38.0313 213.744 39.0753 214.644 39.0753C214.896 39.0753 215.22 39.0033 215.58 39.0033L218.172 38.8593V42.4593L215.796 42.6393H215.4C214.968 42.6393 214.428 42.6033 213.888 42.4953C213.78 42.4593 213.672 42.4593 213.6 42.4593C213.492 42.4593 213.42 42.4953 213.42 42.6393C213.42 43.2153 213.996 44.4753 215.22 44.4753C215.472 44.4753 215.76 44.4393 216.12 44.4393L218.136 44.3313V50.1273C218.136 51.4233 218.064 52.5393 217.884 53.6553C217.848 53.8353 217.848 53.9793 217.848 54.0873C217.848 55.0233 219.108 55.5273 219.54 55.5273C219.972 55.5273 220.152 55.2033 220.152 54.6273L220.188 44.2233L224.364 43.9713ZM204.168 39.3993C204.564 39.3633 204.816 39.2193 204.816 38.9673C204.816 38.7153 204.024 37.4553 203.196 37.4553C203.088 37.4553 203.016 37.4553 202.908 37.4913C202.224 37.6713 201.432 37.7793 200.784 37.8153L200.388 37.8513C201.828 35.5473 202.908 33.3873 202.908 32.9553C202.908 32.2353 201.324 31.4073 201.036 31.4073C200.856 31.4073 200.748 31.5513 200.748 31.8033V32.1993C200.748 33.8913 199.272 37.1673 198.876 37.9593L194.772 38.2113H194.376C193.908 38.2113 193.368 38.1753 192.864 38.0673C192.756 38.0313 192.684 38.0313 192.612 38.0313C192.504 38.0313 192.432 38.0673 192.432 38.2113C192.432 38.7153 192.792 39.4713 193.26 39.8673C193.476 40.0473 193.8 40.0833 194.232 40.0833C194.628 40.0833 195.096 40.0473 195.564 40.0113L198.048 39.8313C198.048 41.0913 198.012 42.2433 197.904 43.2873C195.132 43.8633 194.016 43.8633 194.016 43.8633C193.764 43.8633 193.476 43.8273 193.152 43.7913H193.044C192.864 43.7913 192.756 43.8633 192.756 44.0073C192.756 44.5113 193.512 46.0233 194.412 46.0233C194.844 46.0233 196.212 45.6273 197.688 45.1233C197.184 48.4353 196.104 50.8113 194.232 53.4753C193.908 53.9433 193.764 54.3033 193.764 54.5553C193.764 54.6993 193.836 54.8073 193.98 54.8073C194.196 54.8073 194.52 54.6273 194.952 54.1953C197.94 51.2073 199.2 48.2193 199.776 44.4393C204.384 42.7473 204.672 42.3513 204.672 42.0633C204.672 41.8833 204.528 41.7753 204.24 41.7753C204.132 41.7753 203.988 41.8113 203.844 41.8473C202.512 42.2433 201.108 42.6033 199.92 42.8553C200.028 41.8833 200.064 40.8753 200.064 39.6873L204.168 39.3993ZM212.196 51.5313C212.628 51.4953 213.06 51.4593 213.06 51.0993C213.06 50.8473 212.88 50.4873 212.304 49.8753L212.952 45.3753C212.988 45.1593 213.132 45.0153 213.132 44.7993C213.132 44.4033 212.412 43.5753 211.512 43.5753H211.224L207.228 43.8273C206.148 43.3953 205.5 43.2513 205.176 43.2513C204.888 43.2513 204.816 43.3593 204.816 43.5033C204.816 43.6113 204.852 43.7193 204.924 43.8633C205.176 44.3313 205.356 45.0153 205.392 45.5913L205.752 49.9113V50.3793C205.752 50.7753 205.716 51.1713 205.68 51.6753V51.7833C205.68 52.3593 206.508 53.0793 207.228 53.0793C207.552 53.0793 207.804 52.8633 207.804 52.4313V52.3593L207.768 51.6753L212.196 51.5313ZM213.492 32.3433C213.816 32.3073 214.176 32.1633 214.176 31.8753C214.176 31.2633 212.844 30.3633 212.376 30.3633C212.304 30.3633 212.232 30.3633 212.16 30.3993C211.62 30.5793 211.26 30.6153 210.72 30.6513L205.752 31.0113H205.356C204.924 31.0113 204.528 30.9753 204.168 30.8313C204.312 30.7593 204.42 30.6513 204.42 30.4713C204.42 29.7153 203.016 28.7433 202.656 28.7433C202.476 28.7433 202.296 28.8153 202.116 28.8873C201.576 29.1033 201.108 29.1753 200.64 29.2113L199.884 29.2473V25.4673C199.884 24.1353 197.724 24.1353 197.616 24.1353C197.364 24.1353 197.256 24.2073 197.256 24.3513C197.256 24.4593 197.328 24.6033 197.436 24.8193C197.724 25.2513 197.832 25.7913 197.832 26.2593L197.904 29.3913L195.636 29.5353H195.24C194.808 29.5353 194.268 29.4993 193.728 29.3913C193.62 29.3553 193.512 29.3553 193.44 29.3553C193.332 29.3553 193.26 29.3913 193.26 29.5353C193.26 30.2553 193.8 31.4073 195.096 31.4073C195.384 31.4073 195.744 31.3713 196.176 31.3353L203.484 30.8673C203.628 31.3713 204.168 32.8833 205.356 32.8833C205.608 32.8833 205.932 32.8473 206.328 32.8113L213.492 32.3433ZM224.364 29.9673C224.688 29.9313 224.94 29.7873 224.94 29.5353C224.94 29.3193 224.76 29.0313 224.4 28.6713C223.86 28.0953 223.464 27.8793 223.104 27.8793C222.996 27.8793 222.888 27.9153 222.78 27.9513C222.132 28.2033 221.628 28.3113 220.944 28.3473L219.864 28.4193V24.3873C219.864 23.2353 217.668 23.1993 217.596 23.1993C217.344 23.1993 217.236 23.2713 217.236 23.4153C217.236 23.5233 217.308 23.6673 217.416 23.8833C217.704 24.3153 217.812 24.8553 217.812 25.3233L217.884 28.5273L215.292 28.6713H214.896C214.464 28.6713 213.924 28.6353 213.384 28.5273C213.276 28.4913 213.204 28.4913 213.132 28.4913C213.024 28.4913 212.952 28.5273 212.952 28.6713C212.952 28.7433 212.988 28.8153 213.024 28.9593C213.456 30.1473 213.852 30.5073 214.788 30.5073C215.04 30.5073 215.364 30.5073 215.724 30.4713L224.256 29.9673H224.364ZM210.432 49.8393L207.624 49.9473L207.3 45.5913L210.864 45.3753L210.432 49.8393ZM212.304 36.5913C212.736 36.5553 213.132 36.3753 213.132 36.0513C213.132 35.4753 211.836 34.6833 211.404 34.6833C211.296 34.6833 211.188 34.6833 211.044 34.7553C210.756 34.8633 210.324 34.9713 209.748 35.0073L206.724 35.1873H206.508C206.148 35.1873 205.608 35.1153 205.32 35.0433C205.248 35.0073 205.176 35.0073 205.14 35.0073C204.996 35.0073 204.924 35.0793 204.924 35.1873C204.924 35.2233 205.212 36.1593 205.716 36.6273C205.968 36.8433 206.256 36.9153 206.724 36.9153C206.976 36.9153 207.228 36.9153 207.588 36.8793L212.304 36.5913ZM212.232 40.7673C212.7 40.7313 213.06 40.5873 213.06 40.2993C213.06 39.6153 211.836 38.8593 211.44 38.8593C211.296 38.8593 211.116 38.9313 210.9 39.0033C210.648 39.1113 210.324 39.1473 209.856 39.1833L207.012 39.3273H206.832C206.328 39.3273 205.752 39.2193 205.536 39.1113C205.464 39.0753 205.392 39.0753 205.356 39.0753C205.248 39.0753 205.176 39.1113 205.176 39.2553C205.176 39.7233 205.824 40.6593 205.896 40.7673C206.076 41.0193 206.544 41.0913 207.084 41.0913C207.3 41.0913 207.552 41.0553 207.768 41.0553L212.232 40.7673ZM210.252 29.9673C210.972 29.9673 211.368 28.7793 211.368 28.7073C211.368 27.7353 206.76 25.3233 206.292 25.3233C206.076 25.3233 205.896 25.4673 205.68 25.7913C205.536 26.0073 205.464 26.1873 205.464 26.3313C205.464 26.5833 205.644 26.7633 205.968 26.9433C207.3 27.7353 208.596 28.7073 209.82 29.7873C209.964 29.9313 210.108 29.9673 210.252 29.9673ZM198.732 36.6633C198.732 36.1233 197.796 33.9273 197.004 32.3793C196.824 32.0553 196.644 31.9113 196.392 31.9113C196.176 31.9113 195.348 32.0193 195.348 32.6313C195.348 32.7753 195.384 32.9193 195.456 33.0993C196.032 34.4673 196.5 35.8353 196.752 36.8433C196.86 37.3473 197.004 37.5633 197.364 37.5633C197.904 37.5633 198.732 37.2393 198.732 36.6633ZM218.748 35.7273C218.748 35.0433 216.948 31.8033 216.804 31.5513C216.552 31.1913 216.372 31.0113 216.12 31.0113C216.048 31.0113 215.148 31.2633 215.148 31.7673C215.148 31.9473 215.184 32.1273 215.328 32.3433C215.94 33.4593 216.48 34.7193 216.876 35.9073C217.056 36.3753 217.2 36.6273 217.488 36.6273C217.92 36.6273 218.748 36.2313 218.748 35.7273Z" fill="black"/>
<path d="M254.244 52.2153C254.892 53.1873 256.836 55.3473 257.772 55.3473C258.384 55.3473 259.32 54.7353 259.32 53.5833C259.32 53.2593 259.284 52.8633 259.284 52.4313L259.464 41.0553C259.464 40.7313 259.68 40.4433 259.68 40.1193C259.68 39.4353 258.744 38.8233 258.168 38.8233C258.024 38.8233 257.916 38.8593 257.736 38.8593L244.632 39.4713C243.336 39.0393 242.652 38.8233 242.328 38.8233C242.112 38.8233 242.04 38.8953 242.04 39.0393C242.04 39.1833 242.112 39.3273 242.184 39.5433C242.436 40.1913 242.544 40.8033 242.544 41.4873L242.724 51.3153C242.724 51.8193 242.652 52.5393 242.508 53.3313C242.472 53.4393 242.472 53.5473 242.472 53.6553C242.472 54.6273 243.804 54.9873 244.272 54.9873C244.668 54.9873 244.812 54.6993 244.812 54.2313L244.704 47.1393L247.584 47.0313L247.62 49.8753C247.62 50.5233 247.584 51.4233 247.476 52.3953V52.5393C247.476 53.5113 248.88 53.8353 249.132 53.8353C249.528 53.8353 249.708 53.5473 249.708 52.9713L249.6 46.9593L252.228 46.8513V49.5153C252.228 50.4513 252.192 51.2073 252.048 52.0353C252.048 52.1073 252.012 52.1793 252.012 52.2513C252.012 53.0073 253.236 53.4753 253.632 53.4753C254.1 53.4753 254.244 53.1153 254.244 52.6113V52.2153ZM255.108 36.0873C255.648 36.0513 256.08 35.8713 256.08 35.5113C256.08 34.8993 254.64 34.0353 254.244 34.0353C254.136 34.0353 254.064 34.0353 253.992 34.0713C253.596 34.2513 253.344 34.2873 252.804 34.3233L247.26 34.7193H246.9C246.504 34.7193 246.072 34.6833 245.712 34.6113C245.532 34.5753 245.388 34.5753 245.28 34.5753C247.152 32.7393 248.556 30.6153 250.068 28.3833C254.352 33.2433 260.544 38.2833 260.976 38.2833C261.552 38.2833 262.848 37.1313 262.848 36.8073C262.848 36.6273 262.668 36.4833 262.38 36.2673C258.456 33.6033 254.496 30.4713 251.184 26.6193C251.22 26.5833 251.976 25.3593 251.976 25.1433C251.976 24.5673 250.32 23.2713 249.708 23.2713C249.42 23.2713 249.312 23.4513 249.312 23.8113V24.1353C249.312 26.0073 244.416 33.3873 239.88 37.7433C239.484 38.1033 239.34 38.4273 239.34 38.6433C239.34 38.7873 239.448 38.8953 239.628 38.8953C240.492 38.8953 243.264 36.5913 245.136 34.7553V34.8273C245.136 34.8993 245.172 35.0073 245.208 35.1513C245.712 36.5913 246.468 36.6273 246.756 36.6273C247.008 36.6273 247.332 36.5913 247.728 36.5553L255.108 36.0873ZM239.268 52.7553C239.808 52.7193 240.24 52.7193 240.24 52.3593C240.24 52.0713 239.988 51.6033 239.412 50.8113L240.024 45.8073C240.06 45.5913 240.24 45.3753 240.24 45.1233C240.24 44.4393 239.196 43.8633 238.656 43.8633H238.332L233.256 44.1513C231.816 43.6113 231.024 43.3953 230.628 43.3953C230.376 43.3953 230.304 43.4673 230.304 43.6113C230.304 43.7553 230.412 44.0073 230.592 44.2953C230.88 44.7993 231.06 45.4833 231.132 46.2753L231.492 51.2073V51.6393C231.492 52.0713 231.456 52.5393 231.42 53.0073V53.2233C231.42 54.4113 233.04 54.5553 233.112 54.5553C233.544 54.5553 233.796 54.3033 233.796 53.7633V53.6553L233.76 52.9353L239.268 52.7553ZM241.824 31.8033C242.256 31.7673 242.544 31.5873 242.544 31.2633C242.544 30.6153 241.212 29.6433 240.672 29.6433C240.528 29.6433 240.456 29.6793 240.348 29.7153C239.844 29.9313 239.304 30.0033 238.872 30.0753L230.448 30.5793C230.232 30.5793 230.052 30.6153 229.836 30.6153C229.44 30.6153 229.08 30.5793 228.684 30.4713C228.576 30.4353 228.504 30.4353 228.432 30.4353C228.288 30.4353 228.216 30.5073 228.216 30.6513C228.216 30.8673 228.324 31.5153 229.332 32.3793C229.476 32.5233 229.728 32.5593 230.124 32.5593C230.412 32.5593 230.736 32.5593 231.168 32.5233L241.824 31.8033ZM237.324 50.9193L233.616 50.9913L233.256 46.1313L237.756 45.8793L237.324 50.9193ZM239.52 36.6633C239.916 36.6273 240.276 36.4473 240.276 36.0873C240.276 35.4393 239.088 34.5393 238.62 34.5393C238.512 34.5393 238.44 34.5753 238.332 34.6113C237.864 34.7553 237.468 34.8273 237.036 34.8633L232.644 35.1873H232.248C231.816 35.1873 231.384 35.1513 230.916 35.0433C230.844 35.0433 230.808 35.0073 230.772 35.0073C230.664 35.0073 230.592 35.0793 230.592 35.2233C230.592 35.6913 231.204 36.5913 231.6 36.9153C231.708 37.0233 231.888 37.0953 232.104 37.0953C232.248 37.1313 232.392 37.1313 232.572 37.1313C232.788 37.1313 233.076 37.1313 233.364 37.0953L239.52 36.6633ZM239.448 41.1273C239.844 41.0913 240.168 40.9833 240.168 40.6593C240.168 40.0833 238.836 39.0393 238.404 39.0393C238.332 39.0393 238.296 39.0393 238.224 39.0753C237.792 39.2553 237.396 39.3273 236.964 39.3633L232.68 39.6153H232.284C231.852 39.6153 231.42 39.5793 230.952 39.4713C230.88 39.4353 230.808 39.4353 230.772 39.4353C230.664 39.4353 230.592 39.5073 230.592 39.6153C230.592 39.6873 230.592 39.7593 230.628 39.8313C230.808 40.3353 231.096 40.8753 231.636 41.3433C231.816 41.4513 232.032 41.5233 232.356 41.5593H232.716C232.932 41.5593 233.148 41.5593 233.4 41.5233L239.448 41.1273ZM257.196 52.7913C256.62 52.6113 255.936 52.2513 255.144 51.7473C254.784 51.5313 254.496 51.4233 254.316 51.4233H254.244L254.208 46.7793L257.268 46.6713L257.196 52.7913ZM237.756 28.9233C238.368 28.9233 238.872 27.8433 238.872 27.3753C238.872 27.0153 238.62 26.7993 238.116 26.5113C237.108 25.9713 233.58 24.1353 232.68 24.1353C232.068 24.1353 231.708 24.9993 231.708 25.3593C231.708 25.6833 231.924 25.8633 232.392 26.0433C233.832 26.6913 235.524 27.6633 236.964 28.5993C237.252 28.7793 237.504 28.9233 237.756 28.9233ZM257.304 44.7993L254.208 44.9433L254.172 40.9473L257.34 40.8033L257.304 44.7993ZM247.548 45.1953L244.668 45.3033L244.596 41.3433L247.476 41.2353L247.548 45.1953ZM252.228 45.0153L249.564 45.1233L249.492 41.1273L252.228 41.0193V45.0153Z" fill="black"/>
</svg>
