<svg width="199" height="87" viewBox="0 0 199 87" fill="none" xmlns="http://www.w3.org/2000/svg">
<rect x="1" y="1" width="197" height="85" fill="white" stroke="black" stroke-width="2"/>
<path d="M61.5514 53.1363C62.0194 53.1003 62.4154 52.9563 62.4154 52.5963C62.4154 51.9483 60.8314 50.6523 60.2554 50.6523C60.1834 50.6523 60.1114 50.6523 60.0394 50.6883C59.5354 50.8683 58.9594 50.9763 58.3834 51.0123L46.9714 51.4443L47.0074 39.9603L56.4394 39.4923C56.9434 39.4563 57.3394 39.3123 57.3394 38.9883C57.3394 38.3403 55.8274 37.1523 55.3234 37.1523C55.2154 37.1523 55.1434 37.1523 55.0714 37.1883C54.5674 37.3683 53.9554 37.4763 53.4514 37.5123L47.0074 37.8363L47.0434 27.1083C47.0434 26.2083 44.6674 25.6683 44.2354 25.6683C43.9834 25.6683 43.8394 25.7403 43.8394 25.9203C43.8394 26.0283 43.8754 26.1363 43.9834 26.3163C44.3434 26.8563 44.5234 27.3963 44.5234 28.1523L44.4874 37.9803L37.0714 38.3403H36.6034C36.0634 38.3403 35.5234 38.3043 35.0194 38.1603C34.9114 38.1243 34.8394 38.1243 34.7674 38.1243C34.6234 38.1243 34.5514 38.1963 34.5514 38.3763C34.5514 39.0243 35.0914 39.7803 35.7034 40.2483C35.8834 40.3923 36.2794 40.4283 36.7834 40.4283C37.0714 40.4283 37.4314 40.3923 37.7914 40.3923L44.4874 40.0683L44.4514 51.5163L32.2114 51.9843H31.9234C31.4194 51.9843 30.8074 51.9123 30.1954 51.7683C30.0874 51.7323 30.0154 51.7323 29.9434 51.7323C29.7634 51.7323 29.6914 51.8043 29.6914 51.9483C29.6914 51.9843 29.9074 53.1363 30.6274 53.8563C30.9874 54.1803 31.3114 54.2523 31.9234 54.2523C32.2474 54.2523 32.6434 54.2523 33.1474 54.2163L61.5514 53.1363Z" fill="black"/>
<path d="M86.2114 48.3123C86.2114 49.4283 87.7594 49.8603 87.9394 49.8603C88.3714 49.8603 88.5514 49.4643 88.5514 48.9603V44.7483L88.8754 45.2883C90.0994 47.0883 91.6834 48.6363 92.4754 48.6363C94.4914 48.6363 95.1394 45.5763 95.7874 34.8483C95.8234 34.6323 96.0034 34.3443 96.0034 34.0563C96.0034 33.4083 94.9594 32.8323 94.4554 32.8323C94.2754 32.8323 94.0954 32.9043 93.8794 33.0123L88.5874 35.1363L88.6234 26.9643C88.6234 26.3163 88.3714 25.9923 87.5074 25.7403C86.8954 25.5603 86.4634 25.4883 86.1754 25.4883C85.8514 25.4883 85.7434 25.5603 85.7434 25.7043C85.7434 25.7763 85.7794 25.8843 85.8514 25.9923C86.2834 26.5323 86.4274 27.2883 86.4274 27.8283L86.3914 36.0363L82.5394 37.5843L82.5754 33.3723C82.5754 32.7963 82.5754 32.3643 81.5674 32.0763C80.9194 31.8963 80.4514 31.7883 80.1634 31.7883C79.9114 31.7883 79.7674 31.8603 79.7674 32.0043C79.7674 32.0763 79.8394 32.1843 79.9474 32.3283C80.3794 32.8683 80.4154 33.4803 80.4154 34.0563L80.3794 38.4483L77.7874 39.4923C77.2114 39.7083 76.4914 39.9243 75.9514 39.9243C75.6274 39.9243 75.5194 39.9963 75.5194 40.1403C75.5194 40.2123 75.5914 40.3203 75.6634 40.4643C75.9874 40.9323 76.7074 41.5803 77.4634 41.5803C77.7514 41.5803 78.0394 41.5083 78.4354 41.3643L80.3434 40.6083L80.1994 51.9483V52.0203C80.1994 54.3963 81.6394 55.5123 83.5474 55.6563C85.1314 55.8003 86.7514 55.8723 88.4074 55.8723C90.7474 55.8723 93.1234 55.7283 95.5714 55.4763C98.7034 55.1523 98.7754 52.9563 98.7754 49.0323C98.7754 47.5203 98.7754 45.5403 98.2354 45.5403C98.0194 45.5403 97.7314 46.0443 97.5874 47.0883C96.7594 52.7403 96.5074 52.9203 94.8514 53.1723C92.7634 53.4603 90.7114 53.6403 88.6954 53.6403C87.1474 53.6403 85.5994 53.5323 84.0874 53.3523C82.7914 53.2083 82.3594 52.8123 82.3594 51.5163L82.5034 39.7443L86.3914 38.1963L86.3554 45.6483C86.3554 46.7283 86.3194 47.3043 86.2114 48.0603V48.3123ZM71.2354 47.5563C67.7074 48.8523 66.5194 48.8523 66.0514 48.8523H65.6914C65.5114 48.8523 65.4034 48.9603 65.4034 49.1043C65.4034 49.6083 66.8434 51.5523 67.5634 51.5523C68.8594 51.5523 78.7954 46.1163 78.7954 45.0003C78.7954 44.8563 78.6874 44.7843 78.4714 44.7843C78.2554 44.7843 77.9674 44.8923 77.5354 45.0723C76.2394 45.6483 74.7994 46.2603 73.3594 46.8003L73.4314 38.3043L77.4274 38.0163C77.8594 37.9803 78.2554 37.8723 78.2554 37.5483C78.2554 36.9363 76.7434 35.7843 76.2754 35.7843C76.2034 35.7843 76.1674 35.7843 76.0954 35.8203C75.5554 36.0363 75.0874 36.1083 74.5834 36.1443L73.4314 36.2163L73.5034 28.7283C73.5034 27.7203 70.9834 27.4683 70.9834 27.4683C70.6954 27.4683 70.5154 27.5403 70.5154 27.7563C70.5154 27.8643 70.5514 28.0083 70.6954 28.1883C71.0194 28.6203 71.2354 29.1243 71.2354 29.7723V36.3963L68.5354 36.5763H68.0314C67.5274 36.5763 67.0234 36.5403 66.5914 36.4323C66.5194 36.4323 66.4834 36.3963 66.4114 36.3963C66.3034 36.3963 66.2314 36.4683 66.2314 36.5763C66.2314 36.6123 66.2314 36.6843 66.2674 36.7563C66.9514 38.5563 67.8874 38.6283 68.3914 38.6283C68.6434 38.6283 68.8954 38.6283 69.2194 38.5923L71.2354 38.4483V47.5563ZM93.5914 35.3163C93.3754 39.4563 93.1594 43.0203 92.3674 45.8283C92.3674 46.0443 92.1874 46.0443 92.1514 46.0443C92.1154 46.0443 92.0794 46.0443 92.0434 46.0083C91.3234 45.6483 90.5674 45.2523 89.5954 44.5683C89.1634 44.2803 88.8754 44.1363 88.6594 44.1363C88.6234 44.1363 88.5874 44.1723 88.5514 44.1723L88.5874 37.2963L93.5914 35.3163Z" fill="black"/>
<path d="M107.307 52.9203C106.983 52.9563 106.695 52.9563 106.407 52.9563C105.939 52.9563 105.471 52.9203 105.003 52.8843H104.859C104.679 52.8843 104.571 52.9563 104.571 53.1003C104.571 53.3163 104.967 54.1443 105.399 54.6483C105.867 55.2603 106.443 55.2963 106.731 55.2963C107.955 55.2963 115.371 54.3963 126.063 52.4883C126.891 53.6763 127.683 54.8643 128.367 55.9803C128.619 56.4123 128.835 56.5923 129.123 56.5923C129.663 56.5923 130.779 55.9083 130.779 55.2963C130.779 54.1083 124.479 46.6923 123.255 45.3243C122.895 44.9283 122.643 44.7483 122.391 44.7483C122.175 44.7483 121.923 44.8923 121.635 45.1443C121.275 45.4323 121.095 45.6843 121.095 45.9003C121.095 46.1523 121.275 46.3683 121.563 46.7283C122.607 47.9163 123.759 49.3203 124.839 50.7963C120.339 51.5163 115.803 52.0923 111.627 52.5243C114.219 48.7443 116.703 44.2803 118.827 39.6723C118.863 39.5643 118.899 39.4563 118.899 39.3843C118.899 38.8083 117.171 37.6923 116.451 37.6923C116.199 37.6923 116.055 37.8363 116.055 38.1243V38.3043C116.091 38.4483 116.091 38.6283 116.091 38.8083C116.091 40.7523 111.519 48.8163 108.891 52.7763L107.307 52.9203ZM134.307 42.5523C134.307 42.4083 134.127 42.2643 133.839 42.0483C126.855 36.9363 123.147 30.7803 121.995 28.1883C121.743 27.5763 121.203 27.3243 119.763 27.3243C119.115 27.3243 118.755 27.5043 118.755 27.7203C118.755 27.8643 118.863 27.9723 119.043 28.1163C119.583 28.4763 119.871 28.8363 120.087 29.2683C121.059 31.1763 124.155 37.2963 131.823 43.7403C131.967 43.8483 132.111 43.9203 132.291 43.9203C132.939 43.9203 134.307 42.7683 134.307 42.5523ZM102.663 45.1083C103.203 45.1083 109.683 41.6883 115.119 30.4563C115.191 30.2763 115.263 30.1683 115.263 30.0243C115.263 29.3043 113.355 28.2603 112.923 28.2603C112.671 28.2603 112.527 28.3683 112.527 28.6203C112.527 28.6563 112.563 28.6923 112.563 28.7643C112.599 28.8723 112.599 29.0163 112.599 29.1603C112.599 30.8523 108.495 38.3763 103.275 43.6323C102.699 44.2083 102.447 44.6763 102.447 44.9283C102.447 45.0363 102.519 45.1083 102.663 45.1083Z" fill="black"/>
<path d="M143.307 52.9203C142.983 52.9563 142.695 52.9563 142.407 52.9563C141.939 52.9563 141.471 52.9203 141.003 52.8843H140.859C140.679 52.8843 140.571 52.9563 140.571 53.1003C140.571 53.3163 140.967 54.1443 141.399 54.6483C141.867 55.2603 142.443 55.2963 142.731 55.2963C143.955 55.2963 151.371 54.3963 162.063 52.4883C162.891 53.6763 163.683 54.8643 164.367 55.9803C164.619 56.4123 164.835 56.5923 165.123 56.5923C165.663 56.5923 166.779 55.9083 166.779 55.2963C166.779 54.1083 160.479 46.6923 159.255 45.3243C158.895 44.9283 158.643 44.7483 158.391 44.7483C158.175 44.7483 157.923 44.8923 157.635 45.1443C157.275 45.4323 157.095 45.6843 157.095 45.9003C157.095 46.1523 157.275 46.3683 157.563 46.7283C158.607 47.9163 159.759 49.3203 160.839 50.7963C156.339 51.5163 151.803 52.0923 147.627 52.5243C150.219 48.7443 152.703 44.2803 154.827 39.6723C154.863 39.5643 154.899 39.4563 154.899 39.3843C154.899 38.8083 153.171 37.6923 152.451 37.6923C152.199 37.6923 152.055 37.8363 152.055 38.1243V38.3043C152.091 38.4483 152.091 38.6283 152.091 38.8083C152.091 40.7523 147.519 48.8163 144.891 52.7763L143.307 52.9203ZM170.307 42.5523C170.307 42.4083 170.127 42.2643 169.839 42.0483C162.855 36.9363 159.147 30.7803 157.995 28.1883C157.743 27.5763 157.203 27.3243 155.763 27.3243C155.115 27.3243 154.755 27.5043 154.755 27.7203C154.755 27.8643 154.863 27.9723 155.043 28.1163C155.583 28.4763 155.871 28.8363 156.087 29.2683C157.059 31.1763 160.155 37.2963 167.823 43.7403C167.967 43.8483 168.111 43.9203 168.291 43.9203C168.939 43.9203 170.307 42.7683 170.307 42.5523ZM138.663 45.1083C139.203 45.1083 145.683 41.6883 151.119 30.4563C151.191 30.2763 151.263 30.1683 151.263 30.0243C151.263 29.3043 149.355 28.2603 148.923 28.2603C148.671 28.2603 148.527 28.3683 148.527 28.6203C148.527 28.6563 148.563 28.6923 148.563 28.7643C148.599 28.8723 148.599 29.0163 148.599 29.1603C148.599 30.8523 144.495 38.3763 139.275 43.6323C138.699 44.2083 138.447 44.6763 138.447 44.9283C138.447 45.0363 138.519 45.1083 138.663 45.1083Z" fill="black"/>
</svg>
