<svg width="293" height="83" viewBox="0 0 293 83" fill="none" xmlns="http://www.w3.org/2000/svg">
<rect x="1" y="1" width="291" height="81" fill="white" stroke="black" stroke-width="2"/>
<path d="M60.5435 41.8399C60.9035 41.8039 61.1195 41.6599 61.1195 41.3719C61.1195 40.5799 59.6795 39.6799 59.2835 39.6799C59.1755 39.6799 59.1035 39.6799 58.9955 39.7159C58.4195 39.8959 57.9155 40.0039 57.3035 40.0399L51.1475 40.3279V37.4839C51.1475 36.3319 49.1675 36.2959 48.9515 36.2959C48.6275 36.2959 48.4835 36.3679 48.4835 36.5479C48.4835 36.6559 48.5555 36.8359 48.6635 37.0159C48.8795 37.4119 49.0235 38.0959 49.0235 38.7439V40.4359L41.8235 40.7959H41.3915C40.9955 40.7959 40.5635 40.7599 40.0235 40.5799C39.9155 40.5439 39.8435 40.5439 39.7715 40.5439C39.5915 40.5439 39.5195 40.6159 39.5195 40.7599C39.5195 40.8679 40.0595 42.8119 41.4635 42.8119C41.7515 42.8119 42.1115 42.7759 42.6155 42.7399L47.4035 42.4879C44.5235 46.6999 41.8235 49.2199 38.7635 51.5959C38.1515 52.0639 37.8995 52.4239 37.8995 52.6399C37.8995 52.7839 38.0075 52.8559 38.1875 52.8559C39.5555 52.8559 46.7915 48.1399 49.1315 43.2439C49.1315 43.2439 49.0235 45.2599 49.0235 46.4839C49.0235 48.8599 48.9875 51.9199 48.9875 51.9199C48.9875 52.8199 48.9875 54.1879 48.8075 55.0519C48.7715 55.1959 48.7715 55.3039 48.7715 55.4119C48.7715 56.2759 50.0315 56.7079 50.5355 56.7079C50.9675 56.7079 51.1835 56.3839 51.1835 55.7359L51.1475 43.5319C55.9355 49.0039 60.6155 52.3879 61.3715 52.3879C61.9475 52.3879 63.1355 51.2719 63.1355 50.8759C63.1355 50.6599 62.9195 50.4799 62.5595 50.2639C59.0675 48.2839 55.6115 45.6559 52.4075 42.2359L60.5435 41.8399ZM56.0795 35.5759C56.6915 35.5399 57.1235 35.4319 57.1235 35.0719C57.1235 34.8199 56.8715 34.3879 56.2595 33.7759L57.2315 28.0519C57.2675 27.9079 57.4475 27.6919 57.4475 27.4039C57.4475 26.8999 56.9075 26.1079 55.9715 26.1079C55.8275 26.1079 55.6115 26.1079 55.3595 26.1439L44.5955 26.8279C43.2995 26.3599 42.5795 26.1439 42.2195 26.1439C42.0035 26.1439 41.9315 26.2159 41.9315 26.3239C41.9315 26.4679 42.0755 26.7199 42.2915 27.0439C42.4715 27.3319 42.6515 28.2679 42.7235 28.9159L43.2635 34.1359C43.2995 34.5319 43.3355 34.8559 43.3355 35.2159C43.3355 35.5399 43.2995 35.8639 43.2635 36.2239V36.3679C43.2635 36.9079 43.6235 37.3759 44.1995 37.5919C44.4155 37.6999 44.6675 37.7359 44.8835 37.7359C45.3155 37.7359 45.6755 37.5559 45.6755 37.0519V36.9799L45.6035 36.1519L56.0795 35.5759ZM34.7675 52.2799C34.7675 52.9999 34.6955 53.6119 34.5875 54.2239C34.5515 54.3679 34.5515 54.5119 34.5515 54.6199C34.5515 55.9159 36.2795 56.0959 36.2795 56.0959C36.6395 56.0959 36.9275 55.8799 36.9275 55.4119L36.8915 33.5959C38.2235 31.3279 39.3755 28.9159 40.2755 26.4319C40.3475 26.2879 40.3835 26.1439 40.3835 26.0359C40.3835 25.4239 38.7275 24.5599 38.0795 24.5599C37.8275 24.5599 37.6475 24.6679 37.6475 24.9199C37.6475 24.9919 37.6835 25.0279 37.6835 25.0999C37.7195 25.3159 37.7555 25.4959 37.7555 25.6759C37.7555 27.0799 35.0195 33.8119 29.6555 41.1559C29.3315 41.5879 29.1875 41.9479 29.1875 42.1639C29.1875 42.3079 29.2595 42.4159 29.4035 42.4159C29.9435 42.4159 32.2835 40.2919 34.9115 36.5839L34.7675 52.2799ZM54.0995 33.8119L45.4235 34.3159L44.8475 28.7359L54.8555 28.1239L54.0995 33.8119Z" fill="black"/>
<path d="M93.9155 53.1079C94.4915 53.1079 95.1035 53.0719 95.1035 52.5679C95.1035 52.2439 94.8515 51.7759 94.2395 50.9839L95.1395 43.3159C95.1755 43.0639 95.3195 42.8119 95.3195 42.4879C95.3195 41.9839 94.8515 41.1919 93.6635 41.1919H93.3395L83.6195 41.6599C83.0795 41.4079 82.6115 41.2639 82.2515 41.1559L83.1155 39.7879C83.7995 38.6719 84.5555 37.1959 85.4195 35.2879L97.9475 34.5319C98.4515 34.4959 98.8115 34.3519 98.8115 33.9919C98.8115 33.5239 97.8395 32.2639 96.9755 32.2639C96.8315 32.2639 96.7235 32.2999 96.5795 32.3359C96.0755 32.5519 95.5715 32.6239 94.8515 32.6599L86.2475 33.1639C87.3275 30.4999 88.4075 26.6839 88.4075 26.2519C88.4075 25.3879 86.0315 24.6679 85.7435 24.6679C85.4915 24.6679 85.3475 24.7759 85.3475 25.0279C85.3475 25.0999 85.3835 25.1719 85.3835 25.2439C85.4555 25.6399 85.4915 26.0359 85.4915 26.3599C85.4915 26.7559 85.4555 27.1159 85.3835 27.4399C84.9875 29.4199 84.4475 31.3639 83.7275 33.3079L77.3555 33.6679H76.9955C76.4555 33.6679 75.8795 33.5959 75.3395 33.4879C75.2675 33.4519 75.1955 33.4519 75.1595 33.4519C75.0515 33.4519 74.9795 33.5239 74.9795 33.6319C74.9795 33.7039 74.9795 33.7759 75.0155 33.8479C75.4835 35.4679 76.1315 35.7559 77.0675 35.7559C77.3555 35.7559 77.6795 35.7559 78.0395 35.7199L82.8635 35.4319C80.3795 41.2999 77.1395 45.8359 74.9075 48.6799C74.5835 49.1119 74.4395 49.4359 74.4395 49.6519C74.4395 49.7959 74.5475 49.9039 74.6915 49.9039C75.3755 49.9039 78.9755 46.0879 81.1715 42.7759C81.2435 43.1719 81.2795 43.5679 81.3155 44.0359L81.6755 51.3439V51.9919C81.6755 52.6039 81.6395 53.2519 81.5675 53.9359V54.1519C81.5675 55.0159 82.8995 55.6999 83.5115 55.6999C83.9435 55.6999 84.1235 55.4119 84.1235 55.0519V54.9799L84.0155 53.2879L93.9155 53.1079ZM71.1635 51.9919C71.1635 52.7119 71.0915 53.3599 70.9475 54.0799C70.9115 54.2239 70.9115 54.3319 70.9115 54.4399C70.9115 55.6279 72.6035 55.9879 72.7475 55.9879C73.1075 55.9879 73.3955 55.7359 73.3955 55.2319V34.0639C75.8075 30.1399 77.4995 26.3959 77.4995 25.9639C77.4995 25.3159 75.8795 24.4159 75.1235 24.4159C74.8355 24.4159 74.6915 24.5239 74.6915 24.7759V24.9199C74.7275 25.1359 74.7635 25.3519 74.7635 25.5679C74.7635 26.9719 70.8035 35.5399 65.4755 42.1279C65.1515 42.5239 65.0075 42.8839 65.0075 43.0639C65.0075 43.2439 65.0795 43.3159 65.2235 43.3159C65.8355 43.3159 68.4995 40.9759 71.3075 37.1239L71.1635 51.9919ZM92.0075 51.1279L83.9075 51.2719L83.4755 43.6039L92.7275 43.2439L92.0075 51.1279Z" fill="black"/>
<path d="M141.061 48.5359C139.873 48.1759 138.829 47.7799 137.641 47.2399C137.353 47.0959 137.137 47.0599 136.993 47.0599C136.777 47.0599 136.705 47.1319 136.705 47.2759C136.705 47.9239 140.773 51.1999 141.493 51.1999C142.357 51.1999 143.149 50.1559 143.149 49.2199C143.149 48.8959 143.113 48.5719 143.113 48.1759L143.041 33.4519C143.041 33.1279 143.221 32.9119 143.221 32.6239C143.221 32.0119 142.393 31.4719 141.853 31.4719C141.745 31.4719 141.637 31.4719 141.493 31.5079L135.625 31.8319L135.265 31.5079C137.317 30.2839 139.045 29.0959 141.097 27.5119C141.349 27.2959 141.817 27.0439 141.817 26.6119C141.817 26.1439 141.241 25.3159 140.197 25.3159H139.837L127.849 26.0719C127.669 26.0719 127.453 26.1079 127.237 26.1079C126.913 26.1079 126.553 26.0719 126.193 25.9999C126.049 25.9639 125.941 25.9639 125.869 25.9639C125.653 25.9639 125.581 26.0359 125.581 26.1439C125.581 26.1439 125.725 27.0079 126.625 27.7639C126.877 27.9799 127.165 28.0159 127.561 28.0159C127.777 28.0159 128.065 28.0159 128.425 27.9799L138.397 27.2599C137.389 28.0519 135.877 29.2039 133.897 30.4279C132.565 29.3839 131.125 28.4119 130.909 28.4119C130.333 28.4119 130.009 29.5279 130.009 29.5279C130.009 29.6719 130.117 29.8159 130.405 29.9959C131.377 30.6439 132.349 31.2919 133.177 31.9399L128.137 32.2279C126.949 31.6879 126.265 31.4719 125.941 31.4719C125.761 31.4719 125.689 31.5439 125.689 31.6879C125.689 31.7959 125.725 31.9399 125.797 32.0839C126.085 32.8759 126.193 33.5239 126.193 34.1719L126.085 46.1959C126.085 47.0959 126.085 47.7799 125.941 48.4999C125.941 48.5719 125.905 48.6799 125.905 48.7519C125.905 49.7239 127.561 50.0119 127.561 50.0119C128.029 50.0119 128.101 49.6159 128.101 49.1479V43.7479L133.357 43.4959V45.2959C133.357 46.3039 133.321 46.9879 133.213 47.7439C133.213 47.8519 133.177 47.9239 133.177 47.9959C133.177 49.0039 134.653 49.4719 134.833 49.4719C135.193 49.4719 135.337 49.1479 135.337 48.6799V43.3879L141.025 43.1359L141.061 48.5359ZM145.273 55.3759C146.389 55.3759 147.073 53.6119 147.073 53.3959C147.073 53.1439 146.821 53.1079 146.281 53.1079H146.101C139.045 53.1079 128.533 51.1279 123.061 50.0839C122.161 49.9039 121.333 49.7959 120.505 49.7239C123.349 47.3839 123.637 46.4119 123.637 45.7999C123.637 45.0799 123.205 44.1799 120.001 42.2359C119.857 42.1639 119.821 42.0919 119.821 41.9839C119.821 41.6959 122.269 38.5279 123.169 37.3759C123.385 37.1239 123.817 36.8359 123.817 36.4039C123.817 35.7559 122.629 35.2519 122.449 35.2519C122.341 35.2519 122.197 35.2879 122.017 35.2879L116.653 35.8279C116.473 35.8639 116.257 35.8639 116.077 35.8639C115.717 35.8639 115.357 35.8279 114.997 35.7559C114.925 35.7559 114.853 35.7199 114.781 35.7199C114.637 35.7199 114.565 35.7919 114.565 35.9719C114.565 36.0439 114.565 36.1159 114.601 36.1879C115.033 37.9159 116.365 37.9159 116.509 37.9159C116.725 37.9159 116.977 37.8799 117.301 37.8439L120.649 37.4119C117.985 41.2279 117.697 41.6599 117.697 42.2719C117.697 42.8119 117.985 43.2439 118.633 43.6759C118.777 43.7839 121.297 45.3679 121.297 45.8719C121.297 45.9439 121.261 45.9799 121.225 46.0519C120.397 47.0959 119.281 48.3559 117.697 49.7599C114.601 50.0479 114.133 50.3359 114.133 50.9119C114.133 52.3159 114.781 52.3879 114.997 52.3879C115.177 52.3879 115.393 52.3519 115.645 52.2799C117.049 51.8119 118.273 51.6319 119.353 51.6319C120.613 51.6319 121.693 51.8479 122.737 52.0639C128.137 53.1799 138.649 55.1599 145.057 55.3759H145.273ZM141.025 41.5159L135.337 41.7319V38.3839L141.025 38.0599V41.5159ZM123.241 31.6879C123.241 30.9319 118.381 25.9999 117.625 25.9999C117.445 25.9999 116.545 26.5759 116.545 27.1159C116.545 27.3319 116.653 27.5119 116.905 27.7279C118.345 29.1319 119.785 30.7159 120.937 32.3359C121.261 32.8039 121.549 33.0559 121.873 33.0559C122.305 33.0559 123.241 32.2279 123.241 31.6879ZM133.393 41.8399L128.101 42.0559V38.7439L133.393 38.4559V41.8399ZM140.989 36.3679L135.337 36.6559V33.6679L140.989 33.3439V36.3679ZM133.393 36.7279L128.101 36.9799V34.0639L133.429 33.7759L133.393 36.7279Z" fill="black"/>
<path d="M165.901 47.9959C166.405 47.9599 166.729 47.7799 166.729 47.4559C166.729 46.8439 165.145 46.0159 164.821 46.0159C164.749 46.0159 164.677 46.0159 164.569 46.0519C164.065 46.1959 163.489 46.2679 162.985 46.3039L160.717 46.4119L160.753 44.2159L167.413 43.8919C167.917 43.8559 168.241 43.6759 168.241 43.3519C168.241 42.7399 166.657 41.9119 166.333 41.9119C166.261 41.9119 166.189 41.9119 166.081 41.9479C165.613 42.0919 165.001 42.1639 164.497 42.1999L160.753 42.3799L160.789 40.2199L166.513 40.0039C167.089 39.9679 167.557 39.8959 167.557 39.5359C167.557 39.3199 167.341 38.9599 166.837 38.4559L167.413 35.4679C167.449 35.3239 167.665 35.1079 167.665 34.8199C167.665 34.3519 167.017 33.7399 166.261 33.7399C166.117 33.7399 165.973 33.7759 165.793 33.7759L154.561 34.3879C153.445 34.0639 152.761 33.9199 152.401 33.9199C152.113 33.9199 152.005 33.9919 152.005 34.1359C152.005 34.2799 152.113 34.4599 152.221 34.6759C152.401 35.0359 152.617 35.5039 152.653 35.8999L152.977 38.4919C153.013 38.6719 153.013 38.8519 153.013 39.0319C153.013 39.3199 152.977 39.6079 152.941 39.9319V40.1479C152.941 41.0119 154.201 41.3719 154.633 41.3719C154.957 41.3719 155.065 41.1559 155.065 40.7959V40.4359L158.773 40.2919V42.4519L153.553 42.7039H153.193C152.797 42.7039 152.365 42.6679 151.861 42.5599C151.789 42.5599 151.717 42.5239 151.681 42.5239C151.537 42.5239 151.465 42.5959 151.465 42.7399C151.465 42.8119 151.465 42.8839 151.501 42.9559C151.933 44.3599 152.653 44.5399 153.481 44.5399C153.769 44.5399 154.057 44.5039 154.345 44.5039L158.737 44.2879V46.4839L155.065 46.6279H154.813C154.381 46.6279 153.913 46.5559 153.373 46.4479C153.301 46.4479 153.229 46.4119 153.157 46.4119C153.013 46.4119 152.941 46.4839 152.941 46.6279C152.941 46.6999 152.941 46.7719 152.977 46.8439C153.445 48.4639 154.525 48.4639 155.281 48.4639C155.569 48.4639 155.821 48.4279 156.037 48.4279L158.737 48.3199L158.701 51.1279C156.793 51.4519 154.849 51.7039 152.797 51.9559C152.257 52.0279 151.717 52.0639 151.177 52.0639C150.889 52.0639 150.565 52.0279 150.241 52.0279C150.205 52.0279 150.169 51.9919 150.133 51.9919C149.989 51.9919 149.881 52.0639 149.881 52.2439C149.881 52.2799 149.917 52.3519 149.917 52.3879C150.709 54.2959 151.645 54.3679 152.077 54.3679C152.581 54.3679 158.449 53.3959 167.053 50.5519C167.737 50.3359 168.061 50.0479 168.061 49.8319C168.061 49.6519 167.809 49.5079 167.413 49.5079C167.233 49.5079 167.017 49.5439 166.801 49.5799C164.605 50.0479 162.625 50.4439 160.681 50.7679L160.717 48.2119L165.901 47.9959ZM179.221 36.0079C179.113 42.3799 178.465 49.0399 177.241 52.9279C177.205 53.1079 177.061 53.1799 176.953 53.1799C176.629 53.1799 174.397 52.2439 173.029 51.4879C172.597 51.2719 172.273 51.1639 172.057 51.1639C171.841 51.1639 171.697 51.2719 171.697 51.4519C171.697 52.2439 175.909 55.9159 177.421 55.9159C179.221 55.9159 179.761 53.0359 180.013 51.4879C180.733 46.9519 181.201 41.8399 181.417 35.9719C181.417 35.7199 181.633 35.4679 181.633 35.1439C181.633 35.0719 181.417 33.9199 180.337 33.9199C180.193 33.9199 180.013 33.9199 179.797 33.9559L175.477 34.2799C175.729 31.4359 175.837 28.4479 175.837 25.7839C175.837 25.1719 175.585 24.9919 174.577 24.6679C174.073 24.5239 173.641 24.4159 173.389 24.4159C173.137 24.4159 172.993 24.4879 172.993 24.6679C172.993 24.7759 173.065 24.9199 173.173 25.0999C173.425 25.5679 173.533 26.1079 173.533 26.7559C173.533 28.8439 173.497 31.6519 173.245 34.4599L170.581 34.6759H170.149C169.681 34.6759 169.177 34.6399 168.709 34.5319H168.529C168.349 34.5319 168.241 34.6039 168.241 34.7479C168.241 34.8199 168.277 34.8919 168.313 34.9999C168.889 36.2599 169.249 36.6559 170.257 36.6559C170.545 36.6559 170.869 36.6559 171.265 36.6199L173.029 36.4759C171.985 46.7719 167.341 52.5319 165.577 54.6199C165.289 54.9799 165.145 55.2679 165.145 55.4479C165.145 55.6279 165.253 55.6999 165.397 55.6999C165.613 55.6999 165.937 55.5559 166.333 55.2319C173.461 49.0399 174.649 40.8679 175.261 36.2959L179.221 36.0079ZM168.997 30.1399C169.429 30.1039 169.681 29.9239 169.681 29.5999C169.681 28.9879 168.385 28.1599 167.881 28.1599C167.773 28.1599 167.665 28.1959 167.593 28.2319C167.197 28.4119 166.729 28.5199 166.081 28.5559L163.777 28.6999C164.173 27.4399 164.497 26.0719 164.497 25.9279C164.497 25.0999 162.445 24.5959 162.121 24.5959C161.869 24.5959 161.725 24.7039 161.725 24.8839C161.725 24.9919 161.797 25.0999 161.869 25.2439C162.049 25.5679 162.121 25.9279 162.121 26.2519V26.4319C162.085 27.2239 162.013 28.0159 161.941 28.8079L158.053 29.0239L157.801 26.5759C157.729 25.5679 155.821 25.5679 155.677 25.5679C155.389 25.5679 155.245 25.6399 155.245 25.7839C155.245 25.8559 155.281 25.9639 155.389 26.0719C155.785 26.5039 155.893 26.9719 155.965 27.5839L156.145 29.1679L152.905 29.3479H152.473C152.041 29.3479 151.537 29.3119 150.997 29.2039H150.889C150.781 29.2039 150.673 29.2399 150.673 29.3839C150.673 29.4559 150.709 29.5279 150.745 29.6359C151.321 30.8959 151.753 31.1119 152.581 31.1119C152.761 31.1119 152.977 31.1119 153.265 31.0759L156.361 30.8959V31.1839C156.361 31.5439 156.325 31.9399 156.325 32.2999C156.325 32.9119 156.541 33.2359 157.405 33.5239C157.621 33.5959 157.801 33.6319 157.945 33.6319C158.305 33.6319 158.449 33.4159 158.449 33.1279V33.0199L158.233 30.7879L161.725 30.5719C161.617 31.2559 161.509 31.9759 161.365 32.6599C161.329 32.8039 161.329 32.9479 161.329 33.0559C161.329 33.4519 161.437 33.6319 161.617 33.6319C162.049 33.6319 162.517 32.5879 163.201 30.4999L168.997 30.1399ZM164.929 38.3839L160.789 38.5639L160.825 35.7199L165.325 35.5039L164.929 38.3839ZM158.773 38.6359L154.885 38.8159L154.597 36.0439L158.809 35.8279L158.773 38.6359Z" fill="black"/>
<path d="M185.989 50.4799C185.773 51.0919 185.377 51.9559 184.981 52.6759C184.909 52.8199 184.873 52.9999 184.873 53.1439C184.873 53.8639 185.665 54.5119 186.277 54.5119C186.529 54.5119 186.781 54.3679 186.889 54.0439C187.177 53.1079 187.501 52.2439 187.825 51.3079L195.601 29.9599C195.925 29.0959 196.285 28.3399 196.609 27.6199C196.645 27.5839 196.645 27.5119 196.645 27.4759C196.645 26.9359 195.637 25.9639 195.025 25.9639C194.809 25.9639 194.629 26.1079 194.557 26.4319C194.305 27.4039 193.945 28.5559 193.693 29.2399L185.989 50.4799Z" fill="black"/>
<path d="M228.527 42.1999C228.959 42.1639 229.283 42.0199 229.283 41.6959C229.283 41.3719 228.383 40.1119 227.627 40.1119C227.555 40.1119 227.447 40.1479 227.375 40.1839C226.943 40.3999 226.619 40.5079 226.151 40.5439L220.463 40.7959L220.499 38.1319L226.043 37.8439C226.439 37.8079 226.691 37.6999 226.691 37.4479C226.691 37.2679 225.971 36.0439 225.107 36.0439C225.035 36.0439 224.963 36.0439 224.891 36.0799C224.495 36.2599 224.207 36.3319 223.739 36.3679L220.499 36.5119L220.535 34.1359L225.971 33.8839C226.331 33.8479 226.583 33.7039 226.583 33.4519C226.583 33.0199 225.575 32.0839 225.035 32.0839C224.963 32.0839 224.891 32.0839 224.819 32.1199C224.459 32.2639 224.063 32.3359 223.523 32.3719L220.535 32.5519L220.571 30.3559L226.979 29.9599C227.339 29.9239 227.627 29.7799 227.627 29.4919C227.627 28.9519 226.511 28.1239 226.043 28.1239C225.971 28.1239 225.863 28.1599 225.755 28.1959C225.323 28.3759 224.963 28.4119 224.459 28.4479L219.959 28.7359C220.787 27.6559 221.471 26.5399 221.975 25.4599C222.047 25.3519 222.047 25.2439 222.047 25.1359C222.047 24.5239 220.175 23.8039 219.959 23.8039C219.707 23.8039 219.599 23.9479 219.599 24.2359C219.599 24.3079 219.635 24.4159 219.635 24.5239V24.7039C219.635 25.7479 218.447 28.0159 217.943 28.8799L214.091 29.1319C214.343 28.8079 216.791 25.5319 216.791 24.9199C216.791 24.3799 215.207 23.3359 214.559 23.3359C214.343 23.3359 214.235 23.4439 214.235 23.6959C214.235 23.7319 214.271 23.8039 214.271 23.8759C214.271 23.9839 214.307 24.0919 214.307 24.1999C214.307 25.3519 211.895 29.5999 208.223 33.7039C207.791 34.2079 207.575 34.5679 207.575 34.7479C207.575 34.8559 207.647 34.9279 207.791 34.9279C208.547 34.9279 211.103 32.5519 211.571 32.0839L211.427 40.7239C211.427 41.4079 211.355 41.9479 211.247 42.4159C211.247 42.4879 211.211 42.5599 211.211 42.6679C211.211 43.5319 212.867 43.9279 212.903 43.9279C213.299 43.9279 213.479 43.6399 213.479 43.0279V42.7759L228.527 42.1999ZM230.471 47.7079C230.939 47.6719 231.299 47.5279 231.299 47.2039C231.299 46.5559 229.787 45.5119 229.391 45.5119C229.319 45.5119 229.247 45.5119 229.175 45.5479C228.707 45.7279 228.275 45.7999 227.807 45.7999L216.539 46.2319V44.9719C216.539 43.9279 214.559 43.6039 214.091 43.6039C213.803 43.6039 213.659 43.7119 213.659 43.8919C213.659 43.9999 213.695 44.1079 213.803 44.2879C214.163 44.8639 214.235 45.4039 214.235 45.9079V46.3039L201.383 46.7719H201.023C200.483 46.7719 200.015 46.6999 199.583 46.5919C199.475 46.5559 199.403 46.5559 199.331 46.5559C199.223 46.5559 199.151 46.5919 199.151 46.7359C199.151 47.4919 199.979 48.3919 200.303 48.6439C200.483 48.7519 200.735 48.7879 201.059 48.7879C201.383 48.7879 201.815 48.7519 202.247 48.7519L214.235 48.3199L214.199 52.8199C214.199 53.5399 214.127 54.1159 213.983 54.7999C213.947 54.9439 213.947 55.0519 213.947 55.1599C213.947 56.4919 215.711 56.7079 215.819 56.7079C216.215 56.7079 216.503 56.4919 216.503 55.9159L216.539 48.2479L230.471 47.7079ZM208.331 36.1159C206.207 38.2039 203.651 40.4719 202.067 41.6239C201.599 41.9479 200.987 42.1639 200.123 42.3079C199.907 42.3439 199.835 42.4519 199.835 42.5599C199.835 42.6679 199.871 42.8119 200.015 42.9559C200.555 43.4599 201.131 43.9279 201.635 44.0719C201.851 44.1799 202.031 44.2159 202.211 44.2159C203.615 44.2159 209.375 37.0159 209.375 35.7919C209.375 35.6119 209.339 35.5399 209.195 35.5399C209.051 35.5399 208.835 35.6479 208.511 35.9359L208.331 36.1159ZM208.187 30.0319C208.727 30.0319 209.483 29.0239 209.483 28.6279C209.483 27.7999 205.019 24.7399 204.551 24.7399C204.263 24.7399 203.471 25.4239 203.471 25.9999C203.471 26.2159 203.615 26.3599 203.831 26.5039C205.055 27.3319 206.495 28.5919 207.647 29.7439C207.827 29.9239 208.007 30.0319 208.187 30.0319ZM206.495 34.1719C206.711 33.8479 206.819 33.5959 206.819 33.4159C206.819 33.1639 206.675 32.9479 206.459 32.8039C204.839 31.5079 202.175 29.7079 201.671 29.7079C201.203 29.7079 200.699 30.5719 200.699 30.9319C200.699 31.1479 200.807 31.2919 200.987 31.4359C202.283 32.2639 203.831 33.4879 205.091 34.6039C205.307 34.7839 205.487 34.8919 205.667 34.8919C205.883 34.8919 206.135 34.6759 206.495 34.1719ZM218.411 40.8679L213.479 41.0839V38.4919L218.447 38.2399L218.411 40.8679ZM218.447 36.6199L213.479 36.8719L213.515 34.4959L218.447 34.2439V36.6199ZM218.483 32.6599L213.515 32.9119V30.7519L218.483 30.4639V32.6599Z" fill="black"/>
<path d="M250.811 41.0479C251.315 41.0119 251.675 40.9399 251.675 40.6519C251.675 40.4359 250.775 39.2119 250.055 39.2119C249.911 39.2119 249.767 39.2479 249.587 39.2839C249.263 39.3919 248.903 39.4639 248.327 39.4999L245.123 39.6799V37.0519L250.811 36.7279C251.423 36.6919 251.819 36.6559 251.819 36.3319C251.819 36.1159 251.603 35.7199 250.991 35.0719L251.891 28.2319C251.927 27.9439 252.143 27.6919 252.143 27.4399C252.143 26.7559 251.099 26.3599 250.775 26.3599C250.631 26.3599 250.487 26.3959 250.271 26.3959L238.607 27.1159C237.455 26.7199 236.771 26.5399 236.447 26.5399C236.231 26.5399 236.159 26.6119 236.159 26.7199C236.159 26.8639 236.267 27.1159 236.411 27.3679C236.663 27.8359 236.735 28.3399 236.807 29.0599L237.275 35.1079C237.311 35.3959 237.311 35.6839 237.311 35.9719C237.311 36.2239 237.311 36.5119 237.275 36.8359V37.0879C237.275 37.9159 238.319 38.3839 238.859 38.3839C239.219 38.3839 239.327 38.1319 239.327 37.7359V37.3399L243.179 37.1239V39.7879L239.471 39.9679H239.003C238.535 39.9679 238.175 39.9319 237.815 39.8599C237.707 39.8239 237.599 39.8239 237.527 39.8239C237.347 39.8239 237.275 39.8599 237.275 40.0039C237.275 40.1119 237.599 41.7319 239.255 41.7319C239.435 41.7319 239.651 41.7319 239.903 41.6959L243.215 41.5159V44.3599C241.235 44.5759 239.363 44.7559 237.635 44.8999C237.455 44.8999 237.275 44.9359 237.095 44.9359C236.519 44.9359 236.087 44.8279 235.655 44.7559C235.511 44.7199 235.403 44.7199 235.331 44.7199C235.151 44.7199 235.043 44.7919 235.043 44.8999C235.043 44.8999 235.439 47.0239 237.131 47.0239C238.103 47.0239 245.051 45.8359 251.171 44.3239C252.107 44.0719 252.575 43.7479 252.575 43.4959C252.575 43.3159 252.323 43.1719 251.747 43.1719C251.531 43.1719 251.243 43.1719 250.919 43.2439C248.975 43.5679 247.031 43.8559 245.159 44.1079V41.3719L250.811 41.0479ZM264.707 53.3239C265.247 53.2879 265.643 53.2879 265.643 52.9279C265.643 52.6759 265.391 52.2079 264.743 51.4159L265.715 43.4959C265.751 43.2079 266.003 42.9919 266.003 42.6679C266.003 42.0919 264.995 41.3359 264.419 41.3359C264.311 41.3359 264.167 41.3719 264.023 41.3719L259.883 41.5879L259.955 35.2879L266.471 34.8919C267.047 34.8559 267.407 34.6759 267.407 34.3519C267.407 33.7759 266.327 32.6959 265.643 32.6959C265.499 32.6959 265.355 32.7319 265.175 32.8039C264.815 32.9479 264.383 33.0559 263.915 33.0919L259.955 33.3439L260.027 25.8199C260.027 24.6679 257.723 24.4879 257.471 24.4879C257.219 24.4879 257.111 24.5599 257.111 24.7039C257.111 24.8119 257.183 24.9559 257.291 25.1719C257.579 25.6039 257.723 26.1079 257.723 26.6479L257.795 41.6959L255.383 41.8039C254.123 41.3719 253.403 41.1919 253.007 41.1919C252.755 41.1919 252.647 41.2639 252.647 41.4439C252.647 41.5879 252.719 41.7679 252.827 42.0199C253.079 42.5959 253.115 43.2439 253.151 43.8559L253.763 52.0279V52.5679C253.763 53.1079 253.727 53.6119 253.691 54.1159C253.691 54.2239 253.655 54.3319 253.655 54.4399C253.655 55.4479 255.455 55.7719 255.455 55.7719C255.887 55.7719 256.139 55.4479 256.139 55.0159V54.9079L256.031 53.6119L264.707 53.3239ZM262.619 51.4159L255.887 51.6679L255.347 43.7119L263.375 43.3519L262.619 51.4159ZM249.083 35.1079L245.123 35.3599L245.087 28.5559L249.803 28.2679L249.083 35.1079ZM243.179 35.4679L239.183 35.6839L238.715 28.9519L243.143 28.6639L243.179 35.4679ZM236.951 55.6639C237.239 55.6639 237.455 55.4119 237.635 54.9439C238.751 51.9199 239.255 49.2559 239.255 48.7519C239.255 48.3199 239.003 48.0319 238.103 48.0319C237.635 48.0319 237.527 48.3199 237.419 48.8599C237.023 50.7319 236.519 52.2799 235.763 53.8999C235.619 54.1519 235.547 54.3679 235.547 54.5479C235.547 55.2319 236.735 55.6639 236.951 55.6639ZM243.899 53.6479C243.899 53.4319 243.395 50.5519 242.711 48.4639C242.495 47.8519 242.387 47.6719 242.063 47.6719C240.875 47.6719 240.875 48.2839 240.875 48.3559C240.875 48.4999 240.911 48.7159 240.983 48.9319C241.343 50.1919 241.667 51.9919 241.847 53.7199C241.883 54.2959 242.063 54.5119 242.495 54.5119C242.639 54.5119 242.855 54.5119 243.071 54.4399C243.683 54.2959 243.899 54.1159 243.899 53.6479ZM248.363 52.3519C248.363 52.1719 248.291 51.9919 248.219 51.7399C246.419 47.0959 246.023 46.8439 245.627 46.8439C245.231 46.8439 244.511 46.9879 244.511 47.4919C244.511 47.6359 244.583 47.8519 244.691 48.0679C245.231 49.2199 245.843 50.8399 246.275 52.5319C246.383 52.9999 246.599 53.1799 246.959 53.1799C247.067 53.1799 248.363 53.0719 248.363 52.3519ZM252.431 50.4799C252.431 49.8679 250.199 45.7999 249.443 45.7999C248.867 45.7999 248.399 46.4479 248.399 46.5559C248.399 46.7359 248.507 46.9159 248.687 47.2039C249.299 48.1759 250.019 49.6159 250.523 50.9119C250.667 51.3079 250.811 51.5239 251.099 51.5239C251.351 51.5239 252.431 51.1279 252.431 50.4799ZM242.819 33.7759C242.819 33.1279 240.695 29.8519 240.155 29.8519C240.011 29.8519 239.867 29.8879 239.687 30.0319C239.399 30.2119 239.255 30.3559 239.255 30.5359C239.255 30.7159 239.363 30.8599 239.507 31.1119C240.047 31.9399 240.587 32.9479 241.019 33.9919C241.199 34.4239 241.379 34.6399 241.631 34.6399C241.739 34.6399 242.819 34.3159 242.819 33.7759ZM247.319 29.9959C247.319 30.2479 247.283 30.4639 247.211 30.6439C246.851 31.6519 246.419 32.6239 245.843 33.4519C245.591 33.8479 245.447 34.1359 245.447 34.3159C245.447 34.4239 245.519 34.4599 245.591 34.4599C246.527 34.4599 249.155 31.0039 249.155 30.5359C249.155 30.0679 248.039 29.3839 247.571 29.3839C247.391 29.3839 247.319 29.4919 247.319 29.6719V29.9959Z" fill="black"/>
</svg>
