<svg width="275" height="75" fill="none" xmlns="http://www.w3.org/2000/svg"><mask id="a" fill="#fff"><path fill-rule="evenodd" clip-rule="evenodd" d="M37.5 75c9.6044 0 18.3655-3.6107 25-9.5487C69.1345 71.3893 77.8956 75 87.5 75s18.366-3.6107 25-9.5487c6.634 5.938 15.396 9.5487 25 9.5487s18.366-3.6107 25-9.5487c6.634 5.938 15.396 9.5487 25 9.5487s18.366-3.6107 25-9.5487c6.634 5.938 15.396 9.5487 25 9.5487 20.711 0 37.5-16.7893 37.5-37.5S258.211 0 237.5 0c-9.604 0-18.366 3.61067-25 9.54867C205.866 3.61067 197.104 0 187.5 0s-18.366 3.61067-25 9.54867C155.866 3.61067 147.104 0 137.5 0s-18.366 3.61067-25 9.54867C105.866 3.61067 97.1044 0 87.5 0s-18.3655 3.61067-25 9.54867C55.8655 3.61067 47.1044 0 37.5 0 16.7893 0 0 16.7893 0 37.5S16.7893 75 37.5 75Z"/></mask><path fill-rule="evenodd" clip-rule="evenodd" d="M37.5 75c9.6044 0 18.3655-3.6107 25-9.5487C69.1345 71.3893 77.8956 75 87.5 75s18.366-3.6107 25-9.5487c6.634 5.938 15.396 9.5487 25 9.5487s18.366-3.6107 25-9.5487c6.634 5.938 15.396 9.5487 25 9.5487s18.366-3.6107 25-9.5487c6.634 5.938 15.396 9.5487 25 9.5487 20.711 0 37.5-16.7893 37.5-37.5S258.211 0 237.5 0c-9.604 0-18.366 3.61067-25 9.54867C205.866 3.61067 197.104 0 187.5 0s-18.366 3.61067-25 9.54867C155.866 3.61067 147.104 0 137.5 0s-18.366 3.61067-25 9.54867C105.866 3.61067 97.1044 0 87.5 0s-18.3655 3.61067-25 9.54867C55.8655 3.61067 47.1044 0 37.5 0 16.7893 0 0 16.7893 0 37.5S16.7893 75 37.5 75Z" fill="#9D80BF"/><path d="m62.5 65.4513 1.3338-1.4902L62.5 62.7673l-1.3338 1.1938L62.5 65.4513Zm50 0 1.334-1.4902-1.334-1.1938-1.334 1.1938 1.334 1.4902Zm50 0 1.334-1.4902-1.334-1.1938-1.334 1.1938 1.334 1.4902Zm50 0 1.334-1.4902-1.334-1.1938-1.334 1.1938 1.334 1.4902Zm0-55.90263-1.334 1.49023 1.334 1.1938 1.334-1.1938-1.334-1.49023Zm-50 0-1.334 1.49023 1.334 1.1938 1.334-1.1938-1.334-1.49023Zm-50 0-1.334 1.49023 1.334 1.1938 1.334-1.1938-1.334-1.49023Zm-50 0-1.3338 1.49023L62.5 12.2327l1.3338-1.1938L62.5 9.54867ZM61.1662 63.9611C54.8842 69.5836 46.5935 73 37.5 73v4c10.1154 0 19.3469-3.8049 26.3338-10.0584l-2.6676-2.9805ZM87.5 73c-9.0935 0-17.3842-3.4164-23.6662-9.0389l-2.6676 2.9805C68.1531 73.1951 77.3846 77 87.5 77v-4Zm23.666-9.0389C104.884 69.5836 96.5935 73 87.5 73v4c10.1154 0 19.347-3.8049 26.334-10.0584l-2.668-2.9805ZM137.5 73c-9.093 0-17.384-3.4164-23.666-9.0389l-2.668 2.9805C118.153 73.1951 127.385 77 137.5 77v-4Zm23.666-9.0389C154.884 69.5836 146.593 73 137.5 73v4c10.115 0 19.347-3.8049 26.334-10.0584l-2.668-2.9805ZM187.5 73c-9.093 0-17.384-3.4164-23.666-9.0389l-2.668 2.9805C168.153 73.1951 177.385 77 187.5 77v-4Zm23.666-9.0389C204.884 69.5836 196.593 73 187.5 73v4c10.115 0 19.347-3.8049 26.334-10.0584l-2.668-2.9805ZM237.5 73c-9.093 0-17.384-3.4164-23.666-9.0389l-2.668 2.9805C218.153 73.1951 227.385 77 237.5 77v-4ZM273 37.5c0 19.6061-15.894 35.5-35.5 35.5v4c21.815 0 39.5-17.6848 39.5-39.5h-4ZM237.5 2C257.106 2 273 17.8939 273 37.5h4C277 15.6848 259.315-2 237.5-2v4Zm-23.666 9.0389C220.116 5.41644 228.407 2 237.5 2v-4c-10.115 0-19.347 3.8049-26.334 10.0584l2.668 2.9805ZM187.5 2c9.093 0 17.384 3.41644 23.666 9.0389l2.668-2.9805C206.847 1.8049 197.615-2 187.5-2v4Zm-23.666 9.0389C170.116 5.41644 178.407 2 187.5 2v-4c-10.115 0-19.347 3.8049-26.334 10.0584l2.668 2.9805ZM137.5 2c9.093 0 17.384 3.41644 23.666 9.0389l2.668-2.9805C156.847 1.8049 147.615-2 137.5-2v4Zm-23.666 9.0389C120.116 5.41644 128.407 2 137.5 2v-4c-10.115 0-19.347 3.8049-26.334 10.0584l2.668 2.9805ZM87.5 2c9.0935 0 17.384 3.41644 23.666 9.0389l2.668-2.9805C106.847 1.8049 97.6154-2 87.5-2v4Zm-23.6662 9.0389C70.1158 5.41644 78.4065 2 87.5 2v-4C77.3846-2 68.1531 1.8049 61.1662 8.0584l2.6676 2.9805ZM37.5 2c9.0935 0 17.3842 3.41644 23.6662 9.0389l2.6676-2.9805C56.8469 1.8049 47.6154-2 37.5-2v4ZM2 37.5C2 17.8939 17.8939 2 37.5 2v-4C15.6848-2-2 15.6848-2 37.5h4ZM37.5 73C17.8939 73 2 57.1061 2 37.5h-4C-2 59.3152 15.6848 77 37.5 77v-4Z" fill="#000" mask="url(#a)"/><path d="m37.3064 28.248-4.536.252c-.6.024-1.188.084-1.764.18-.552.072-.96.12-1.224.144h-.036c-.312 0-.588-.216-.828-.648-.24-.432-.36-.828-.36-1.188 0-.432.156-.648.468-.648.192 0 .528.012 1.008.036.48.024.996.036 1.548.036h.576c.216-.024.408-.036.576-.036l11.592-.648c.552-.048 1.116-.096 1.692-.144.576-.048 1.008-.096 1.296-.144h.108c.288 0 .54.216.756.648.216.432.324.828.324 1.188 0 .432-.144.648-.432.648-.24 0-.636-.012-1.188-.036-.552-.048-1.116-.072-1.692-.072-.144 0-.288.012-.432.036h-.396l-4.536.252.036 19.08c0 .744.012 1.464.036 2.16.048.696.072 1.248.072 1.656 0 .144-.084.24-.252.288-.144.072-.336.108-.576.108-.384 0-.804-.096-1.26-.288-.456-.192-.684-.444-.684-.756 0-.288.012-.732.036-1.332.024-.624.036-1.248.036-1.872l.036-18.9Zm31.2173 9.72c-.024 0-.06.012-.108.036h-.108c-.24 0-.636-.012-1.188-.036-.552-.048-1.116-.072-1.692-.072-.144 0-.288.012-.432.036h-.396l-9.036.54h-.216v8.748c0 .744.012 1.464.036 2.16.048.696.072 1.248.072 1.656 0 .24-.252.36-.756.36-.384 0-.804-.096-1.26-.288-.456-.168-.684-.408-.684-.72 0-.288.012-.732.036-1.332.024-.624.036-1.248.036-1.872V38.76c-.072.024-.156.036-.252.036h-.036c-.312 0-.588-.216-.828-.648-.216-.456-.324-.876-.324-1.26s.132-.576.396-.576h.036c.096 0 .228.012.396.036h.612v-6.552c0-.744-.024-1.464-.072-2.16-.024-.696-.036-1.248-.036-1.656 0-.24.252-.36.756-.36.408 0 .828.096 1.26.288.456.168.684.408.684.72 0 .288-.012.744-.036 1.368-.024.6-.036 1.212-.036 1.836v6.516h.18l9.036-.54c.552-.048 1.116-.096 1.692-.144.576-.048 1.008-.096 1.296-.144h.108c.192 0 .36.084.504.252.144.144.264.348.36.612v-6.588c0-.744-.024-1.464-.072-2.16-.024-.696-.036-1.248-.036-1.656 0-.24.252-.36.756-.36.408 0 .828.096 1.26.288.456.168.684.408.684.72 0 .288-.012.744-.036 1.368-.024.6-.036 1.212-.036 1.836v17.352c0 .744.012 1.464.036 2.16.048.696.072 1.248.072 1.656 0 .24-.252.36-.756.36-.384 0-.804-.096-1.26-.288-.456-.168-.684-.408-.684-.72 0-.288.012-.732.036-1.332.024-.624.036-1.248.036-1.872v-9.18ZM80.8428 42.9h-.144c-.384.816-.768 1.608-1.152 2.376l-1.08 2.16c-.192.384-.432.912-.72 1.584-.264.672-.468 1.212-.612 1.62-.072.192-.276.336-.612.432-.312.12-.648.18-1.008.18-.336 0-.648-.06-.936-.18-.264-.096-.3961-.264-.3961-.504 0-.144.048-.276.1441-.396.096-.144.192-.3.288-.468l.468-.936c.24-.432.588-1.08 1.044-1.944.48-.888 1.116-2.112 1.908-3.672h-.252c-.288 0-.552-.216-.792-.648-.24-.456-.36-.864-.36-1.224s.132-.54.396-.54h.072l.648.072h1.44c.816-1.632 1.632-3.276 2.448-4.932.816-1.68 1.56-3.252 2.232-4.716.672-1.464 1.2-2.688 1.584-3.672.096-.216.168-.54.216-.972.048-.456.132-.756.252-.9.12-.144.348-.216.684-.216.408 0 .828.108 1.26.324.432.192.696.408.792.648v.072c.024.024.036.048.036.072 0 .096-.024.216-.072.36-.024.12-.036.24-.036.36s.012.204.036.252c.696 1.848 1.5 3.876 2.412 6.084.936 2.184 1.908 4.392 2.916 6.624 1.008 2.232 1.98 4.332 2.916 6.3.192.384.492.936.9 1.656.408.72.804 1.356 1.188 1.908.048.072.084.144.108.216.024.048.036.096.036.144 0 .288-.216.504-.648.648-.432.168-.852.252-1.26.252-.264 0-.504-.036-.72-.108-.216-.072-.348-.18-.396-.324-.144-.432-.348-.996-.612-1.692-.264-.72-.492-1.296-.684-1.728-.36-.768-.732-1.572-1.116-2.412-.384-.864-.78-1.752-1.188-2.664l-11.628.504Zm10.728-2.556c-.888-2.064-1.74-4.08-2.556-6.048-.816-1.968-1.476-3.612-1.98-4.932-.408.912-.9 1.992-1.476 3.24-.552 1.248-1.152 2.568-1.8 3.96-.648 1.392-1.308 2.784-1.98 4.176l9.792-.396ZM119.45 29.796c0-.744-.024-1.464-.072-2.16-.048-.696-.072-1.248-.072-1.656 0-.24.252-.36.756-.36.408 0 .828.096 1.26.288.456.168.684.408.684.72 0 .288-.012.744-.036 1.368-.024.6-.036 1.212-.036 1.836v18.036c0 .216.024.552.072 1.008.048.432.072.756.072.972 0 .24-.12.492-.36.756-.216.24-.492.444-.828.612-.336.168-.648.252-.936.252-.384 0-.696-.168-.936-.504-.216-.336-.42-.636-.612-.9-1.032-1.464-2.124-3.036-3.276-4.716-1.152-1.68-2.304-3.396-3.456-5.148-1.152-1.752-2.268-3.48-3.348-5.184-1.056-1.704-2.04-3.324-2.952-4.86V47.22c0 .744.012 1.464.036 2.16.048.696.072 1.248.072 1.656 0 .12-.072.204-.216.252-.144.072-.312.108-.504.108-.384 0-.804-.096-1.26-.288-.456-.168-.684-.408-.684-.72 0-.288.012-.732.036-1.332.024-.624.036-1.248.036-1.872v-19.26c0-.216-.048-.444-.144-.684-.072-.264-.108-.48-.108-.648 0-.096.012-.156.036-.18.12-.264.408-.48.864-.648.48-.168.9-.252 1.26-.252.144 0 .252.012.324.036.216.024.372.132.468.324l.36.576c1.512 2.52 3.036 5.016 4.572 7.488 1.56 2.472 3.096 4.848 4.608 7.128 1.536 2.256 2.976 4.32 4.32 6.192v-17.46Zm10.018 0c0-.744-.024-1.464-.072-2.16-.024-.696-.036-1.248-.036-1.656 0-.24.252-.36.756-.36.408 0 .828.096 1.26.288.456.168.684.408.684.72 0 .288-.012.744-.036 1.368-.024.6-.036 1.212-.036 1.836v6.336c1.512-1.176 2.928-2.34 4.248-3.492 1.344-1.176 2.532-2.256 3.564-3.24 1.032-.984 1.86-1.788 2.484-2.412.648-.648 1.032-1.044 1.152-1.188.096-.12.288-.18.576-.18.432 0 .9.144 1.404.432.504.264.756.528.756.792 0 .12-.048.216-.144.288-.36.312-.78.66-1.26 1.044s-1.02.852-1.62 1.404c-1.104 1.008-2.364 2.124-3.78 3.348-1.416 1.2-2.916 2.436-4.5 3.708.024 0 .24.24.648.72.432.48 1.008 1.116 1.728 1.908.72.792 1.524 1.68 2.412 2.664.912.96 1.848 1.944 2.808 2.952.984.984 1.944 1.92 2.88 2.808.936.888 1.788 1.656 2.556 2.304.096.072.144.156.144.252 0 .24-.24.48-.72.72-.48.216-.984.324-1.512.324-.24 0-.468-.036-.684-.108-.216-.072-.384-.192-.504-.36-.144-.192-.312-.408-.504-.648-.192-.24-.432-.516-.72-.828-.648-.672-1.404-1.464-2.268-2.376-.84-.912-1.74-1.884-2.7-2.916-.96-1.032-1.908-2.052-2.844-3.06-.912-1.032-1.752-1.992-2.52-2.88l-1.08.864v7.992c0 .816.012 1.596.036 2.34.048.72.072 1.284.072 1.692 0 .24-.252.36-.756.36-.384 0-.804-.096-1.26-.288-.456-.168-.684-.408-.684-.72 0-.288.012-.756.036-1.404.024-.648.036-1.32.036-2.016V29.796Zm40.734 10.692c-.504-.912-1.08-1.908-1.728-2.988-.624-1.104-1.284-2.208-1.98-3.312-.672-1.104-1.332-2.148-1.98-3.132-.648-.984-1.224-1.836-1.728-2.556-.504-.744-.888-1.272-1.152-1.584-.12-.168-.18-.288-.18-.36 0-.264.216-.456.648-.576.456-.144.888-.216 1.296-.216.504 0 .804.072.9.216.192.312.396.684.612 1.116.216.408.42.78.612 1.116.984 1.584 1.98 3.204 2.988 4.86 1.032 1.632 2.028 3.288 2.988 4.968 1.056-1.728 2.052-3.348 2.988-4.86.936-1.512 1.956-3.144 3.06-4.896.312-.48.588-.912.828-1.296.24-.408.456-.792.648-1.152.072-.12.192-.204.36-.252.168-.072.336-.108.504-.108.432 0 .864.108 1.296.324.456.192.684.396.684.612 0 .024-.024.084-.072.18-.552.672-1.188 1.512-1.908 2.52-.696 1.008-1.416 2.088-2.16 3.24-.72 1.128-1.416 2.244-2.088 3.348-.672 1.08-1.26 2.04-1.764 2.88-.504.84-.864 1.464-1.08 1.872v6.696c0 .288.012.684.036 1.188.024.504.036.996.036 1.476.024.48.036.864.036 1.152 0 .24-.252.36-.756.36-.408 0-.852-.096-1.332-.288-.456-.168-.684-.408-.684-.72v-.864c.024-.408.036-.828.036-1.26.024-.432.036-.792.036-1.08v-6.624Zm19.623-12.744c.84-.744 1.788-1.332 2.844-1.764 1.056-.432 2.292-.648 3.708-.648 2.16 0 4.02.552 5.58 1.656 1.56 1.08 2.76 2.568 3.6 4.464.84 1.896 1.26 4.056 1.26 6.48 0 1.848-.24 3.6-.72 5.256-.456 1.656-1.176 3.12-2.16 4.392-.96 1.272-2.184 2.268-3.672 2.988-1.488.72-3.252 1.08-5.292 1.08-2.568 0-4.692-.552-6.372-1.656-1.656-1.128-2.892-2.652-3.708-4.572-.792-1.92-1.188-4.104-1.188-6.552 0-1.608.192-3.108.576-4.5.408-1.416.9-2.652 1.476-3.708s1.152-1.872 1.728-2.448c.576-.6 1.044-.9 1.404-.9.192 0 .372.048.54.144.168.072.3.168.396.288Zm4.86 21.6c1.776 0 3.276-.312 4.5-.936 1.224-.648 2.208-1.524 2.952-2.628.744-1.104 1.284-2.352 1.62-3.744.36-1.416.54-2.88.54-4.392 0-1.224-.168-2.436-.504-3.636-.336-1.224-.852-2.316-1.548-3.276-.672-.984-1.524-1.764-2.556-2.34-1.008-.6-2.184-.9-3.528-.9-1.032 0-2.136.24-3.312.72-1.152.48-2.232 1.2-3.24 2.16-1.008.936-1.836 2.112-2.484 3.528-.624 1.416-.936 3.048-.936 4.896 0 1.92.3 3.684.9 5.292.6 1.584 1.524 2.856 2.772 3.816 1.248.96 2.856 1.44 4.824 1.44Zm33.124-19.764c0-.336-.012-.756-.036-1.26-.024-.504-.048-.984-.072-1.44v-.972c0-.144.084-.252.252-.324.192-.072.408-.108.648-.108.408 0 .816.084 1.224.252.432.168.648.408.648.72 0 .288-.012.732-.036 1.332-.024.6-.036 1.212-.036 1.836V42.72c0 1.776-.396 3.336-1.188 4.68-.792 1.344-1.896 2.388-3.312 3.132-1.416.744-3.072 1.116-4.968 1.116-2.904 0-5.052-.66-6.444-1.98-1.368-1.344-2.052-3.276-2.052-5.796V29.904c0-.744-.024-1.476-.072-2.196-.024-.744-.036-1.32-.036-1.728 0-.144.084-.252.252-.324.192-.072.408-.108.648-.108.408 0 .816.084 1.224.252.432.168.648.408.648.72 0 .288-.012.78-.036 1.476-.024.696-.036 1.356-.036 1.98V43.44c0 2.184.504 3.72 1.512 4.608 1.032.888 2.496 1.332 4.392 1.332 1.344 0 2.532-.3 3.564-.9 1.032-.624 1.836-1.464 2.412-2.52.6-1.08.9-2.304.9-3.672V29.58Zm13.715 15.192c0 .192-.192.288-.576.288-.312 0-.648-.072-1.008-.216-.336-.144-.504-.336-.504-.576v-.036c.024-.192.036-.408.036-.648.024-.264.036-.516.036-.756l-.216-13.932c0-.504-.024-1.068-.072-1.692-.048-.624-.084-1.008-.108-1.152v-.072c0-.216.084-.372.252-.468.192-.096.42-.144.684-.144.432 0 .888.108 1.368.324.504.216.756.48.756.792v.036c-.024.384-.06.78-.108 1.188-.048.384-.084.84-.108 1.368l-.432 13.896v1.8Zm.864 4.896c0 .48-.156.876-.468 1.188-.288.312-.756.468-1.404.468-.504 0-.948-.228-1.332-.684-.384-.456-.576-.948-.576-1.476 0-.504.156-.924.468-1.26.312-.36.792-.54 1.44-.54.456 0 .876.252 1.26.756.408.48.612.996.612 1.548Z" fill="#000"/></svg>