<svg width="380" height="118" viewBox="0 0 380 118" fill="none" xmlns="http://www.w3.org/2000/svg">
<rect x="1" y="1" width="378" height="116" fill="white" stroke="black" stroke-width="2"/>
<path d="M57.48 30.8476C57.876 30.8116 58.2 30.6676 58.2 30.3796C58.2 29.9476 57.048 28.7236 56.22 28.7236C56.112 28.7236 55.968 28.7596 55.86 28.7956C55.284 29.0116 54.78 29.1196 54.204 29.1556L47.364 29.5876C48.084 27.6436 49.38 23.8276 49.38 23.1436C49.38 22.5676 48.048 21.4156 47.112 21.4156C46.86 21.4156 46.752 21.5236 46.752 21.7756V22.2796C46.752 24.5116 44.376 33.0076 41.568 38.4076C41.316 38.9116 41.208 39.3076 41.208 39.5596C41.208 39.7396 41.244 39.8476 41.388 39.8476C42 39.8476 43.692 37.6876 45.24 34.5196C46.104 37.1116 47.22 39.8476 48.552 42.1876C46.212 46.2556 42.972 49.4956 40.272 51.9436C39.84 52.3396 39.624 52.6636 39.624 52.8796C39.624 53.0236 39.732 53.0956 39.948 53.0956C41.028 53.0956 46.968 48.5956 49.776 44.1676C52.476 48.3076 56.94 52.8796 57.66 52.8796C58.308 52.8796 59.604 51.9076 59.604 51.5836C59.604 51.4396 59.46 51.2596 59.208 51.0436C55.86 48.3076 53.052 45.5356 50.928 42.2236C52.872 38.6236 54.06 35.0956 54.888 30.9916L57.48 30.8476ZM35.232 44.7436C36.312 46.3276 37.356 47.9476 38.22 49.4596C38.436 49.8556 38.724 50.1076 39.048 50.1076C39.552 50.1076 40.452 49.4956 40.452 48.8836C40.452 48.5956 40.38 48.0916 36.492 42.9076C37.5 41.2876 38.544 39.3436 39.408 37.3996C39.444 37.2916 39.48 37.1836 39.48 37.0756C39.48 36.2476 37.896 35.0956 37.32 35.0956C37.104 35.0956 36.996 35.2756 36.996 35.6716V36.1036C36.996 36.5716 36.924 37.8316 35.124 41.1436C32.172 37.3276 31.524 36.5716 31.02 36.5716C30.732 36.5716 29.904 37.0036 29.904 37.5076C29.904 37.7236 30.048 37.9036 30.264 38.1916C31.488 39.6316 32.748 41.2876 34.008 42.9796C31.452 47.0476 27.06 50.6476 26.124 51.4036C25.764 51.7276 25.584 52.0156 25.584 52.2316C25.584 52.3756 25.692 52.4836 25.908 52.4836C26.772 52.4836 31.56 49.3876 34.908 45.1756L35.232 44.7436ZM42.576 28.5076C42.936 28.4716 43.188 28.2556 43.188 27.9676C43.188 27.4636 42.216 26.4196 41.352 26.4196C41.244 26.4196 41.136 26.4196 41.028 26.4556C40.452 26.6356 39.84 26.7076 39.336 26.7436L35.772 26.9596L35.808 23.2876C35.808 22.6756 35.628 22.2436 34.692 22.0276C34.188 21.9196 33.792 21.8476 33.54 21.8476C33.252 21.8476 33.108 21.9196 33.108 22.0996C33.108 22.1716 33.144 22.3156 33.252 22.4956C33.504 22.9276 33.72 23.6476 33.72 24.1156L33.684 27.0676L29.04 27.3196C28.896 27.3196 28.716 27.3556 28.536 27.3556C28.104 27.3556 27.636 27.2836 27.204 27.1756C27.132 27.1396 27.06 27.1396 27.024 27.1396C26.844 27.1396 26.772 27.2116 26.772 27.3916C26.772 27.4636 26.808 27.5356 26.808 27.6076C26.844 27.7876 27.312 29.2636 28.68 29.2636C29.04 29.2636 29.436 29.2276 29.904 29.1916L42.576 28.5076ZM52.404 31.1356C51.756 34.2676 50.892 37.3636 49.632 40.0636C48.372 37.7236 47.292 34.8796 46.428 31.9636L46.644 31.4956L52.404 31.1356ZM26.664 38.7676C28.104 38.7676 33.504 32.5036 33.504 31.4956C33.504 30.7396 31.776 29.6956 31.452 29.6956C31.164 29.6956 31.056 29.9116 31.056 30.3436C31.056 32.2876 27.492 36.8956 26.844 37.6876C26.52 38.0476 26.412 38.3356 26.412 38.5156C26.412 38.6596 26.484 38.7676 26.664 38.7676ZM42 35.4556C42 35.0956 37.932 29.7676 37.176 29.7676C36.672 29.7676 35.988 30.6316 35.988 30.8836C35.988 31.0636 36.096 31.2076 36.276 31.3876C37.356 32.5036 38.796 34.6276 39.804 36.1396C40.092 36.5716 40.344 36.7876 40.668 36.7876C41.244 36.7876 42 35.7796 42 35.4556Z" fill="black"/>
<path d="M74.868 50.8276C73.428 50.4676 72.312 50.0716 71.16 49.5676C70.8 49.4236 70.548 49.3516 70.368 49.3516C70.152 49.3516 70.08 49.4236 70.08 49.5676C70.08 50.4676 74.292 53.4196 75.3 53.4196C75.84 53.4196 77.1 52.7716 77.1 51.3676C77.1 51.0436 77.064 50.6116 77.064 50.0716L76.812 36.1036C76.812 35.8516 76.992 35.6356 76.992 35.3476C76.992 35.0956 76.848 34.7716 76.308 34.3756C75.948 34.0516 75.768 33.9796 75.516 33.9796C75.372 33.9796 75.228 34.0156 75.048 34.0156L67.308 34.6276C65.976 34.0876 65.292 33.8356 64.932 33.8356C64.752 33.8356 64.68 33.9076 64.68 34.0516C64.68 34.1956 64.752 34.4116 64.824 34.6636C65.076 35.2756 65.148 35.7796 65.148 36.5356V37.0036L64.86 49.3876C64.86 50.1076 64.788 50.6476 64.68 51.1876C64.644 51.3316 64.644 51.4396 64.644 51.5836C64.644 52.5916 66.336 53.1676 66.444 53.1676C66.876 53.1676 67.092 52.6996 67.092 51.9436L67.164 45.7156L74.832 45.2836L74.868 50.8276ZM80.268 48.6676C80.268 51.7276 81.744 52.1596 86.46 52.1596C88.26 52.1596 90.096 52.0156 91.788 51.6916C94.092 51.2956 94.092 49.9276 94.092 46.0396C94.092 44.7796 94.02 42.8356 93.48 42.8356C93.228 42.8356 92.976 43.2316 92.904 44.0236C92.436 48.9916 92.112 49.1356 90.996 49.4956C89.736 49.7836 88.116 49.8916 86.568 49.8916C82.464 49.8916 82.464 49.5316 82.464 48.5236L82.5 45.0316C85.38 44.1676 87.972 43.2316 91.104 41.7916C91.392 41.6476 91.644 41.5036 91.644 41.1076C91.644 40.6756 90.852 38.7316 90.348 38.7316C90.204 38.7316 90.06 38.9116 89.952 39.1636C89.592 39.7756 89.268 40.0996 88.692 40.4236C87.108 41.3596 84.912 42.3316 82.536 43.1236L82.608 37.4356C82.608 36.6076 80.916 36.1756 80.268 36.1756C79.908 36.1756 79.728 36.2836 79.728 36.4636C79.728 36.4996 79.764 36.5716 79.8 36.6436C80.196 37.1836 80.34 37.7236 80.34 38.2996L80.268 48.6676ZM80.448 32.9716C80.448 34.7716 81.456 35.9236 82.968 36.0676C84.012 36.1756 85.092 36.2116 86.172 36.2116C92.22 36.2116 92.616 35.4196 92.616 32.6836C92.616 29.6956 92.4 28.5076 91.968 28.5076C91.752 28.5076 91.464 28.9396 91.356 29.8036C90.888 33.4756 90.78 33.7276 89.52 33.9076C88.548 34.0516 87.324 34.1596 86.172 34.1596C83.04 34.1596 82.644 33.8356 82.644 32.8636L82.68 30.6316C85.308 29.6956 87.792 28.7596 90.528 27.2836C90.708 27.1756 90.96 27.0676 90.96 26.6716C90.96 26.3116 90.384 24.4396 89.772 24.4396C89.628 24.4396 89.52 24.5476 89.376 24.7996C88.656 26.1316 84.912 27.9316 82.716 28.7956L82.788 22.2436C82.788 21.3796 80.952 20.9476 80.304 20.9476C80.052 20.9476 79.944 21.0196 79.944 21.1276C79.944 21.1996 79.98 21.2716 80.052 21.3796C80.448 21.9196 80.52 22.6396 80.52 22.9636L80.448 32.9716ZM64.392 30.4876C64.212 30.5236 64.032 30.5236 63.852 30.5236C63.42 30.5236 63.024 30.4516 62.592 30.4156H62.376C62.088 30.4156 61.98 30.4876 61.98 30.6676C61.98 30.7396 62.016 30.8116 62.052 30.9196C62.7 32.0716 63.06 32.6476 63.816 32.6476C64.32 32.6476 71.448 31.4956 75.768 30.5956C76.2 31.2076 76.596 31.8556 76.884 32.3956C77.208 33.0076 77.46 33.2596 77.748 33.2596C77.82 33.2596 79.152 32.7196 79.152 31.9636C79.152 31.1356 75.192 26.5636 74.508 25.8796C74.148 25.4836 73.896 25.2676 73.608 25.2676C73.104 25.2676 72.456 25.9876 72.456 26.3476C72.456 26.5636 72.636 26.7796 72.924 27.0676C73.428 27.6076 74.004 28.2916 74.58 29.0116C72.168 29.5516 69.9 29.8756 67.596 30.1276C70.08 26.6356 71.628 23.4676 71.628 23.0356C71.628 22.0996 69.792 21.1276 69.432 21.1276C69.216 21.1276 69.108 21.2716 69.108 21.5236V21.9916C69.108 23.6476 67.092 27.2476 64.932 30.4156L64.392 30.4876ZM74.796 43.4836L67.164 43.9156L67.2 41.0356L74.76 40.5316L74.796 43.4836ZM74.76 38.8396L67.2 39.2716L67.236 36.4636L74.724 35.9596L74.76 38.8396Z" fill="black"/>
<path d="M134.398 44.6356C134.146 46.6876 133.714 48.7756 132.85 50.5756C132.742 50.7916 132.598 50.8636 132.346 50.8636C131.554 50.8636 128.638 49.9276 126.334 48.8836C126.01 48.7396 125.722 48.6676 125.542 48.6676C125.326 48.6676 125.182 48.7756 125.182 48.9196C125.182 49.9636 131.482 53.6716 132.85 53.6716C133.786 53.6716 135.406 53.0596 136.63 44.7076C136.666 44.4916 136.99 44.2036 136.99 43.8436C136.99 43.3396 136.126 42.5476 135.19 42.5476C135.046 42.5476 134.938 42.5476 134.794 42.5836L122.914 43.0876L123.274 41.6836C128.062 40.7116 131.95 39.5596 136.414 37.7236C136.522 37.6876 136.81 37.5436 136.81 37.1836C136.81 36.5356 135.622 35.0236 134.974 35.0236C134.794 35.0236 134.65 35.1676 134.542 35.3476C134.146 36.0316 133.714 36.4996 132.922 36.8596C130.654 37.9036 127.486 39.0196 123.706 40.0276L124.174 38.1196C126.118 36.8596 127.954 35.4916 129.754 33.9796L142.534 33.2596C143.038 33.2236 143.434 33.1156 143.434 32.7916C143.434 32.0716 142.03 31.0996 141.598 31.0996C141.526 31.0996 141.418 31.0996 141.346 31.1356C140.77 31.3156 140.23 31.3876 139.762 31.4236L132.202 31.8196C134.074 30.1276 135.946 28.2556 137.818 26.2036C137.926 26.0956 137.998 25.9516 137.998 25.7716C137.998 25.0516 136.594 23.7916 136.09 23.7916C135.838 23.7916 135.694 24.0076 135.658 24.3676C135.586 24.9076 135.37 25.3756 135.082 25.6996C133.174 28.0756 131.23 30.1276 129.142 31.9996L127.126 32.1076L127.162 28.2556L132.13 27.9316C132.598 27.8956 132.958 27.7516 132.958 27.4276C132.958 26.8516 131.806 25.8076 131.158 25.8076C131.05 25.8076 130.942 25.8436 130.834 25.8796C130.33 26.0236 129.79 26.1316 129.25 26.1676L127.162 26.3116L127.198 22.3156C127.198 21.3436 125.398 20.9836 124.858 20.9836C124.534 20.9836 124.318 21.0916 124.318 21.3076C124.318 21.4156 124.39 21.5596 124.498 21.7036C124.786 22.1356 124.894 22.6756 124.894 23.2156V26.4196L119.35 26.7796H118.918C118.486 26.7796 118.09 26.7436 117.658 26.6716C117.55 26.6356 117.478 26.6356 117.406 26.6356C117.226 26.6356 117.118 26.7076 117.118 26.8516C117.118 26.9596 117.154 27.0676 117.226 27.2116C117.982 28.6876 118.378 28.7596 119.026 28.7596C119.278 28.7596 119.602 28.7596 120.034 28.7236L124.93 28.3996V32.2156L113.194 32.8636H112.762C112.33 32.8636 111.862 32.8276 111.466 32.7196C111.394 32.6836 111.322 32.6836 111.25 32.6836C111.07 32.6836 110.998 32.7556 110.998 32.8996C110.998 32.9716 111.214 34.8796 112.978 34.8796C113.194 34.8796 113.482 34.8796 113.842 34.8436L126.586 34.1236C125.758 34.8076 124.858 35.4916 123.958 36.1036C123.958 36.1036 122.914 35.4556 122.194 35.4556C121.906 35.4556 121.762 35.5276 121.762 35.7076C121.762 35.7436 121.762 35.8156 121.798 35.8876C121.978 36.2476 122.05 36.5716 122.05 36.9676C122.05 37.1116 122.05 37.2916 122.014 37.4716C118.774 39.6316 115.138 41.6836 110.998 43.9156C110.386 44.2756 110.098 44.5996 110.098 44.8156C110.098 44.9956 110.278 45.1036 110.566 45.1036C110.782 45.1036 111.07 45.0316 111.43 44.8876C115.138 43.3036 118.45 41.6476 121.546 39.8116C121.222 41.1076 120.862 42.3676 120.43 43.5556C120.394 43.6996 120.358 43.8436 120.358 43.9876C120.358 44.3476 120.502 44.6716 120.862 44.9596C121.222 45.1756 121.474 45.2476 121.726 45.2476C122.086 45.2476 122.446 45.1036 123.13 45.0676L134.398 44.6356Z" fill="black"/>
<path d="M179.326 45.7156C179.326 44.7076 179.11 44.2036 178.858 44.2036C178.606 44.2036 178.318 44.6716 178.138 45.6796C177.814 47.6236 177.598 48.9556 177.13 50.5036C177.13 50.6476 177.022 50.7196 176.914 50.7196C176.374 50.7196 172.918 45.2116 171.334 37.5796C171.01 36.0676 170.722 34.3036 170.434 32.5036L176.59 32.1076C177.094 32.0716 177.526 31.8916 177.526 31.4956C177.526 30.9916 176.374 29.9116 175.798 29.9116C175.726 29.9116 175.654 29.9116 175.582 29.9476C175.222 30.0916 174.826 30.1636 174.358 30.1996L170.146 30.4876C169.75 27.7156 169.426 24.8716 169.21 21.9196C169.174 21.4516 168.994 21.1636 168.058 20.9836C167.482 20.8756 167.014 20.8036 166.69 20.8036C166.366 20.8036 166.186 20.8756 166.186 21.0556C166.186 21.1636 166.258 21.3076 166.438 21.4876C166.834 21.9196 166.942 22.4956 167.014 23.2876C167.23 25.5916 167.518 28.0396 167.878 30.6316L161.182 31.1356C160.93 31.1356 160.714 31.1716 160.534 31.1716C160.174 31.1716 159.886 31.1356 159.562 31.0636C159.454 31.0276 159.382 31.0276 159.346 31.0276C159.202 31.0276 159.166 31.0996 159.166 31.2076C159.166 31.7836 159.778 32.6476 160.03 32.8636C160.282 33.0796 160.606 33.1156 161.11 33.1156H161.686L168.166 32.6476C169.102 38.5516 170.434 45.0676 174.142 50.9716C175.114 52.4836 176.518 53.3836 177.418 53.3836C178.678 53.3836 179.218 51.7276 179.326 45.9316V45.7156ZM157.15 50.5756C157.654 50.5396 158.086 50.5396 158.086 50.1796C158.086 49.9276 157.834 49.4596 157.258 48.7036L157.87 44.0596C157.906 43.8796 158.014 43.6996 158.014 43.4476C158.014 42.7996 157.258 42.0076 156.574 42.0076C156.466 42.0076 156.322 42.0436 156.214 42.0436L150.706 42.3676C149.266 41.8276 148.438 41.6116 148.078 41.6116C147.862 41.6116 147.754 41.6836 147.754 41.8276C147.754 41.9716 147.898 42.2236 148.078 42.5116C148.366 43.0156 148.51 43.6276 148.582 44.4196L148.942 49.0636V49.5316C148.942 49.9636 148.906 50.3956 148.87 50.8276V51.0436C148.87 52.0156 150.094 52.4476 150.598 52.4476C150.994 52.4476 151.246 52.1956 151.246 51.6556V51.5476L151.174 50.8276L157.15 50.5756ZM162.874 45.3916C161.794 45.6796 160.318 46.0756 159.85 46.0756C159.526 46.0756 159.202 46.0036 158.878 45.9676C158.806 45.9676 158.734 45.9316 158.698 45.9316C158.518 45.9316 158.446 46.0396 158.446 46.1836C158.446 46.3276 158.806 47.4076 159.418 48.0196C159.634 48.2356 159.886 48.3436 160.174 48.3436C161.29 48.3436 169.822 44.9596 169.822 43.8436C169.822 43.6636 169.642 43.5556 169.354 43.5556C169.138 43.5556 168.886 43.5916 168.562 43.6996C167.302 44.1316 166.114 44.4916 164.962 44.8156V38.6236L167.59 38.4796C167.986 38.4436 168.346 38.2636 168.346 37.9396C168.346 37.3996 167.266 36.3916 166.69 36.3916C166.582 36.3916 166.474 36.4276 166.366 36.4636C166.006 36.6076 165.61 36.6796 165.142 36.7156L161.398 36.8956H160.93C160.498 36.8956 160.138 36.8596 159.778 36.7876C159.706 36.7876 159.634 36.7516 159.598 36.7516C159.454 36.7516 159.382 36.8236 159.382 36.9676C159.382 37.0396 159.382 37.1116 159.418 37.1836C159.814 38.8396 160.75 38.8396 161.038 38.8396C161.254 38.8396 161.506 38.8036 161.794 38.8036L162.874 38.7316V45.3916ZM158.842 30.3076C159.238 30.2716 159.634 30.0916 159.634 29.7676C159.634 29.0476 158.158 28.1836 157.726 28.1836C157.618 28.1836 157.546 28.2196 157.438 28.2556C156.934 28.4356 156.358 28.5436 155.926 28.5796L148.078 29.0836C147.826 29.0836 147.574 29.1196 147.322 29.1196C146.962 29.1196 146.638 29.0836 146.314 28.9756C146.206 28.9396 146.134 28.9036 146.062 28.9036C145.918 28.9036 145.846 28.9756 145.846 29.1196C145.846 29.1916 145.846 29.2996 145.882 29.4076C146.602 31.0636 147.358 31.0636 147.754 31.0636C148.042 31.0636 148.366 31.0636 148.798 31.0276L158.842 30.3076ZM155.17 48.7396L151.03 48.8836L150.706 44.3476L155.602 44.0596L155.17 48.7396ZM157.186 34.9516C157.618 34.9156 157.942 34.7356 157.942 34.3756C157.942 33.9796 156.934 32.8276 156.25 32.8276C156.142 32.8276 156.07 32.8636 155.962 32.8996C155.566 33.0436 155.17 33.1516 154.702 33.1876L150.31 33.4756H149.842C149.41 33.4756 148.978 33.4396 148.618 33.3676C148.546 33.3676 148.51 33.3316 148.474 33.3316C148.366 33.3316 148.294 33.4036 148.294 33.5476C148.294 33.5836 148.294 33.6556 148.33 33.7276C148.474 34.2316 148.762 34.7716 149.302 35.2036C149.482 35.3836 149.806 35.4196 150.238 35.4196C150.49 35.4196 150.742 35.4196 151.03 35.3836L157.186 34.9516ZM157.078 39.3076C157.51 39.2716 157.87 39.0916 157.87 38.7676C157.87 38.1916 156.61 37.1836 156.178 37.1836C156.07 37.1836 155.962 37.2196 155.854 37.2556C155.422 37.3996 155.026 37.4716 154.594 37.5076L150.382 37.7596H149.986C149.554 37.7596 149.122 37.7236 148.69 37.6156C148.618 37.6156 148.546 37.5796 148.51 37.5796C148.366 37.5796 148.33 37.6516 148.33 37.7596C148.33 38.6236 149.266 39.4156 149.338 39.4876C149.554 39.6316 149.878 39.7036 150.382 39.7036C150.598 39.7036 150.814 39.7036 151.102 39.6676L157.078 39.3076ZM155.278 27.5716C155.962 27.5716 156.394 26.4196 156.394 25.9876C156.394 25.6276 156.142 25.4116 155.638 25.1596C152.866 23.6836 150.454 22.7836 150.166 22.7836C149.446 22.7836 149.194 23.9356 149.194 24.0436C149.194 24.3676 149.446 24.5836 149.878 24.7636C151.354 25.4116 153.01 26.2756 154.522 27.2476C154.81 27.4276 155.062 27.5716 155.278 27.5716ZM174.646 29.1196C175.078 29.1196 175.834 28.2196 175.834 27.7876C175.834 27.1396 172.018 23.6116 171.442 23.6116C170.974 23.6116 170.326 24.2236 170.326 24.6916C170.326 24.8716 170.434 25.0516 170.614 25.1956C171.838 26.2036 172.99 27.4276 173.89 28.5796C174.142 28.9036 174.394 29.1196 174.646 29.1196Z" fill="black"/>
<path d="M181.99 47.4796C181.774 48.0916 181.378 48.9556 180.982 49.6756C180.91 49.8196 180.874 49.9996 180.874 50.1436C180.874 50.8636 181.666 51.5116 182.278 51.5116C182.53 51.5116 182.782 51.3676 182.89 51.0436C183.178 50.1076 183.502 49.2436 183.826 48.3076L191.602 26.9596C191.926 26.0956 192.286 25.3396 192.61 24.6196C192.646 24.5836 192.646 24.5116 192.646 24.4756C192.646 23.9356 191.638 22.9636 191.026 22.9636C190.81 22.9636 190.63 23.1076 190.558 23.4316C190.306 24.4036 189.946 25.5556 189.694 26.2396L181.99 47.4796Z" fill="black"/>
<path d="M223.592 35.5636C223.052 36.7516 222.44 37.6876 221.432 38.9116C221.108 39.3076 220.964 39.6316 220.964 39.8836C220.964 40.0636 221.072 40.1716 221.252 40.1716C221.576 40.1716 223.016 39.6316 226.004 35.8156C226.076 35.6716 226.508 35.4196 226.508 35.0236C226.508 34.4116 225.68 33.7636 225.032 33.7636C224.852 33.7636 224.636 33.7996 224.348 33.7996L221.936 33.9076L222.944 23.7196C222.944 23.5036 223.052 23.3236 223.052 23.1076C223.052 22.3516 221.828 21.9556 221.432 21.9556H221.144L216.932 22.2796H216.536C216.14 22.2796 215.744 22.2436 215.384 22.1716C215.276 22.1356 215.204 22.1356 215.168 22.1356C215.024 22.1356 214.988 22.2076 214.988 22.3156C214.988 22.3876 215.096 24.0796 216.752 24.0796C216.968 24.0796 217.184 24.0436 217.436 24.0436L220.64 23.8276L220.496 26.0596L217.112 26.3116H216.752C216.392 26.3116 215.96 26.2756 215.564 26.2036C215.492 26.2036 215.42 26.1676 215.384 26.1676C215.24 26.1676 215.168 26.2396 215.168 26.3836C215.168 26.4916 215.42 27.9676 216.86 27.9676C217.04 27.9676 217.22 27.9316 217.4 27.9316L220.352 27.7156L220.208 29.7676L216.968 29.9836H216.608C216.248 29.9836 215.852 29.9476 215.456 29.8756C215.384 29.8756 215.312 29.8396 215.276 29.8396C215.096 29.8396 215.06 29.9116 215.06 30.0196C215.06 30.0556 215.276 31.6756 216.608 31.6756C216.824 31.6756 217.04 31.6396 217.292 31.6396L220.1 31.4596L219.884 34.0156L202.46 34.9156L202.244 32.2156L206.276 31.9276C206.816 31.8916 207.14 31.6756 207.14 31.3876C207.14 30.7396 205.844 30.0916 205.52 30.0916C205.376 30.0916 205.268 30.1276 205.16 30.1636C204.8 30.3076 204.44 30.3796 203.936 30.4156L202.1 30.5596L201.956 28.5076L206.06 28.1836C206.6 28.1476 206.888 27.9676 206.888 27.6796C206.888 27.3916 206.132 26.3476 205.34 26.3476C205.16 26.3476 205.052 26.3836 204.908 26.4196C204.44 26.5636 204.044 26.6356 203.648 26.6716L201.848 26.8516L201.704 24.9796C203.324 24.4756 204.548 23.8636 206.312 22.9636C206.456 22.8916 206.564 22.7476 206.564 22.5316C206.564 21.9556 205.664 20.5516 205.124 20.5516C204.98 20.5516 204.836 20.6596 204.764 20.9116C204.512 21.5596 203.252 22.7836 201.344 23.4316C200.408 23.0716 199.832 22.8916 199.544 22.8916C199.328 22.8916 199.256 22.9636 199.256 23.1436C199.256 23.3236 199.328 23.5756 199.436 23.8996C199.58 24.4036 199.688 25.2316 199.76 26.0236L200.48 35.0236L199.364 35.0596L199.472 34.4116C199.508 34.2676 199.508 34.1596 199.508 34.0516C199.508 33.7276 199.364 33.4396 198.716 33.2236C198.572 33.2236 198.464 33.1876 198.356 33.1876C197.744 33.1876 197.672 33.4396 197.6 33.9436C197.276 36.0676 196.664 38.1196 195.728 39.9556C195.656 40.0636 195.62 40.2076 195.62 40.3156C195.62 40.8196 196.52 41.5036 197.24 41.5036C197.564 41.5036 197.96 41.3596 199.04 36.7516L223.592 35.5636ZM226.256 45.4636C226.58 45.4276 226.904 45.2836 226.904 44.9596C226.904 44.7076 226.004 43.3036 224.852 43.3036C224.708 43.3036 224.6 43.3036 224.492 43.3396C223.7 43.5556 222.98 43.6636 221.936 43.6996L212.576 44.0596L212.324 43.4116C214.448 42.4396 216.14 41.5756 218.264 39.9916C218.48 39.8476 219.056 39.6316 219.056 39.2356C219.056 38.9836 218.372 37.8676 217.256 37.8676C217.076 37.8676 216.86 37.9036 216.572 37.9036L205.196 38.5516H204.692C204.116 38.5516 203.54 38.5156 203.072 38.3716C202.964 38.3356 202.892 38.3356 202.82 38.3356C202.604 38.3356 202.46 38.4436 202.46 38.5876C202.46 38.6596 202.496 38.7676 202.568 38.8756C202.928 39.5596 203.504 40.3876 204.8 40.3876C205.124 40.3876 205.448 40.3876 205.916 40.3516L215.672 39.7036C214.448 40.6396 213.296 41.2516 211.568 42.0076C211.316 41.5756 211.064 41.3236 210.704 41.3236C210.488 41.3236 209.372 41.6116 209.372 42.1876C209.372 42.3676 209.48 42.5476 209.624 42.7636C209.948 43.1956 210.2 43.6636 210.416 44.1676L198.68 44.6356H198.212C197.492 44.6356 196.952 44.5636 196.232 44.4196C196.16 44.4196 196.088 44.3836 196.052 44.3836C195.872 44.3836 195.8 44.4556 195.8 44.5996C195.8 44.6716 195.8 44.7436 195.836 44.8156C195.944 45.1396 196.448 46.5076 197.996 46.5076C198.284 46.5076 198.608 46.4716 199.04 46.4716L210.956 46.0396C211.1 46.8676 211.172 47.7676 211.172 48.6676C211.172 49.3516 211.136 50.0716 211.064 50.7556C211.064 50.8276 211.028 50.8996 211.028 50.9356C210.956 51.0796 210.884 51.1516 210.74 51.1516C210.236 51.1516 207.284 50.2876 205.7 49.6756C205.268 49.5316 204.944 49.4596 204.728 49.4596C204.512 49.4596 204.404 49.5316 204.404 49.6396C204.404 50.5036 209.516 53.6356 211.1 53.6356C211.82 53.6356 213.368 53.2756 213.368 49.5676C213.368 49.2436 213.332 48.9196 213.332 48.5956C213.296 47.6596 213.188 46.7596 213.044 45.9676L226.256 45.4636ZM211.136 31.8916C211.784 32.3596 212.432 32.9716 213.08 33.5116C213.332 33.7276 213.548 33.8356 213.764 33.8356C214.196 33.8356 214.772 32.9716 214.772 32.5756C214.772 32.0356 212.792 30.8116 212.54 30.6676C212.576 30.6316 214.268 29.0476 214.268 28.6516C214.268 28.0396 213.116 27.2476 212.612 27.2476C212.396 27.2476 212.288 27.3556 212.252 27.5356C212.18 27.9676 212 28.6156 211.028 29.7316C208.688 28.2196 208.436 28.1836 208.292 28.1836C208.04 28.1836 207.5 28.7956 207.5 29.1916C207.5 29.4076 207.68 29.5516 207.968 29.6956C208.58 30.0196 209.192 30.4876 209.876 30.9916C209.228 31.7836 208.364 32.5396 207.572 33.1516C206.96 33.6196 206.672 33.9796 206.672 34.1596C206.672 34.2676 206.744 34.3396 206.924 34.3396C207.284 34.3396 208.148 34.1956 211.136 31.8916ZM211.172 25.4836C211.712 25.8796 212.288 26.3476 212.864 26.8516C213.116 27.1036 213.332 27.2116 213.548 27.2116C213.98 27.2116 214.52 26.2756 214.52 25.9876C214.52 25.7716 214.448 25.4836 212.648 24.2596C213.152 23.8276 213.656 23.2156 214.196 22.7116C214.268 22.6396 214.34 22.5316 214.34 22.3156C214.34 21.6676 213.296 20.8036 212.792 20.8036C212.612 20.8036 212.468 20.9116 212.396 21.0916C212 22.2796 211.244 23.2156 211.136 23.3236C209.228 22.0276 208.472 21.7036 208.184 21.7036C208.004 21.7036 207.824 21.8116 207.572 22.1356C207.428 22.3516 207.356 22.5316 207.356 22.6756C207.356 22.9276 207.536 23.0716 207.752 23.2156C208.4 23.6116 209.192 24.1516 209.948 24.6556C209.264 25.4116 208.508 26.1316 207.716 26.7796C207.176 27.2116 206.96 27.5356 206.96 27.7516C206.96 27.8596 207.032 27.9316 207.212 27.9316C208.112 27.9316 210.452 26.0596 211.172 25.4836Z" fill="black"/>
<path d="M255.704 51.8716C256.136 51.8716 256.604 51.8716 256.604 51.4036C256.604 51.1156 256.388 50.6116 255.776 49.7836L256.64 40.9996C256.676 40.7836 256.928 40.5676 256.928 40.2436C256.928 39.6316 256.064 38.8756 255.236 38.8756H254.876L246.812 39.2716C248.756 37.5076 248.9 37.3276 248.9 37.0396C248.9 36.3196 247.424 35.0596 246.992 35.0596C246.812 35.0596 246.74 35.2756 246.704 35.6356C246.596 36.7516 245.552 37.9756 244.22 39.4156L240.62 39.5596C239.216 39.0556 238.424 38.8036 238.064 38.8036C237.884 38.8036 237.812 38.8756 237.812 39.0196C237.812 39.1996 237.92 39.4876 238.1 39.8476C238.244 40.1716 238.46 41.0716 238.496 41.8276L238.964 50.5396C238.964 50.7916 239 51.0436 239 51.2236C239 51.5116 238.964 51.7996 238.928 52.1596V52.3756C238.928 53.2036 240.224 53.5996 240.692 53.5996C241.124 53.5996 241.34 53.3116 241.34 52.9156V52.8076L241.304 52.1236L255.704 51.8716ZM259.412 34.9516L260.06 24.2236C260.06 23.9356 260.168 23.6116 260.168 23.3236C260.168 22.3156 258.872 22.2076 258.62 22.2076H258.476L249.512 22.8196C249.296 22.8196 249.008 22.8556 248.684 22.8556C248.216 22.8556 247.676 22.8196 247.28 22.7116C247.208 22.7116 247.172 22.6756 247.136 22.6756C246.992 22.6756 246.884 22.7476 246.884 22.9636C246.884 22.9996 246.92 23.0716 246.92 23.1436C247.1 23.7916 247.46 24.2596 247.784 24.6196C248 24.8356 248.432 24.9076 248.864 24.9076C249.26 24.9076 249.62 24.8716 249.944 24.8356L257.792 24.2236L257.18 35.4916C256.244 35.3116 254.732 34.9516 253.58 34.5556C253.04 34.3756 252.644 34.2676 252.392 34.2676C252.14 34.2676 252.032 34.3396 252.032 34.4836C252.032 35.3836 256.964 38.1196 257.864 38.1196C258.224 38.1196 258.512 37.9396 258.908 37.5436C259.412 37.0396 259.412 36.5356 259.412 35.7796V34.9516ZM245.732 34.4116L246.02 25.0876C246.02 24.7636 246.128 24.5476 246.128 24.2956C246.128 23.5036 245.12 23.0356 244.688 23.0356H244.472L235.4 23.7196C235.184 23.7196 234.896 23.7556 234.572 23.7556C234.14 23.7556 233.708 23.7196 233.348 23.6476C233.276 23.6476 233.24 23.6116 233.204 23.6116C233.06 23.6116 232.952 23.6836 232.952 23.8996C232.952 24.5476 233.492 25.8076 234.932 25.8076C235.22 25.8076 235.508 25.7716 235.796 25.7356L243.788 25.1236L243.5 35.0596C242.528 34.9156 241.52 34.6996 240.368 34.3396C240.044 34.2316 239.756 34.1956 239.54 34.1956C239.252 34.1956 239.108 34.2676 239.108 34.4476C239.108 35.0956 241.448 36.3916 243.356 37.2916C243.68 37.4356 243.968 37.5076 244.22 37.5076C245.084 37.5076 245.768 36.7876 245.768 35.8876C245.768 35.5276 245.732 35.1316 245.732 34.6276V34.4116ZM253.976 44.3836L240.872 44.8876L240.692 41.6116L254.228 40.9636L253.976 44.3836ZM253.544 49.8196L241.196 50.1076L240.98 46.8316L253.832 46.3276L253.544 49.8196ZM243.392 30.4156C243.392 30.3076 243.284 30.2356 243.104 30.2356C242.888 30.2356 242.528 30.3436 242.096 30.5596C240.152 31.5316 235.4 33.6196 233.024 33.7636C232.7 33.7996 232.556 33.8716 232.556 34.0156C232.556 34.5916 233.78 35.8156 234.572 35.8156C236.156 35.8156 243.392 31.3876 243.392 30.4156ZM257.108 29.4796C257.108 29.3716 257 29.2996 256.82 29.2996C256.568 29.2996 256.136 29.4076 255.596 29.6956C253.364 30.8116 248.684 32.6116 246.812 32.7196C246.56 32.7556 246.452 32.7916 246.452 32.9356C246.452 33.1876 247.532 34.8076 248.612 34.8076C249.728 34.8076 257.108 30.4516 257.108 29.4796ZM253.436 30.1636C253.976 30.1636 254.48 29.1916 254.48 28.7236C254.48 28.3996 254.264 28.1476 253.868 27.8956C252.068 26.7076 249.728 25.4116 249.296 25.4116C248.864 25.4116 248.324 26.0596 248.324 26.5636C248.324 26.8516 248.54 27.0676 248.9 27.2836C250.196 28.0396 251.744 29.0116 252.716 29.8036C253.004 30.0556 253.22 30.1636 253.436 30.1636ZM240.224 30.7756C240.8 30.7756 241.376 29.6956 241.376 29.3716C241.376 28.3996 236.516 26.2036 236.3 26.2036C235.832 26.2036 235.4 27.1036 235.4 27.4996C235.4 27.7516 235.58 27.8956 235.94 28.1116C237.164 28.7956 238.388 29.5516 239.432 30.3796C239.756 30.6316 240.008 30.7756 240.224 30.7756Z" fill="black"/>
<path d="M266.576 47.4796C266.36 48.0916 265.964 48.9556 265.568 49.6756C265.496 49.8196 265.46 49.9996 265.46 50.1436C265.46 50.8636 266.252 51.5116 266.864 51.5116C267.116 51.5116 267.368 51.3676 267.476 51.0436C267.764 50.1076 268.088 49.2436 268.412 48.3076L276.188 26.9596C276.512 26.0956 276.872 25.3396 277.196 24.6196C277.232 24.5836 277.232 24.5116 277.232 24.4756C277.232 23.9356 276.224 22.9636 275.612 22.9636C275.396 22.9636 275.216 23.1076 275.144 23.4316C274.892 24.4036 274.532 25.5556 274.28 26.2396L266.576 47.4796Z" fill="black"/>
<path d="M304.974 51.4756C305.406 51.4396 305.838 51.4396 305.838 51.0796C305.838 50.8276 305.55 50.3596 304.758 49.5316L305.694 43.3756C305.73 43.1236 305.946 42.9076 305.946 42.5836C305.946 42.4396 305.55 41.2516 304.29 41.2516H304.002L288.63 41.8636C288.054 41.6116 287.442 41.4316 287.082 41.3236C289.71 40.2076 291.834 38.9116 294.642 36.7876V37.2916C294.642 37.8316 294.606 38.5516 294.426 39.4876C294.39 39.5956 294.39 39.7036 294.39 39.7756C294.39 40.6756 295.794 41.1076 296.154 41.1076C296.55 41.1076 296.694 40.8196 296.694 40.4236V36.8236C304.074 40.6396 310.266 42.5116 310.626 42.5116C311.238 42.5116 312.354 41.2516 312.354 40.9276C312.354 40.7476 312.21 40.6036 311.922 40.5316C306.918 39.3796 303.03 37.9756 298.962 36.2476L308.574 35.7796C309.006 35.7436 309.258 35.6356 309.258 35.3836C309.258 34.9156 308.286 33.7996 307.566 33.7996C307.422 33.7996 307.278 33.8356 307.134 33.8716C306.342 34.0876 305.694 34.1596 305.226 34.1956L296.658 34.6276V29.9836C298.89 29.7316 301.194 29.3356 303.714 28.9396C303.966 28.9036 304.182 28.8316 304.182 28.5796C304.182 28.1116 303.03 26.4196 302.382 26.4196C302.238 26.4196 302.13 26.4556 302.058 26.5996C301.734 27.0676 301.086 27.3196 300.726 27.3916C296.478 28.3996 292.338 29.0476 286.83 29.7676C286.074 29.8756 285.714 30.1276 285.714 30.3796C285.714 30.5956 286.038 30.7756 286.722 30.7756H286.902C289.602 30.6316 292.122 30.4516 294.642 30.1996V34.7356L291.978 34.8796C292.194 34.7716 292.878 34.1236 292.878 33.5836C292.878 33.4396 292.842 32.8276 288.882 31.0636C288.666 30.9916 288.486 30.9196 288.378 30.9196C288.162 30.9196 287.55 31.3156 287.55 31.9636C287.55 32.2156 287.694 32.3956 287.946 32.5396C289.134 33.2236 290.034 33.8356 290.97 34.5196C291.186 34.6996 291.366 34.8436 291.582 34.8796L284.958 35.2396C284.742 35.2396 284.49 35.2756 284.166 35.2756C283.734 35.2756 283.194 35.2396 282.69 35.1316C282.618 35.1316 282.546 35.0956 282.51 35.0956C282.366 35.0956 282.294 35.1676 282.294 35.2756C282.294 35.3476 282.294 35.4196 282.33 35.4916C282.474 35.9236 282.726 36.3556 283.122 36.7156C283.374 36.8956 283.734 36.9676 284.31 36.9676C284.598 36.9676 284.922 36.9676 285.318 36.9316L291.906 36.6076C287.55 39.3076 283.842 41.3236 279.774 42.9076C279.306 43.0876 279.09 43.3396 279.09 43.5196C279.09 43.6996 279.27 43.8436 279.594 43.8436C280.242 43.8436 283.122 42.9436 285.93 41.7916L286.038 42.0076C286.362 42.6556 286.506 43.4836 286.578 44.4196L286.974 49.2796C287.01 49.7476 287.01 50.1796 287.01 50.6116C287.01 51.1156 287.01 51.6196 286.938 52.0876C286.938 52.2316 286.902 52.3756 286.902 52.4836C286.902 52.9516 287.082 53.2036 287.91 53.6716C288.198 53.8156 288.45 53.8876 288.666 53.8876C289.134 53.8876 289.422 53.5996 289.422 53.2036V53.1316L289.35 51.8716L304.974 51.4756ZM307.458 25.8076C306.954 26.8156 306.198 27.8956 305.55 28.9036C305.19 29.4076 305.046 29.7676 305.046 29.9836C305.046 30.1276 305.118 30.1996 305.262 30.1996C305.838 30.1996 307.71 28.6876 309.834 26.0956C310.086 25.7716 310.626 25.5196 310.626 25.1236C310.626 25.0156 310.266 23.8636 308.826 23.8636H308.574L296.838 24.5476L296.874 21.6676C296.874 20.8396 294.966 20.5156 294.354 20.5156C294.03 20.5156 293.814 20.6236 293.814 20.8036C293.814 20.8756 293.886 21.0196 293.994 21.1636C294.354 21.7036 294.534 22.1716 294.534 22.6036V24.6916L286.11 25.1596C286.398 24.2956 286.398 24.0076 286.398 23.7196C286.398 22.8556 285.174 22.8556 285.066 22.8556C284.598 22.8556 284.418 23.1076 284.274 23.6116C283.698 25.8076 282.762 28.0756 281.574 30.0916C281.502 30.2356 281.43 30.3436 281.43 30.4876C281.43 31.0636 282.438 31.6036 282.942 31.6036C283.302 31.6036 283.518 31.3876 283.662 31.0636C284.382 29.6596 284.994 28.2916 285.498 26.9956L307.458 25.8076ZM302.67 49.8556L296.622 49.9636V47.2276L302.994 47.0116L302.67 49.8556ZM303.138 45.4276L296.622 45.6436V43.2316L303.426 42.9436L303.138 45.4276ZM294.606 49.9996L289.206 50.1076L289.026 47.4796L294.606 47.2996V49.9996ZM294.606 45.7156L288.918 45.8956L288.738 43.5556L294.606 43.3036V45.7156ZM303.858 31.5676C303.966 31.4596 304.074 31.3516 304.074 31.1356C304.074 30.6316 302.778 29.4796 302.13 29.4796C301.914 29.4796 301.806 29.6596 301.734 30.0196C301.662 30.5596 301.374 30.9916 301.122 31.2436C300.438 31.9276 299.61 32.6116 298.638 33.2956C298.17 33.6196 297.954 33.9076 297.954 34.0876C297.954 34.1956 298.062 34.2676 298.278 34.2676C298.818 34.2676 301.014 33.5476 303.858 31.5676Z" fill="black"/>
<path d="M346.734 28.4356C347.274 28.3996 347.742 28.2916 347.742 27.9316C347.742 27.2836 346.302 26.1676 345.618 26.1676C345.438 26.1676 345.222 26.2036 345.006 26.2756C344.502 26.4556 343.782 26.5996 342.738 26.6716L338.814 26.8876L338.85 22.4596C338.85 21.1276 336.366 21.1276 336.222 21.1276C335.898 21.1276 335.754 21.1996 335.754 21.3436C335.754 21.4516 335.826 21.5596 335.934 21.7036C336.258 22.1356 336.366 22.6396 336.402 23.2156L336.546 27.0316L330.966 27.3556C330.498 27.3916 330.102 27.3916 329.706 27.3916C329.274 27.3916 328.878 27.3916 328.446 27.3196H328.302C328.122 27.3196 328.05 27.3916 328.05 27.4996C328.05 27.5356 328.266 29.3716 330.174 29.3716C330.462 29.3716 330.822 29.3716 331.254 29.3356L335.934 29.0476C335.79 30.5596 332.982 34.0156 332.802 34.2316C331.65 33.4756 331.074 33.1876 330.75 33.1876C330.39 33.1876 329.526 33.9436 329.526 34.4476C329.526 34.7356 329.742 34.9516 330.246 35.2036C331.794 36.0676 333.702 37.2196 336.006 39.0916C333.99 41.2516 331.686 43.2316 328.914 45.2476C328.374 45.6436 328.122 45.9676 328.122 46.1836C328.122 46.2916 328.23 46.3636 328.41 46.3636C328.626 46.3636 328.986 46.2556 329.454 46.0396C335.106 43.4116 339.03 39.4156 343.206 33.4396C343.278 33.3316 343.314 33.2236 343.314 33.0796C343.314 32.1796 341.37 31.3156 341.082 31.3156C340.866 31.3156 340.794 31.4956 340.758 31.8196C340.722 32.9356 340.182 34.0876 337.482 37.3996C336.402 36.6076 335.322 35.8516 334.422 35.2396C335.214 34.3396 338.166 30.7756 338.166 30.3076C338.166 30.0916 337.986 29.7316 337.374 29.1916L337.158 28.9756L346.734 28.4356ZM324.27 37.2196C325.17 38.2636 326.142 39.5596 326.826 40.6756C327.078 41.0716 327.294 41.2516 327.582 41.2516C327.906 41.2516 329.022 40.7476 329.022 40.0996C329.022 39.5236 325.746 35.5276 324.882 35.5276C324.702 35.5276 324.522 35.6356 324.306 35.7796L324.342 32.6116L328.878 32.2156C329.31 32.1796 329.634 31.9996 329.634 31.6756C329.634 31.2436 328.662 30.1636 327.942 30.1636C327.834 30.1636 327.762 30.1636 327.654 30.1996C327.222 30.3436 326.79 30.4156 326.358 30.4516L324.342 30.6316L324.45 23.1796C324.45 22.6036 324.306 22.4236 323.37 22.0636C322.902 21.8836 322.506 21.8116 322.218 21.8116C321.894 21.8116 321.678 21.9196 321.678 22.0996C321.678 22.2076 321.75 22.3156 321.822 22.4236C322.11 22.8556 322.29 23.3596 322.29 23.8276L322.218 30.7756L318.222 31.0636C318.006 31.0636 317.79 31.0996 317.61 31.0996C317.25 31.0996 316.89 31.0636 316.566 30.9916C316.494 30.9556 316.422 30.9556 316.35 30.9556C316.17 30.9556 316.062 31.0276 316.062 31.2076C316.062 31.7116 316.746 33.0796 317.934 33.0796C318.186 33.0796 318.546 33.0436 318.942 33.0076L321.714 32.7916C319.878 37.9756 317.862 42.1516 315.558 45.3916C315.27 45.7876 315.162 46.0756 315.162 46.2916C315.162 46.4356 315.234 46.5076 315.342 46.5076C316.17 46.5076 321.138 40.9996 322.254 36.4636C322.254 36.4636 322.11 38.4436 322.11 39.3796C322.11 43.2316 322.002 49.2436 322.002 49.2436C322.002 49.8916 321.894 50.7556 321.714 51.5476C321.678 51.6556 321.678 51.7996 321.678 51.9076C321.678 53.0236 323.226 53.4196 323.442 53.4196C323.838 53.4196 324.09 53.1676 324.09 52.5556L324.27 37.2196ZM339.102 46.4356C341.514 48.3076 343.89 50.2516 345.618 52.1596C345.87 52.4476 346.122 52.5916 346.338 52.5916C347.058 52.5916 347.742 51.4396 347.742 51.1516C347.742 50.8996 347.598 50.6476 347.346 50.3956C345.546 48.6676 343.35 46.8676 340.722 44.9236C342.378 43.2316 344.034 41.3236 345.51 39.0196C345.546 38.9476 345.582 38.8756 345.582 38.7676C345.582 38.0116 343.962 37.0756 343.458 37.0756C343.242 37.0756 343.134 37.2556 343.098 37.5796C342.918 39.1996 338.922 45.6076 327.978 51.6196C327.438 51.9076 327.186 52.1596 327.186 52.3396C327.186 52.4836 327.33 52.5556 327.582 52.5556C327.978 52.5556 333.702 51.0436 339.102 46.4356Z" fill="black"/>
<path d="M351.162 47.4796C350.946 48.0916 350.55 48.9556 350.154 49.6756C350.082 49.8196 350.046 49.9996 350.046 50.1436C350.046 50.8636 350.838 51.5116 351.45 51.5116C351.702 51.5116 351.954 51.3676 352.062 51.0436C352.35 50.1076 352.674 49.2436 352.998 48.3076L360.774 26.9596C361.098 26.0956 361.458 25.3396 361.782 24.6196C361.818 24.5836 361.818 24.5116 361.818 24.4756C361.818 23.9356 360.81 22.9636 360.198 22.9636C359.982 22.9636 359.802 23.1076 359.73 23.4316C359.478 24.4036 359.118 25.5556 358.866 26.2396L351.162 47.4796Z" fill="black"/>
<path d="M43.116 73.8076C43.404 73.8076 44.484 73.0156 44.484 72.4036C44.484 71.7196 40.92 68.4796 39.876 67.5796C39.732 67.4356 39.552 67.3636 39.372 67.3636C38.976 67.3636 38.22 67.9396 38.22 68.4436C38.22 68.6236 38.292 68.7316 38.4 68.8396C39.732 70.0996 41.496 72.0436 42.504 73.3756C42.72 73.6636 42.9 73.8076 43.116 73.8076ZM49.2 65.4196C47.868 69.7756 45.348 74.7436 41.892 78.8116C38.904 75.8236 36.06 71.8276 34.296 68.6596C34.152 68.3716 33.936 68.2276 33.684 68.2276C33.108 68.2276 32.244 68.8756 32.244 69.3076C32.244 69.7396 35.376 75.2476 40.38 80.5036C36.204 84.9316 31.596 88.2076 27.384 90.1876C26.412 90.6556 25.98 91.0876 25.98 91.3396C25.98 91.5196 26.16 91.6276 26.52 91.6276C27.276 91.6276 34.188 89.8996 41.892 82.0876C48.372 88.1716 56.292 91.7356 56.616 91.7356C57.192 91.7356 58.632 90.3316 58.632 89.8996C58.632 89.7196 58.488 89.5396 58.236 89.4316C51.864 86.9476 47.58 84.1756 43.476 80.4316C46.86 76.6156 49.74 71.5036 51.9 65.6356C51.972 65.4556 52.332 64.9876 52.332 64.4836C52.332 64.1596 52.188 63.8356 51.72 63.5476C51.36 63.3676 50.928 63.2236 50.424 63.2236H50.244L32.748 64.5196H32.46C31.74 64.5196 30.696 64.4116 30.156 64.3036C30.084 64.2676 30.012 64.2676 29.94 64.2676C29.76 64.2676 29.652 64.3396 29.652 64.5196C29.652 64.5196 30.084 66.7876 32.172 66.7876C32.496 66.7876 32.856 66.7516 33.324 66.7156L49.2 65.4196Z" fill="black"/>
<path d="M77.316 83.9956C77.82 83.9596 78.144 83.7796 78.144 83.4556C78.144 82.8436 76.56 82.0156 76.236 82.0156C76.164 82.0156 76.092 82.0156 75.984 82.0516C75.48 82.1956 74.904 82.2676 74.4 82.3036L72.132 82.4116L72.168 80.2156L78.828 79.8916C79.332 79.8556 79.656 79.6756 79.656 79.3516C79.656 78.7396 78.072 77.9116 77.748 77.9116C77.676 77.9116 77.604 77.9116 77.496 77.9476C77.028 78.0916 76.416 78.1636 75.912 78.1996L72.168 78.3796L72.204 76.2196L77.928 76.0036C78.504 75.9676 78.972 75.8956 78.972 75.5356C78.972 75.3196 78.756 74.9596 78.252 74.4556L78.828 71.4676C78.864 71.3236 79.08 71.1076 79.08 70.8196C79.08 70.3516 78.432 69.7396 77.676 69.7396C77.532 69.7396 77.388 69.7756 77.208 69.7756L65.976 70.3876C64.86 70.0636 64.176 69.9196 63.816 69.9196C63.528 69.9196 63.42 69.9916 63.42 70.1356C63.42 70.2796 63.528 70.4596 63.636 70.6756C63.816 71.0356 64.032 71.5036 64.068 71.8996L64.392 74.4916C64.428 74.6716 64.428 74.8516 64.428 75.0316C64.428 75.3196 64.392 75.6076 64.356 75.9316V76.1476C64.356 77.0116 65.616 77.3716 66.048 77.3716C66.372 77.3716 66.48 77.1556 66.48 76.7956V76.4356L70.188 76.2916V78.4516L64.968 78.7036H64.608C64.212 78.7036 63.78 78.6676 63.276 78.5596C63.204 78.5596 63.132 78.5236 63.096 78.5236C62.952 78.5236 62.88 78.5956 62.88 78.7396C62.88 78.8116 62.88 78.8836 62.916 78.9556C63.348 80.3596 64.068 80.5396 64.896 80.5396C65.184 80.5396 65.472 80.5036 65.76 80.5036L70.152 80.2876V82.4836L66.48 82.6276H66.228C65.796 82.6276 65.328 82.5556 64.788 82.4476C64.716 82.4476 64.644 82.4116 64.572 82.4116C64.428 82.4116 64.356 82.4836 64.356 82.6276C64.356 82.6996 64.356 82.7716 64.392 82.8436C64.86 84.4636 65.94 84.4636 66.696 84.4636C66.984 84.4636 67.236 84.4276 67.452 84.4276L70.152 84.3196L70.116 87.1276C68.208 87.4516 66.264 87.7036 64.212 87.9556C63.672 88.0276 63.132 88.0636 62.592 88.0636C62.304 88.0636 61.98 88.0276 61.656 88.0276C61.62 88.0276 61.584 87.9916 61.548 87.9916C61.404 87.9916 61.296 88.0636 61.296 88.2436C61.296 88.2796 61.332 88.3516 61.332 88.3876C62.124 90.2956 63.06 90.3676 63.492 90.3676C63.996 90.3676 69.864 89.3956 78.468 86.5516C79.152 86.3356 79.476 86.0476 79.476 85.8316C79.476 85.6516 79.224 85.5076 78.828 85.5076C78.648 85.5076 78.432 85.5436 78.216 85.5796C76.02 86.0476 74.04 86.4436 72.096 86.7676L72.132 84.2116L77.316 83.9956ZM90.636 72.0076C90.528 78.3796 89.88 85.0396 88.656 88.9276C88.62 89.1076 88.476 89.1796 88.368 89.1796C88.044 89.1796 85.812 88.2436 84.444 87.4876C84.012 87.2716 83.688 87.1636 83.472 87.1636C83.256 87.1636 83.112 87.2716 83.112 87.4516C83.112 88.2436 87.324 91.9156 88.836 91.9156C90.636 91.9156 91.176 89.0356 91.428 87.4876C92.148 82.9516 92.616 77.8396 92.832 71.9716C92.832 71.7196 93.048 71.4676 93.048 71.1436C93.048 71.0716 92.832 69.9196 91.752 69.9196C91.608 69.9196 91.428 69.9196 91.212 69.9556L86.892 70.2796C87.144 67.4356 87.252 64.4476 87.252 61.7836C87.252 61.1716 87 60.9916 85.992 60.6676C85.488 60.5236 85.056 60.4156 84.804 60.4156C84.552 60.4156 84.408 60.4876 84.408 60.6676C84.408 60.7756 84.48 60.9196 84.588 61.0996C84.84 61.5676 84.948 62.1076 84.948 62.7556C84.948 64.8436 84.912 67.6516 84.66 70.4596L81.996 70.6756H81.564C81.096 70.6756 80.592 70.6396 80.124 70.5316H79.944C79.764 70.5316 79.656 70.6036 79.656 70.7476C79.656 70.8196 79.692 70.8916 79.728 70.9996C80.304 72.2596 80.664 72.6556 81.672 72.6556C81.96 72.6556 82.284 72.6556 82.68 72.6196L84.444 72.4756C83.4 82.7716 78.756 88.5316 76.992 90.6196C76.704 90.9796 76.56 91.2676 76.56 91.4476C76.56 91.6276 76.668 91.6996 76.812 91.6996C77.028 91.6996 77.352 91.5556 77.748 91.2316C84.876 85.0396 86.064 76.8676 86.676 72.2956L90.636 72.0076ZM80.412 66.1396C80.844 66.1036 81.096 65.9236 81.096 65.5996C81.096 64.9876 79.8 64.1596 79.296 64.1596C79.188 64.1596 79.08 64.1956 79.008 64.2316C78.612 64.4116 78.144 64.5196 77.496 64.5556L75.192 64.6996C75.588 63.4396 75.912 62.0716 75.912 61.9276C75.912 61.0996 73.86 60.5956 73.536 60.5956C73.284 60.5956 73.14 60.7036 73.14 60.8836C73.14 60.9916 73.212 61.0996 73.284 61.2436C73.464 61.5676 73.536 61.9276 73.536 62.2516V62.4316C73.5 63.2236 73.428 64.0156 73.356 64.8076L69.468 65.0236L69.216 62.5756C69.144 61.5676 67.236 61.5676 67.092 61.5676C66.804 61.5676 66.66 61.6396 66.66 61.7836C66.66 61.8556 66.696 61.9636 66.804 62.0716C67.2 62.5036 67.308 62.9716 67.38 63.5836L67.56 65.1676L64.32 65.3476H63.888C63.456 65.3476 62.952 65.3116 62.412 65.2036H62.304C62.196 65.2036 62.088 65.2396 62.088 65.3836C62.088 65.4556 62.124 65.5276 62.16 65.6356C62.736 66.8956 63.168 67.1116 63.996 67.1116C64.176 67.1116 64.392 67.1116 64.68 67.0756L67.776 66.8956V67.1836C67.776 67.5436 67.74 67.9396 67.74 68.2996C67.74 68.9116 67.956 69.2356 68.82 69.5236C69.036 69.5956 69.216 69.6316 69.36 69.6316C69.72 69.6316 69.864 69.4156 69.864 69.1276V69.0196L69.648 66.7876L73.14 66.5716C73.032 67.2556 72.924 67.9756 72.78 68.6596C72.744 68.8036 72.744 68.9476 72.744 69.0556C72.744 69.4516 72.852 69.6316 73.032 69.6316C73.464 69.6316 73.932 68.5876 74.616 66.4996L80.412 66.1396ZM76.344 74.3836L72.204 74.5636L72.24 71.7196L76.74 71.5036L76.344 74.3836ZM70.188 74.6356L66.3 74.8156L66.012 72.0436L70.224 71.8276L70.188 74.6356Z" fill="black"/>
</svg>
