<svg width="293" height="83" viewBox="0 0 293 83" fill="none" xmlns="http://www.w3.org/2000/svg">
<rect x="1" y="1" width="291" height="81" fill="white" stroke="black" stroke-width="2"/>
<path d="M58.48 32.8473C58.876 32.8113 59.2 32.6673 59.2 32.3793C59.2 31.9473 58.048 30.7233 57.22 30.7233C57.112 30.7233 56.968 30.7593 56.86 30.7953C56.284 31.0113 55.78 31.1193 55.204 31.1553L48.364 31.5873C49.084 29.6433 50.38 25.8273 50.38 25.1433C50.38 24.5673 49.048 23.4153 48.112 23.4153C47.86 23.4153 47.752 23.5233 47.752 23.7753V24.2793C47.752 26.5113 45.376 35.0073 42.568 40.4073C42.316 40.9113 42.208 41.3073 42.208 41.5593C42.208 41.7393 42.244 41.8473 42.388 41.8473C43 41.8473 44.692 39.6873 46.24 36.5193C47.104 39.1113 48.22 41.8473 49.552 44.1873C47.212 48.2553 43.972 51.4953 41.272 53.9433C40.84 54.3393 40.624 54.6633 40.624 54.8793C40.624 55.0233 40.732 55.0953 40.948 55.0953C42.028 55.0953 47.968 50.5953 50.776 46.1673C53.476 50.3073 57.94 54.8793 58.66 54.8793C59.308 54.8793 60.604 53.9073 60.604 53.5833C60.604 53.4393 60.46 53.2593 60.208 53.0433C56.86 50.3073 54.052 47.5353 51.928 44.2233C53.872 40.6233 55.06 37.0953 55.888 32.9913L58.48 32.8473ZM36.232 46.7433C37.312 48.3273 38.356 49.9473 39.22 51.4593C39.436 51.8553 39.724 52.1073 40.048 52.1073C40.552 52.1073 41.452 51.4953 41.452 50.8833C41.452 50.5953 41.38 50.0913 37.492 44.9073C38.5 43.2873 39.544 41.3433 40.408 39.3993C40.444 39.2913 40.48 39.1833 40.48 39.0753C40.48 38.2473 38.896 37.0953 38.32 37.0953C38.104 37.0953 37.996 37.2753 37.996 37.6713V38.1033C37.996 38.5713 37.924 39.8313 36.124 43.1433C33.172 39.3273 32.524 38.5713 32.02 38.5713C31.732 38.5713 30.904 39.0033 30.904 39.5073C30.904 39.7233 31.048 39.9033 31.264 40.1913C32.488 41.6313 33.748 43.2873 35.008 44.9793C32.452 49.0473 28.06 52.6473 27.124 53.4033C26.764 53.7273 26.584 54.0153 26.584 54.2313C26.584 54.3753 26.692 54.4833 26.908 54.4833C27.772 54.4833 32.56 51.3873 35.908 47.1753L36.232 46.7433ZM43.576 30.5073C43.936 30.4713 44.188 30.2553 44.188 29.9673C44.188 29.4633 43.216 28.4193 42.352 28.4193C42.244 28.4193 42.136 28.4193 42.028 28.4553C41.452 28.6353 40.84 28.7073 40.336 28.7433L36.772 28.9593L36.808 25.2873C36.808 24.6753 36.628 24.2433 35.692 24.0273C35.188 23.9193 34.792 23.8473 34.54 23.8473C34.252 23.8473 34.108 23.9193 34.108 24.0993C34.108 24.1713 34.144 24.3153 34.252 24.4953C34.504 24.9273 34.72 25.6473 34.72 26.1153L34.684 29.0673L30.04 29.3193C29.896 29.3193 29.716 29.3553 29.536 29.3553C29.104 29.3553 28.636 29.2833 28.204 29.1753C28.132 29.1393 28.06 29.1393 28.024 29.1393C27.844 29.1393 27.772 29.2113 27.772 29.3913C27.772 29.4633 27.808 29.5353 27.808 29.6073C27.844 29.7873 28.312 31.2633 29.68 31.2633C30.04 31.2633 30.436 31.2273 30.904 31.1913L43.576 30.5073ZM53.404 33.1353C52.756 36.2673 51.892 39.3633 50.632 42.0633C49.372 39.7233 48.292 36.8793 47.428 33.9633L47.644 33.4953L53.404 33.1353ZM27.664 40.7673C29.104 40.7673 34.504 34.5033 34.504 33.4953C34.504 32.7393 32.776 31.6953 32.452 31.6953C32.164 31.6953 32.056 31.9113 32.056 32.3433C32.056 34.2873 28.492 38.8953 27.844 39.6873C27.52 40.0473 27.412 40.3353 27.412 40.5153C27.412 40.6593 27.484 40.7673 27.664 40.7673ZM43 37.4553C43 37.0953 38.932 31.7673 38.176 31.7673C37.672 31.7673 36.988 32.6313 36.988 32.8833C36.988 33.0633 37.096 33.2073 37.276 33.3873C38.356 34.5033 39.796 36.6273 40.804 38.1393C41.092 38.5713 41.344 38.7873 41.668 38.7873C42.244 38.7873 43 37.7793 43 37.4553Z" fill="black"/>
<path d="M75.868 52.8273C74.428 52.4673 73.312 52.0713 72.16 51.5673C71.8 51.4233 71.548 51.3513 71.368 51.3513C71.152 51.3513 71.08 51.4233 71.08 51.5673C71.08 52.4673 75.292 55.4193 76.3 55.4193C76.84 55.4193 78.1 54.7713 78.1 53.3673C78.1 53.0433 78.064 52.6113 78.064 52.0713L77.812 38.1033C77.812 37.8513 77.992 37.6353 77.992 37.3473C77.992 37.0953 77.848 36.7713 77.308 36.3753C76.948 36.0513 76.768 35.9793 76.516 35.9793C76.372 35.9793 76.228 36.0153 76.048 36.0153L68.308 36.6273C66.976 36.0873 66.292 35.8353 65.932 35.8353C65.752 35.8353 65.68 35.9073 65.68 36.0513C65.68 36.1953 65.752 36.4113 65.824 36.6633C66.076 37.2753 66.148 37.7793 66.148 38.5353V39.0033L65.86 51.3873C65.86 52.1073 65.788 52.6473 65.68 53.1873C65.644 53.3313 65.644 53.4393 65.644 53.5833C65.644 54.5913 67.336 55.1673 67.444 55.1673C67.876 55.1673 68.092 54.6993 68.092 53.9433L68.164 47.7153L75.832 47.2833L75.868 52.8273ZM81.268 50.6673C81.268 53.7273 82.744 54.1593 87.46 54.1593C89.26 54.1593 91.096 54.0153 92.788 53.6913C95.092 53.2953 95.092 51.9273 95.092 48.0393C95.092 46.7793 95.02 44.8353 94.48 44.8353C94.228 44.8353 93.976 45.2313 93.904 46.0233C93.436 50.9913 93.112 51.1353 91.996 51.4953C90.736 51.7833 89.116 51.8913 87.568 51.8913C83.464 51.8913 83.464 51.5313 83.464 50.5233L83.5 47.0313C86.38 46.1673 88.972 45.2313 92.104 43.7913C92.392 43.6473 92.644 43.5033 92.644 43.1073C92.644 42.6753 91.852 40.7313 91.348 40.7313C91.204 40.7313 91.06 40.9113 90.952 41.1633C90.592 41.7753 90.268 42.0993 89.692 42.4233C88.108 43.3593 85.912 44.3313 83.536 45.1233L83.608 39.4353C83.608 38.6073 81.916 38.1753 81.268 38.1753C80.908 38.1753 80.728 38.2833 80.728 38.4633C80.728 38.4993 80.764 38.5713 80.8 38.6433C81.196 39.1833 81.34 39.7233 81.34 40.2993L81.268 50.6673ZM81.448 34.9713C81.448 36.7713 82.456 37.9233 83.968 38.0673C85.012 38.1753 86.092 38.2113 87.172 38.2113C93.22 38.2113 93.616 37.4193 93.616 34.6833C93.616 31.6953 93.4 30.5073 92.968 30.5073C92.752 30.5073 92.464 30.9393 92.356 31.8033C91.888 35.4753 91.78 35.7273 90.52 35.9073C89.548 36.0513 88.324 36.1593 87.172 36.1593C84.04 36.1593 83.644 35.8353 83.644 34.8633L83.68 32.6313C86.308 31.6953 88.792 30.7593 91.528 29.2833C91.708 29.1753 91.96 29.0673 91.96 28.6713C91.96 28.3113 91.384 26.4393 90.772 26.4393C90.628 26.4393 90.52 26.5473 90.376 26.7993C89.656 28.1313 85.912 29.9313 83.716 30.7953L83.788 24.2433C83.788 23.3793 81.952 22.9473 81.304 22.9473C81.052 22.9473 80.944 23.0193 80.944 23.1273C80.944 23.1993 80.98 23.2713 81.052 23.3793C81.448 23.9193 81.52 24.6393 81.52 24.9633L81.448 34.9713ZM65.392 32.4873C65.212 32.5233 65.032 32.5233 64.852 32.5233C64.42 32.5233 64.024 32.4513 63.592 32.4153H63.376C63.088 32.4153 62.98 32.4873 62.98 32.6673C62.98 32.7393 63.016 32.8113 63.052 32.9193C63.7 34.0713 64.06 34.6473 64.816 34.6473C65.32 34.6473 72.448 33.4953 76.768 32.5953C77.2 33.2073 77.596 33.8553 77.884 34.3953C78.208 35.0073 78.46 35.2593 78.748 35.2593C78.82 35.2593 80.152 34.7193 80.152 33.9633C80.152 33.1353 76.192 28.5633 75.508 27.8793C75.148 27.4833 74.896 27.2673 74.608 27.2673C74.104 27.2673 73.456 27.9873 73.456 28.3473C73.456 28.5633 73.636 28.7793 73.924 29.0673C74.428 29.6073 75.004 30.2913 75.58 31.0113C73.168 31.5513 70.9 31.8753 68.596 32.1273C71.08 28.6353 72.628 25.4673 72.628 25.0353C72.628 24.0993 70.792 23.1273 70.432 23.1273C70.216 23.1273 70.108 23.2713 70.108 23.5233V23.9913C70.108 25.6473 68.092 29.2473 65.932 32.4153L65.392 32.4873ZM75.796 45.4833L68.164 45.9153L68.2 43.0353L75.76 42.5313L75.796 45.4833ZM75.76 40.8393L68.2 41.2713L68.236 38.4633L75.724 37.9593L75.76 40.8393Z" fill="black"/>
<path d="M124.49 33.9633L124.598 32.8473V32.5593C124.598 31.4073 122.798 31.1553 122.366 31.1553C122.078 31.1553 121.934 31.2633 121.934 31.4433C121.934 31.5513 121.97 31.6593 122.006 31.7673C122.186 32.1993 122.294 32.5953 122.294 33.0993V33.3153L122.222 34.2873C121.07 34.4313 119.882 34.5753 118.694 34.6833C119.414 31.6593 119.954 28.8153 120.242 26.4033V26.1513C120.242 25.2513 118.442 24.7833 117.902 24.7833C117.614 24.7833 117.47 24.8913 117.47 25.1073C117.47 25.2153 117.506 25.3233 117.542 25.4313C117.686 25.7553 117.722 26.0793 117.722 26.4753V26.8713C117.614 28.9593 117.182 31.8753 116.534 34.8633C115.418 34.9713 114.338 35.0433 113.294 35.1153C112.934 35.1153 112.61 35.1513 112.322 35.1513C111.998 35.1513 111.71 35.1153 111.386 35.0793H111.206C111.026 35.0793 110.918 35.1513 110.918 35.2953C110.918 35.5833 111.566 37.3473 112.898 37.3473C113.006 37.3473 113.15 37.3473 116.102 36.8793C115.814 38.2473 115.454 39.5793 115.094 40.8393C114.95 41.3433 114.806 41.7393 114.806 42.0633C114.806 42.2073 114.842 42.3153 114.878 42.4593C115.13 43.3953 115.67 43.2873 116.246 43.7913C116.93 44.4033 117.83 45.2313 118.766 46.2393C116.966 49.2633 114.518 51.5673 112.322 53.2233C111.89 53.5473 111.674 53.8713 111.674 54.0513C111.674 54.1953 111.782 54.2673 111.962 54.2673C112.646 54.2673 116.858 52.2153 120.062 47.6433C121.142 48.8313 122.294 50.1993 123.302 51.5673C123.446 51.7833 123.626 51.8913 123.806 51.8913C124.382 51.8913 125.138 50.9553 125.138 50.5593C125.138 49.9833 121.934 46.7433 121.142 45.9513C122.546 43.3233 123.626 39.9033 124.31 35.2593C126.758 34.6833 127.082 34.3233 127.082 34.0713C127.082 33.8553 126.83 33.7113 126.362 33.7113C126.254 33.7113 126.11 33.7113 125.966 33.7473L124.49 33.9633ZM144.578 39.1113C145.046 39.0753 145.442 38.9313 145.442 38.5713C145.442 37.9953 144.146 36.9153 143.57 36.9153C143.426 36.9153 143.318 36.9513 143.174 36.9873C142.634 37.1313 142.022 37.2393 141.338 37.2753L135.542 37.5993C135.326 36.5913 135.074 35.4753 134.786 34.6113C136.91 32.4153 138.602 30.2913 140.33 27.6993C140.474 27.5193 140.906 27.2673 140.906 26.8713C140.906 26.3673 140.114 25.5753 139.25 25.5753H138.998L129.098 26.2233H128.666C128.198 26.2233 127.73 26.1873 127.226 26.0793C127.118 26.0433 127.046 26.0433 126.974 26.0433C126.83 26.0433 126.758 26.1153 126.758 26.2593C126.758 26.8713 127.478 28.1313 128.558 28.2393H128.738C129.062 28.2393 129.422 28.2033 129.818 28.1673L137.774 27.6273C136.73 29.2833 135.47 30.9753 133.886 32.5953L133.742 32.3433C133.526 32.0193 133.346 31.8033 133.022 31.8033C132.842 31.8033 132.626 31.8753 132.374 32.0193C131.834 32.2713 131.618 32.5233 131.618 32.7753C131.618 32.9553 131.69 33.1353 131.834 33.3513C132.482 34.4673 132.986 36.0873 133.346 37.7073L126.794 38.0673H126.506C126.002 38.0673 125.462 37.9953 124.922 37.8873C124.85 37.8513 124.778 37.8513 124.706 37.8513C124.562 37.8513 124.49 37.9233 124.49 38.1033C124.49 38.6793 124.958 39.3633 125.57 39.8673C125.75 40.0473 126.11 40.0833 126.506 40.0833C126.83 40.0833 127.154 40.0473 127.514 40.0473L133.706 39.7233C134.066 42.0633 134.174 44.6193 134.174 46.9593C134.174 52.3593 133.886 52.4313 133.706 52.4313C133.634 52.4313 133.562 52.4313 133.49 52.3953C132.158 52.0353 130.646 51.4593 129.242 50.7753C128.738 50.5233 128.378 50.4153 128.126 50.4153C127.91 50.4153 127.802 50.4873 127.802 50.6673C127.802 51.8553 133.346 55.3473 134.534 55.3473C136.226 55.3473 136.478 52.1793 136.478 47.7513C136.478 45.3393 136.334 42.3873 135.902 39.5793L144.578 39.1113ZM122.042 35.7993C121.538 39.6513 120.674 42.3153 119.702 44.5113C118.73 43.5753 117.758 42.6753 116.822 41.8473C117.326 40.0833 117.83 38.2833 118.262 36.5193L122.042 35.7993Z" fill="black"/>
<path d="M178.526 46.1313C178.994 46.0953 179.318 45.9513 179.318 45.6273C179.318 45.1233 178.202 44.1153 177.518 44.1153C177.41 44.1153 177.266 44.1153 177.122 44.1513C176.654 44.2593 176.222 44.3313 175.574 44.3673L168.95 44.6553V42.4593L175.322 42.2073C175.718 42.1713 176.078 42.1353 176.078 41.8473C176.078 41.6313 175.826 41.2353 175.178 40.5873L176.078 34.8993C176.114 34.6833 176.366 34.3953 176.366 34.0713C176.366 33.5313 175.502 33.0273 174.818 33.0273H174.494L168.914 33.3513V31.3713L173.702 31.0833C174.206 31.0473 174.494 30.8673 174.494 30.6153C174.494 30.1473 173.234 29.1753 172.622 29.1753C172.514 29.1753 172.37 29.2113 172.19 29.2833C171.722 29.4633 171.29 29.5713 170.534 29.6073L168.914 29.7153V28.3473C168.914 27.3393 167.114 27.1953 166.826 27.1953C166.646 27.1953 166.538 27.2313 166.538 27.3753C166.538 27.4473 166.574 27.5193 166.61 27.5913C166.898 28.1673 167.006 28.8153 167.006 29.5353V29.8233L163.01 30.0753C162.758 30.0753 162.542 30.1113 162.362 30.1113C162.038 30.1113 161.786 30.0753 161.39 30.0033C161.318 30.0033 161.246 29.9673 161.21 29.9673C161.03 29.9673 160.958 30.0393 160.958 30.1833C160.958 30.2553 161.318 31.7673 162.614 31.7673C162.83 31.7673 163.118 31.7673 163.514 31.7313L167.006 31.5153V33.4593L162.398 33.7113C161.138 33.2073 160.454 32.9913 160.094 32.9913C159.914 32.9913 159.842 33.0633 159.842 33.2073C159.842 33.3153 159.914 33.4953 159.986 33.7113C160.274 34.3593 160.382 34.9713 160.454 35.7633L160.886 40.3353C160.922 40.6233 160.922 40.9113 160.922 41.1633C160.922 41.5233 160.886 41.8833 160.85 42.2073C160.814 42.3873 160.814 42.5673 160.814 42.6753C160.814 43.2513 161.858 43.9713 162.506 43.9713C162.902 43.9713 163.046 43.6833 163.046 43.3233V43.2153L163.01 42.7113L166.97 42.5673V44.7273L159.95 45.0153H159.518C159.05 45.0153 158.618 44.9793 158.15 44.8713C158.042 44.8353 157.97 44.7993 157.898 44.7993C157.79 44.7993 157.718 44.8713 157.718 44.9793C157.718 45.0153 157.718 45.0873 157.754 45.1593C158.078 46.2393 158.762 46.8513 159.554 46.8513C159.77 46.8513 160.094 46.8153 160.49 46.8153L166.97 46.5633C166.97 47.7513 166.898 48.7233 166.754 49.8033V49.9473C166.754 50.7393 168.122 51.3513 168.482 51.3513C168.842 51.3513 168.986 51.0273 168.986 50.5953V46.4913L178.526 46.1313ZM178.382 54.9153C179.498 54.9153 180.218 53.1153 180.218 52.9353C180.218 52.6833 179.93 52.6113 179.39 52.6113H178.814C171.686 52.6113 161.57 50.7033 156.062 49.5873C154.982 49.3713 154.01 49.2273 153.074 49.1913C156.242 46.4553 156.746 45.6633 156.746 44.8713C156.746 43.8273 155.954 43.2513 153.146 41.2353C153.002 41.1273 152.966 41.0553 152.966 40.9833C152.966 40.7673 153.254 40.4073 156.314 36.3753C156.53 36.1233 156.962 35.8353 156.962 35.4393C156.962 34.8633 156.062 34.2153 155.522 34.2153C155.414 34.2153 155.27 34.2513 155.126 34.2513L149.546 34.8273C149.366 34.8633 149.15 34.8633 148.97 34.8633C148.61 34.8633 148.25 34.8273 147.89 34.7553C147.818 34.7553 147.746 34.7193 147.71 34.7193C147.53 34.7193 147.422 34.7913 147.422 34.9353C147.422 35.0073 147.458 35.0793 147.494 35.1873C148.214 36.8433 149.078 36.8793 149.474 36.8793C149.69 36.8793 149.906 36.8793 150.194 36.8433L153.686 36.4113C150.698 40.6593 150.698 40.6593 150.698 41.3073C150.698 41.8473 150.986 42.2793 151.634 42.7113C151.742 42.7833 154.298 44.4033 154.298 44.9073C154.298 44.9793 154.262 45.0153 154.226 45.0873C153.254 46.2753 152.03 47.6073 150.05 49.2993C147.71 49.5513 146.954 49.6953 146.954 50.4153C146.954 51.4593 147.314 51.9633 147.854 51.9633C148.034 51.9633 148.25 51.8913 148.502 51.8193C150.05 51.3153 151.346 51.1353 152.498 51.1353C153.686 51.1353 154.73 51.3153 155.738 51.5313C161.21 52.6473 171.578 54.6993 178.13 54.9153H178.382ZM175.826 26.3313C175.574 27.5193 175.25 28.5993 174.782 29.5713C174.602 29.9313 174.53 30.2553 174.53 30.4353C174.53 30.6873 174.638 30.8313 174.818 30.8313C175.394 30.8313 176.402 29.8593 178.094 26.5113C178.166 26.3313 178.67 25.9713 178.67 25.5753C178.67 24.7113 177.014 24.4953 176.978 24.4953C176.798 24.4953 176.618 24.5313 176.402 24.5313L161.39 25.5033C161.39 25.2873 161.426 25.0353 161.462 24.7833C161.462 24.6393 161.498 24.5313 161.498 24.4233C161.498 24.0993 161.354 23.8833 160.67 23.8113C160.526 23.7753 160.382 23.7753 160.274 23.7753C159.77 23.7753 159.662 23.9913 159.59 24.5313C159.194 26.8353 158.762 28.5633 158.078 30.2553C157.97 30.5433 157.898 30.7953 157.898 30.9753C157.898 31.3353 158.15 31.5153 158.654 31.7673C158.942 31.9113 159.194 31.9833 159.41 31.9833C159.842 31.9833 160.31 31.6593 161.102 27.3393L175.826 26.3313ZM155.054 31.9473C155.666 31.9473 156.422 31.0833 156.422 30.5073C156.422 30.2193 156.278 30.0033 155.99 29.7153C153.722 27.3393 151.238 24.9993 150.626 24.9993C150.338 24.9993 149.474 25.6833 149.474 26.1153C149.474 26.3313 149.654 26.5113 149.942 26.7633C151.382 28.0233 152.786 29.5713 154.154 31.2993C154.478 31.7313 154.766 31.9473 155.054 31.9473ZM173.738 36.7713L168.95 37.0233V35.0433L173.99 34.7913L173.738 36.7713ZM173.27 40.5873L168.95 40.7673V38.6073L173.558 38.3913L173.27 40.5873ZM167.006 37.0953L162.506 37.3473L162.326 35.3673L167.006 35.1513V37.0953ZM166.97 40.8393L162.83 41.0193L162.65 38.9313L166.97 38.7153V40.8393Z" fill="black"/>
<path d="M182.99 49.4793C182.774 50.0913 182.378 50.9553 181.982 51.6753C181.91 51.8193 181.874 51.9993 181.874 52.1433C181.874 52.8633 182.666 53.5113 183.278 53.5113C183.53 53.5113 183.782 53.3673 183.89 53.0433C184.178 52.1073 184.502 51.2433 184.826 50.3073L192.602 28.9593C192.926 28.0953 193.286 27.3393 193.61 26.6193C193.646 26.5833 193.646 26.5113 193.646 26.4753C193.646 25.9353 192.638 24.9633 192.026 24.9633C191.81 24.9633 191.63 25.1073 191.558 25.4313C191.306 26.4033 190.946 27.5553 190.694 28.2393L182.99 49.4793Z" fill="black"/>
<path d="M211.344 51.8553C209.256 51.4593 207.456 50.8113 205.296 49.8033C205.008 49.6593 204.792 49.6233 204.612 49.6233C204.36 49.6233 204.216 49.7313 204.216 49.9473C204.216 50.9193 210.408 54.9153 212.1 54.9153C212.46 54.9153 212.784 54.8073 213.144 54.5193C213.72 54.0513 213.828 53.5473 213.828 52.9353C213.828 52.5033 213.792 52.0713 213.792 51.5673L213.828 36.2313C217.572 42.0273 221.892 46.6713 227.148 50.5233C227.328 50.6313 227.472 50.7033 227.652 50.7033C228.192 50.7033 229.848 49.5873 229.848 49.1553C229.848 48.9753 229.668 48.7953 229.236 48.5793C224.664 45.9513 220.776 42.2073 217.428 37.6713C220.092 35.7633 225.096 31.3713 225.096 30.6513C225.096 30.0033 223.764 28.4553 223.152 28.4553C222.936 28.4553 222.792 28.5993 222.756 28.9593C222.504 30.6153 219.192 33.7833 216.24 35.9793C215.448 34.8993 214.62 33.6753 213.828 32.4153L213.864 24.6393C213.864 23.8113 211.776 23.1993 210.984 23.1993C210.696 23.1993 210.552 23.2713 210.552 23.4513C210.552 23.5593 210.588 23.7033 210.696 23.8473C211.056 24.3873 211.344 24.9273 211.344 25.6833V51.8553ZM205.944 34.5753C204.324 40.2993 201.084 45.2313 196.296 49.8393C195.972 50.1273 195.828 50.4513 195.828 50.6673C195.828 50.8833 195.972 51.0273 196.224 51.0273C196.404 51.0273 196.656 50.9193 196.98 50.7033C202.74 46.7433 206.376 41.4873 208.572 34.6833C208.608 34.5393 209.04 34.2153 209.04 33.7113C209.04 33.0633 208.14 32.3793 207.276 32.3793H206.844L199.824 32.8833H199.356C198.888 32.8833 198.456 32.8473 197.952 32.7753C197.844 32.7753 197.736 32.7393 197.664 32.7393C197.484 32.7393 197.376 32.8113 197.376 32.9193C197.376 32.9913 197.412 33.0993 197.484 33.2433C198.276 34.9353 198.996 35.0073 199.464 35.0073C199.788 35.0073 200.148 34.9713 200.58 34.9353L205.944 34.5753Z" fill="black"/>
<path d="M262.14 46.9953L262.176 36.2313C262.176 36.0513 262.32 35.8353 262.32 35.5113C262.32 34.8633 261.636 34.2513 260.592 34.2513C260.412 34.2513 260.196 34.2873 259.944 34.2873L258.468 34.3953L258.828 26.5473C258.864 26.2953 259.044 26.0793 259.044 25.7913C259.044 25.7913 258.792 24.6393 257.496 24.6393C257.244 24.6393 257.028 24.6753 256.812 24.6753L248.712 25.2873C247.416 24.8193 246.66 24.6393 246.228 24.6393C245.904 24.6393 245.796 24.7473 245.796 24.9273C245.796 25.0353 245.832 25.1793 245.904 25.3593C246.228 26.0793 246.264 26.7993 246.3 27.8433L246.516 35.1153L245.868 35.1513C244.428 34.6473 243.6 34.4313 243.168 34.4313C242.916 34.4313 242.808 34.5033 242.808 34.6473C242.808 34.7913 242.844 34.9353 242.952 35.1153C243.312 35.7993 243.42 36.4113 243.42 36.9873L243.492 44.7993C243.492 45.8433 243.42 46.7793 243.312 47.6433C243.312 47.7513 243.276 47.8953 243.276 48.0033C243.276 49.0833 244.716 49.3713 245.076 49.3713C245.544 49.3713 245.724 49.0833 245.724 48.6153L245.472 36.9153L259.872 36.1593V47.9673C258.648 47.7153 257.352 47.3193 256.488 46.9593C256.02 46.7793 255.66 46.6713 255.444 46.6713C255.228 46.6713 255.12 46.7433 255.12 46.8513C255.12 47.3193 258.576 50.3793 260.16 50.3793C260.592 50.3793 261.024 50.1993 261.492 49.8393C262.068 49.3713 262.14 48.6873 262.14 47.8953V46.9953ZM262.824 54.8433C264.048 54.8433 264.66 52.8633 264.66 52.8273C264.66 52.5753 264.372 52.5033 263.832 52.5033H263.652C256.596 52.5033 246.084 50.5593 240.612 49.4793C239.532 49.2633 238.596 49.1193 237.624 49.0833C240.468 46.5633 241.008 45.6633 241.008 44.8353C241.008 43.8633 240.252 43.0713 237.408 41.2353C237.3 41.1633 237.228 41.0913 237.228 40.9833C237.228 40.6593 240.324 36.6633 240.54 36.3753C240.756 36.1233 241.188 35.8353 241.188 35.4033C241.188 34.8993 240.396 34.2153 239.784 34.2153C239.676 34.2153 239.568 34.2513 239.424 34.2513L234.024 34.8273C233.844 34.8273 233.664 34.8633 233.484 34.8633C233.124 34.8633 232.764 34.8273 232.404 34.7553C232.332 34.7553 232.26 34.7193 232.188 34.7193C232.044 34.7193 231.972 34.7913 231.972 34.9713C231.972 35.0433 231.972 35.1153 232.008 35.1873C232.152 35.7633 232.764 36.9153 233.916 36.9153C234.096 36.9153 234.348 36.8793 234.672 36.8433L238.02 36.4113C235.104 40.5153 235.032 40.6233 235.032 41.3073C235.032 41.8473 235.32 42.2793 235.968 42.7113C236.688 43.2153 238.668 44.5113 238.668 44.9073C238.668 44.9793 238.632 45.0153 238.596 45.0873C237.696 46.2033 236.436 47.6433 234.744 49.1913C234.096 49.2633 233.412 49.3713 232.692 49.5153C231.972 49.6593 231.72 49.8393 231.72 50.3073C231.72 50.7753 231.792 51.8553 232.62 51.8553C232.8 51.8553 232.98 51.8193 233.196 51.7473C234.636 51.2793 235.86 51.0993 236.94 51.0993C238.164 51.0993 239.244 51.3153 240.288 51.5313C245.688 52.6473 256.2 54.6273 262.608 54.8433H262.824ZM255.768 44.9073C256.452 44.8713 256.92 44.8713 256.92 44.5473C256.92 44.2953 256.668 43.8993 256.056 43.2153L256.596 40.6233C256.668 40.3713 256.812 40.0833 256.812 39.7953C256.812 39.5073 256.668 39.1473 256.056 38.7873C255.84 38.6073 255.66 38.5713 255.48 38.5713C255.372 38.5713 255.228 38.6073 255.084 38.6073L250.26 38.8593C249.108 38.5713 248.424 38.4633 248.028 38.4633C247.74 38.4633 247.632 38.5353 247.632 38.6793C247.632 38.7873 247.704 38.9313 247.812 39.1113C248.1 39.6153 248.244 40.2633 248.316 40.8033L248.568 43.1433C248.604 43.4313 248.604 43.7193 248.604 44.0073C248.604 44.3673 248.604 44.6913 248.568 44.9793V45.1593C248.568 46.2393 250.008 46.3833 250.224 46.3833C250.62 46.3833 250.764 46.1313 250.764 45.8073V45.6993L250.692 45.1233L255.768 44.9073ZM251.376 34.7913L248.676 34.9713L248.496 27.2313L256.704 26.6193L256.632 29.2113L253.392 29.3913C252.204 28.9953 251.484 28.8153 251.088 28.8153C250.8 28.8153 250.692 28.9233 250.692 29.0673C250.692 29.1753 250.728 29.3193 250.836 29.4993C251.124 30.0393 251.304 30.7953 251.304 31.3713L251.376 34.7913ZM239.82 31.4433C240.18 31.1193 240.36 30.8313 240.36 30.5793C240.36 29.7873 235.392 24.9993 234.672 24.9993C234.312 24.9993 233.448 25.5393 233.448 26.0793C233.448 26.2953 233.628 26.5113 233.916 26.7633C235.284 28.0233 236.796 29.6073 238.092 31.2993C238.416 31.7313 238.668 31.9473 238.956 31.9473C239.208 31.9473 239.46 31.7673 239.82 31.4433ZM254.112 43.2153L250.548 43.3953L250.296 40.6233L254.472 40.4073L254.112 43.2153ZM256.488 34.5033L253.428 34.6833L253.356 31.2633L256.56 31.0473L256.488 34.5033Z" fill="black"/>
</svg>
