<svg width="199" height="87" viewBox="0 0 199 87" fill="none" xmlns="http://www.w3.org/2000/svg">
<rect x="1" y="1" width="197" height="85" fill="white" stroke="black" stroke-width="2"/>
<path d="M60.2 45.3954C60.524 45.3594 60.776 45.2154 60.776 44.9274C60.776 44.6394 59.876 43.4874 59.156 43.4874C59.084 43.4874 59.048 43.4874 58.976 43.5234C58.58 43.6314 58.148 43.7034 57.716 43.7394L49.148 44.1354C49.688 43.8474 51.956 42.4794 51.956 41.9034C51.956 41.3274 50.552 40.1034 50.12 40.1034C49.904 40.1034 49.796 40.3194 49.688 40.7154C49.472 41.4714 48.932 42.4434 46.556 44.2434L44.828 44.3154L44.864 39.9954L54.548 39.5274H54.656C54.98 39.4914 55.232 39.3474 55.232 39.0594C55.232 38.4474 54.152 37.6914 53.684 37.6914C53.576 37.6914 53.504 37.6914 53.432 37.7274C53.036 37.8354 52.604 37.9074 52.172 37.9434L44.864 38.3034V36.0354L52.28 35.6394C52.64 35.6034 52.928 35.4954 52.928 35.2074C52.928 34.6674 51.956 33.8394 51.416 33.8394C51.344 33.8394 51.272 33.8394 51.2 33.8754C50.804 33.9834 50.408 34.0554 49.976 34.0914L44.9 34.3434V32.3274L54.08 31.8234C54.44 31.7874 54.728 31.6794 54.728 31.3914C54.728 30.9234 53.756 29.9514 53.144 29.9514C53.072 29.9514 53.036 29.9514 52.964 29.9874C52.568 30.0954 52.172 30.1674 51.74 30.2034L46.88 30.4554C49.076 28.9434 51.128 26.9274 51.128 26.5674C51.128 26.0994 49.688 24.8034 49.076 24.8034C48.86 24.8034 48.752 25.0194 48.752 25.3434C48.752 25.8834 48.572 26.3154 48.284 26.6394C47.276 27.8634 45.872 29.2674 44.324 30.5994L34.856 31.1034H34.388C33.92 31.1034 33.488 31.0674 33.092 30.9594C33.02 30.9234 32.984 30.9234 32.948 30.9234C32.804 30.9234 32.732 30.9954 32.732 31.1394C32.732 31.1754 32.732 31.2114 32.768 31.2834C33.236 32.8674 34.136 32.8674 34.496 32.8674C34.748 32.8674 35.108 32.8314 35.468 32.8314L42.74 32.4354V34.4874L37.16 34.7754H36.692C36.224 34.7754 35.792 34.7394 35.396 34.6314C35.324 34.5954 35.288 34.5954 35.252 34.5954C35.108 34.5954 35.036 34.6674 35.036 34.8114C35.036 34.8474 35.036 34.8834 35.072 34.9554C35.252 35.4954 35.54 35.8914 35.936 36.2874C36.116 36.4314 36.368 36.4674 36.764 36.4674C37.016 36.4674 37.376 36.4314 37.736 36.4314L42.74 36.1794L42.776 38.4114L34.28 38.7714H33.884C33.416 38.7714 32.912 38.7354 32.516 38.6274C32.444 38.5914 32.408 38.5914 32.372 38.5914C32.228 38.5914 32.156 38.6634 32.156 38.8074C32.156 38.8434 32.156 38.8794 32.192 38.9514C32.336 39.4194 32.66 39.8874 33.092 40.2834C33.272 40.4274 33.524 40.4634 33.92 40.4634C34.172 40.4634 34.532 40.4274 34.892 40.4274L42.776 40.1034V44.4234L39.86 44.5314C40.292 44.0994 40.544 43.7394 40.544 43.4514C40.544 42.7674 37.376 40.6794 36.944 40.6794C36.764 40.6794 36.584 40.8234 36.368 41.0754C36.152 41.3634 36.044 41.6154 36.044 41.8314C36.044 42.0114 36.116 42.1554 36.296 42.2634C37.268 42.9834 38.24 43.8474 38.96 44.5674L29.456 44.9994H29.06C28.592 44.9994 28.088 44.9634 27.692 44.8554C27.62 44.8194 27.584 44.8194 27.548 44.8194C27.404 44.8194 27.332 44.8914 27.332 45.0354C27.332 45.0714 27.332 45.1074 27.368 45.1794C27.836 46.7634 28.736 46.7634 29.096 46.7634C29.348 46.7634 29.708 46.7274 30.068 46.7274L60.092 45.3954H60.2ZM51.92 55.4754C52.568 55.4394 53.036 55.4754 53.036 55.0794C53.036 54.7914 52.82 54.3234 52.244 53.5314L53 49.9314C53.072 49.6434 53.252 49.4634 53.252 49.2114C53.252 48.8514 52.64 47.9154 51.524 47.9154H51.164L36.98 48.4914C35.72 48.0594 34.964 47.8794 34.532 47.8794C34.208 47.8794 34.1 47.9874 34.1 48.1674C34.1 48.2754 34.136 48.4194 34.244 48.5994C34.568 49.1754 34.712 49.8234 34.784 50.4714L35.108 53.8194C35.144 54.2154 35.18 54.5394 35.18 54.8994C35.18 55.2234 35.144 55.5834 35.108 55.9074V56.0874C35.108 57.3834 36.476 57.5994 36.836 57.5994C37.232 57.5994 37.52 57.3834 37.52 56.8434V56.7354L37.448 55.8714L51.92 55.4754ZM50.084 53.5674L37.304 53.9994L37.016 50.3274L50.696 49.7874L50.084 53.5674ZM41.048 30.4194C41.696 30.4194 42.2 29.2314 42.2 29.0514C42.2 28.1154 37.34 25.5954 37.016 25.5954C36.62 25.5954 36.116 26.3874 36.116 26.7474C36.116 26.9634 36.26 27.1434 36.584 27.3234C37.808 28.0434 39.14 29.0154 40.256 29.9874C40.58 30.2754 40.832 30.4194 41.048 30.4194Z" fill="black"/>
<path d="M77.084 46.6914C77.624 46.6554 78.056 46.6554 78.056 46.3314C78.056 46.0794 77.804 45.6114 77.12 44.8554L77.48 29.9154C77.48 29.6274 77.66 29.3754 77.66 29.0874C77.66 28.6554 77.156 27.9714 76.112 27.9714H75.644L68.372 28.4394C67.076 27.8634 66.356 27.6114 65.96 27.6114C65.708 27.6114 65.6 27.7194 65.6 27.8994C65.6 28.0794 65.708 28.2954 65.816 28.5834C66.032 29.0154 66.212 29.6634 66.212 30.5634L66.428 44.7114C66.428 45.4674 66.392 46.0074 66.284 46.7274C66.284 46.8354 66.248 46.9074 66.248 47.0154C66.248 47.4474 66.5 47.7354 67.292 48.0954C67.58 48.2394 67.832 48.3114 68.048 48.3114C68.444 48.3114 68.696 48.0954 68.696 47.5914V47.0874L77.084 46.6914ZM96.488 36.3594C96.956 36.3234 97.352 36.2154 97.352 35.8914C97.352 35.4234 96.128 34.0914 95.372 34.0914C95.264 34.0914 95.192 34.0914 95.12 34.1274C94.724 34.3074 94.184 34.4154 93.608 34.4514L90.584 34.6314L90.548 26.7474C90.548 26.2074 90.332 25.9914 89.432 25.6674C88.676 25.3794 88.136 25.2354 87.848 25.2354C87.668 25.2354 87.56 25.3074 87.56 25.4154C87.56 25.5234 87.632 25.6674 87.776 25.8834C88.208 26.4594 88.388 26.9634 88.388 27.5754L88.424 34.7754L80.36 35.2794H80.072C79.568 35.2794 79.064 35.2074 78.596 35.0634C78.524 35.0274 78.488 35.0274 78.416 35.0274C78.308 35.0274 78.272 35.0994 78.272 35.2074C78.272 35.5674 78.668 36.3234 79.244 36.9714C79.496 37.2594 80.108 37.3314 80.756 37.3314H81.116L87.668 36.9354C85.112 42.1194 82.232 45.7554 78.128 49.5714C77.696 49.9674 77.48 50.2914 77.48 50.4714C77.48 50.6154 77.588 50.6874 77.732 50.6874C79.028 50.6874 86.444 44.8194 88.676 39.4194C88.676 39.4194 88.424 40.7874 88.424 41.6514C88.46 46.4034 88.46 54.3954 88.46 54.3954C86.876 53.8554 85.472 53.2434 83.996 52.4874C83.528 52.2354 83.168 52.1274 82.952 52.1274C82.772 52.1274 82.664 52.1994 82.664 52.3434C82.664 53.2434 87.74 57.0594 89 57.0594C89.252 57.0594 90.656 56.6634 90.656 55.2234C90.656 54.8994 90.62 54.5394 90.62 54.0714L90.584 36.7194L96.488 36.3594ZM74.924 44.8554L68.66 45.1434L68.588 41.2554L74.96 40.9674L74.924 44.8554ZM75.068 33.6594L68.48 33.9834L68.444 30.4194L75.104 29.9874L75.068 33.6594ZM74.996 39.0954L68.588 39.3834L68.516 35.8554L75.032 35.5674L74.996 39.0954ZM68.516 48.7794C68.408 50.1834 65.888 53.7114 64.088 55.5834C63.584 56.0874 63.368 56.5194 63.368 56.7714C63.368 56.9154 63.44 56.9874 63.62 56.9874C65.06 56.9874 70.856 51.2634 70.856 50.0034C70.856 49.4634 69.524 48.1674 68.876 48.1674C68.66 48.1674 68.516 48.3834 68.516 48.7794ZM78.992 54.5034C78.992 53.7114 74.996 48.3474 74.204 48.3474C73.664 48.3474 72.944 49.1034 72.944 49.4274C72.944 49.6434 73.088 49.8594 73.34 50.1834C74.42 51.4434 75.608 53.2794 76.652 55.1154C76.904 55.5474 77.12 55.7634 77.444 55.7634C78.092 55.7634 78.992 55.0434 78.992 54.5034Z" fill="black"/>
<path d="M131.588 55.5114C132.056 55.4754 132.344 55.3674 132.344 55.0794C132.344 54.5394 131.264 53.2794 130.544 53.2794C130.436 53.2794 130.292 53.3154 130.112 53.3514C129.5 53.4954 128.96 53.6034 128.348 53.6034L116.828 53.8914L116.864 51.4794L126.08 51.1914C126.692 51.1554 127.088 50.9754 127.088 50.6514C127.088 50.3274 126.08 49.1034 125.252 49.1034C125.144 49.1034 125 49.1394 124.856 49.1754C124.46 49.2834 124.136 49.3914 123.632 49.3914L116.864 49.5714L116.9 47.2314L124.748 46.9434C125.288 46.9074 125.684 46.8354 125.684 46.5114C125.684 46.2594 125.432 45.8634 124.856 45.2514L125.72 39.2394C125.756 38.9874 125.936 38.7714 125.936 38.5194C125.936 38.4114 125.54 37.2954 124.28 37.2954H124.028L108.836 38.0874C107.468 37.6554 106.748 37.4754 106.424 37.4754C106.208 37.4754 106.136 37.5474 106.136 37.6914C106.136 37.8354 106.244 38.0514 106.352 38.3034C106.568 38.8434 106.784 39.3474 106.82 39.9954L107.252 45.2874V45.8274C107.252 46.2234 107.252 46.5474 107.216 46.8354C107.216 46.9434 107.18 47.0874 107.18 47.1954C107.18 48.2034 108.62 48.5634 109.088 48.5634C109.52 48.5634 109.7 48.3114 109.7 47.8074V47.4834L114.74 47.3034V49.6434L107.396 49.8594H107.072C106.532 49.8594 105.956 49.7874 105.452 49.6434C105.344 49.6074 105.272 49.6074 105.2 49.6074C105.02 49.6074 104.948 49.7154 104.948 49.8594C104.948 49.8954 104.948 50.0034 104.984 50.0754C105.56 51.7674 106.64 51.7674 107.144 51.7674H107.756L114.74 51.5514L114.704 53.9274L102.464 54.2154H101.924C101.348 54.2154 100.808 54.1794 100.376 54.0354C100.304 53.9994 100.232 53.9994 100.16 53.9994C100.052 53.9994 99.98 54.0714 99.98 54.2154C99.98 54.2154 100.16 55.1154 100.772 55.8714C100.88 55.9794 101.06 56.2314 102.176 56.2314H102.86L131.588 55.5114ZM130.616 35.1354C131.12 35.0994 131.408 34.9194 131.408 34.6314C131.408 33.9834 129.932 33.1194 129.608 33.1194C129.536 33.1194 129.464 33.1554 129.428 33.1554C128.816 33.2994 128.348 33.3714 128.096 33.3714L119.96 33.8034C120.896 32.8674 122.12 31.4994 122.12 31.1034C122.12 30.8154 121.868 30.4914 121.256 30.1674L120.392 29.7354L126.548 29.4114C127.124 29.3754 127.376 29.1594 127.376 28.9074C127.376 28.2234 126.044 27.4674 125.54 27.4674C125.468 27.4674 125.396 27.4674 125.324 27.5034C124.82 27.6474 124.388 27.7554 124.064 27.7554L116.9 28.1514L116.972 25.6674C116.972 24.4794 114.704 24.4434 114.56 24.4434C114.272 24.4434 114.128 24.5154 114.128 24.6954C114.128 24.8034 114.2 24.9474 114.344 25.1634C114.524 25.4154 114.596 25.7754 114.632 26.3874L114.74 28.2594L106.748 28.6914C106.568 28.6914 106.388 28.7274 106.208 28.7274C105.848 28.7274 105.452 28.6914 105.056 28.5834C104.948 28.5474 104.876 28.5474 104.804 28.5474C104.696 28.5474 104.624 28.6194 104.624 28.7634C104.624 29.1954 105.092 29.8794 105.488 30.2754C105.668 30.4554 106.028 30.4914 106.532 30.4914H107.108L110.168 30.3114C110.132 30.3834 110.06 30.4194 109.988 30.4914C109.736 30.7434 109.592 30.9234 109.592 31.1034C109.592 31.3194 109.772 31.5354 109.988 31.7514C110.564 32.3274 111.176 33.0834 111.644 33.8754C111.716 34.0194 111.788 34.1274 111.896 34.1994L102.932 34.6674H102.536C102.104 34.6674 101.672 34.6314 101.276 34.5594C101.204 34.5594 101.132 34.5234 101.096 34.5234C100.952 34.5234 100.88 34.5954 100.88 34.7034C100.88 34.8474 101.132 35.7114 101.744 36.2874C101.96 36.5034 102.32 36.5394 102.752 36.5394C103.04 36.5394 103.364 36.5034 103.652 36.5034L130.616 35.1354ZM119.636 30.3474C119.636 30.6354 119.636 31.4274 117.656 33.9114L113.012 34.1634L113.156 34.0554C113.516 33.7674 113.696 33.4794 113.696 33.2274C113.696 33.0474 113.624 32.8314 113.444 32.6514C112.796 31.8594 111.968 31.0314 111.32 30.4914L111.032 30.2754L119.672 29.8074C119.636 29.8794 119.636 29.9874 119.636 30.1314V30.3474ZM122.912 45.2154L116.9 45.4314L116.936 43.1634L123.128 42.9114L122.912 45.2154ZM123.308 41.1834L116.936 41.4714L116.972 39.4554L123.488 39.1674L123.308 41.1834ZM114.776 45.5394L109.376 45.7194L109.16 43.4874L114.776 43.2714V45.5394ZM114.812 41.5794L109.052 41.7954L108.872 39.8514L114.812 39.5634V41.5794Z" fill="black"/>
<path d="M168.128 41.1114C168.596 41.0754 168.956 40.8594 168.956 40.5354C168.956 39.9594 167.732 38.7354 166.796 38.7354C166.688 38.7354 166.58 38.7354 166.472 38.7714C165.86 38.9514 165.176 39.0954 164.492 39.1314L153.368 39.7434C153.188 38.8794 152.972 38.0154 152.756 37.2954C155.6 35.1354 158.336 32.6514 160.964 29.6634C161.18 29.4474 161.756 29.1594 161.756 28.7274C161.756 28.0434 160.64 27.2514 159.956 27.2514C159.812 27.2514 159.668 27.2874 159.488 27.2874L143.972 28.4034C143.792 28.4034 143.576 28.4394 143.36 28.4394C142.964 28.4394 142.532 28.4034 142.1 28.2954C142.028 28.2594 141.92 28.2594 141.884 28.2594C141.704 28.2594 141.632 28.3314 141.632 28.4754C141.632 28.5474 141.668 28.6554 141.704 28.7994C141.92 29.3034 142.46 30.5634 143.54 30.5634C143.864 30.5634 144.26 30.5274 144.728 30.4914L158.048 29.5194C156.608 31.4634 154.232 33.5874 151.928 35.3514C151.676 34.9194 151.46 34.7034 151.136 34.7034C151.136 34.7034 149.624 34.9554 149.624 35.6754C149.624 35.8554 149.732 36.1074 149.912 36.4314C150.416 37.3314 150.812 38.5194 151.136 39.8874L137.492 40.6434H137.096C136.628 40.6434 136.16 40.6074 135.728 40.4994C135.656 40.4634 135.584 40.4634 135.512 40.4634C135.332 40.4634 135.224 40.5354 135.224 40.7154C135.224 41.5074 136.052 42.3714 136.16 42.4794C136.376 42.6954 136.736 42.7674 137.204 42.7674C137.456 42.7674 137.78 42.7674 138.14 42.7314L151.496 42.0114C151.82 44.1354 151.964 46.5114 151.964 48.7434C151.964 50.9034 151.82 52.9194 151.604 54.4674C151.604 54.5754 151.568 54.6834 151.388 54.6834H151.316C149.624 54.0714 147.212 52.9194 145.268 51.8394C144.692 51.5154 144.296 51.4074 144.08 51.4074C143.9 51.4074 143.792 51.4794 143.792 51.6234C143.792 52.8114 150.524 57.6714 152.216 57.6714C153.836 57.6714 154.196 54.8634 154.268 51.9114C154.268 51.4074 154.304 50.8674 154.304 50.3274C154.304 47.7714 154.124 44.7114 153.728 41.9034L168.056 41.1114H168.128Z" fill="black"/>
</svg>
