<svg width="122" height="123" viewBox="0 0 122 123" fill="none" xmlns="http://www.w3.org/2000/svg">
<path d="M106.8 109.241C106.64 110.521 106.32 111.641 106 112.921C105.68 113.881 105.52 114.841 105.52 115.641C105.52 120.121 111.28 122.681 114.16 122.681C116.08 122.681 117.36 121.401 117.52 118.521L121.84 27.4812V27.1612C121.84 23.1613 114.48 20.2812 110.48 20.2812C109.2 20.2812 108.56 20.7612 108.56 21.7213C108.56 22.2012 108.72 22.6812 109.04 23.4812C110.32 25.7212 111.12 28.1212 111.12 30.5213V31.1612L107.6 99.6413L15.1201 104.601L13.6801 31.1612C13.6801 28.2812 12.8801 27.1612 8.40008 25.5612C5.84008 24.6013 3.76008 24.2812 2.32008 24.2812C0.880079 24.2812 0.0800781 24.7612 0.0800781 25.7212C0.0800781 26.2013 0.400078 27.0012 0.880079 27.8012C2.48008 30.2012 3.12008 32.4412 3.12008 35.3212L4.56008 95.6413V97.2412C4.56008 100.601 4.08008 103.801 3.44008 107.161C3.28008 108.281 2.96008 109.241 2.96008 110.041C2.96008 111.641 5.36008 115.961 9.04008 115.961C10.9601 115.961 12.7201 114.521 16.2401 114.361L106.8 109.241ZM80.8801 3.64124C80.8801 11.6412 71.4401 29.7212 62.4801 43.1612C54.0001 35.3212 31.6001 15.4812 28.4001 15.4812C25.5201 15.4812 23.4401 19.9612 23.4401 21.0812C23.4401 22.3612 24.2401 23.1613 25.5201 24.2812C34.4801 31.4812 45.5201 41.0812 56.7201 51.6412C46.9601 65.2412 35.7601 77.7212 24.4001 87.1612C22.1601 89.0812 21.2001 90.5213 21.2001 91.4813C21.2001 92.2812 21.8401 92.7612 22.8001 92.7612C27.7601 92.7612 50.0001 75.1612 63.7601 58.2012C73.8401 67.9613 83.4401 77.4012 91.6001 86.6813C92.7201 87.8013 93.8401 88.7613 95.1201 88.7613C98.3201 88.7613 101.04 83.6413 101.04 82.2012C101.04 80.7612 100.4 77.7213 69.6801 49.8812C84.8801 28.9212 92.5601 10.5212 92.5601 8.44125C92.5601 4.28125 83.9201 0.28125 82.4801 0.28125C81.3601 0.28125 80.8801 0.921242 80.8801 2.52125V3.64124Z" fill="black"/>
</svg>
