<svg width="155" height="87" viewBox="0 0 155 87" fill="none" xmlns="http://www.w3.org/2000/svg">
<rect x="1" y="1" width="153" height="85" fill="white" stroke="black" stroke-width="2"/>
<path d="M53.5469 53.9116L53.7629 46.6396L55.8149 46.5316C56.3189 46.4956 56.8229 46.4956 56.8229 46.0996C56.8229 45.8476 56.5709 45.3796 55.8869 44.6236L56.3909 31.1596C56.4269 30.8716 56.5709 30.6196 56.5709 30.3676C56.5709 30.0076 55.9949 29.1436 54.8429 29.1436H54.4829L47.4629 29.6476C46.2749 29.2156 45.5909 28.9996 45.2309 28.9996C45.0149 28.9996 44.9429 29.0716 44.9429 29.2156C44.9429 29.3236 44.9789 29.5036 45.0869 29.7196C45.3389 30.2956 45.5189 30.8716 45.5189 31.4476L45.7709 44.0116V44.6236C45.7709 45.2356 45.7349 45.7036 45.6629 46.3156C45.6629 46.4236 45.6269 46.5316 45.6269 46.6036C45.6269 47.2156 46.6349 47.7916 47.3189 47.7916C47.6429 47.7916 47.8589 47.6116 47.8589 47.1436V46.8916L48.3629 46.8556C47.6789 52.5076 45.9509 54.9196 41.8469 58.1596C41.3789 58.5196 41.1989 58.8076 41.1989 58.9876C41.1989 59.1316 41.3069 59.2036 41.4869 59.2036C41.6669 59.2036 41.9189 59.1316 42.2429 58.9876C46.2389 57.1516 49.6949 54.1276 50.5229 46.7836L51.6749 46.7116L51.4589 54.3436V54.5956C51.4589 56.7556 52.2869 57.8356 54.3029 58.1236C54.8069 58.1956 55.3109 58.2316 55.8149 58.2316C60.4949 58.2316 60.4949 56.8996 60.4949 53.2996C60.4949 51.7516 60.4949 49.4476 59.8829 49.4476C59.6309 49.4476 59.3789 49.9516 59.2709 50.9236C58.6589 55.9996 58.3709 56.1436 55.8869 56.1436C53.7629 56.1436 53.5469 55.7476 53.5469 54.3796V53.9116ZM43.7549 55.9996C44.0789 55.9636 44.3669 55.7836 44.3669 55.4956C44.3669 55.1716 43.5749 54.1636 42.9269 54.1636C42.8189 54.1636 42.7469 54.1636 42.6389 54.1996C42.2789 54.3076 41.7749 54.4156 41.2709 54.4516L38.4989 54.5956L38.5349 52.1476L42.6029 51.9316C42.8549 51.8956 43.1429 51.8236 43.1429 51.5356C43.1429 51.1756 42.4589 50.2396 41.7389 50.2396C41.6669 50.2396 41.5589 50.2396 41.4869 50.2756C41.1989 50.3836 40.8029 50.4916 40.3349 50.5276L38.5709 50.5996L38.6069 48.4396L42.6389 48.2236C42.9269 48.1876 43.2149 48.0796 43.2149 47.8636C43.2149 47.4316 42.1709 46.5316 41.7029 46.5316C41.6309 46.5316 41.5229 46.5316 41.4509 46.5676C41.0909 46.6756 40.6589 46.7476 40.1549 46.7836L38.6429 46.8916L38.6789 44.6236L43.5389 44.3356C43.8989 44.2996 44.2229 44.1916 44.2229 43.9036C44.2229 43.4716 43.1069 42.5716 42.6749 42.5716C42.5669 42.5716 42.4949 42.6076 42.3869 42.6436C41.9549 42.8236 41.5949 42.8596 41.0909 42.8956L38.0669 43.1116C38.3549 42.7876 38.6069 42.4276 38.8949 42.0316C38.9309 41.9596 38.9669 41.9236 38.9669 41.8516C38.9669 41.2756 37.3469 40.5556 37.2029 40.5556C36.9869 40.5556 36.9149 40.7356 36.9149 41.1316C36.9149 41.4196 36.8429 42.1756 36.1589 43.2196L33.5669 43.3996C33.6029 43.3636 34.3949 42.3196 34.3949 42.1036C34.3949 41.8876 34.2149 41.5636 33.7469 41.0956C33.4229 40.7716 33.1349 40.6636 32.9549 40.5196L35.6909 40.3756C36.1229 40.3396 36.4829 40.3756 36.4829 40.0876C36.4829 39.9076 36.2669 39.5476 35.7269 38.9356L36.0149 36.4156C36.0509 36.1996 36.1589 36.0196 36.1589 35.7676C36.1589 35.5516 36.0509 35.3356 35.6549 35.0836C35.3309 34.8316 35.0789 34.7596 34.7549 34.7596H34.5389L31.0109 35.0836C29.8949 34.6876 29.2469 34.5076 28.9229 34.5076C28.7069 34.5076 28.5989 34.5796 28.5989 34.6876C28.5989 34.7956 28.7069 34.9756 28.8149 35.1556C29.0669 35.5516 29.2829 36.3796 29.3189 36.9196L29.5349 39.2236C29.5709 39.4396 29.5709 39.6556 29.5709 39.7996C29.5709 40.0516 29.5349 40.2676 29.4989 40.5196V40.6996C29.4989 41.0596 29.7149 41.2756 30.2909 41.5636C30.5429 41.7076 30.7589 41.7796 30.9389 41.7796C31.1909 41.7796 31.2989 41.5996 31.2989 41.2396V41.0596L31.2629 40.6276L32.3069 40.5916C32.2709 40.6636 32.2709 40.8076 32.2349 40.9516V41.1316C32.2349 42.4636 28.7789 46.9996 27.1229 48.6556C26.7269 49.0516 26.5469 49.3756 26.5469 49.5556C26.5469 49.6276 26.6189 49.6996 26.7269 49.6996C27.0509 49.6996 28.9949 48.5476 30.5069 46.9636L30.3629 55.4236C30.3629 56.5756 30.1469 57.5476 30.1469 57.5476C30.1109 57.6916 30.1109 57.7996 30.1109 57.9076C30.1109 58.8076 31.3349 59.2396 31.8389 59.2396C32.1269 59.2396 32.3069 59.0596 32.3069 58.5916V56.5756L43.6829 55.9996H43.7549ZM44.4029 31.5556C44.6909 31.5196 45.0149 31.3756 45.0149 31.0876C45.0149 30.5476 43.7549 29.7556 43.3589 29.7556C43.2869 29.7556 43.2149 29.7556 43.1789 29.7916C42.8189 29.9356 42.4229 30.0076 41.9189 30.0436L40.3709 30.1516C40.6229 29.3956 40.8389 28.6756 41.0549 27.7756V27.6676C41.0549 27.0196 39.2909 26.5156 38.7869 26.5156C38.5349 26.5156 38.4269 26.6236 38.4269 26.8036C38.4269 26.9116 38.4269 27.0196 38.4989 27.1636C38.6069 27.3796 38.6789 27.7756 38.6789 28.2436V28.4956C38.6429 29.1436 38.6069 29.6476 38.5349 30.2596L34.5749 30.5116L34.3229 28.4596C34.2509 27.6676 32.3789 27.6676 32.1989 27.6676C31.8029 27.6676 31.5869 27.7396 31.5869 27.9196C31.5869 27.9916 31.6589 28.0996 31.7669 28.2436C31.9829 28.4956 32.3789 28.8556 32.4509 29.2876L32.6669 30.6196L29.1389 30.8716H28.7429C28.2749 30.8716 27.8429 30.8356 27.4109 30.6916C27.3749 30.6916 27.3389 30.6556 27.3029 30.6556C27.1949 30.6556 27.1589 30.7276 27.1589 30.8356C27.1589 31.3756 27.6989 32.0236 28.0229 32.3476C28.1669 32.4916 28.4189 32.5276 28.7429 32.5276C28.9949 32.5276 29.3549 32.4916 29.7149 32.4916L32.9189 32.2756C32.9549 32.6356 32.9549 33.0676 32.9549 33.4636C32.9549 33.7516 33.0269 34.4356 34.4669 34.4356C34.7909 34.4356 34.9349 34.3276 34.9349 33.8596V33.5716L34.7909 32.1676L38.3189 31.9516C38.2469 32.3836 38.1749 32.9236 38.0669 33.3556C38.0309 33.5356 37.9949 33.7156 37.9949 33.8596C37.9949 34.1476 38.1029 34.2916 38.2469 34.2916C38.7869 34.2916 39.5069 32.3836 39.7229 31.8436L44.4029 31.5556ZM43.7189 39.9436C44.1149 39.9076 44.4749 39.9436 44.4749 39.6556C44.4749 39.4756 44.2589 39.1156 43.6829 38.5036L44.2229 36.0556C44.2949 35.7676 44.4389 35.5876 44.4389 35.3716C44.4389 34.7596 43.5749 34.2916 43.0349 34.2916H42.7469L38.8229 34.5796C37.7789 34.2196 37.1669 34.0756 36.8429 34.0756C36.5909 34.0756 36.5189 34.1476 36.5189 34.2916C36.5189 34.3996 36.5909 34.5796 36.6989 34.7596C36.9149 35.1556 37.0589 35.7676 37.1309 36.3076L37.3109 38.2156C37.3469 38.6116 37.3829 38.9716 37.3829 39.2956V39.6916C37.3829 40.5556 38.6789 40.7356 38.7509 40.7356C39.0389 40.7356 39.2189 40.5916 39.2189 40.2676V40.1596L43.7189 39.9436ZM53.9069 44.8036L47.8229 45.0556L47.7149 41.4196L53.9789 41.0596L53.9069 44.8036ZM54.1589 34.3636L47.5349 34.7236L47.4629 31.4476L54.2309 31.0156L54.1589 34.3636ZM54.0149 39.4036L47.6789 39.7636L47.6069 36.4516L54.1229 36.0916L54.0149 39.4036ZM36.6629 54.7036L32.3069 54.9196L32.3429 52.4716L36.6989 52.2196L36.6629 54.7036ZM36.7709 46.9996L32.3789 47.2156V44.9836L36.8069 44.7316L36.7709 46.9996ZM36.7349 50.7076L32.3429 50.9596V48.7276L36.7349 48.5116V50.7076ZM42.0629 38.5396L39.1109 38.7196L38.8949 36.0916L42.4229 35.8396L42.0629 38.5396ZM34.0709 39.0076L31.1549 39.1876L30.9749 36.5596L34.2509 36.3076L34.0709 39.0076Z" fill="black"/>
<path d="M92.5709 55.9996C93.1829 55.9636 93.6149 55.8196 93.6149 55.4596C93.6149 54.8116 92.2829 53.4796 91.2749 53.4796C91.1309 53.4796 90.9869 53.5156 90.8789 53.5516C90.1589 53.8036 89.4749 53.9476 88.2869 53.9836L71.6549 54.5236L71.5469 40.7716L77.4149 40.4836V47.5396C77.4149 48.0796 77.4149 48.5836 77.2349 49.3036C77.2349 49.3396 77.1989 49.4116 77.1989 49.4836C77.1989 50.3836 78.6389 51.0316 79.1789 51.0316C79.5749 51.0316 79.7549 50.7796 79.7549 50.1676V49.1236L87.0989 48.7996C87.8189 48.7636 88.3589 48.6916 88.3589 48.3316C88.3589 48.0076 87.9989 47.5036 87.1709 46.6036L87.4229 39.9796L94.6589 39.6196C95.1629 39.5836 95.5589 39.4036 95.5589 39.0076C95.5589 38.3596 94.0469 37.1356 93.3269 37.1356C93.2189 37.1356 93.1109 37.1716 93.0029 37.2076C92.4989 37.3876 91.5629 37.6036 91.0229 37.6396L87.5309 37.8196L87.8549 29.8276V29.7556C87.8549 28.5316 85.5869 28.1716 85.0829 28.1716C84.7949 28.1716 84.6509 28.2436 84.6509 28.4236C84.6509 28.4956 84.6869 28.6036 84.7949 28.7476C85.1549 29.2156 85.3709 29.8996 85.3709 30.6556V30.8356L85.1909 37.9636L79.6829 38.2516L79.6109 30.2236C79.6109 28.8916 77.5949 28.7836 77.1269 28.7836C76.7669 28.7836 76.6229 28.8916 76.6229 29.0356C76.6229 29.1076 76.6589 29.2156 76.7309 29.2876C77.1989 29.8276 77.3789 30.6916 77.3789 31.3036V38.3596L71.5109 38.6836L71.4749 32.1316C71.4749 31.2316 69.3869 30.9796 68.9189 30.9796C68.5949 30.9796 68.4509 31.0876 68.4509 31.2316C68.4509 31.3756 68.5589 31.5556 68.7389 31.7356C69.0629 32.0956 69.1349 32.6716 69.1349 33.4276L69.1709 38.7916L65.3549 39.0076H64.9229C64.3829 39.0076 63.6269 38.9716 63.0509 38.8276C62.9789 38.7916 62.9069 38.7916 62.8349 38.7916C62.6549 38.7916 62.5829 38.8636 62.5829 39.0436C62.5829 39.6196 63.4469 40.5916 63.8069 40.8436C64.0949 41.0236 64.5989 41.0956 65.1749 41.0956C65.4629 41.0956 65.7869 41.0596 66.0749 41.0596L69.2069 40.9156L69.3149 52.8316C69.3149 53.6236 69.1709 54.3436 69.0629 54.7396C68.9909 55.0276 68.9549 55.2436 68.9549 55.4596C68.9549 56.1436 69.8909 57.0076 70.5749 57.0076C71.0789 57.0076 71.5109 56.6476 72.5909 56.6116L92.5709 55.9996ZM84.9749 46.7476L79.7189 46.9636L79.6829 40.3756L85.1549 40.0876L84.9749 46.7476Z" fill="black"/>
<path d="M123.315 57.1156C123.855 57.1156 124.251 57.0796 124.251 56.7196C124.251 56.4316 123.999 55.9636 123.351 55.0996L124.179 46.3876C124.215 46.1716 124.431 45.8836 124.431 45.5596C124.431 44.7676 123.531 44.2276 122.595 44.2276H122.343L108.411 44.8756C107.079 44.3356 106.287 44.1196 105.891 44.1196C105.603 44.1196 105.495 44.2276 105.495 44.4076C105.495 44.5156 105.567 44.6956 105.675 44.9116C105.963 45.4516 106.035 46.1356 106.107 46.7476L106.899 55.6756C106.935 55.9276 106.935 56.1436 106.935 56.3596C106.935 56.8276 106.863 57.2596 106.827 57.6916V57.8356C106.827 58.5556 108.123 59.3116 108.807 59.3116C109.131 59.3116 109.347 59.0956 109.347 58.5196V58.3756L109.275 57.3676L123.315 57.1156ZM130.875 40.8796C131.379 40.8436 131.775 40.6996 131.775 40.3756C131.775 39.7276 130.263 38.5396 129.759 38.5396C129.651 38.5396 129.579 38.5396 129.507 38.5756C129.075 38.7196 128.391 38.8636 127.887 38.8996L118.455 39.3676C119.535 38.3236 120.543 37.2076 121.623 35.8396C121.767 35.6596 121.839 35.4796 121.839 35.2996C121.839 34.5796 120.651 33.5356 120.183 33.2476L126.303 32.9236C126.807 32.8876 127.203 32.7796 127.203 32.4916C127.203 31.9156 125.727 30.7276 125.187 30.7276C125.115 30.7276 125.007 30.7276 124.935 30.7636C124.503 30.9076 123.819 31.0516 123.315 31.0876L115.899 31.4836L115.935 28.0636C115.935 27.5956 115.791 27.3436 114.639 26.9836C114.027 26.7676 113.559 26.6956 113.235 26.6956C112.911 26.6956 112.731 26.8036 112.731 26.9836C112.731 27.0556 112.767 27.1636 112.839 27.2716C113.199 27.8476 113.451 28.3156 113.487 29.0356L113.559 31.6276L104.991 32.0956H104.523C103.983 32.0956 103.443 32.0596 102.939 31.9156C102.831 31.8796 102.759 31.8796 102.687 31.8796C102.543 31.8796 102.471 31.9516 102.471 32.1316C102.471 32.9236 103.191 33.8956 104.343 34.0396H104.703C104.991 34.0396 105.315 34.0396 105.711 34.0036L108.375 33.8596C108.267 33.9316 107.547 34.3636 107.547 34.7596C107.547 34.9396 107.655 35.1196 107.907 35.4076C108.771 36.4516 109.671 37.7836 110.319 38.9716C110.535 39.3676 110.715 39.6196 110.895 39.7276L100.887 40.2316H100.419C99.8429 40.2316 99.3029 40.1956 98.8349 40.0516C98.7269 40.0156 98.6549 40.0156 98.5829 40.0156C98.4389 40.0156 98.3669 40.0876 98.3669 40.2676C98.3669 40.4116 98.5109 41.3116 99.5189 42.1396C99.6989 42.2836 99.9869 42.3196 100.347 42.3196C100.707 42.3196 101.103 42.2836 101.607 42.2836L130.875 40.8796ZM121.083 55.0996L109.095 55.3516L108.843 51.9316L121.335 51.4636L121.083 55.0996ZM121.479 49.5556L108.699 50.0236L108.447 46.8556L121.695 46.2796L121.479 49.5556ZM119.391 33.2836C119.391 33.3556 119.355 33.4276 119.355 33.5356C119.355 33.6796 119.319 33.8236 119.319 33.9316C119.031 35.4076 117.663 37.6036 116.187 39.4756L111.615 39.6916L111.795 39.6196L111.975 39.4756C112.443 39.1156 112.623 38.8636 112.623 38.5396C112.623 37.5676 109.239 33.9316 109.023 33.8236L119.391 33.2836Z" fill="black"/>
</svg>
