<svg width="420" height="83" viewBox="0 0 420 83" fill="none" xmlns="http://www.w3.org/2000/svg">
<rect x="1" y="1" width="418" height="81" fill="white" stroke="black" stroke-width="2"/>
<path d="M60.5435 40.8402C60.9035 40.8042 61.1195 40.6602 61.1195 40.3722C61.1195 39.5802 59.6795 38.6802 59.2835 38.6802C59.1755 38.6802 59.1035 38.6802 58.9955 38.7162C58.4195 38.8962 57.9155 39.0042 57.3035 39.0402L51.1475 39.3282V36.4842C51.1475 35.3322 49.1675 35.2962 48.9515 35.2962C48.6275 35.2962 48.4835 35.3682 48.4835 35.5482C48.4835 35.6562 48.5555 35.8362 48.6635 36.0162C48.8795 36.4122 49.0235 37.0962 49.0235 37.7442V39.4362L41.8235 39.7962H41.3915C40.9955 39.7962 40.5635 39.7602 40.0235 39.5802C39.9155 39.5442 39.8435 39.5442 39.7715 39.5442C39.5915 39.5442 39.5195 39.6162 39.5195 39.7602C39.5195 39.8682 40.0595 41.8122 41.4635 41.8122C41.7515 41.8122 42.1115 41.7762 42.6155 41.7402L47.4035 41.4882C44.5235 45.7002 41.8235 48.2202 38.7635 50.5962C38.1515 51.0642 37.8995 51.4242 37.8995 51.6402C37.8995 51.7842 38.0075 51.8562 38.1875 51.8562C39.5555 51.8562 46.7915 47.1402 49.1315 42.2442C49.1315 42.2442 49.0235 44.2602 49.0235 45.4842C49.0235 47.8602 48.9875 50.9202 48.9875 50.9202C48.9875 51.8202 48.9875 53.1882 48.8075 54.0522C48.7715 54.1962 48.7715 54.3042 48.7715 54.4122C48.7715 55.2762 50.0315 55.7082 50.5355 55.7082C50.9675 55.7082 51.1835 55.3842 51.1835 54.7362L51.1475 42.5322C55.9355 48.0042 60.6155 51.3882 61.3715 51.3882C61.9475 51.3882 63.1355 50.2722 63.1355 49.8762C63.1355 49.6602 62.9195 49.4802 62.5595 49.2642C59.0675 47.2842 55.6115 44.6562 52.4075 41.2362L60.5435 40.8402ZM56.0795 34.5762C56.6915 34.5402 57.1235 34.4322 57.1235 34.0722C57.1235 33.8202 56.8715 33.3882 56.2595 32.7762L57.2315 27.0522C57.2675 26.9082 57.4475 26.6922 57.4475 26.4042C57.4475 25.9002 56.9075 25.1082 55.9715 25.1082C55.8275 25.1082 55.6115 25.1082 55.3595 25.1442L44.5955 25.8282C43.2995 25.3602 42.5795 25.1442 42.2195 25.1442C42.0035 25.1442 41.9315 25.2162 41.9315 25.3242C41.9315 25.4682 42.0755 25.7202 42.2915 26.0442C42.4715 26.3322 42.6515 27.2682 42.7235 27.9162L43.2635 33.1362C43.2995 33.5322 43.3355 33.8562 43.3355 34.2162C43.3355 34.5402 43.2995 34.8642 43.2635 35.2242V35.3682C43.2635 35.9082 43.6235 36.3762 44.1995 36.5922C44.4155 36.7002 44.6675 36.7362 44.8835 36.7362C45.3155 36.7362 45.6755 36.5562 45.6755 36.0522V35.9802L45.6035 35.1522L56.0795 34.5762ZM34.7675 51.2802C34.7675 52.0002 34.6955 52.6122 34.5875 53.2242C34.5515 53.3682 34.5515 53.5122 34.5515 53.6202C34.5515 54.9162 36.2795 55.0962 36.2795 55.0962C36.6395 55.0962 36.9275 54.8802 36.9275 54.4122L36.8915 32.5962C38.2235 30.3282 39.3755 27.9162 40.2755 25.4322C40.3475 25.2882 40.3835 25.1442 40.3835 25.0362C40.3835 24.4242 38.7275 23.5602 38.0795 23.5602C37.8275 23.5602 37.6475 23.6682 37.6475 23.9202C37.6475 23.9922 37.6835 24.0282 37.6835 24.1002C37.7195 24.3162 37.7555 24.4962 37.7555 24.6762C37.7555 26.0802 35.0195 32.8122 29.6555 40.1562C29.3315 40.5882 29.1875 40.9482 29.1875 41.1642C29.1875 41.3082 29.2595 41.4162 29.4035 41.4162C29.9435 41.4162 32.2835 39.2922 34.9115 35.5842L34.7675 51.2802ZM54.0995 32.8122L45.4235 33.3162L44.8475 27.7362L54.8555 27.1242L54.0995 32.8122Z" fill="black"/>
<path d="M93.9155 52.1082C94.4915 52.1082 95.1035 52.0722 95.1035 51.5682C95.1035 51.2442 94.8515 50.7762 94.2395 49.9842L95.1395 42.3162C95.1755 42.0642 95.3195 41.8122 95.3195 41.4882C95.3195 40.9842 94.8515 40.1922 93.6635 40.1922H93.3395L83.6195 40.6602C83.0795 40.4082 82.6115 40.2642 82.2515 40.1562L83.1155 38.7882C83.7995 37.6722 84.5555 36.1962 85.4195 34.2882L97.9475 33.5322C98.4515 33.4962 98.8115 33.3522 98.8115 32.9922C98.8115 32.5242 97.8395 31.2642 96.9755 31.2642C96.8315 31.2642 96.7235 31.3002 96.5795 31.3362C96.0755 31.5522 95.5715 31.6242 94.8515 31.6602L86.2475 32.1642C87.3275 29.5002 88.4075 25.6842 88.4075 25.2522C88.4075 24.3882 86.0315 23.6682 85.7435 23.6682C85.4915 23.6682 85.3475 23.7762 85.3475 24.0282C85.3475 24.1002 85.3835 24.1722 85.3835 24.2442C85.4555 24.6402 85.4915 25.0362 85.4915 25.3602C85.4915 25.7562 85.4555 26.1162 85.3835 26.4402C84.9875 28.4202 84.4475 30.3642 83.7275 32.3082L77.3555 32.6682H76.9955C76.4555 32.6682 75.8795 32.5962 75.3395 32.4882C75.2675 32.4522 75.1955 32.4522 75.1595 32.4522C75.0515 32.4522 74.9795 32.5242 74.9795 32.6322C74.9795 32.7042 74.9795 32.7762 75.0155 32.8482C75.4835 34.4682 76.1315 34.7562 77.0675 34.7562C77.3555 34.7562 77.6795 34.7562 78.0395 34.7202L82.8635 34.4322C80.3795 40.3002 77.1395 44.8362 74.9075 47.6802C74.5835 48.1122 74.4395 48.4362 74.4395 48.6522C74.4395 48.7962 74.5475 48.9042 74.6915 48.9042C75.3755 48.9042 78.9755 45.0882 81.1715 41.7762C81.2435 42.1722 81.2795 42.5682 81.3155 43.0362L81.6755 50.3442V50.9922C81.6755 51.6042 81.6395 52.2522 81.5675 52.9362V53.1522C81.5675 54.0162 82.8995 54.7002 83.5115 54.7002C83.9435 54.7002 84.1235 54.4122 84.1235 54.0522V53.9802L84.0155 52.2882L93.9155 52.1082ZM71.1635 50.9922C71.1635 51.7122 71.0915 52.3602 70.9475 53.0802C70.9115 53.2242 70.9115 53.3322 70.9115 53.4402C70.9115 54.6282 72.6035 54.9882 72.7475 54.9882C73.1075 54.9882 73.3955 54.7362 73.3955 54.2322V33.0642C75.8075 29.1402 77.4995 25.3962 77.4995 24.9642C77.4995 24.3162 75.8795 23.4162 75.1235 23.4162C74.8355 23.4162 74.6915 23.5242 74.6915 23.7762V23.9202C74.7275 24.1362 74.7635 24.3522 74.7635 24.5682C74.7635 25.9722 70.8035 34.5402 65.4755 41.1282C65.1515 41.5242 65.0075 41.8842 65.0075 42.0642C65.0075 42.2442 65.0795 42.3162 65.2235 42.3162C65.8355 42.3162 68.4995 39.9762 71.3075 36.1242L71.1635 50.9922ZM92.0075 50.1282L83.9075 50.2722L83.4755 42.6042L92.7275 42.2442L92.0075 50.1282Z" fill="black"/>
<path d="M147.541 52.5042C148.117 52.4682 148.513 52.3242 148.513 52.0002C148.513 51.3162 147.361 50.2362 146.785 50.2362C146.641 50.2362 146.461 50.2722 146.281 50.3082C145.885 50.4162 145.525 50.4882 144.949 50.5242L143.005 50.5962L143.149 28.5282C143.149 28.3122 143.365 28.0962 143.365 27.7722C143.365 27.0522 142.285 26.4762 141.709 26.4762C141.565 26.4762 141.421 26.5122 141.241 26.5122L132.385 27.0162C131.089 26.5122 130.333 26.3322 129.937 26.3322C129.685 26.3322 129.613 26.4042 129.613 26.5842C129.613 26.7282 129.685 26.9082 129.829 27.1602C130.081 27.6282 130.117 28.1322 130.117 28.9962L130.297 50.9922L127.057 51.1002C126.553 51.1002 125.905 51.0642 125.221 50.8842C125.113 50.8482 125.041 50.8482 125.005 50.8482C124.825 50.8482 124.789 50.9202 124.789 50.9922C124.789 51.0642 124.789 51.1002 124.825 51.1722C125.257 52.7562 125.725 53.1522 127.093 53.1522H127.417L147.541 52.5042ZM128.281 35.0442C128.641 35.0082 128.893 34.8282 128.893 34.5762C128.893 34.0002 127.597 32.9562 126.877 32.9562C126.805 32.9562 126.733 32.9562 126.661 32.9922C126.013 33.2082 125.509 33.2802 125.041 33.3162L123.025 33.4602V28.1682C124.429 27.5922 125.833 26.9442 127.273 26.1882C127.417 26.1162 127.489 26.0082 127.489 25.8282C127.489 25.4322 126.301 23.5602 125.725 23.5602C125.581 23.5602 125.437 23.6682 125.329 23.9202C124.465 25.6482 118.957 28.1682 115.789 29.3202C115.321 29.5002 115.105 29.7162 115.105 29.8962C115.105 30.0762 115.285 30.1842 115.609 30.1842C116.797 30.1842 120.037 29.2122 120.937 28.9242L120.901 33.6402L116.509 33.9642H116.185C115.825 33.9642 115.285 33.9282 114.745 33.8202C114.637 33.7842 114.565 33.7842 114.493 33.7842C114.313 33.7842 114.241 33.8562 114.241 33.9642C114.241 34.0362 114.241 34.1082 114.277 34.1802C114.853 35.8722 115.717 35.9802 116.185 35.9802C116.545 35.9802 116.977 35.9082 117.553 35.8722L120.433 35.6562C118.525 40.7322 116.617 44.1522 113.953 47.8242C113.701 48.2202 113.557 48.5082 113.557 48.7242C113.557 48.9042 113.665 49.0122 113.809 49.0122C114.529 49.0122 119.497 43.5402 121.045 39.1122C121.009 39.3642 120.865 40.5162 120.865 41.3082C120.865 44.8722 120.793 50.6682 120.793 50.6682C120.793 51.6402 120.757 52.5042 120.577 53.5482C120.577 53.6562 120.541 53.7282 120.541 53.8362C120.541 54.8442 121.909 55.2762 122.413 55.2762C122.881 55.2762 123.025 54.9162 123.025 54.3402V39.1842C123.925 40.1922 124.969 41.7042 125.689 42.8202C126.013 43.2882 126.265 43.5402 126.553 43.5402C127.021 43.5402 127.993 42.7122 127.993 42.2082C127.993 41.5242 124.429 37.3122 123.709 37.3122C123.493 37.3122 123.277 37.4202 123.025 37.6002V35.4402L128.281 35.0442ZM140.773 50.6682L132.529 50.9202L132.493 43.8282L140.809 43.4682L140.773 50.6682ZM140.845 34.1082L132.421 34.5402L132.385 28.9602L140.845 28.5282V34.1082ZM140.809 41.4522L132.457 41.8842L132.421 36.5202L140.809 36.0882V41.4522Z" fill="black"/>
<path d="M177.925 35.5482C178.393 35.5122 178.825 35.5122 178.825 35.2242C178.825 34.9722 178.537 34.5042 177.709 33.6762L178.285 30.9042C178.321 30.6522 178.645 30.4362 178.645 30.0762C178.645 29.8602 178.033 28.8162 176.953 28.8162H176.773L158.917 29.8962C157.441 29.2122 156.649 28.9242 156.289 28.9242C156.037 28.9242 155.965 29.0322 155.965 29.2122C155.965 29.3202 156.001 29.5002 156.073 29.6802C156.289 30.3282 156.469 31.1562 156.469 32.0562V32.7042C156.469 41.7042 154.561 48.6522 151.141 53.4402C150.781 53.9442 150.637 54.3042 150.637 54.5562C150.637 54.7362 150.709 54.8082 150.853 54.8082C151.753 54.8082 156.901 49.8402 158.197 39.9402C158.341 38.8602 158.449 37.6362 158.521 36.5922L177.925 35.5482ZM172.165 52.8642C170.869 52.5762 168.853 51.6402 167.773 51.0642C167.161 50.7402 166.693 50.5602 166.441 50.5602C166.261 50.5602 166.189 50.6322 166.189 50.7762C166.189 51.8202 171.337 55.4922 172.669 55.4922C174.037 55.4922 175.513 54.0522 176.917 46.3842C176.989 46.0962 177.133 45.8442 177.133 45.5562C177.133 45.2682 176.989 44.9442 176.413 44.5482C176.125 44.2962 175.801 44.2242 175.441 44.2242H175.153L167.233 44.6202C167.593 43.7202 167.917 42.7842 168.205 41.7402L180.913 41.0922C181.489 41.0562 181.813 40.8402 181.813 40.5162C181.813 40.1562 180.769 39.0042 179.905 39.0042C179.797 39.0042 179.725 39.0042 179.617 39.0402C178.897 39.2202 178.537 39.3282 177.709 39.3642L170.365 39.7242L170.473 37.8522V37.8162C170.473 36.9882 168.637 36.7002 168.061 36.7002C167.773 36.7002 167.629 36.7722 167.629 36.9522C167.629 37.0242 167.665 37.1322 167.737 37.2762C168.025 37.6722 168.205 38.1762 168.205 38.5722L168.169 39.8322L161.329 40.1922C161.113 40.2282 160.933 40.2282 160.717 40.2282C160.177 40.2282 159.637 40.1562 159.133 40.0122H159.061C158.917 40.0122 158.809 40.0842 158.809 40.2282C158.809 40.5162 159.205 41.3802 159.601 41.7762C159.997 42.0642 160.321 42.1362 160.861 42.1362C161.113 42.1362 161.401 42.1362 161.725 42.1002L165.757 41.8842C164.641 47.1042 161.077 50.6322 157.225 53.0082C156.649 53.3682 156.397 53.7282 156.397 53.9802C156.397 54.1242 156.505 54.2322 156.757 54.2322C157.153 54.2322 163.057 52.3242 166.333 46.4562L174.577 46.0962C174.253 48.2202 173.605 50.5602 172.705 52.5762C172.597 52.7562 172.417 52.8642 172.237 52.8642H172.165ZM179.581 26.1522C180.049 26.1162 180.481 26.0082 180.481 25.7202C180.481 25.3602 179.293 24.0642 178.609 24.0642C178.537 24.0642 178.465 24.0642 178.393 24.1002C178.033 24.2442 177.673 24.3162 177.097 24.3522L155.533 25.6482H155.101C154.633 25.6482 154.165 25.6122 153.769 25.5042C153.733 25.5042 153.697 25.4682 153.661 25.4682C153.517 25.4682 153.445 25.5402 153.445 25.6842C153.445 25.7202 153.445 25.7562 153.481 25.8282C153.805 26.9442 154.453 27.6282 155.497 27.6282C155.713 27.6282 155.965 27.5922 156.217 27.5922L179.581 26.1522ZM175.477 33.7842L158.665 34.6842C158.737 33.6402 158.773 32.8122 158.773 31.7682L176.017 30.7602L175.477 33.7842Z" fill="black"/>
<path d="M185.989 49.4802C185.773 50.0922 185.377 50.9562 184.981 51.6762C184.909 51.8202 184.873 52.0002 184.873 52.1442C184.873 52.8642 185.665 53.5122 186.277 53.5122C186.529 53.5122 186.781 53.3682 186.889 53.0442C187.177 52.1082 187.501 51.2442 187.825 50.3082L195.601 28.9602C195.925 28.0962 196.285 27.3402 196.609 26.6202C196.645 26.5842 196.645 26.5122 196.645 26.4762C196.645 25.9362 195.637 24.9642 195.025 24.9642C194.809 24.9642 194.629 25.1082 194.557 25.4322C194.305 26.4042 193.945 27.5562 193.693 28.2402L185.989 49.4802Z" fill="black"/>
<path d="M224.207 47.3922C224.747 47.3562 225.251 47.3202 225.251 46.9962C225.251 46.7082 224.963 46.2762 224.243 45.5562L224.747 35.4762C224.783 35.2242 224.963 34.9722 224.963 34.6842C224.963 34.2882 224.351 33.4962 223.523 33.4962H223.235L208.295 34.3242C207.071 33.8922 206.351 33.7122 205.955 33.7122C205.631 33.7122 205.523 33.8202 205.523 34.0002C205.523 34.1442 205.559 34.2882 205.631 34.4322C205.847 34.9722 205.883 35.5482 205.919 36.2682L206.351 45.5922C206.351 45.7722 206.387 45.9522 206.387 46.2042C206.387 46.6002 206.351 47.0682 206.279 47.5722C206.279 47.6802 206.243 47.7882 206.243 47.8962C206.243 48.6882 207.431 49.2642 207.935 49.2642C208.367 49.2642 208.619 48.9402 208.619 48.5082V48.4002L208.583 47.9322L224.207 47.3922ZM226.907 31.1922C227.447 31.1562 227.843 31.1202 227.843 30.7962C227.843 30.5802 227.627 30.1842 227.123 29.5362L228.059 25.7562C228.095 25.6122 228.347 25.3962 228.347 25.0722C228.347 24.7122 227.843 23.9202 226.835 23.9202H226.439L204.623 25.1442C203.363 24.7482 202.571 24.5682 202.139 24.5682C201.815 24.5682 201.671 24.6762 201.671 24.8562C201.671 25.0002 201.779 25.1802 201.923 25.3962C202.211 25.8642 202.427 26.5122 202.499 27.0882L202.895 30.4362C202.931 30.7242 202.967 31.0482 202.967 31.3722C202.967 31.6242 202.931 31.8402 202.931 32.0922V32.2002C202.931 33.2082 204.335 33.5682 204.659 33.5682C205.091 33.5682 205.343 33.3522 205.343 32.9202V32.7402L205.271 32.2362L226.907 31.1922ZM222.299 41.5242L208.367 42.1722L208.259 39.9762L222.371 39.2562L222.299 41.5242ZM222.443 37.6002L208.187 38.2842L208.115 36.1242L222.515 35.4042L222.443 37.6002ZM222.155 45.5562L208.511 46.0962L208.439 43.9002L222.227 43.2162L222.155 45.5562ZM212.831 51.1362C213.047 51.0282 213.155 50.8482 213.155 50.5962C213.155 49.6962 211.751 48.0402 211.355 48.0402C211.211 48.0402 211.139 48.1482 211.067 48.4002C210.527 50.4162 203.687 53.6202 201.815 54.4842C201.383 54.6642 201.203 54.9162 201.203 55.0962C201.203 55.3122 201.383 55.4562 201.743 55.4562C201.959 55.4562 206.243 54.8442 212.831 51.1362ZM227.051 55.1322C227.771 55.1322 228.167 53.8362 228.167 53.5842C228.167 53.2242 227.843 52.9722 227.267 52.6122C222.371 49.4802 219.167 48.1482 218.735 48.1482C218.375 48.1482 217.835 49.0122 217.835 49.5162C217.835 49.8762 218.159 50.0202 218.663 50.2722C221.075 51.4242 223.739 52.9722 226.187 54.7002C226.547 54.9522 226.799 55.1322 227.051 55.1322ZM224.963 29.6082L219.275 29.8962L219.563 26.0802L225.719 25.7202L224.963 29.6082ZM210.599 30.2922L205.091 30.5442L204.695 26.9082L210.239 26.5842L210.599 30.2922ZM217.295 29.9682L212.579 30.1842L212.219 26.4762L217.547 26.1882L217.295 29.9682Z" fill="black"/>
<path d="M262.511 35.5482C262.979 35.5122 263.411 35.5122 263.411 35.2242C263.411 34.9722 263.123 34.5042 262.295 33.6762L262.871 30.9042C262.907 30.6522 263.231 30.4362 263.231 30.0762C263.231 29.8602 262.619 28.8162 261.539 28.8162H261.359L243.503 29.8962C242.027 29.2122 241.235 28.9242 240.875 28.9242C240.623 28.9242 240.551 29.0322 240.551 29.2122C240.551 29.3202 240.587 29.5002 240.659 29.6802C240.875 30.3282 241.055 31.1562 241.055 32.0562V32.7042C241.055 41.7042 239.147 48.6522 235.727 53.4402C235.367 53.9442 235.223 54.3042 235.223 54.5562C235.223 54.7362 235.295 54.8082 235.439 54.8082C236.339 54.8082 241.487 49.8402 242.783 39.9402C242.927 38.8602 243.035 37.6362 243.107 36.5922L262.511 35.5482ZM256.751 52.8642C255.455 52.5762 253.439 51.6402 252.359 51.0642C251.747 50.7402 251.279 50.5602 251.027 50.5602C250.847 50.5602 250.775 50.6322 250.775 50.7762C250.775 51.8202 255.923 55.4922 257.255 55.4922C258.623 55.4922 260.099 54.0522 261.503 46.3842C261.575 46.0962 261.719 45.8442 261.719 45.5562C261.719 45.2682 261.575 44.9442 260.999 44.5482C260.711 44.2962 260.387 44.2242 260.027 44.2242H259.739L251.819 44.6202C252.179 43.7202 252.503 42.7842 252.791 41.7402L265.499 41.0922C266.075 41.0562 266.399 40.8402 266.399 40.5162C266.399 40.1562 265.355 39.0042 264.491 39.0042C264.383 39.0042 264.311 39.0042 264.203 39.0402C263.483 39.2202 263.123 39.3282 262.295 39.3642L254.951 39.7242L255.059 37.8522V37.8162C255.059 36.9882 253.223 36.7002 252.647 36.7002C252.359 36.7002 252.215 36.7722 252.215 36.9522C252.215 37.0242 252.251 37.1322 252.323 37.2762C252.611 37.6722 252.791 38.1762 252.791 38.5722L252.755 39.8322L245.915 40.1922C245.699 40.2282 245.519 40.2282 245.303 40.2282C244.763 40.2282 244.223 40.1562 243.719 40.0122H243.647C243.503 40.0122 243.395 40.0842 243.395 40.2282C243.395 40.5162 243.791 41.3802 244.187 41.7762C244.583 42.0642 244.907 42.1362 245.447 42.1362C245.699 42.1362 245.987 42.1362 246.311 42.1002L250.343 41.8842C249.227 47.1042 245.663 50.6322 241.811 53.0082C241.235 53.3682 240.983 53.7282 240.983 53.9802C240.983 54.1242 241.091 54.2322 241.343 54.2322C241.739 54.2322 247.643 52.3242 250.919 46.4562L259.163 46.0962C258.839 48.2202 258.191 50.5602 257.291 52.5762C257.183 52.7562 257.003 52.8642 256.823 52.8642H256.751ZM264.167 26.1522C264.635 26.1162 265.067 26.0082 265.067 25.7202C265.067 25.3602 263.879 24.0642 263.195 24.0642C263.123 24.0642 263.051 24.0642 262.979 24.1002C262.619 24.2442 262.259 24.3162 261.683 24.3522L240.119 25.6482H239.687C239.219 25.6482 238.751 25.6122 238.355 25.5042C238.319 25.5042 238.283 25.4682 238.247 25.4682C238.103 25.4682 238.031 25.5402 238.031 25.6842C238.031 25.7202 238.031 25.7562 238.067 25.8282C238.391 26.9442 239.039 27.6282 240.083 27.6282C240.299 27.6282 240.551 27.5922 240.803 27.5922L264.167 26.1522ZM260.063 33.7842L243.251 34.6842C243.323 33.6402 243.359 32.8122 243.359 31.7682L260.603 30.7602L260.063 33.7842Z" fill="black"/>
<path d="M270.575 49.4802C270.359 50.0922 269.963 50.9562 269.567 51.6762C269.495 51.8202 269.459 52.0002 269.459 52.1442C269.459 52.8642 270.251 53.5122 270.863 53.5122C271.115 53.5122 271.367 53.3682 271.475 53.0442C271.763 52.1082 272.087 51.2442 272.411 50.3082L280.187 28.9602C280.511 28.0962 280.871 27.3402 281.195 26.6202C281.231 26.5842 281.231 26.5122 281.231 26.4762C281.231 25.9362 280.223 24.9642 279.611 24.9642C279.395 24.9642 279.215 25.1082 279.143 25.4322C278.891 26.4042 278.531 27.5562 278.279 28.2402L270.575 49.4802Z" fill="black"/>
<path d="M297.741 46.0602C298.209 46.0242 298.569 45.9522 298.569 45.6642C298.569 45.4482 298.353 45.0522 297.705 44.4402L298.245 41.5962C298.281 41.4162 298.461 41.2002 298.461 40.9482C298.461 40.7322 298.317 40.5162 297.777 40.2282C297.489 39.9402 297.237 39.9042 296.913 39.9042H296.589L291.081 40.1922C290.361 39.9762 289.821 39.8322 289.425 39.7602C291.153 38.9322 292.737 38.0322 294.321 36.9882C294.969 38.1402 295.761 38.1762 296.229 38.1762H296.733L303.861 37.7442C304.329 37.7082 304.617 37.6002 304.617 37.3482C304.617 37.1322 304.437 36.8442 304.077 36.4842C303.609 36.0162 303.249 35.8002 302.853 35.8002C302.673 35.8002 302.493 35.8362 302.313 35.9082C301.809 36.0882 301.233 36.1602 300.549 36.1962L296.877 36.4482C296.625 36.4482 296.409 36.4842 296.157 36.4842C295.833 36.4842 295.473 36.4482 295.149 36.4122C296.661 35.3682 298.065 34.1802 299.469 32.8122C307.641 38.6442 314.877 41.3082 315.273 41.3082C316.101 41.3082 316.965 40.0482 316.965 39.7962C316.965 39.6162 316.821 39.4722 316.533 39.4002C310.017 37.2042 305.553 34.9362 300.729 31.5522L301.233 30.9762C301.305 30.9042 301.305 30.8682 301.305 30.7962C301.305 30.6162 301.125 30.4002 300.909 30.1842C301.953 29.3922 302.781 28.6362 303.537 27.8442L306.165 27.7002C305.949 27.9882 305.841 28.2042 305.841 28.3842C305.841 28.6362 306.021 28.8162 306.345 29.0682C307.101 29.6802 308.253 30.9042 309.081 31.9482C309.297 32.2002 309.477 32.3442 309.657 32.3442C309.945 32.3442 310.881 31.5882 310.881 31.0482C310.881 30.3282 307.677 27.7002 307.533 27.5922L314.301 27.1962C314.733 27.1602 315.057 27.0162 315.057 26.6922C315.057 26.3322 314.157 25.1442 313.401 25.1442C313.257 25.1442 313.149 25.1802 313.041 25.2162C312.645 25.3602 312.177 25.4322 311.709 25.4682L305.049 25.9362C305.769 24.9642 306.237 24.0642 306.237 23.9562C306.237 23.3442 304.545 22.4082 304.077 22.4082C303.825 22.4082 303.717 22.5882 303.717 22.9482C303.537 25.8282 300.549 29.1762 300.153 29.6082C299.829 29.3922 299.541 29.3202 299.289 29.3202C299.073 29.3202 298.929 29.3922 298.893 29.6082C298.821 30.0762 298.533 30.7242 298.425 30.8322C294.429 35.0802 290.109 38.1402 283.989 40.9842C283.341 41.2722 283.053 41.5962 283.053 41.8122C283.053 41.9562 283.233 42.0642 283.521 42.0642C283.737 42.0642 283.989 42.0282 284.349 41.8842C285.789 41.3442 287.193 40.7682 288.561 40.1562C288.561 40.2282 288.633 40.3362 288.669 40.4082C288.921 40.8762 289.101 41.3442 289.137 41.9202L289.569 44.6922C289.605 44.9802 289.605 45.1602 289.605 45.3762C289.605 45.5562 289.605 45.7362 289.569 45.9882V46.0602C289.569 46.6722 290.757 47.1402 291.297 47.1402C291.657 47.1402 291.765 46.9602 291.765 46.7082V46.6002L291.729 46.2402L297.741 46.0602ZM309.477 45.7362C309.837 45.7002 310.125 45.6642 310.125 45.4482C310.125 45.1962 309.909 44.8002 309.261 44.0802L309.909 41.2002C309.981 40.9842 310.197 40.8042 310.197 40.5522C310.197 39.9762 309.189 39.4722 308.613 39.4722L302.493 39.7962C301.377 39.4722 300.693 39.3282 300.333 39.3282C300.045 39.3282 299.937 39.4002 299.937 39.5442C299.937 39.6522 300.045 39.8322 300.153 40.0122C300.405 40.5882 300.549 40.9482 300.693 41.5242L300.945 44.1882C300.945 44.4042 300.981 44.6202 300.981 44.8002C300.981 45.0522 300.945 45.3042 300.909 45.5922V45.7362C300.909 46.0962 301.161 46.3122 301.845 46.7082C302.169 46.8162 302.421 46.8522 302.601 46.8522C303.033 46.8522 303.141 46.6722 303.141 46.3122V46.1682L303.105 45.9522L309.477 45.7362ZM300.549 27.8082C301.017 27.7722 301.341 27.6282 301.341 27.3042C301.341 26.9082 300.369 25.7922 299.613 25.7922C299.505 25.7922 299.361 25.8282 299.253 25.8642C298.821 26.0082 298.389 26.1162 297.885 26.1522L292.665 26.5122C293.925 24.6042 293.925 24.4242 293.925 24.3522C293.925 23.8482 292.701 22.8042 291.909 22.8042C291.657 22.8042 291.513 22.9482 291.513 23.2722V23.5242C291.513 25.1802 288.201 29.7882 284.889 33.0642C284.529 33.4242 284.349 33.7122 284.349 33.8922C284.349 34.0362 284.457 34.1082 284.601 34.1082C285.141 34.1082 288.057 32.3802 291.261 28.3842L292.845 28.3122C292.665 28.5282 292.593 28.6722 292.593 28.8162C292.593 29.0322 292.737 29.1762 293.025 29.3922C293.853 30.0402 294.717 30.9402 295.437 31.7322C295.725 32.0202 295.905 32.2002 296.157 32.2002C296.517 32.2002 297.345 31.4802 297.345 30.9762C297.345 30.2202 294.681 28.4202 294.393 28.2042L300.549 27.8082ZM306.561 48.0402C306.633 47.9322 306.669 47.8242 306.669 47.7162C306.669 46.7802 304.617 46.0242 304.293 46.0242C304.113 46.0242 304.005 46.1682 304.005 46.4202V46.6722C304.005 47.2122 303.861 47.6802 303.753 47.8602C302.817 50.0922 301.089 52.3242 298.893 54.4122C298.533 54.7722 298.353 55.0242 298.353 55.2042C298.353 55.3122 298.461 55.3842 298.641 55.3842C299.829 55.3842 302.817 52.9722 304.725 50.5962C306.813 52.1082 308.361 53.2962 310.017 54.8082C310.377 55.1322 310.701 55.3482 310.989 55.3482C311.673 55.3482 312.069 54.0162 312.069 53.8362C312.069 53.5482 311.889 53.2602 311.529 52.9722C309.621 51.4962 307.929 50.3442 305.841 49.0482L306.561 48.0402ZM292.629 46.6722C292.665 46.8882 292.701 47.0682 292.701 47.2122C292.701 48.4362 290.145 51.3882 286.545 53.9082C286.041 54.2682 285.789 54.5922 285.789 54.7722C285.789 54.9162 285.897 54.9882 286.113 54.9882C286.329 54.9882 286.617 54.9162 286.977 54.7722C289.281 53.8362 291.153 52.5762 292.953 50.7402C294.393 51.7122 295.473 52.5042 296.697 53.6562C297.057 53.9802 297.309 54.1962 297.561 54.1962C298.065 54.1962 298.713 53.1882 298.713 52.6482C298.713 52.1082 297.381 51.2802 294.177 49.3722C294.501 49.0122 294.825 48.6162 295.149 48.1842C295.257 48.0762 295.329 47.9322 295.329 47.7882C295.329 47.0682 293.529 46.2402 292.953 46.2402C292.737 46.2402 292.629 46.3482 292.629 46.5282V46.6722ZM307.317 44.1522L302.925 44.3322L302.601 41.5242L307.749 41.2722L307.317 44.1522ZM295.689 44.4402L291.477 44.5842L291.117 41.8482L296.013 41.6322L295.689 44.4402Z" fill="black"/>
<path d="M344.361 53.0082C344.793 53.0082 345.189 52.9002 345.189 52.5042C345.189 52.1802 344.901 51.6402 344.109 50.8482L345.117 44.7282C345.153 44.4042 345.513 44.0442 345.513 43.6482C345.513 42.8202 344.001 42.1362 343.389 42.1362H343.173L329.061 42.8202C327.585 42.3162 326.757 42.1002 326.397 42.1002C326.145 42.1002 326.073 42.1722 326.073 42.3162C326.073 42.4602 326.145 42.6402 326.253 42.8562C326.541 43.4322 326.685 44.0442 326.757 44.9802L327.297 51.2442C327.333 51.5322 327.333 51.8562 327.333 52.1442C327.333 52.7202 327.297 53.2962 327.189 53.8722C327.189 53.9442 327.153 54.0522 327.153 54.1242C327.153 55.0602 328.557 55.7082 329.205 55.7082C329.637 55.7082 329.889 55.4202 329.889 54.9882V54.9162L329.745 53.2962L344.361 53.0082ZM334.785 23.2362C334.785 24.7482 331.113 32.3082 319.809 40.1202C319.305 40.4802 319.089 40.7682 319.089 40.9482C319.089 41.0922 319.161 41.1642 319.377 41.1642C319.809 41.1642 328.593 38.0322 335.577 27.5922C342.381 35.8002 351.129 39.8682 351.309 39.8682C351.741 39.8682 353.397 38.6442 353.397 38.1402C353.397 37.9242 353.181 37.7802 352.713 37.6002C346.593 35.0802 341.157 31.0842 336.765 25.7562C336.801 25.6842 337.629 24.3882 337.629 24.0642C337.629 23.2722 335.577 22.4082 335.181 22.4082C334.929 22.4082 334.749 22.5522 334.749 22.8402C334.749 22.9122 334.785 22.9842 334.785 23.0562V23.2362ZM341.841 50.8842L329.601 51.2082L329.097 44.9082L342.777 44.2962L341.841 50.8842ZM342.669 37.7802C343.065 37.7442 343.425 37.6002 343.425 37.2762C343.425 36.8082 342.129 35.4402 341.229 35.4402C341.085 35.4402 340.941 35.4762 340.797 35.5482C340.293 35.7642 339.681 35.9082 338.997 35.9442L330.321 36.4482H330.069C329.565 36.4482 329.025 36.3762 328.521 36.2682C328.449 36.2322 328.377 36.2322 328.305 36.2322C328.125 36.2322 328.053 36.3042 328.053 36.4842C328.053 36.5562 328.521 38.4642 330.141 38.4642C330.429 38.4642 330.825 38.4282 331.257 38.3922L342.669 37.7802Z" fill="black"/>
<path d="M382.053 52.2522C380.289 51.8202 378.597 51.1002 376.653 50.1642C376.257 49.9842 375.933 49.8762 375.717 49.8762C375.465 49.8762 375.321 49.9842 375.321 50.2002C375.321 51.2082 381.441 55.2402 382.845 55.2402C383.493 55.2402 384.357 54.4482 384.357 53.4762C384.357 53.0442 384.249 52.6122 384.249 52.1802L384.141 27.3042C384.141 27.1242 384.321 26.8722 384.321 26.5842C384.321 25.9002 383.565 25.2522 382.809 25.2522H382.377L361.893 26.3682C360.525 25.7562 359.733 25.5042 359.337 25.5042C359.049 25.5042 358.941 25.6122 358.941 25.7922C358.941 25.9722 359.049 26.2242 359.193 26.4762C359.517 27.0162 359.553 27.8082 359.553 28.5282L359.445 51.0282C359.445 51.7122 359.373 52.4322 359.229 53.1162C359.193 53.2962 359.193 53.4762 359.193 53.6202C359.193 54.8802 360.525 55.2402 360.957 55.2402C361.389 55.2402 361.713 54.9522 361.713 54.2682L361.785 28.4202L381.909 27.3762L382.053 52.2522ZM377.085 46.0962C377.697 46.0602 378.165 46.0242 378.165 45.6642C378.165 45.3762 377.877 44.8722 377.193 44.0802L377.805 39.2562C377.841 39.0402 378.057 38.8242 378.057 38.5002C378.057 37.9962 377.265 37.2402 376.365 37.2402H376.005L368.229 37.7082C366.897 37.2402 366.141 37.0602 365.745 37.0602C365.493 37.0602 365.385 37.1322 365.385 37.2762C365.385 37.4202 365.457 37.6002 365.601 37.8522C365.925 38.4282 366.033 39.2562 366.069 39.7962L366.465 44.2242C366.465 44.4762 366.501 44.7282 366.501 44.9802C366.501 45.3762 366.465 45.8082 366.429 46.2402V46.4202C366.429 47.6802 368.121 47.8602 368.157 47.8602C368.553 47.8602 368.841 47.6082 368.841 46.9962V46.8882L368.805 46.4202L377.085 46.0962ZM375.069 44.2242L368.661 44.4762L368.301 39.6522L375.501 39.2562L375.069 44.2242ZM378.669 33.4602C379.101 33.4242 379.389 33.2802 379.389 32.9562C379.389 32.4522 378.057 31.2642 377.445 31.2642C377.337 31.2642 377.265 31.3002 377.157 31.3362C376.617 31.5162 376.077 31.6242 375.537 31.6602L366.681 32.0922H366.213C365.709 32.0922 365.205 32.0562 364.737 31.9482C364.629 31.9122 364.557 31.9122 364.485 31.9122C364.305 31.9122 364.269 31.9842 364.269 32.1282C364.269 32.5602 364.629 33.2802 365.457 33.9282C365.637 34.0722 365.925 34.1082 366.357 34.1082C366.645 34.1082 367.005 34.0722 367.437 34.0722L378.669 33.4602Z" fill="black"/>
</svg>
