<svg width="407" height="87" viewBox="0 0 407 87" fill="none" xmlns="http://www.w3.org/2000/svg">
<rect x="1" y="1" width="405" height="85" fill="white" stroke="black" stroke-width="2"/>
<path d="M56.056 49.736C56.488 49.7 56.776 49.556 56.776 49.268C56.776 48.62 55.588 47.54 55.012 47.54C54.904 47.54 54.76 47.576 54.652 47.648C54.184 47.828 53.716 47.9 53.176 47.936L46.192 48.224V46.712C46.192 46.28 46.012 46.064 45.148 45.776L49.396 45.344C50.008 45.848 50.62 46.388 51.124 46.892C51.376 47.144 51.592 47.288 51.808 47.288C52.06 47.288 52.924 46.604 52.924 45.992C52.924 45.128 48.1 41.96 47.56 41.96C47.308 41.96 46.624 42.5 46.624 42.968C46.624 43.148 46.696 43.292 47.524 43.904C45.328 44.12 42.916 44.264 40.72 44.444L40.756 42.212L49.828 41.78C50.26 41.744 50.728 41.708 50.728 41.348C50.728 41.132 50.476 40.736 49.828 40.088L50.692 34.436C50.728 34.256 50.98 34.04 50.98 33.716C50.98 33.068 49.756 32.492 49.396 32.492C49.216 32.492 49.036 32.528 48.856 32.564L40.828 32.996L40.864 31.196L51.628 30.584C52.096 30.548 52.42 30.44 52.42 30.152C52.42 29.576 51.268 28.676 50.728 28.676C50.584 28.676 50.44 28.712 50.296 28.748C49.756 28.856 49.18 28.964 48.46 29L40.864 29.432L40.9 27.2C40.9 26.444 39.388 26.048 38.776 26.048C38.524 26.048 38.38 26.12 38.38 26.3C38.38 26.336 38.416 26.408 38.452 26.48C38.74 27.092 38.776 27.74 38.776 28.388V29.576L29.092 30.08C28.84 30.08 28.588 30.116 28.372 30.116C27.904 30.116 27.472 30.044 26.968 29.936C26.896 29.9 26.86 29.9 26.824 29.9C26.716 29.9 26.644 29.972 26.644 30.08C26.644 30.116 26.644 30.152 26.68 30.224C27.112 31.772 28.156 31.844 28.84 31.844C29.056 31.844 29.308 31.808 29.596 31.808L38.74 31.304V33.104L31.432 33.5C30.172 33.068 29.488 32.852 29.128 32.852C28.912 32.852 28.84 32.924 28.84 33.068C28.84 33.176 28.876 33.356 28.984 33.536C29.308 34.148 29.488 34.868 29.56 35.516L30.136 40.592C30.172 41.096 30.208 41.528 30.208 41.924V42.536C30.208 43.292 31.54 43.76 31.936 43.76C32.296 43.76 32.476 43.508 32.476 43.22V43.148L32.404 42.608L38.668 42.32L38.632 44.552C35.5 44.732 32.008 44.876 28.804 44.948C28.264 44.948 27.616 44.876 27.112 44.732H27.004C26.896 44.732 26.86 44.804 26.86 44.912V45.02C27.076 45.74 27.616 46.928 28.624 46.928C28.84 46.928 29.056 46.892 29.344 46.892C33.7 46.64 38.812 46.352 43.492 45.92C43.816 46.388 43.96 46.856 43.96 47.576V48.296L26.212 48.908H25.888C25.312 48.908 24.808 48.836 24.304 48.692H24.196C24.088 48.692 24.016 48.764 24.016 48.872C24.016 48.944 24.016 49.016 24.052 49.088C24.484 50.204 25.168 50.888 25.924 50.888C26.14 50.888 26.428 50.852 26.788 50.852L43.996 50.24L44.032 56.936C42.376 56.72 41.044 56.396 39.604 55.892C39.208 55.784 38.92 55.712 38.74 55.712C38.488 55.712 38.38 55.784 38.38 55.928C38.38 56.684 43.456 59.456 44.788 59.456C45.58 59.456 46.3 58.88 46.3 57.836C46.3 57.512 46.264 57.188 46.264 56.756L46.228 50.132L56.056 49.736ZM47.812 40.196L40.756 40.556L40.792 38.324L48.064 37.964L47.812 40.196ZM48.244 36.308L40.792 36.668L40.828 34.724L48.46 34.292L48.244 36.308ZM38.668 40.664L32.224 40.952L31.972 38.72L38.704 38.396L38.668 40.664ZM36.868 55.964C37.48 55.964 38.056 54.848 38.056 54.38C38.056 54.056 37.804 53.804 37.372 53.552C36.076 52.76 34.564 51.86 33.124 51.104C32.872 50.96 32.656 50.888 32.476 50.888C32.044 50.888 31.54 51.644 31.54 52.04C31.54 52.292 31.72 52.472 32.152 52.724C33.484 53.48 34.816 54.416 36.328 55.712C36.472 55.856 36.652 55.964 36.868 55.964ZM38.704 36.74L31.792 37.064L31.576 35.192L38.704 34.832V36.74ZM87.592 57.008C88.168 56.972 88.6 56.9 88.6 56.504C88.6 56.18 88.348 55.676 87.7 54.848L88.708 47.936C88.744 47.648 88.996 47.432 88.996 47.072C88.996 46.568 88.204 45.668 87.16 45.668H86.908L74.632 46.244C73.3 45.776 72.544 45.596 72.148 45.596C71.86 45.596 71.788 45.704 71.788 45.848C71.788 45.992 71.86 46.208 71.968 46.424C72.256 47.036 72.364 47.72 72.4 48.44L72.904 55.784C72.94 56.108 72.94 56.396 72.94 56.648C72.94 57.116 72.904 57.476 72.832 57.836C72.832 57.944 72.796 58.016 72.796 58.088C72.796 59.168 74.848 59.564 74.92 59.564C75.352 59.564 75.496 59.24 75.496 58.808V58.628L75.388 57.332L87.592 57.008ZM71.86 40.808C71.284 40.844 70.852 40.916 70.42 40.916C70.168 40.916 69.916 40.88 69.664 40.844H69.484C69.268 40.844 69.16 40.916 69.16 41.096C69.16 41.204 69.88 43.148 70.996 43.148C71.068 43.148 76.072 42.752 87.556 40.736C88.168 41.636 88.744 42.536 89.32 43.472C89.608 43.94 89.86 44.156 90.148 44.156C90.724 44.156 91.768 43.184 91.768 42.716C91.768 41.924 87.736 37.064 85.144 34.292C84.82 33.932 84.568 33.788 84.316 33.788C84.1 33.788 83.056 34.292 83.056 34.796C83.056 35.048 83.236 35.3 83.56 35.66C84.46 36.668 85.396 37.748 86.296 38.972C82.3 39.62 78.628 40.124 74.884 40.52C78.844 34.076 80.968 29.144 80.968 28.856C80.968 28.136 78.844 27.236 78.412 27.236C78.196 27.236 78.088 27.344 78.088 27.524C78.088 27.596 78.124 27.668 78.124 27.74C78.196 27.992 78.232 28.208 78.232 28.424C78.232 29.432 76.468 33.68 72.328 40.772L71.86 40.808ZM85.396 54.92L75.244 55.244L74.74 48.296L86.188 47.828L85.396 54.92ZM62.572 57.728C63.184 57.728 63.472 57.152 64.048 56.144C65.92 52.832 67.684 49.124 68.764 45.956C68.908 45.488 68.98 45.128 68.98 44.876C68.98 44.552 68.872 44.408 68.728 44.408C68.476 44.408 68.116 44.768 67.72 45.488C66.1 48.512 63.976 51.896 61.888 54.848C61.528 55.388 60.952 55.856 60.484 56.072C60.268 56.18 60.196 56.288 60.196 56.396C60.196 56.684 61.312 57.584 62.464 57.728H62.572ZM70.096 33.788C70.096 33.14 65.272 28.676 64.444 28.676C63.796 28.676 63.292 29.648 63.292 29.864C63.292 30.116 63.436 30.332 63.76 30.584C65.092 31.7 66.676 33.248 67.972 34.796C68.224 35.084 68.44 35.228 68.656 35.228C69.052 35.228 70.096 34.436 70.096 33.788ZM65.632 42.788C66.1 42.788 66.964 41.708 66.964 41.204C66.964 40.916 66.748 40.7 66.388 40.412C64.084 38.648 61.456 36.704 60.844 36.704C60.232 36.704 59.8 37.784 59.8 38C59.8 38.216 59.944 38.396 60.268 38.612C61.78 39.62 63.472 40.988 64.984 42.428C65.236 42.68 65.452 42.788 65.632 42.788ZM137.726 44.84C138.194 44.804 138.59 44.624 138.59 44.264C138.59 43.652 137.15 42.464 136.574 42.464C136.43 42.464 136.322 42.5 136.214 42.536C135.71 42.716 135.098 42.788 134.63 42.824L125.018 43.292C125.342 41.492 125.522 39.476 125.63 37.568L133.838 37.1C134.306 37.064 134.702 36.92 134.702 36.56C134.702 35.912 133.334 34.832 132.686 34.832C132.542 34.832 132.434 34.868 132.29 34.904C131.822 35.084 131.282 35.156 130.742 35.192L125.738 35.48C125.774 34.328 125.774 33.176 125.774 31.988C125.774 30.836 125.774 29.648 125.738 28.496C125.738 27.2 123.11 26.876 123.038 26.876C122.786 26.876 122.642 26.984 122.642 27.128C122.642 27.272 122.714 27.416 122.822 27.596C123.182 28.208 123.29 28.82 123.29 29.576C123.326 30.908 123.326 32.312 123.326 33.788V35.624L118.07 35.948C118.718 34.724 119.906 32.24 119.906 31.808C119.906 31.052 118.034 30.08 117.386 30.08C117.134 30.08 117.062 30.224 117.062 30.476V30.62C117.098 30.8 117.098 30.944 117.098 31.124C117.098 32.42 115.658 37.28 112.346 41.708C112.022 42.14 111.842 42.5 111.842 42.752C111.842 42.932 111.95 43.04 112.13 43.04C113.246 43.04 115.946 39.584 116.918 38.036L123.254 37.712C123.146 39.548 122.93 41.6 122.57 43.4L112.274 43.868H111.914C111.302 43.868 110.726 43.796 110.258 43.688C110.186 43.652 110.078 43.652 110.042 43.652C109.862 43.652 109.754 43.724 109.754 43.904C109.754 43.976 109.79 44.084 109.826 44.192C110.042 44.768 110.402 45.38 111.014 45.776C111.158 45.848 111.482 45.956 112.202 45.956C112.454 45.956 112.778 45.92 113.102 45.92L122.03 45.524C120.41 50.384 118.034 53.948 109.394 57.944C108.71 58.268 108.386 58.592 108.386 58.808C108.386 58.988 108.566 59.096 108.926 59.096C109.538 59.096 121.022 56.504 124.082 46.82C127.934 52.58 132.974 56.504 139.13 58.916C139.202 58.952 139.31 58.988 139.418 58.988C140.318 58.988 141.398 57.44 141.398 57.26C141.398 57.008 141.11 56.9 140.678 56.756C134.234 54.596 129.698 51.212 125.594 45.344L137.726 44.84ZM174.518 44.264C174.914 44.228 175.238 44.048 175.238 43.724C175.238 43.004 173.69 42.104 173.366 42.104C173.222 42.104 173.15 42.14 173.042 42.176C172.466 42.392 171.998 42.5 171.458 42.536L167.714 42.788C167.318 41.168 167.03 39.368 166.742 37.64L171.962 37.316C172.538 37.28 172.97 37.244 172.97 36.884C172.97 36.596 172.718 36.164 172.142 35.444L172.826 31.016C172.862 30.764 173.078 30.584 173.078 30.296C173.078 29.684 172.25 28.964 171.53 28.964C171.386 28.964 171.206 28.964 170.99 29L159.938 29.9C158.606 29.252 157.85 29 157.454 29C157.238 29 157.13 29.108 157.13 29.288C157.13 29.468 157.238 29.72 157.382 30.044C157.67 30.656 157.778 31.34 157.778 31.952L157.85 55.28C157.562 55.352 156.014 55.784 154.718 55.784H154.322C154.07 55.784 153.962 55.856 153.962 56C153.962 56.54 155.114 58.16 155.87 58.16C156.77 58.16 161.09 56.54 166.526 53.588C167.102 53.3 167.354 52.976 167.354 52.76C167.354 52.58 167.21 52.472 166.922 52.472C166.742 52.472 166.49 52.544 166.166 52.652C164.042 53.444 161.81 54.164 159.974 54.704L160.01 45.272L166.058 44.84C166.166 45.272 167.498 51.104 171.998 56.792C173.402 58.592 174.698 58.988 175.31 58.988C176.066 58.988 176.678 58.34 176.894 56.72C177.182 54.56 177.326 52.796 177.326 50.96C177.326 50.204 177.182 49.808 176.966 49.808C176.786 49.808 176.57 50.132 176.426 50.816C175.742 54.056 174.914 56.216 174.662 56.216C174.482 56.216 171.35 53.66 168.686 46.352C168.506 45.848 168.326 45.308 168.182 44.696L174.446 44.264H174.518ZM154.754 52.184C155.258 52.148 155.69 52.148 155.69 51.752C155.69 51.5 155.438 51.032 154.79 50.24L155.294 32.672C155.294 32.42 155.51 32.132 155.51 31.808C155.51 31.196 154.718 30.692 153.998 30.692H153.674L148.49 31.016C147.302 30.584 146.618 30.404 146.222 30.404C145.934 30.404 145.826 30.512 145.826 30.656C145.826 30.8 145.934 31.016 146.042 31.232C146.222 31.592 146.366 32.24 146.366 32.924L146.69 50.528C146.69 51.212 146.69 51.824 146.546 52.544C146.51 52.688 146.51 52.832 146.51 52.94C146.51 53.444 146.762 53.768 147.41 54.02C147.626 54.128 147.878 54.164 148.094 54.164C148.49 54.164 148.814 53.984 148.814 53.408L148.778 52.364L154.754 52.184ZM169.982 35.444L160.046 36.164V31.808L170.522 31.016L169.982 35.444ZM160.01 43.328V38.072L164.654 37.784C164.906 39.44 165.23 41.276 165.59 42.932L160.01 43.328ZM152.702 50.312L148.778 50.42L148.67 45.128L152.81 44.984L152.702 50.312ZM152.99 36.92L148.526 37.172L148.454 32.852L153.062 32.564L152.99 36.92ZM152.846 43.112L148.634 43.292L148.562 39.008L152.954 38.756L152.846 43.112ZM179.99 53.48C179.774 54.092 179.378 54.956 178.982 55.676C178.91 55.82 178.874 56 178.874 56.144C178.874 56.864 179.666 57.512 180.278 57.512C180.53 57.512 180.782 57.368 180.89 57.044C181.178 56.108 181.502 55.244 181.826 54.308L189.602 32.96C189.926 32.096 190.286 31.34 190.61 30.62C190.646 30.584 190.646 30.512 190.646 30.476C190.646 29.936 189.638 28.964 189.026 28.964C188.81 28.964 188.63 29.108 188.558 29.432C188.306 30.404 187.946 31.556 187.694 32.24L179.99 53.48ZM222.42 49.484C222.816 49.448 223.176 49.376 223.176 49.052C223.176 48.764 222.276 47.36 221.448 47.36C221.34 47.36 221.268 47.36 221.196 47.396C220.8 47.54 220.44 47.612 219.972 47.648L211.656 47.972L211.692 44.624L218.676 44.3C219.072 44.264 219.432 44.156 219.432 43.868C219.432 43.436 218.352 42.248 217.776 42.248C217.704 42.248 217.596 42.248 217.524 42.284C217.092 42.464 216.66 42.536 216.264 42.572L211.692 42.788V39.62L218.604 39.296C219.072 39.26 219.432 39.152 219.432 38.828C219.432 38.252 218.1 37.244 217.668 37.244C217.596 37.244 217.488 37.244 217.416 37.28C216.984 37.46 216.588 37.532 216.12 37.568L211.692 37.784L211.728 34.76L220.548 34.22C220.98 34.184 221.34 34.076 221.34 33.788C221.34 33.068 220.008 32.132 219.612 32.132C219.504 32.132 219.432 32.132 219.36 32.168C218.964 32.312 218.532 32.384 217.992 32.42L211.62 32.852C212.412 31.844 213.168 30.656 213.96 29.072C214.032 28.964 214.068 28.856 214.068 28.748C214.068 28.172 212.484 27.128 211.764 27.128C211.512 27.128 211.404 27.272 211.404 27.56C211.404 27.632 211.404 27.74 211.44 27.884C211.476 28.028 211.476 28.208 211.476 28.352C211.476 28.712 211.152 30.332 209.532 32.96L203.448 33.356C204.708 31.556 206.364 28.928 206.364 28.676C206.364 27.884 204.384 26.84 203.988 26.84C203.736 26.84 203.592 27.02 203.592 27.38C203.592 27.956 203.52 28.388 203.268 28.928C201.396 32.924 198.3 37.568 194.592 42.032C194.232 42.464 194.052 42.824 194.052 43.076C194.052 43.256 194.16 43.364 194.34 43.364C195.024 43.364 198.012 40.52 200.172 37.892L200.064 47.792C200.064 48.764 199.956 49.484 199.776 50.24C199.74 50.348 199.74 50.42 199.74 50.528C199.74 51.068 200.892 51.932 201.756 51.932C202.08 51.932 202.296 51.752 202.296 51.32V50.204L222.42 49.484ZM209.46 48.044L202.296 48.332L202.332 45.056L209.496 44.732L209.46 48.044ZM209.496 42.896L202.332 43.256V40.088L209.532 39.728L209.496 42.896ZM225.444 57.728C225.444 56.9 222.024 53.588 219.252 51.284C219 51.068 218.784 50.96 218.568 50.96C218.172 50.96 217.416 51.536 217.416 52.076C217.416 52.292 217.56 52.472 217.812 52.724C219.648 54.38 221.556 56.432 223.248 58.628C223.5 58.952 223.716 59.168 223.968 59.168C224.4 59.168 225.444 58.304 225.444 57.728ZM209.532 37.928L202.332 38.288L202.368 35.3L209.568 34.868L209.532 37.928ZM194.772 59.204C195.6 59.204 199.812 52.976 199.812 52.22C199.812 51.536 198.48 51.248 198.336 51.248C198.048 51.248 197.904 51.464 197.688 51.86C196.752 53.84 195.24 55.604 193.692 57.152C193.476 57.368 193.368 57.512 193.368 57.728C193.368 58.16 194.34 59.204 194.772 59.204ZM216.588 57.188C216.588 56.468 211.404 51.356 210.576 51.356C210.072 51.356 209.388 52.112 209.388 52.472C209.388 52.724 209.532 52.904 209.82 53.156C211.404 54.524 212.988 56.252 214.428 57.98C214.68 58.304 214.896 58.484 215.148 58.484C215.724 58.484 216.588 57.512 216.588 57.188ZM208.128 57.224C208.128 56.612 204.42 51.716 203.556 51.716C203.376 51.716 203.124 51.824 202.872 52.076C202.512 52.364 202.368 52.58 202.368 52.796C202.368 53.012 202.512 53.228 202.728 53.444C203.88 54.668 204.996 56.252 205.896 57.8C206.148 58.232 206.364 58.448 206.652 58.448C207.156 58.448 208.128 57.656 208.128 57.224ZM257.844 33.176C257.304 34.04 256.512 35.084 255.648 35.876C255.18 36.308 255 36.668 255 36.884C255 37.1 255.108 37.208 255.36 37.208C256.404 37.208 260.94 33.5 260.94 32.708C260.94 32.564 260.4 31.376 259.428 31.376C259.212 31.376 258.996 31.412 258.672 31.412L245.964 32.204L246 30.584L254.316 30.008C254.892 29.972 255.288 29.864 255.288 29.54C255.288 29.216 254.424 28.136 253.632 28.136C253.452 28.136 253.308 28.172 253.128 28.208C252.66 28.316 252.372 28.388 251.904 28.424L246.036 28.892L246.072 27.416C246.072 26.228 243.696 26.048 243.588 26.048C243.336 26.048 243.228 26.12 243.228 26.228C243.228 26.3 243.228 26.372 243.3 26.444C243.66 26.984 243.84 27.524 243.84 28.136V32.312L236.136 32.816C234.624 32.06 233.832 31.772 233.472 31.772C233.256 31.772 233.184 31.844 233.184 32.024C233.184 32.132 233.22 32.312 233.292 32.492C233.58 33.284 233.616 34.112 233.616 35.192C233.616 42.428 232.824 50.312 228.72 57.08C228.432 57.584 228.288 57.944 228.288 58.16C228.288 58.34 228.36 58.448 228.504 58.448C229.296 58.448 233.868 53.696 235.128 45.236C235.632 41.78 235.884 38.432 235.992 34.508L243.588 34.04V35.84L238.62 36.38H238.296C238.008 36.38 237.72 36.344 237.396 36.272C237.324 36.272 237.252 36.236 237.18 36.236C237.072 36.236 237.036 36.272 237.036 36.38C237.036 37.532 238.26 37.964 238.548 37.964C238.728 37.964 238.944 37.928 239.16 37.892L243.552 37.388V37.856C243.552 39.476 244.416 40.16 246.216 40.196H247.512C249.708 40.196 251.832 40.052 255.072 39.692C255.648 39.62 256.08 39.44 256.08 39.116C256.08 38.72 255.144 37.82 254.676 37.82C254.568 37.82 254.424 37.856 254.244 37.928C252.48 38.576 248.844 38.576 248.304 38.576C246.288 38.576 245.676 38.576 245.676 37.604V37.172L253.236 36.344C253.74 36.272 254.028 36.128 254.028 35.876C254.028 35.444 253.092 34.616 252.516 34.616C252.336 34.616 252.192 34.652 252.048 34.724C251.688 34.904 251.364 34.976 250.824 35.048L245.676 35.624L245.712 33.896L257.844 33.176ZM255.216 49.736C255.792 49.7 256.224 49.664 256.224 49.34C256.224 49.124 256.044 48.764 255.576 48.224L256.368 42.644C256.404 42.5 256.62 42.392 256.62 42.14C256.62 41.78 255.9 41.024 255.324 41.024C255.18 41.024 255.036 41.06 254.82 41.06L240.348 41.888C239.196 41.492 238.548 41.348 238.188 41.348C237.9 41.348 237.792 41.456 237.792 41.564C237.792 41.672 237.828 41.78 237.9 41.888C238.224 42.536 238.332 43.004 238.368 43.58L238.692 48.404C238.728 48.656 238.728 48.872 238.728 49.088C238.728 49.268 238.728 49.448 238.692 49.628V49.844C238.692 50.672 240.024 51.068 240.276 51.068C240.672 51.068 240.888 50.744 240.888 50.384V50.312L255.216 49.736ZM256.584 57.728C256.944 57.44 257.088 57.188 257.088 56.9C257.088 56.54 256.872 56.18 256.404 55.712C255.468 54.776 254.64 53.912 253.92 53.048C253.416 52.472 253.02 52.184 252.804 52.184C252.66 52.184 252.588 52.292 252.588 52.472C252.588 52.652 252.696 53.012 252.912 53.444C253.416 54.488 253.74 55.208 254.064 56.036C254.1 56.072 254.1 56.144 254.1 56.18C254.1 56.324 254.028 56.396 253.848 56.432C252.624 56.54 251.472 56.612 250.356 56.612C248.304 56.612 243.66 56.576 242.328 52.22C242.256 51.932 242.076 51.716 241.644 51.716C241.212 51.716 240.312 51.932 240.312 52.436C240.312 52.724 241.32 56.036 244.524 57.548C246.324 58.376 248.448 58.628 250.644 58.628C254.604 58.628 255.864 58.376 256.584 57.728ZM235.272 58.016C236.172 58.016 239.016 52.904 239.016 52.184C239.016 51.572 237.972 51.284 237.648 51.284C237.396 51.284 237.216 51.464 237.072 51.788C236.28 53.48 235.344 54.956 234.192 56.288C234.048 56.468 233.976 56.612 233.976 56.792C233.976 57.368 234.984 58.016 235.272 58.016ZM260.652 56.36C261.192 56.36 261.84 55.568 261.84 55.028C261.84 54.164 257.304 50.708 256.764 50.708C256.188 50.708 255.756 51.716 255.756 51.896C255.756 52.076 255.864 52.22 256.044 52.364C257.556 53.516 258.96 54.812 260.112 56.072C260.256 56.252 260.472 56.36 260.652 56.36ZM253.632 48.224L247.98 48.476L248.016 46.352L253.848 46.028L253.632 48.224ZM253.992 44.588L248.052 44.948L248.088 43.004L254.172 42.644L253.992 44.588ZM246 48.548L240.78 48.8L240.636 46.748L246.036 46.46L246 48.548ZM246.072 45.056L240.564 45.344L240.42 43.436L246.108 43.112L246.072 45.056ZM249.564 54.632C250.068 54.632 250.608 53.732 250.608 53.3C250.608 52.904 250.248 52.508 246.792 50.744C246.612 50.672 246.468 50.6 246.324 50.6C245.82 50.6 245.424 51.464 245.424 51.716C245.424 51.896 245.532 52.04 245.712 52.148C246.828 52.832 248.052 53.66 249.024 54.416C249.24 54.56 249.42 54.632 249.564 54.632ZM264.576 53.48C264.36 54.092 263.964 54.956 263.568 55.676C263.496 55.82 263.46 56 263.46 56.144C263.46 56.864 264.252 57.512 264.864 57.512C265.116 57.512 265.368 57.368 265.476 57.044C265.764 56.108 266.088 55.244 266.412 54.308L274.188 32.96C274.512 32.096 274.872 31.34 275.196 30.62C275.232 30.584 275.232 30.512 275.232 30.476C275.232 29.936 274.224 28.964 273.612 28.964C273.396 28.964 273.216 29.108 273.144 29.432C272.892 30.404 272.532 31.556 272.28 32.24L264.576 53.48ZM306.97 49.7C307.438 49.664 307.834 49.556 307.834 49.232C307.834 48.728 306.646 47.576 305.926 47.576C305.818 47.576 305.71 47.576 305.602 47.612C305.098 47.792 304.666 47.828 304.09 47.864L303.118 47.9L303.514 42.356L309.058 42.104C309.526 42.068 309.922 41.924 309.922 41.6C309.922 40.88 308.374 39.872 307.942 39.872C307.834 39.872 307.69 39.908 307.582 39.944C307.042 40.124 306.574 40.16 305.998 40.196L303.658 40.304L304.018 35.588V35.48C304.018 34.652 302.47 34.22 301.822 34.22C301.534 34.22 301.354 34.328 301.354 34.508C301.354 34.616 301.39 34.724 301.462 34.832C301.714 35.3 301.822 35.732 301.822 36.236V36.452L301.534 40.412L297.682 40.592L297.826 35.66C297.826 35.048 297.682 34.868 296.71 34.544C296.206 34.364 295.81 34.292 295.522 34.292C295.234 34.292 295.054 34.4 295.054 34.58C295.054 34.688 295.09 34.796 295.162 34.904C295.45 35.408 295.594 35.912 295.594 36.524L295.522 40.7L292.138 40.844L292.03 36.092C292.03 35.48 291.886 35.3 290.95 34.976C290.446 34.796 290.05 34.724 289.762 34.724C289.474 34.724 289.33 34.832 289.33 35.012C289.33 35.084 289.366 35.192 289.438 35.336C289.726 35.84 289.87 36.344 289.87 36.956L289.942 40.952L286.27 41.132L286.09 37.964C286.018 36.992 284.47 36.848 284.074 36.848C283.714 36.848 283.462 36.992 283.462 37.208C283.462 37.316 283.498 37.424 283.606 37.532C283.894 37.928 284.074 38.432 284.11 38.972L284.254 41.24L280.186 41.42H279.862C279.358 41.42 278.854 41.348 278.422 41.24C278.314 41.204 278.242 41.204 278.206 41.204C278.062 41.204 277.99 41.276 277.99 41.384C277.99 41.672 278.314 42.572 278.926 43.184C279.142 43.4 279.538 43.472 280.042 43.472C280.294 43.472 280.546 43.436 280.834 43.436L284.362 43.256L284.614 48.62L282.094 48.728H281.806C281.302 48.728 280.834 48.656 280.438 48.548C280.366 48.512 280.294 48.512 280.258 48.512C280.15 48.512 280.078 48.584 280.078 48.728C280.078 48.98 280.294 49.628 280.87 50.384C281.05 50.6 281.446 50.672 281.95 50.672C282.202 50.672 282.49 50.636 282.778 50.636L306.97 49.7ZM305.026 33.284C305.458 33.248 305.818 33.104 305.818 32.816C305.818 32.456 304.882 31.304 303.946 31.304C303.838 31.304 303.73 31.304 303.622 31.34C303.082 31.484 302.614 31.556 302.11 31.592L287.746 32.456C289.258 30.44 290.338 28.712 290.338 28.424C290.338 27.992 289.006 26.66 288.286 26.66C288.034 26.66 287.926 26.84 287.926 27.2C287.926 28.784 284.218 34.58 280.366 38.036C279.826 38.504 279.574 38.9 279.574 39.116C279.574 39.224 279.646 39.296 279.79 39.296C280.294 39.296 283.246 37.604 286.234 34.292L305.026 33.284ZM309.634 58.268C309.634 57.44 303.694 51.212 302.758 51.212C302.146 51.212 301.642 52.22 301.642 52.4C301.642 52.652 301.786 52.868 302.074 53.12C303.946 54.92 305.89 57.152 307.402 59.096C307.654 59.42 307.87 59.6 308.122 59.6C308.41 59.6 309.634 59.024 309.634 58.268ZM280.294 59.708C281.194 59.708 285.37 53.552 285.37 52.364C285.37 52.04 285.154 51.86 284.614 51.572C284.362 51.428 284.146 51.356 283.966 51.356C283.606 51.356 283.39 51.608 283.21 52.04C282.31 54.128 280.798 56.108 279.214 57.584C278.998 57.8 278.854 57.98 278.854 58.232C278.854 58.664 279.718 59.708 280.294 59.708ZM301.03 47.972L297.466 48.116L297.61 42.644L301.39 42.464L301.03 47.972ZM290.086 48.404L286.702 48.548L286.414 43.184L289.978 43.004L290.086 48.404ZM298.618 58.232C298.906 58.628 299.122 58.844 299.41 58.844C299.77 58.844 300.886 58.268 300.886 57.62C300.886 57.044 298.33 53.804 296.242 51.716C295.954 51.428 295.702 51.284 295.486 51.284C295.018 51.284 294.37 51.896 294.37 52.364C294.37 52.58 294.478 52.796 294.73 53.048C296.062 54.56 297.466 56.36 298.618 58.232ZM295.414 48.188L292.282 48.332L292.174 42.896L295.486 42.752L295.414 48.188ZM293.074 57.548C293.074 57.008 291.13 54.02 289.69 52.184C289.366 51.752 289.114 51.608 288.862 51.608C288.682 51.608 287.746 52.004 287.746 52.58C287.746 52.796 287.818 53.012 287.998 53.264C289.078 54.74 290.122 56.396 290.842 58.016C291.058 58.484 291.274 58.736 291.598 58.736C291.742 58.736 293.074 58.268 293.074 57.548ZM343.258 33.248C343.762 33.212 344.122 33.032 344.122 32.672C344.122 31.952 342.862 31.016 342.214 31.016C342.106 31.016 342.034 31.016 341.962 31.052C341.35 31.304 340.81 31.412 340.27 31.448L332.026 31.772L332.062 28.064C332.062 26.984 329.65 26.84 329.614 26.84C329.326 26.84 329.146 26.912 329.146 27.056C329.146 27.164 329.218 27.272 329.362 27.452C329.722 27.884 329.866 28.352 329.866 28.784L329.902 31.952L320.218 32.384C318.706 31.52 317.95 31.196 317.59 31.196C317.374 31.196 317.266 31.304 317.266 31.52C317.266 31.628 317.302 31.772 317.374 31.952C317.734 32.96 317.806 34.04 317.806 35.084V36.272C317.806 41.708 317.374 49.34 313.414 57.584C313.234 57.98 313.126 58.268 313.126 58.484C313.126 58.664 313.198 58.736 313.342 58.736C313.918 58.736 317.806 54.992 319.498 44.408C320.074 40.808 320.146 38.54 320.146 34.4L343.258 33.248ZM330.154 58.088C330.154 58.556 330.334 58.952 331.198 59.456C331.486 59.6 331.738 59.672 331.954 59.672C332.386 59.672 332.674 59.384 332.674 58.844L332.71 43.868C338.182 51.212 344.05 54.884 344.806 54.884C345.49 54.884 346.606 53.696 346.606 53.48C346.606 53.336 346.462 53.192 346.21 53.048C341.458 50.348 337.462 47.072 333.574 42.032L342.142 41.564C342.574 41.528 342.79 41.348 342.79 41.06C342.79 40.196 341.206 39.296 340.81 39.296C340.666 39.296 340.558 39.332 340.414 39.368C339.802 39.584 339.19 39.764 338.326 39.8L332.71 40.124V36.164C332.71 35.156 331.054 34.652 330.442 34.652C330.154 34.652 329.974 34.76 329.974 34.94C329.974 34.976 329.974 35.048 330.01 35.12C330.406 35.948 330.514 36.704 330.514 37.496V40.232L324.142 40.556H323.782C323.206 40.556 322.45 40.484 321.838 40.376C321.766 40.34 321.694 40.34 321.622 40.34C321.442 40.34 321.37 40.412 321.37 40.556C321.37 40.916 322.018 41.96 322.342 42.248C322.666 42.5 323.098 42.572 323.71 42.572C324.034 42.572 324.43 42.572 324.862 42.536L328.93 42.32C326.446 46.568 322.882 50.816 319.03 54.092C318.598 54.488 318.382 54.776 318.382 54.992C318.382 55.136 318.49 55.208 318.67 55.208C319.642 55.208 326.698 50.384 330.514 43.868L330.478 53.876C330.478 55.496 330.334 56.432 330.154 57.836V58.088ZM372.706 38.756C374.038 38.756 379.15 31.772 379.15 30.944C379.15 30.152 377.674 29.144 377.062 29.144C376.738 29.144 376.594 29.36 376.594 29.756C376.594 31.556 374.398 35.336 372.958 37.46C372.634 37.928 372.49 38.288 372.49 38.504C372.49 38.684 372.562 38.756 372.706 38.756ZM367.486 37.46C367.486 36.992 363.706 30.836 362.914 30.836C362.59 30.836 361.654 31.304 361.654 31.844C361.654 32.024 361.762 32.204 361.906 32.42C363.058 34.004 364.21 35.876 365.29 38.036C365.47 38.432 365.686 38.648 365.974 38.648C366.406 38.648 367.486 38.072 367.486 37.46ZM382.102 47.828C382.57 47.792 383.002 47.648 383.002 47.288C383.002 46.784 381.922 45.632 381.022 45.632C380.914 45.632 380.806 45.632 380.698 45.668C380.122 45.848 379.654 45.884 379.114 45.92L371.374 46.28L371.41 41.888L378.934 41.492C379.402 41.456 379.834 41.312 379.834 40.952C379.834 40.664 378.934 39.332 377.854 39.332C377.746 39.332 377.638 39.332 377.53 39.368C376.954 39.548 376.486 39.584 375.946 39.62L371.41 39.872V27.812C371.41 26.876 369.682 26.48 369.07 26.48C368.782 26.48 368.602 26.588 368.602 26.768C368.602 26.876 368.638 26.984 368.71 27.092C368.998 27.596 369.142 28.28 369.142 28.856V39.98L363.454 40.304H363.022C362.59 40.304 362.086 40.268 361.69 40.16C361.582 40.124 361.51 40.124 361.438 40.124C361.294 40.124 361.222 40.196 361.222 40.34C361.222 40.52 361.474 41.348 362.23 42.104C362.374 42.248 362.662 42.284 363.058 42.284C363.382 42.284 363.742 42.248 364.174 42.248L369.142 41.996V46.388L360.466 46.82H360.178C359.674 46.82 359.134 46.748 358.702 46.64C358.594 46.604 358.522 46.604 358.45 46.604C358.306 46.604 358.234 46.676 358.234 46.82C358.234 46.928 358.522 47.936 359.242 48.656C359.422 48.836 359.746 48.872 360.25 48.872C360.502 48.872 360.826 48.836 361.186 48.836L369.142 48.44V55.712C369.142 56.396 369.07 56.972 368.926 57.764C368.89 57.872 368.89 58.016 368.89 58.124C368.89 58.916 369.97 59.564 370.69 59.564C371.086 59.564 371.374 59.312 371.374 58.736V48.332L382.102 47.828ZM354.706 54.992C354.706 55.784 354.67 56.36 354.49 57.08C354.454 57.26 354.418 57.404 354.418 57.548C354.418 58.7 356.362 58.988 356.362 58.988C356.722 58.988 356.938 58.772 356.938 58.232V37.136C358.99 33.824 361.042 29.792 361.042 29.108C361.042 28.496 359.35 27.488 358.666 27.488C358.414 27.488 358.234 27.596 358.234 27.884C358.234 27.92 358.27 27.992 358.27 28.064C358.306 28.28 358.342 28.46 358.342 28.676C358.342 29.972 355.318 36.92 349.45 44.48C349.126 44.912 348.946 45.272 348.946 45.488C348.946 45.632 349.018 45.704 349.162 45.704C349.378 45.704 349.702 45.524 350.134 45.164C351.862 43.688 353.41 41.996 354.85 40.124L354.706 54.992Z" fill="black"/>
</svg>
