<svg width="199" height="87" viewBox="0 0 199 87" fill="none" xmlns="http://www.w3.org/2000/svg">
<rect x="1" y="1" width="197" height="85" fill="white" stroke="black" stroke-width="2"/>
<path d="M59.1127 39.1168C59.6527 39.0808 60.1567 38.9368 60.1567 38.5408C60.1567 38.1088 58.7887 36.6328 57.9247 36.6328C57.8527 36.6328 57.7807 36.6328 57.7087 36.6688C57.2407 36.8488 56.8087 36.9208 56.3407 36.9568L45.2167 37.6048C45.7927 34.9768 46.1527 32.1688 46.2967 29.3608V29.2168C46.2967 28.4968 45.9727 28.1008 45.0367 27.7408C44.2807 27.4168 43.7407 27.2728 43.4527 27.2728C43.2007 27.2728 43.0927 27.3448 43.0927 27.5248C43.0927 27.6328 43.1287 27.7768 43.2007 27.9208C43.4527 28.4248 43.6687 28.9288 43.6687 29.5768V29.7208C43.5607 32.3488 43.2007 35.1568 42.6247 37.7488L32.9047 38.3248H32.4367C31.9327 38.3248 31.3927 38.2888 30.8527 38.1808C30.7807 38.1808 30.7447 38.1448 30.7087 38.1448C30.5647 38.1448 30.4927 38.2168 30.4927 38.3608C30.4927 38.4328 30.4927 38.5048 30.5287 38.5768C31.1047 40.4488 31.8607 40.5208 32.5807 40.5208C32.9407 40.5208 33.3007 40.4848 33.6967 40.4848L42.0487 40.0528C39.2767 49.9528 31.7887 55.4248 28.7287 57.4048C28.1887 57.7288 27.9727 58.0888 27.9727 58.3048C27.9727 58.4488 28.0807 58.5568 28.3327 58.5568C29.5207 58.5568 38.0527 54.5248 42.4087 45.8848C43.2367 44.2288 43.9567 42.3208 44.5687 40.2688C50.1127 52.2928 59.4007 57.9808 59.9407 57.9808C60.3367 57.9808 62.2087 57.0808 62.2087 56.4328C62.2087 56.2168 61.9927 56.0368 61.5607 55.8208C55.6927 52.8328 50.1127 46.7128 46.6207 39.8008L59.1127 39.1168ZM47.9887 54.5248C47.9887 53.6608 43.4887 49.6288 43.0567 49.2328C42.8047 49.0168 42.5887 48.9088 42.3727 48.9088C42.0127 48.9088 41.2207 49.5208 41.2207 50.0248C41.2207 50.2408 41.3647 50.4568 41.6887 50.7448C42.9487 51.8608 44.4967 53.7328 45.8287 55.4608C46.0447 55.7488 46.2607 55.9288 46.5487 55.9288C47.0527 55.9288 47.9887 55.0288 47.9887 54.5248Z" fill="black"/>
<path d="M90.9007 55.7848C91.5127 55.7488 91.9807 55.6768 91.9807 55.2448C91.9807 54.9208 91.6927 54.3808 91.0087 53.5168L92.3767 36.6328C92.4127 36.3808 92.6647 36.0928 92.6647 35.7328C92.6647 35.0848 91.8007 34.3288 90.3967 34.3288H90.1087L77.0407 35.0848C80.1367 31.8448 81.8647 29.1808 81.8647 28.6768C81.8647 27.7408 79.7407 26.8408 79.2727 26.8408C79.0207 26.8408 78.8767 26.9848 78.8767 27.2728V27.3808C78.8767 27.5248 78.9127 27.6328 78.9127 27.7768C78.9127 29.4328 76.2127 33.0328 74.4487 35.2288L72.2167 35.3728C70.7047 34.8328 69.8407 34.5808 69.4087 34.5808C69.1207 34.5808 69.0127 34.6888 69.0127 34.8328C69.0127 35.0128 69.1207 35.2648 69.3007 35.5888C69.6247 36.2008 69.8407 36.8848 69.8767 37.7128L70.8127 54.8488C70.8487 55.3888 70.8847 55.8928 70.8847 56.3608C70.8847 56.7928 70.8487 57.1888 70.8127 57.5488V57.6928C70.8127 58.7728 72.0727 59.1328 72.7567 59.1328C73.1887 59.1328 73.4047 58.9168 73.4047 58.4848V58.3768L73.2967 56.2888L90.9007 55.7848ZM88.6687 53.6608L73.1887 54.1288L72.7567 46.5328L89.2087 45.7408L88.6687 53.6608ZM89.3527 43.5808L72.6487 44.3728L72.2887 37.5328L89.8567 36.5608L89.3527 43.5808Z" fill="black"/>
<path d="M116.569 31.8448C121.393 36.2728 126.901 40.3048 131.977 43.2928C132.121 43.4008 132.265 43.4368 132.445 43.4368C132.913 43.4368 134.281 42.3568 134.281 41.8168C134.281 41.6008 134.101 41.4208 133.741 41.2408C128.233 38.3968 122.797 34.6888 117.793 30.1528C118.981 28.6048 119.017 28.3168 119.017 28.2088C119.017 27.6688 117.325 26.3008 116.677 26.3008C116.389 26.3008 116.281 26.5528 116.281 26.8768C116.281 27.4528 116.173 27.8488 115.885 28.3168C112.249 34.1488 106.921 39.1528 100.837 43.3648C100.225 43.7608 99.9727 44.1568 99.9727 44.3728C99.9727 44.5168 100.081 44.6248 100.297 44.6248C100.873 44.6248 109.333 40.9168 116.569 31.8448ZM131.581 57.3328C132.085 57.2968 132.517 57.1528 132.517 56.7928C132.517 56.2168 131.005 55.0288 130.537 55.0288C130.429 55.0288 130.393 55.0288 130.321 55.0648C129.853 55.2448 129.421 55.3528 128.881 55.3528L117.865 55.6408L117.937 46.7128L127.693 46.2448C128.161 46.2088 128.521 46.0648 128.521 45.7048C128.521 45.0568 127.009 44.0488 126.649 44.0488C126.541 44.0488 126.505 44.0488 126.433 44.0848C125.929 44.2648 125.569 44.3368 124.993 44.3728L117.937 44.6968L117.973 40.6648L122.905 40.3768C123.373 40.3408 123.769 40.1968 123.769 39.8728C123.769 39.2248 122.365 38.2528 121.897 38.2528C121.789 38.2528 121.717 38.2528 121.645 38.2888C121.141 38.4688 120.817 38.5408 120.241 38.5768L112.033 39.1168H111.601C111.169 39.1168 110.809 39.0808 110.413 38.9728C110.341 38.9368 110.269 38.9368 110.197 38.9368C110.053 38.9368 109.981 39.0088 109.981 39.1528C109.981 39.2248 110.017 39.3328 110.053 39.4768C110.629 40.9888 111.457 41.0248 111.925 41.0248C112.141 41.0248 112.393 40.9888 112.681 40.9888L115.633 40.8088L115.669 44.8048L107.497 45.1648H107.065C106.633 45.1648 106.273 45.1288 105.877 45.0208C105.805 44.9848 105.733 44.9848 105.661 44.9848C105.517 44.9848 105.445 45.0568 105.445 45.2008C105.445 45.2728 105.481 45.3808 105.517 45.5248C106.129 47.1448 106.741 47.2168 107.389 47.2168C107.605 47.2168 107.857 47.1808 108.145 47.1808L115.669 46.8208L115.705 55.7128L103.717 56.0368C103.177 56.0368 102.601 56.0008 102.097 55.8568C102.025 55.8208 101.953 55.8208 101.881 55.8208C101.773 55.8208 101.701 55.8928 101.701 56.0368C101.701 56.6128 102.133 57.3328 102.673 57.8728C102.853 58.0528 103.177 58.0888 103.609 58.0888C103.861 58.0888 104.113 58.0528 104.401 58.0528L131.581 57.3328ZM120.421 54.9928C121.681 54.9928 126.397 49.7008 126.397 48.8368C126.397 48.0808 124.705 47.0008 124.345 47.0008C124.057 47.0008 123.985 47.2528 123.949 47.6488C123.913 48.2248 123.733 49.7008 120.601 53.8048C120.277 54.2008 120.133 54.5248 120.133 54.7408C120.133 54.8848 120.241 54.9928 120.421 54.9928ZM113.509 53.8768C113.509 53.1208 109.405 48.0448 108.685 48.0448C108.541 48.0448 107.569 48.5848 107.569 49.1608C107.569 49.3408 107.677 49.4848 107.821 49.6648C109.153 51.1408 110.377 52.8328 111.313 54.4888C111.529 54.8848 111.709 55.0648 111.961 55.0648C112.573 55.0648 113.509 54.2368 113.509 53.8768Z" fill="black"/>
<path d="M168.445 56.7208C168.913 56.6848 169.309 56.5048 169.309 56.1448C169.309 55.3888 167.941 54.4888 167.473 54.4888C167.365 54.4888 167.257 54.5248 167.149 54.5608C166.717 54.7048 166.213 54.8128 165.673 54.8128L154.225 55.1368L154.261 51.2848L162.181 50.9968C162.613 50.9608 162.973 50.8168 162.973 50.4928C162.973 50.0608 161.857 48.9448 161.209 48.9448C161.101 48.9448 160.993 48.9808 160.885 49.0168C160.417 49.1608 160.021 49.2328 159.589 49.2328L154.261 49.4128L154.297 46.1728L163.549 45.7408C164.053 45.7048 164.449 45.5968 164.449 45.2728C164.449 44.7688 163.333 43.7608 162.721 43.7608C162.577 43.7608 162.433 43.7968 162.289 43.8328C161.857 43.9408 161.497 44.0128 161.029 44.0488L154.297 44.4088L154.333 42.0688C154.333 41.4208 154.153 41.1688 153.253 40.8448C152.677 40.6288 152.173 40.4848 151.885 40.4848C151.669 40.4848 151.561 40.5568 151.561 40.7008C151.561 40.7728 151.597 40.8448 151.633 40.9168C151.957 41.5288 152.065 41.8888 152.065 42.6808V44.5168L146.809 44.8048C147.709 43.4368 147.709 43.2928 147.709 43.2208C147.709 42.8608 147.385 42.0328 145.909 41.2048C146.089 41.0968 146.233 40.9168 146.233 40.6288V40.3768L161.641 39.7648C162.145 39.7288 162.613 39.7288 162.613 39.3688C162.613 39.0808 162.361 38.6488 161.749 37.9288L162.613 30.4408C162.649 30.1888 162.829 29.9368 162.829 29.6488C162.829 29.1088 162.037 28.6048 161.209 28.6048H160.957L145.333 29.5048C144.037 29.0008 143.281 28.8208 142.813 28.8208C142.489 28.8208 142.345 28.9288 142.345 29.1088C142.345 29.2168 142.417 29.3968 142.525 29.5408C142.849 30.1168 143.065 30.6208 143.137 31.3768L143.749 38.0008C143.785 38.3608 143.821 38.6488 143.821 38.9368C143.821 39.2248 143.785 39.5128 143.749 39.8368V39.9448C143.749 40.7368 144.973 41.2408 145.297 41.2408C145.261 41.3488 145.225 41.4568 145.225 41.6008C145.225 44.2648 141.265 49.1248 140.185 50.3848C139.825 50.8528 139.645 51.1768 139.645 51.3568C139.645 51.4648 139.717 51.5368 139.861 51.5368C140.689 51.5368 142.957 49.7008 145.477 46.6048L152.029 46.2808V49.5208L145.837 49.7368H145.441C145.009 49.7368 144.541 49.7008 144.109 49.6288C144.037 49.6288 144.001 49.5928 143.965 49.5928C143.785 49.5928 143.749 49.6648 143.749 49.8088C143.749 49.8448 143.749 49.9528 143.785 50.0248C144.289 51.5368 145.225 51.5728 145.873 51.5728H146.521L152.029 51.3568L151.993 55.1728L139.249 55.5328C138.709 55.5328 138.169 55.5328 137.557 55.3888C137.485 55.3528 137.413 55.3528 137.377 55.3528C137.197 55.3528 137.161 55.4608 137.161 55.6048C137.161 56.0368 137.665 57.0088 138.169 57.3688C138.349 57.5128 138.673 57.5488 139.105 57.5488C139.357 57.5488 139.681 57.5128 140.005 57.5128L168.445 56.7208ZM159.589 37.9648L146.053 38.5768L145.801 35.6608L159.877 34.9408L159.589 37.9648ZM160.021 33.2128L145.657 33.9688L145.405 31.3048L160.273 30.5128L160.021 33.2128Z" fill="black"/>
</svg>
