<svg width="121" height="87" viewBox="0 0 121 87" fill="none" xmlns="http://www.w3.org/2000/svg">
<rect x="1" y="1" width="119" height="85" fill="white" stroke="black" stroke-width="2"/>
<path d="M55.7605 49.4116C56.3365 49.3756 56.7685 49.2676 56.7685 48.9436C56.7685 48.3316 55.2565 47.1796 54.7885 47.1796C54.5725 47.1796 54.3925 47.2516 54.1045 47.3596C53.5645 47.5756 52.8445 47.6116 52.1245 47.6476L42.1525 48.0796C42.0085 47.8636 41.9365 47.6116 41.8285 47.3956C43.9525 46.3516 45.9325 45.1636 48.0205 43.3636C48.3445 43.0756 48.9565 42.8956 48.9565 42.4636C48.9565 42.0316 48.0205 40.9876 46.8325 40.9876H46.4725L34.6285 41.7436H34.3045C33.7285 41.7436 33.1885 41.6716 32.7565 41.5636C32.6845 41.5636 32.6485 41.5276 32.5765 41.5276C32.4685 41.5276 32.4325 41.5636 32.4325 41.6716C32.4325 42.0676 33.0445 43.0036 33.4405 43.3636C33.6925 43.5796 34.0885 43.6156 34.5925 43.6156C34.8805 43.6156 35.2045 43.6156 35.5645 43.5796L45.4645 42.9316C44.3125 44.0476 42.8365 45.0196 41.0725 45.9556C40.7485 45.4156 40.5325 45.1996 40.2445 45.1996C39.9925 45.1996 38.9125 45.5956 38.9125 46.2076C38.9125 46.4236 39.0565 46.6756 39.2725 47.0716C39.4885 47.4316 39.7045 47.7916 39.8845 48.1876L27.7885 48.7276H27.4285C26.8525 48.7276 26.3125 48.6556 25.8445 48.5116C25.7365 48.4756 25.6645 48.4756 25.5925 48.4756C25.4845 48.4756 25.4485 48.5116 25.4485 48.6196C25.4485 48.6556 25.4485 48.7276 25.4845 48.7996C26.0965 50.6356 27.2485 50.6716 27.6805 50.6716C27.9325 50.6716 28.2205 50.6356 28.5445 50.6356L40.5685 50.0956C40.8565 51.1396 41.0005 52.2556 41.0005 53.4436C41.0005 54.3436 40.9285 55.2796 40.7125 56.2156C40.6405 56.4316 40.6045 56.4676 40.4965 56.4676H40.3885C38.6965 56.1796 36.9685 55.6396 34.8805 54.6676C34.5205 54.5236 34.2325 54.4516 34.0525 54.4516C33.8365 54.4516 33.7285 54.5236 33.7285 54.6676C33.7285 55.5316 39.3805 59.0956 41.2525 59.0956C43.1245 59.0956 43.3045 55.4956 43.3045 53.5156C43.3045 52.5436 43.0885 51.2476 42.7645 49.9876L55.7605 49.4116ZM51.9805 32.5276C52.4125 32.4916 52.8085 32.3476 52.8085 32.0236C52.8085 31.5196 51.5845 30.3676 51.0085 30.3676C50.8645 30.3676 50.7205 30.4036 50.5765 30.4756C49.8925 30.7276 49.7125 30.7996 49.0285 30.8356L41.9005 31.2676V27.9916C41.9005 27.4156 41.7565 27.1996 40.6765 26.8396C40.0645 26.6236 39.6325 26.5156 39.3805 26.5156C39.1645 26.5156 39.0565 26.5876 39.0565 26.7316C39.0565 26.8396 39.1645 27.0196 39.3085 27.2716C39.5965 27.7396 39.7405 28.2076 39.7405 28.8196V31.4116L31.1725 31.9156H30.8485C30.2725 31.9156 29.6245 31.8436 29.1205 31.7356C29.0485 31.7356 28.9765 31.6996 28.9405 31.6996C28.8325 31.6996 28.7965 31.7356 28.7965 31.8436C28.7965 31.9516 29.0125 32.9596 29.8765 33.5716C30.1285 33.7516 30.3805 33.7876 30.8845 33.7876C31.1725 33.7876 31.5685 33.7876 32.1085 33.7516L37.8685 33.3916C34.4845 36.5956 30.1285 39.5836 25.7725 41.8876C25.2325 42.1756 24.9805 42.4996 24.9805 42.6796C24.9805 42.8236 25.0885 42.9316 25.3405 42.9316C25.9165 42.9316 34.0525 40.1596 39.7045 34.2196V36.9196C39.7045 37.8196 39.5965 38.5036 39.4525 39.2596C39.4165 39.3676 39.4165 39.4756 39.4165 39.5836C39.4165 40.3396 40.6405 41.0596 41.1805 41.0596C41.6125 41.0596 41.8645 40.6996 41.8645 40.0516V34.1116C48.3085 38.8996 55.4725 41.8876 55.9765 41.8876C56.8405 41.8876 57.6685 40.5196 57.6685 40.3396C57.6685 40.1596 57.4885 40.0156 57.0925 39.8716C52.4125 38.2876 47.5885 35.9116 43.1605 33.0676L51.9805 32.5276Z" fill="black"/>
<path d="M87.4765 56.5756C86.5765 56.3596 85.1365 55.9276 83.7325 55.3516C83.4085 55.2436 83.1565 55.1716 82.9765 55.1716C82.7605 55.1716 82.6525 55.2436 82.6525 55.3876C82.6525 56.1796 87.1885 59.1676 88.1965 59.1676C88.8085 59.1676 89.7085 58.3036 89.7085 57.4756C89.7085 57.1516 89.6365 56.7916 89.6365 56.3596L89.5285 43.9756C89.5285 43.6876 89.6365 43.4356 89.6365 43.1836C89.6365 42.4276 88.7725 41.9956 88.1245 41.9956H87.8725L78.5845 42.4636C77.3605 42.0676 76.6765 41.8516 76.3525 41.8516C76.1365 41.8516 76.0285 41.9236 76.0285 42.0676C76.0285 42.2476 76.1365 42.4636 76.2445 42.7876C76.4605 43.3996 76.4965 43.8676 76.4965 44.8396C76.4965 46.8556 76.2805 55.3516 75.8845 57.4036C75.8845 57.4756 75.8485 57.5836 75.8485 57.6556C75.8485 58.6996 77.2525 59.0596 77.5045 59.0596C77.9725 59.0596 78.2245 58.6636 78.2245 58.1956L78.3685 52.4356L87.4405 52.0756L87.4765 56.5756ZM92.9845 39.7636C93.4165 39.7276 93.7045 39.5116 93.7045 39.1876C93.7045 38.9356 93.5245 38.6476 93.1645 38.3236C92.5525 37.8196 92.2645 37.6756 92.0125 37.6756C91.9405 37.6756 91.8685 37.6756 91.7965 37.7116C91.3645 37.8916 91.0405 37.9636 90.4645 37.9996L83.6605 38.3956V36.0556L88.5205 35.7316C88.9885 35.6956 89.2405 35.5156 89.2405 35.2636C89.2405 34.6516 88.0525 33.8236 87.6205 33.8236C87.5485 33.8236 87.4765 33.8236 87.4045 33.8596C87.0085 34.0036 86.5765 34.1116 86.1445 34.1476L83.6605 34.3276L83.6965 32.2396L89.6365 31.8436C90.1045 31.8076 90.3925 31.5916 90.3925 31.3036C90.3925 30.6196 88.9525 29.8636 88.5925 29.8636C88.5205 29.8636 88.4845 29.8996 88.4125 29.8996C88.0165 30.0076 87.5485 30.1516 87.0445 30.1876L83.6965 30.4036V27.7756C83.6965 26.5156 81.5725 26.5156 81.4645 26.5156C81.1765 26.5156 81.0325 26.6236 81.0325 26.7676C81.0325 26.8396 81.0685 26.9476 81.1405 27.0916C81.4285 27.6316 81.5725 28.1716 81.5725 28.9996V30.5476L76.9285 30.8356H76.7485C76.3165 30.8356 75.6685 30.7636 75.1645 30.6556C75.0925 30.6556 75.0205 30.6196 74.9845 30.6196C74.8405 30.6196 74.7685 30.6916 74.7685 30.7996C74.7685 30.8356 75.0205 32.6716 76.7485 32.6716C77.0005 32.6716 77.2165 32.6356 77.3965 32.6356L81.6085 32.3476V34.4716L78.3325 34.6876C78.1885 34.6876 78.0085 34.7236 77.8285 34.7236C77.4325 34.7236 77.0005 34.6516 76.5685 34.5436C76.4965 34.5076 76.4245 34.5076 76.3525 34.5076C76.2085 34.5076 76.1365 34.5796 76.1365 34.7236C76.1365 34.7956 76.1725 34.8676 76.2085 35.0116C76.3525 35.4076 76.7485 35.9476 77.1085 36.1996C77.3605 36.4156 77.7205 36.4516 78.0805 36.4516C78.2965 36.4516 78.5485 36.4156 78.8005 36.4156L81.6085 36.1996L81.6445 38.5396L74.9485 38.9356H74.6245C74.2645 38.9356 73.7245 38.8996 73.2925 38.7916C73.2205 38.7556 73.1485 38.7556 73.0765 38.7556C72.9325 38.7556 72.8965 38.8276 72.8965 38.9716C72.8965 39.1516 73.0765 39.9436 73.7605 40.6276C73.9405 40.8076 74.1925 40.8436 74.5885 40.8436C74.8405 40.8436 75.1285 40.8076 75.4885 40.8076L92.9845 39.7636ZM69.2965 49.4116C71.3845 44.2636 72.4645 40.2316 72.4645 40.1236C72.4645 39.2236 70.5925 38.7556 70.2685 38.7556C70.0165 38.7556 69.8365 38.8636 69.8365 39.1156C69.8365 39.1876 69.8725 39.2956 69.9085 39.4036C69.9805 39.6196 70.0165 39.7996 70.0165 40.0156C70.0165 40.2676 69.9805 40.5196 69.9085 40.7716C69.3685 43.2916 68.5045 46.6036 67.2805 49.9876C66.0925 50.3476 62.3485 51.4636 60.6925 51.4636C60.4045 51.4636 60.2965 51.5356 60.2965 51.6796C60.2965 51.9676 60.9085 52.9756 61.7365 53.5156C61.8805 53.5876 62.0605 53.6236 62.2765 53.6236C63.7165 53.6236 74.8045 49.1956 74.8045 48.0436C74.8045 47.8996 74.6605 47.7916 74.3725 47.7916C74.1565 47.7916 73.8325 47.8636 73.4365 48.0076C72.1405 48.4756 70.7365 48.9436 69.2965 49.4116ZM73.7245 37.8556C74.1925 37.8196 74.5165 37.5676 74.5165 37.2436C74.5165 36.5956 73.0045 35.6956 72.5725 35.6956C72.4645 35.6956 72.3565 35.7316 72.2485 35.7676C71.7805 35.9476 71.1685 36.0196 70.6285 36.0556L68.8285 36.1636L68.9005 31.1956C68.9005 30.2236 67.0285 30.1156 66.7765 30.1156C66.3805 30.1156 66.2005 30.2236 66.2005 30.4396C66.2005 30.5476 66.2365 30.6556 66.3085 30.7636C66.5605 31.2676 66.6685 31.6636 66.6685 32.1676L66.7405 36.2716L63.0685 36.4876H62.7085C62.2405 36.4876 61.7005 36.4516 61.1245 36.3076C61.0525 36.2716 60.9805 36.2716 60.9085 36.2716C60.7645 36.2716 60.6925 36.3436 60.6925 36.4876C60.6925 36.5596 60.6925 36.6676 60.7645 36.8116C60.9085 37.2076 61.1245 37.6036 61.4485 37.9636C61.7725 38.5756 62.6365 38.5756 62.8165 38.5756C63.1045 38.5756 63.4285 38.5756 63.8245 38.5396L73.7245 37.8556ZM87.4405 50.1316L78.4045 50.4916L78.4405 48.2956L87.4405 47.8996V50.1316ZM67.5325 47.8636C67.5325 47.7196 67.4965 47.5396 67.4245 47.3236C66.8125 45.1636 65.9125 42.5716 65.0485 40.3036C64.8685 39.8716 64.6885 39.6196 64.2925 39.6196C64.1845 39.6196 63.0325 39.6916 63.0325 40.4116C63.0325 40.5916 63.0685 40.8076 63.1765 41.0596C63.9685 43.1476 64.6885 45.4876 65.3005 47.9716C65.4445 48.5116 65.5885 48.8356 66.0205 48.8356C66.0925 48.8356 67.5325 48.6556 67.5325 47.8636ZM87.4045 46.0276L78.5125 46.4236L78.5485 44.4076L87.4045 43.9396V46.0276Z" fill="black"/>
</svg>
