<svg width="155" height="87" viewBox="0 0 155 87" fill="none" xmlns="http://www.w3.org/2000/svg">
<rect x="1" y="1" width="153" height="85" fill="white" stroke="black" stroke-width="2"/>
<path d="M49.1791 34.7687C49.6831 34.7327 50.1151 34.5527 50.1151 34.1927C50.1151 33.4007 48.6031 32.2487 48.0271 32.2487C47.9551 32.2487 47.8831 32.2487 47.8111 32.2847C47.3791 32.4287 46.6951 32.6087 46.1911 32.6447L31.0351 33.5447H30.5671C30.0271 33.5447 29.4871 33.5087 28.9831 33.3647C28.8751 33.3287 28.8031 33.3287 28.7671 33.3287C28.5871 33.3287 28.5151 33.4367 28.5151 33.5807C28.5151 33.9767 28.9111 35.0207 29.5951 35.5607C29.8111 35.7407 30.2071 35.7767 30.7111 35.7767C31.0351 35.7767 31.3591 35.7767 31.7551 35.7407L49.1791 34.7687ZM55.0831 51.2567C55.5871 51.2207 55.9831 51.0407 55.9831 50.6447C55.9831 49.8527 54.3631 48.6647 53.7151 48.6647C53.5711 48.6647 53.4631 48.7007 53.3551 48.7367C52.8511 48.8807 52.1671 49.0247 51.5551 49.0607L26.7151 50.1047C26.4271 50.1047 26.1751 50.1407 25.8871 50.1407C25.3111 50.1407 24.7711 50.0687 24.3391 49.9607C24.2671 49.9247 24.1951 49.9247 24.1231 49.9247C23.9431 49.9247 23.8711 49.9967 23.8711 50.1767C23.8711 50.8607 24.8791 52.0127 25.0231 52.1207C25.3471 52.3727 25.7431 52.4447 26.3191 52.4447C26.6431 52.4447 27.0031 52.4447 27.4711 52.4087L55.0831 51.2567Z" fill="black"/>
<path d="M74.6671 43.6607C75.2071 43.6247 75.6031 43.5887 75.6031 43.2647C75.6031 43.0127 75.3151 42.5807 74.5951 41.7887L75.3871 32.9687C75.4231 32.6087 75.6031 32.3207 75.6031 32.0327C75.6031 31.2047 74.4151 30.7727 73.9471 30.7727C73.8031 30.7727 73.6951 30.8087 73.5511 30.8087L70.2391 31.0607L70.2751 26.8847C70.2751 26.0927 68.7271 25.8047 68.1511 25.8047C67.7551 25.8047 67.5031 25.9127 67.5031 26.0927C67.5031 26.2007 67.5391 26.2727 67.6471 26.3807C67.9351 26.7047 68.0791 27.1367 68.0791 27.6047L68.1511 31.2047L65.4151 31.3847C64.0471 30.7367 63.3271 30.4847 62.9671 30.4847C62.7511 30.4847 62.7151 30.5927 62.7151 30.7367C62.7151 30.8087 62.7151 30.9167 62.7511 31.0247C63.0391 31.9607 63.1111 32.8607 63.1111 33.7967L63.1831 52.5167L62.7511 52.6607C62.1391 52.8767 61.4551 53.0207 60.6271 53.0567C60.3391 53.0927 60.1951 53.1647 60.1951 53.3447C60.1951 53.4167 60.1951 53.5247 60.2671 53.6327C60.9511 54.9287 61.9591 55.2527 62.2831 55.2527C62.4271 55.2527 64.2271 55.1447 72.9031 50.4647C73.5511 51.3287 74.2351 52.2647 74.9191 53.3807C75.1351 53.7047 75.3511 53.9567 75.7111 53.9567C75.9631 53.9567 77.2231 53.4167 77.2231 52.6607C77.2231 52.4447 77.1151 52.1927 76.8991 51.9047C74.9191 49.0967 71.1391 44.8847 70.3111 44.8847C70.2031 44.8847 69.0151 45.2447 69.0151 45.9647C69.0151 46.1447 69.1231 46.3247 69.2671 46.4687C70.1671 47.3687 70.9591 48.1967 71.7511 49.0967C69.1951 50.3207 67.2871 51.0767 65.4151 51.7607L65.3431 44.0207L74.6671 43.6607ZM79.0951 53.7407C79.0951 55.3607 78.9871 56.1887 78.8431 57.1247C78.8071 57.2327 78.8071 57.3407 78.8071 57.4487C78.8071 58.4207 80.4991 59.0327 80.8591 59.0327C81.2551 59.0327 81.3991 58.7087 81.3991 58.2407L81.2911 31.4567L88.1671 31.0607C86.9071 33.4007 85.9711 35.4527 84.5671 37.4327C84.2791 37.8647 84.1351 38.2247 84.1351 38.5847C84.1351 38.9447 84.3151 39.3047 84.6391 39.5567C86.4031 41.0327 87.9511 42.5807 88.7431 44.5967C89.1031 45.5327 89.3551 46.3607 89.3551 47.1887C89.3551 47.6207 89.2831 48.0527 89.1391 48.5207C89.1031 48.7007 88.9951 48.7367 88.8871 48.7367C88.8151 48.7367 88.7071 48.7367 88.6351 48.7007C86.9431 48.3047 85.1791 47.7647 83.5591 47.0807C83.0911 46.8647 82.6951 46.7927 82.4791 46.7927C82.2991 46.7927 82.1911 46.8647 82.1911 46.9727C82.1911 47.9447 87.8431 51.4727 89.5711 51.4727C91.5871 51.4727 91.6231 48.0527 91.6231 47.4407C91.6231 43.1927 88.5271 40.2047 86.8711 38.8007C86.6191 38.5847 86.4751 38.4407 86.4751 38.2967C86.4751 38.1887 86.5111 38.0807 86.6191 37.9727C88.0951 35.9567 89.3551 33.8327 90.7231 31.1327C90.8311 30.9167 91.2271 30.5927 91.2271 30.2327C91.2271 29.6567 90.2191 29.1527 89.6071 29.1527C89.4631 29.1527 89.3191 29.1887 89.1391 29.1887L81.5431 29.6927C79.9951 29.0807 79.1671 28.7927 78.7351 28.7927C78.5191 28.7927 78.4111 28.9007 78.4111 29.0447C78.4111 29.2247 78.5191 29.5127 78.6631 29.8367C79.0591 30.8447 79.0591 31.8167 79.0591 33.5447L79.0951 53.7407ZM72.5431 41.8967L65.3431 42.1847L65.3071 38.4047L72.7951 38.0087L72.5431 41.8967ZM72.9031 36.2087L65.3071 36.6407L65.2711 33.2207L73.1191 32.6807L72.9031 36.2087Z" fill="black"/>
<path d="M116.607 57.1607C116.607 58.3127 118.371 58.6007 118.407 58.6007C118.767 58.6007 118.983 58.3487 118.983 57.8807L119.019 47.4767L125.571 47.1887C126.003 47.1527 126.291 47.0447 126.291 46.7207C126.291 46.4327 126.075 46.0007 125.463 45.3167L126.579 35.1287C126.615 34.8407 126.831 34.5527 126.831 34.1927C126.831 33.3287 125.751 32.7887 124.995 32.7887H124.815L119.055 33.1127V27.5687C119.055 26.2727 117.147 25.9847 116.679 25.9847C116.391 25.9847 116.283 26.0567 116.283 26.2367C116.283 26.3447 116.319 26.4527 116.391 26.5967C116.787 27.3167 116.931 27.7847 116.931 28.5767L116.895 33.2567L111.891 33.5447C110.703 33.0767 109.947 32.8607 109.551 32.8607C109.263 32.8607 109.119 32.9687 109.119 33.1847C109.119 33.2927 109.191 33.4367 109.263 33.6167C109.515 34.1927 109.659 34.9487 109.731 35.7767L110.451 45.3887C110.487 45.8207 110.487 46.1807 110.487 46.5047C110.487 46.9727 110.487 47.3327 110.451 47.8007V47.9447C110.451 48.4127 110.631 48.7007 111.495 49.2407C111.747 49.3847 111.963 49.4567 112.143 49.4567C112.503 49.4567 112.755 49.2047 112.755 48.8087V48.7367L112.683 47.7647L116.823 47.5847L116.787 53.3807C116.787 54.6767 116.715 55.9007 116.607 56.9447V57.1607ZM101.955 53.4527C101.955 53.9927 101.847 55.6487 101.703 56.3687C101.703 56.4767 101.667 56.5487 101.667 56.6207C101.667 57.3767 102.891 58.2047 103.503 58.2047C103.899 58.2047 104.151 57.8087 104.151 57.2327L104.187 43.7687C105.339 44.7767 106.491 45.8567 107.391 46.9007C107.643 47.2247 107.895 47.4047 108.111 47.4047C108.507 47.4047 109.263 46.4327 109.263 45.9287C109.263 45.6047 108.687 44.7407 104.187 41.6087V41.4287C105.699 39.3047 107.967 35.1647 107.967 34.9127C107.967 34.5167 107.427 33.7607 106.491 33.7607C106.311 33.7607 106.095 33.7607 105.807 33.7967L98.8231 34.5527C98.5711 34.5887 98.3191 34.5887 98.0671 34.5887C97.5991 34.5887 97.1671 34.5527 96.7711 34.4807H96.5911C96.4111 34.4807 96.3031 34.5527 96.3031 34.6967C96.3031 34.7687 96.5551 35.6687 97.4911 36.4607C97.7431 36.6407 97.9951 36.7127 98.3551 36.7127C98.6791 36.7127 99.1111 36.6407 99.6151 36.6047L104.907 35.9927C102.567 40.8167 99.4351 44.9207 95.6911 48.3767C95.2231 48.8087 95.0431 49.1327 95.0431 49.3487C95.0431 49.4927 95.1151 49.5647 95.2951 49.5647C95.9431 49.5647 99.2911 47.2247 102.171 43.9847L101.955 53.4527ZM123.483 45.3527L119.019 45.5687V40.9247L123.843 40.6727L123.483 45.3527ZM123.987 38.8367L119.019 39.0887L119.055 35.0207L124.311 34.6967L123.987 38.8367ZM116.823 45.6767L112.575 45.8927L112.287 41.2847L116.859 41.0327L116.823 45.6767ZM116.859 39.1967L112.143 39.4487L111.891 35.4527L116.895 35.1287L116.859 39.1967ZM105.915 31.5287C105.915 30.5567 101.307 26.5247 100.695 26.5247C100.335 26.5247 99.6871 27.0647 99.6871 27.5327C99.6871 27.7127 99.7951 27.9287 100.011 28.1087C101.199 29.2607 102.675 30.8807 103.755 32.3567C103.971 32.6447 104.187 32.8607 104.439 32.8607C104.871 32.8607 105.915 31.9607 105.915 31.5287Z" fill="black"/>
</svg>
