<svg width="139" height="145" viewBox="0 0 139 145" fill="none" xmlns="http://www.w3.org/2000/svg">
<path d="M102.76 133.998C106.12 133.838 109.16 133.998 109.16 131.918C109.16 130.478 107.88 128.238 104.52 124.558L109.64 96.5583C109.8 95.4383 110.44 94.4783 110.44 93.1983C110.44 89.9983 106.28 87.2783 102.44 87.2783H100.68L40.8395 89.8383C34.4395 87.4383 30.9195 86.3183 29.1595 86.3183C27.8795 86.3183 27.3995 86.7983 27.3995 87.7583C27.3995 88.3983 27.5595 89.0383 27.8795 89.9983C28.9995 92.8783 29.4795 97.0383 29.7995 99.4383L32.3595 123.918C32.5195 125.838 32.6795 127.598 32.6795 129.358C32.6795 131.598 32.5195 133.998 32.1995 136.398C32.1995 136.878 32.0395 137.198 32.0395 137.518C32.0395 142.638 39.7195 144.558 40.9995 144.558C42.9195 144.558 43.8795 143.118 43.8795 141.518V141.038L43.3995 134.958L102.76 133.998ZM111.72 69.8383C113.8 69.6783 115.56 69.0383 115.56 67.5983C115.56 64.2383 108.68 59.5983 106.6 59.5983C105.96 59.5983 105.32 59.7583 104.68 60.0783C102.28 61.0383 100.36 61.5183 97.4795 61.6783L73.4795 62.7983L73.6395 39.2783L134.44 36.0783C136.52 35.9183 138.28 35.2783 138.28 33.8383C138.28 30.3183 131.24 25.6783 128.84 25.6783C128.2 25.6783 127.56 25.8383 126.92 25.9983C124.36 26.7983 121.96 27.4383 119.4 27.5983L73.7995 30.1583L73.9595 6.47829C73.9595 1.99829 64.8395 0.238281 62.4395 0.238281C61.1595 0.238281 60.3595 0.718285 60.3595 1.51828C60.3595 1.99829 60.5195 2.47828 60.9995 3.27828C62.4395 5.51828 63.2395 7.59828 63.2395 10.3183V30.6383L10.7595 33.5183H8.67953C6.43953 33.5183 4.19953 33.3583 2.27953 32.7183C1.79953 32.5583 1.31953 32.5583 1.15953 32.5583C0.679532 32.5583 0.519531 32.7183 0.519531 33.1983C0.519531 34.6383 2.75953 42.6383 9.95953 42.6383C11.2395 42.6383 12.6795 42.4783 14.2795 42.4783L63.2395 39.9183V63.2783L30.7595 64.7183H28.6795C26.4395 64.7183 24.3595 64.5583 22.4395 63.9183C22.1195 63.7583 21.7995 63.7583 21.4795 63.7583C20.9995 63.7583 20.8395 63.9183 20.8395 64.3983C20.8395 64.5583 20.8395 65.0383 20.9995 65.3583C23.7195 73.6783 28.9995 73.6783 31.0795 73.6783C32.0395 73.6783 33.1595 73.5183 34.4395 73.5183L111.72 69.8383ZM94.4395 124.878L42.5995 126.158L40.3595 98.4783L98.5995 96.3983L94.4395 124.878Z" fill="black"/>
</svg>
